<svg width="14" height="15" viewBox="0 0 14 15" fill="none" xmlns="http://www.w3.org/2000/svg">
<g clip-path="url(#clip0_447_18258)">
<path d="M6.99962 11.6547C6.67696 11.7941 6.35977 11.9199 6.04532 12.0238C6.50196 12.948 6.89298 13 6.99962 13C7.10626 13 7.49454 12.948 7.95391 12.0238C7.64219 11.9172 7.32227 11.7941 6.99962 11.6547ZM12.1949 7.75C13.0973 8.98594 13.4063 10.2355 12.8402 11.25C12.2879 12.2426 11.1313 12.598 9.69024 12.4313C9.08868 13.8559 8.16993 14.75 6.99962 14.75C5.8293 14.75 4.91055 13.8559 4.30899 12.4313C2.86798 12.598 1.71134 12.2453 1.15899 11.25C0.592976 10.2355 0.90196 8.98594 1.8043 7.75C0.90196 6.51406 0.592976 5.26445 1.15899 4.25C1.71134 3.25742 2.86798 2.90195 4.30899 3.06875C4.91055 1.64414 5.8293 0.75 6.99962 0.75C8.16993 0.75 9.08868 1.64414 9.69024 3.06875C11.1313 2.90195 12.2879 3.25469 12.8402 4.25C13.4063 5.26445 13.0973 6.51406 12.1949 7.75ZM10.3957 9.59297C10.3492 9.98125 10.2891 10.3586 10.2125 10.7195C11.082 10.7578 11.268 10.4816 11.3117 10.3996C11.3746 10.2848 11.5031 9.91016 10.9863 9.08437C10.8004 9.25664 10.6035 9.42617 10.3957 9.59297ZM10.2125 4.7832C10.2891 5.14141 10.3492 5.51875 10.3957 5.90977C10.6035 6.07656 10.8004 6.24609 10.9863 6.41836C11.5031 5.59258 11.3746 5.21523 11.3117 5.10313C11.268 5.02383 11.082 4.74766 10.2125 4.7832ZM7.95391 3.47617C7.49454 2.55195 7.10626 2.5 6.99962 2.5C6.89298 2.5 6.50469 2.55195 6.04532 3.47617C6.35704 3.58281 6.67696 3.70586 6.99962 3.84531C7.32227 3.70586 7.63946 3.58008 7.95391 3.47617ZM3.60626 5.90703C3.65274 5.51602 3.7129 5.14141 3.78946 4.78047C2.91993 4.74219 2.73399 5.01836 2.69024 5.10039C2.62735 5.21523 2.49884 5.58984 3.01563 6.41563C3.20157 6.24336 3.39844 6.07383 3.60626 5.90703ZM3.0129 9.08437C2.49883 9.91016 2.62462 10.2848 2.68751 10.3996C2.73126 10.4789 2.91719 10.7551 3.78673 10.7195C3.71016 10.3613 3.65001 9.98398 3.60352 9.59297C3.39571 9.42617 3.19883 9.25664 3.0129 9.08437ZM9.18712 7.75C9.18712 7.16984 8.95665 6.61344 8.54641 6.2032C8.13618 5.79297 7.57978 5.5625 6.99962 5.5625C6.41946 5.5625 5.86306 5.79297 5.45282 6.2032C5.04258 6.61344 4.81212 7.16984 4.81212 7.75C4.81212 8.33016 5.04258 8.88656 5.45282 9.2968C5.86306 9.70703 6.41946 9.9375 6.99962 9.9375C7.57978 9.9375 8.13618 9.70703 8.54641 9.2968C8.95665 8.88656 9.18712 8.33016 9.18712 7.75ZM6.99962 6.875C7.23168 6.875 7.45424 6.96719 7.61833 7.13128C7.78243 7.29538 7.87462 7.51794 7.87462 7.75C7.87462 7.98206 7.78243 8.20462 7.61833 8.36872C7.45424 8.53281 7.23168 8.625 6.99962 8.625C6.76755 8.625 6.54499 8.53281 6.3809 8.36872C6.2168 8.20462 6.12462 7.98206 6.12462 7.75C6.12462 7.51794 6.2168 7.29538 6.3809 7.13128C6.54499 6.96719 6.76755 6.875 6.99962 6.875Z" fill="#FF8C42"/>
</g>
<defs>
<clipPath id="clip0_447_18258">
<path d="M0 0.75H14V14.75H0V0.75Z" fill="white"/>
</clipPath>
</defs>
</svg>
