<svg width="10" height="15" viewBox="0 0 10 15" fill="none" xmlns="http://www.w3.org/2000/svg">
<g clip-path="url(#clip0_447_18265)">
<path d="M5 2.5C4.27539 2.5 3.6875 3.08789 3.6875 3.8125V8.31055C3.6875 8.78359 3.49336 9.18281 3.26914 9.47266C2.98203 9.84453 2.8125 10.3066 2.8125 10.8125C2.8125 12.0211 3.79141 13 5 13C6.20859 13 7.1875 12.0211 7.1875 10.8125C7.1875 10.3066 7.01797 9.84453 6.73086 9.47539C6.50664 9.18555 6.3125 8.78633 6.3125 8.31328V3.8125C6.3125 3.08789 5.72461 2.5 5 2.5ZM1.9375 3.8125C1.9375 2.12266 3.30742 0.75 5 0.75C6.69258 0.75 8.0625 2.11992 8.0625 3.8125V8.31055C8.0625 8.31328 8.06523 8.31875 8.06797 8.32695C8.07344 8.34336 8.08984 8.3707 8.11445 8.40352C8.63125 9.0707 8.9375 9.90742 8.9375 10.8125C8.9375 12.9863 7.17383 14.75 5 14.75C2.82617 14.75 1.0625 12.9863 1.0625 10.8125C1.0625 9.90469 1.36875 9.06797 1.88555 8.40352C1.91016 8.3707 1.92656 8.34336 1.93203 8.32695C1.93477 8.31875 1.9375 8.31328 1.9375 8.31055V3.8125ZM6.3125 10.8125C6.3125 11.5371 5.72461 12.125 5 12.125C4.27539 12.125 3.6875 11.5371 3.6875 10.8125C3.6875 10.241 4.05391 9.7543 4.5625 9.57383V6.4375C4.5625 6.19688 4.75938 6 5 6C5.24062 6 5.4375 6.19688 5.4375 6.4375V9.57383C5.94609 9.7543 6.3125 10.241 6.3125 10.8125Z" fill="#9CAF88"/>
</g>
<defs>
<clipPath id="clip0_447_18265">
<path d="M0.625 0.75H9.375V14.75H0.625V0.75Z" fill="white"/>
</clipPath>
</defs>
</svg>
