<svg width="18" height="15" viewBox="0 0 18 15" fill="none" xmlns="http://www.w3.org/2000/svg">
<g clip-path="url(#clip0_447_18251)">
<path d="M3.75 2.5C3.75 2.01602 4.14102 1.625 4.625 1.625H9C9.48398 1.625 9.875 2.01602 9.875 2.5V12.125H12.5V7.75C12.5 7.26602 12.891 6.875 13.375 6.875H16.875C17.359 6.875 17.75 7.26602 17.75 7.75C17.75 8.23398 17.359 8.625 16.875 8.625H14.25V13C14.25 13.484 13.859 13.875 13.375 13.875H9C8.51602 13.875 8.125 13.484 8.125 13V3.375H5.5V7.75C5.5 8.23398 5.10898 8.625 4.625 8.625H1.125C0.641016 8.625 0.25 8.23398 0.25 7.75C0.25 7.26602 0.641016 6.875 1.125 6.875H3.75V2.5Z" fill="#355E3B"/>
</g>
<defs>
<clipPath id="clip0_447_18251">
<path d="M0.25 0.75H17.75V14.75H0.25V0.75Z" fill="white"/>
</clipPath>
</defs>
</svg>
