<svg width="364" height="128" viewBox="0 0 364 128" fill="none" xmlns="http://www.w3.org/2000/svg">
<path d="M363.328 128H0V0H363.328V128Z" fill="#3498DB" fill-opacity="0.1"/>
<path d="M363.328 128H0V0H363.328V128Z" stroke="#E5E7EB"/>
<path d="M181.656 83.2008C192.26 83.2008 200.856 74.6047 200.856 64.0008C200.856 53.3969 192.26 44.8008 181.656 44.8008C171.052 44.8008 162.456 53.3969 162.456 64.0008C162.456 74.6047 171.052 83.2008 181.656 83.2008Z" stroke="#3498DB" stroke-opacity="0.6" stroke-width="1.92"/>
<path d="M181.656 73.6004C186.958 73.6004 191.256 69.3023 191.256 64.0004C191.256 58.6985 186.958 54.4004 181.656 54.4004C176.354 54.4004 172.056 58.6985 172.056 64.0004C172.056 69.3023 176.354 73.6004 181.656 73.6004Z" stroke="#3498DB" stroke-opacity="0.6" stroke-width="0.96"/>
<path d="M162.456 44.8008L200.856 83.2008" stroke="#3498DB" stroke-opacity="0.6" stroke-width="0.96"/>
<path d="M162.456 83.2008L200.856 44.8008" stroke="#3498DB" stroke-opacity="0.6" stroke-width="0.96"/>
</svg>
