<svg width="364" height="128" viewBox="0 0 364 128" fill="none" xmlns="http://www.w3.org/2000/svg">
<path d="M363.656 128H0.328125V0H363.656V128Z" fill="#3498DB" fill-opacity="0.1"/>
<path d="M363.656 128H0.328125V0H363.656V128Z" stroke="#E5E7EB"/>
<path d="M181.984 83.2008C192.588 83.2008 201.184 74.6047 201.184 64.0008C201.184 53.3969 192.588 44.8008 181.984 44.8008C171.38 44.8008 162.784 53.3969 162.784 64.0008C162.784 74.6047 171.38 83.2008 181.984 83.2008Z" stroke="#3498DB" stroke-opacity="0.6" stroke-width="0.96"/>
<path d="M181.985 68.7992C184.636 68.7992 186.785 66.6502 186.785 63.9992C186.785 61.3483 184.636 59.1992 181.985 59.1992C179.334 59.1992 177.185 61.3483 177.185 63.9992C177.185 66.6502 179.334 68.7992 181.985 68.7992Z" fill="#3498DB" fill-opacity="0.6"/>
<path d="M181.985 78.3996C197.89 78.3996 210.785 71.9525 210.785 63.9996C210.785 56.0467 197.89 49.5996 181.985 49.5996C166.079 49.5996 153.185 56.0467 153.185 63.9996C153.185 71.9525 166.079 78.3996 181.985 78.3996Z" stroke="#3498DB" stroke-opacity="0.6" stroke-width="0.96" stroke-dasharray="1.92 1.92"/>
</svg>
