<svg width="80" height="113" viewBox="0 0 80 113" fill="none" xmlns="http://www.w3.org/2000/svg">
<path d="M4 1H76C77.933 1 79.5 2.567 79.5 4.5V108.5C79.5 110.433 77.933 112 76 112H4C2.067 112 0.5 110.433 0.5 108.5V4.5C0.5 2.567 2.067 1 4 1Z" fill="#F9FAFB"/>
<path d="M4 1H76C77.933 1 79.5 2.567 79.5 4.5V108.5C79.5 110.433 77.933 112 76 112H4C2.067 112 0.5 110.433 0.5 108.5V4.5C0.5 2.567 2.067 1 4 1Z" stroke="#E5E7EB"/>
<mask id="path-2-inside-1_55_733" fill="white">
<path d="M1 1.5H79V56.5H1V1.5Z"/>
</mask>
<path d="M1 1.5H79V56.5H1V1.5Z" fill="#FFF7ED"/>
<path d="M79 56.5V55.5H1V56.5V57.5H79V56.5Z" fill="#E5E7EB" mask="url(#path-2-inside-1_55_733)"/>
<path d="M75 14.5H5V5.5H75V14.5Z" stroke="#E5E7EB"/>
<path d="M9.2294 9.66406H8.29616C8.27912 9.54332 8.24432 9.43608 8.19176 9.34233C8.1392 9.24716 8.07173 9.16619 7.98935 9.09943C7.90696 9.03267 7.81179 8.98153 7.70384 8.94602C7.5973 8.91051 7.48153 8.89276 7.35653 8.89276C7.13068 8.89276 6.93395 8.94886 6.76634 9.06108C6.59872 9.17187 6.46875 9.33381 6.37642 9.54688C6.28409 9.75852 6.23793 10.0156 6.23793 10.3182C6.23793 10.6293 6.28409 10.8906 6.37642 11.1023C6.47017 11.3139 6.60085 11.4737 6.76847 11.5817C6.93608 11.6896 7.12997 11.7436 7.35014 11.7436C7.47372 11.7436 7.58807 11.7273 7.69318 11.6946C7.79972 11.6619 7.89418 11.6143 7.97656 11.5518C8.05895 11.4879 8.12713 11.4105 8.18111 11.3196C8.23651 11.2287 8.27486 11.125 8.29616 11.0085L9.2294 11.0128C9.20526 11.2131 9.14489 11.4062 9.0483 11.5923C8.95313 11.777 8.82457 11.9425 8.66264 12.0888C8.50213 12.2337 8.31037 12.3487 8.08736 12.4339C7.86577 12.5178 7.61506 12.5597 7.33523 12.5597C6.94602 12.5597 6.59801 12.4716 6.29119 12.2955C5.9858 12.1193 5.74432 11.8643 5.56676 11.5305C5.39062 11.1967 5.30256 10.7926 5.30256 10.3182C5.30256 9.84233 5.39205 9.4375 5.57102 9.10369C5.75 8.76989 5.9929 8.51562 6.29972 8.34091C6.60653 8.16477 6.9517 8.0767 7.33523 8.0767C7.58807 8.0767 7.82244 8.11222 8.03835 8.18324C8.25568 8.25426 8.44815 8.35795 8.61577 8.49432C8.78338 8.62926 8.91974 8.79474 9.02486 8.99077C9.13139 9.18679 9.19957 9.41122 9.2294 9.66406ZM10.8072 12.5618C10.5984 12.5618 10.4123 12.5256 10.2489 12.4531C10.0856 12.3793 9.95632 12.2706 9.86115 12.1271C9.7674 11.9822 9.72053 11.8018 9.72053 11.5859C9.72053 11.4041 9.75391 11.2514 9.82067 11.1278C9.88743 11.0043 9.97834 10.9048 10.0934 10.8295C10.2085 10.7543 10.3391 10.6974 10.4854 10.6591C10.6332 10.6207 10.788 10.5938 10.9499 10.5781C11.1403 10.5582 11.2937 10.5398 11.4102 10.5227C11.5266 10.5043 11.6112 10.4773 11.6637 10.4418C11.7163 10.4062 11.7425 10.3537 11.7425 10.2841V10.2713C11.7425 10.1364 11.6999 10.032 11.6147 9.9581C11.5309 9.88423 11.4116 9.8473 11.2567 9.8473C11.0934 9.8473 10.9634 9.88352 10.8668 9.95597C10.7702 10.027 10.7063 10.1165 10.6751 10.2244L9.83558 10.1562C9.8782 9.95739 9.962 9.78551 10.087 9.64062C10.212 9.49432 10.3732 9.3821 10.5707 9.30398C10.7695 9.22443 10.9996 9.18466 11.261 9.18466C11.4428 9.18466 11.6168 9.20597 11.783 9.24858C11.9506 9.29119 12.0991 9.35724 12.2283 9.44673C12.359 9.53622 12.462 9.65128 12.5373 9.7919C12.6126 9.93111 12.6502 10.098 12.6502 10.2926V12.5H11.7894V12.0462H11.7638C11.7113 12.1484 11.641 12.2386 11.5529 12.3168C11.4648 12.3935 11.359 12.4538 11.2354 12.4979C11.1119 12.5405 10.9691 12.5618 10.8072 12.5618ZM11.0671 11.9354C11.2006 11.9354 11.3185 11.9091 11.4208 11.8565C11.5231 11.8026 11.6033 11.7301 11.6616 11.6392C11.7198 11.5483 11.7489 11.4453 11.7489 11.3303V10.983C11.7205 11.0014 11.6815 11.0185 11.6317 11.0341C11.5835 11.0483 11.5288 11.0618 11.4677 11.0746C11.4066 11.0859 11.3455 11.0966 11.2844 11.1065C11.2234 11.1151 11.168 11.1229 11.1183 11.13C11.0117 11.1456 10.9187 11.1705 10.8391 11.2045C10.7596 11.2386 10.6978 11.2848 10.6538 11.343C10.6097 11.3999 10.5877 11.4709 10.5877 11.5561C10.5877 11.6797 10.6325 11.7741 10.7219 11.8395C10.8129 11.9034 10.9279 11.9354 11.0671 11.9354ZM15.4531 11.1065V9.22727H16.3608V12.5H15.4893V11.9055H15.4553C15.3814 12.0973 15.2585 12.2514 15.0866 12.3679C14.9162 12.4844 14.7081 12.5426 14.4624 12.5426C14.2436 12.5426 14.0511 12.4929 13.8849 12.3935C13.7188 12.294 13.5888 12.1527 13.495 11.9695C13.4027 11.7862 13.3558 11.5668 13.3544 11.3111V9.22727H14.2621V11.1491C14.2635 11.3423 14.3153 11.495 14.4176 11.6072C14.5199 11.7195 14.657 11.7756 14.8288 11.7756C14.9382 11.7756 15.0405 11.7507 15.1357 11.701C15.2308 11.6499 15.3075 11.5746 15.3658 11.4751C15.4254 11.3757 15.4545 11.2528 15.4531 11.1065ZM19.8098 10.1605L18.9789 10.2116C18.9647 10.1406 18.9341 10.0767 18.8873 10.0199C18.8404 9.96165 18.7786 9.91548 18.7019 9.88139C18.6266 9.84588 18.5364 9.82812 18.4313 9.82812C18.2907 9.82812 18.1721 9.85795 18.0755 9.91761C17.9789 9.97585 17.9306 10.054 17.9306 10.152C17.9306 10.2301 17.9618 10.2962 18.0243 10.3501C18.0868 10.4041 18.1941 10.4474 18.3461 10.4801L18.9384 10.5994C19.2566 10.6648 19.4938 10.7699 19.65 10.9148C19.8063 11.0597 19.8844 11.25 19.8844 11.4858C19.8844 11.7003 19.8212 11.8885 19.6948 12.0504C19.5698 12.2124 19.3979 12.3388 19.1792 12.4297C18.9618 12.5192 18.7111 12.5639 18.427 12.5639C17.9938 12.5639 17.6486 12.4737 17.3915 12.2933C17.1358 12.1115 16.986 11.8643 16.9419 11.5518L17.8347 11.505C17.8617 11.6371 17.927 11.7379 18.0307 11.8075C18.1344 11.8757 18.2672 11.9098 18.4292 11.9098C18.5882 11.9098 18.7161 11.8793 18.8127 11.8182C18.9107 11.7557 18.9604 11.6754 18.9618 11.5774C18.9604 11.495 18.9256 11.4276 18.8574 11.375C18.7892 11.321 18.6841 11.2798 18.5421 11.2514L17.9753 11.1385C17.6557 11.0746 17.4178 10.9638 17.2615 10.8061C17.1067 10.6484 17.0293 10.4474 17.0293 10.2031C17.0293 9.9929 17.0861 9.81179 17.1998 9.6598C17.3148 9.50781 17.476 9.39062 17.6834 9.30824C17.8922 9.22585 18.1365 9.18466 18.4164 9.18466C18.8297 9.18466 19.155 9.27202 19.3922 9.44673C19.6309 9.62145 19.7701 9.85937 19.8098 10.1605ZM21.9474 12.5639C21.6108 12.5639 21.321 12.4957 21.0781 12.3594C20.8366 12.2216 20.6506 12.027 20.5199 11.7756C20.3892 11.5227 20.3239 11.2237 20.3239 10.8786C20.3239 10.5419 20.3892 10.2464 20.5199 9.99219C20.6506 9.73793 20.8345 9.53977 21.0717 9.39773C21.3104 9.25568 21.5902 9.18466 21.9112 9.18466C22.1271 9.18466 22.3281 9.21946 22.5142 9.28906C22.7017 9.35724 22.8651 9.46023 23.0043 9.59801C23.1449 9.7358 23.2543 9.90909 23.3324 10.1179C23.4105 10.3253 23.4496 10.5682 23.4496 10.8466V11.0959H20.6861V10.5334H22.5952C22.5952 10.4027 22.5668 10.2869 22.5099 10.1861C22.4531 10.0852 22.3743 10.0064 22.2734 9.94957C22.174 9.89134 22.0582 9.86222 21.9261 9.86222C21.7884 9.86222 21.6662 9.89418 21.5597 9.9581C21.4545 10.0206 21.3722 10.1051 21.3125 10.2116C21.2528 10.3168 21.2223 10.4339 21.2209 10.5632V11.098C21.2209 11.2599 21.2507 11.3999 21.3104 11.5178C21.3714 11.6357 21.4574 11.7266 21.5682 11.7905C21.679 11.8544 21.8104 11.8864 21.9624 11.8864C22.0632 11.8864 22.1555 11.8722 22.2393 11.8438C22.3232 11.8153 22.3949 11.7727 22.4545 11.7159C22.5142 11.6591 22.5597 11.5895 22.5909 11.5071L23.4304 11.5625C23.3878 11.7642 23.3004 11.9403 23.1683 12.0909C23.0376 12.2401 22.8686 12.3565 22.6612 12.4403C22.4553 12.5227 22.2173 12.5639 21.9474 12.5639Z" fill="#EA580C"/>
<path d="M73 18.5C74.1046 18.5 75 19.3954 75 20.5C75 21.6046 74.1046 22.5 73 22.5H7C5.89543 22.5 5 21.6046 5 20.5C5 19.3954 5.89543 18.5 7 18.5H73Z" fill="#FED7AA"/>
<path d="M73 18.5C74.1046 18.5 75 19.3954 75 20.5C75 21.6046 74.1046 22.5 73 22.5H7C5.89543 22.5 5 21.6046 5 20.5C5 19.3954 5.89543 18.5 7 18.5H73Z" stroke="#E5E7EB"/>
<path d="M55.5 26.5C56.6046 26.5 57.5 27.3954 57.5 28.5C57.5 29.6046 56.6046 30.5 55.5 30.5H7C5.89543 30.5 5 29.6046 5 28.5C5 27.3954 5.89543 26.5 7 26.5H55.5Z" fill="#FED7AA"/>
<path d="M55.5 26.5C56.6046 26.5 57.5 27.3954 57.5 28.5C57.5 29.6046 56.6046 30.5 55.5 30.5H7C5.89543 30.5 5 29.6046 5 28.5C5 27.3954 5.89543 26.5 7 26.5H55.5Z" stroke="#E5E7EB"/>
<path d="M79 111.5H1V56.5H79V111.5Z" fill="#F5F3FF"/>
<path d="M79 111.5H1V56.5H79V111.5Z" stroke="#E5E7EB"/>
<path d="M75 69.5H5V60.5H75V69.5Z" stroke="#E5E7EB"/>
<path d="M5.37926 67.5V63.1364H8.3196V63.897H6.30185V64.9368H8.16832V65.6974H6.30185V66.7393H8.32812V67.5H5.37926ZM10.796 64.2273V64.9091H8.7761V64.2273H10.796ZM9.23846 67.5V63.9908C9.23846 63.7536 9.28462 63.5568 9.37695 63.4006C9.4707 63.2443 9.59854 63.1271 9.76048 63.049C9.92241 62.9709 10.1064 62.9318 10.3123 62.9318C10.4515 62.9318 10.5787 62.9425 10.6937 62.9638C10.8102 62.9851 10.8968 63.0043 10.9537 63.0213L10.7917 63.7031C10.7562 63.6918 10.7122 63.6811 10.6596 63.6712C10.6085 63.6612 10.5559 63.6562 10.502 63.6562C10.3684 63.6562 10.2754 63.6875 10.2228 63.75C10.1703 63.8111 10.144 63.897 10.144 64.0078V67.5H9.23846ZM13.1104 64.2273V64.9091H11.0906V64.2273H13.1104ZM11.5529 67.5V63.9908C11.5529 63.7536 11.5991 63.5568 11.6914 63.4006C11.7852 63.2443 11.913 63.1271 12.0749 63.049C12.2369 62.9709 12.4208 62.9318 12.6268 62.9318C12.766 62.9318 12.8931 62.9425 13.0082 62.9638C13.1246 62.9851 13.2113 63.0043 13.2681 63.0213L13.1062 63.7031C13.0707 63.6918 13.0266 63.6811 12.9741 63.6712C12.9229 63.6612 12.8704 63.6562 12.8164 63.6562C12.6829 63.6562 12.5898 63.6875 12.5373 63.75C12.4847 63.8111 12.4585 63.897 12.4585 64.0078V67.5H11.5529ZM15.0392 67.5639C14.7026 67.5639 14.4128 67.4957 14.1699 67.3594C13.9284 67.2216 13.7424 67.027 13.6117 66.7756C13.481 66.5227 13.4157 66.2237 13.4157 65.8786C13.4157 65.5419 13.481 65.2464 13.6117 64.9922C13.7424 64.7379 13.9263 64.5398 14.1635 64.3977C14.4022 64.2557 14.682 64.1847 15.003 64.1847C15.2189 64.1847 15.4199 64.2195 15.606 64.2891C15.7935 64.3572 15.9569 64.4602 16.0961 64.598C16.2367 64.7358 16.3461 64.9091 16.4242 65.1179C16.5023 65.3253 16.5414 65.5682 16.5414 65.8466V66.0959H13.7779V65.5334H15.687C15.687 65.4027 15.6586 65.2869 15.6017 65.1861C15.5449 65.0852 15.4661 65.0064 15.3652 64.9496C15.2658 64.8913 15.15 64.8622 15.0179 64.8622C14.8801 64.8622 14.758 64.8942 14.6515 64.9581C14.5463 65.0206 14.464 65.1051 14.4043 65.2116C14.3446 65.3168 14.3141 65.4339 14.3127 65.5632V66.098C14.3127 66.2599 14.3425 66.3999 14.4022 66.5178C14.4632 66.6357 14.5492 66.7266 14.66 66.7905C14.7708 66.8544 14.9022 66.8864 15.0542 66.8864C15.155 66.8864 15.2473 66.8722 15.3311 66.8438C15.415 66.8153 15.4867 66.7727 15.5463 66.7159C15.606 66.6591 15.6515 66.5895 15.6827 66.5071L16.5222 66.5625C16.4796 66.7642 16.3922 66.9403 16.2601 67.0909C16.1294 67.2401 15.9604 67.3565 15.753 67.4403C15.5471 67.5227 15.3091 67.5639 15.0392 67.5639ZM18.6124 67.5639C18.2772 67.5639 17.9888 67.4929 17.7473 67.3509C17.5073 67.2074 17.3226 67.0085 17.1934 66.7543C17.0655 66.5 17.0016 66.2074 17.0016 65.8764C17.0016 65.5412 17.0662 65.2472 17.1955 64.9943C17.3262 64.7401 17.5115 64.5419 17.7516 64.3999C17.9917 64.2564 18.2772 64.1847 18.6081 64.1847C18.8936 64.1847 19.1436 64.2365 19.3581 64.3402C19.5726 64.4439 19.7424 64.5895 19.8674 64.777C19.9924 64.9645 20.0613 65.1847 20.074 65.4375H19.2175C19.1934 65.2741 19.1294 65.1428 19.0257 65.0433C18.9235 64.9425 18.7892 64.892 18.623 64.892C18.4824 64.892 18.3596 64.9304 18.2544 65.0071C18.1507 65.0824 18.0698 65.1925 18.0115 65.3374C17.9533 65.4822 17.9242 65.6577 17.9242 65.8636C17.9242 66.0724 17.9526 66.25 18.0094 66.3963C18.0676 66.5426 18.1493 66.6541 18.2544 66.7308C18.3596 66.8075 18.4824 66.8459 18.623 66.8459C18.7267 66.8459 18.8198 66.8246 18.9022 66.782C18.986 66.7393 19.0549 66.6776 19.1088 66.5966C19.1642 66.5142 19.2005 66.4155 19.2175 66.3004H20.074C20.0598 66.5504 19.9917 66.7706 19.8695 66.9609C19.7488 67.1499 19.5819 67.2976 19.3688 67.4041C19.1557 67.5107 18.9036 67.5639 18.6124 67.5639ZM22.396 64.2273V64.9091H20.4251V64.2273H22.396ZM20.8725 63.4432H21.7802V66.4943C21.7802 66.5781 21.793 66.6435 21.8185 66.6903C21.8441 66.7358 21.8796 66.7678 21.9251 66.7862C21.9719 66.8047 22.0259 66.8139 22.087 66.8139C22.1296 66.8139 22.1722 66.8104 22.2148 66.8033C22.2575 66.7947 22.2901 66.7884 22.3129 66.7841L22.4556 67.4595C22.4102 67.4737 22.3462 67.4901 22.2638 67.5085C22.1815 67.5284 22.0813 67.5405 21.9634 67.5447C21.7447 67.5533 21.5529 67.5241 21.3881 67.4574C21.2248 67.3906 21.0977 67.2869 21.0067 67.1463C20.9158 67.0057 20.8711 66.8281 20.8725 66.6136V63.4432Z" fill="#7C3AED"/>
<path d="M73 73.5C74.1046 73.5 75 74.3954 75 75.5C75 76.6046 74.1046 77.5 73 77.5H7C5.89543 77.5 5 76.6046 5 75.5C5 74.3954 5.89543 73.5 7 73.5H73Z" fill="#DDD6FE"/>
<path d="M73 73.5C74.1046 73.5 75 74.3954 75 75.5C75 76.6046 74.1046 77.5 73 77.5H7C5.89543 77.5 5 76.6046 5 75.5C5 74.3954 5.89543 73.5 7 73.5H73Z" stroke="#E5E7EB"/>
<path d="M55.5 81.5C56.6046 81.5 57.5 82.3954 57.5 83.5C57.5 84.6046 56.6046 85.5 55.5 85.5H7C5.89543 85.5 5 84.6046 5 83.5C5 82.3954 5.89543 81.5 7 81.5H55.5Z" fill="#DDD6FE"/>
<path d="M55.5 81.5C56.6046 81.5 57.5 82.3954 57.5 83.5C57.5 84.6046 56.6046 85.5 55.5 85.5H7C5.89543 85.5 5 84.6046 5 83.5C5 82.3954 5.89543 81.5 7 81.5H55.5Z" stroke="#E5E7EB"/>
</svg>
