<svg width="80" height="113" viewBox="0 0 80 113" fill="none" xmlns="http://www.w3.org/2000/svg">
<path d="M4 1H76C77.933 1 79.5 2.567 79.5 4.5V108.5C79.5 110.433 77.933 112 76 112H4C2.067 112 0.5 110.433 0.5 108.5V4.5C0.5 2.567 2.067 1 4 1Z" fill="#F9FAFB"/>
<path d="M4 1H76C77.933 1 79.5 2.567 79.5 4.5V108.5C79.5 110.433 77.933 112 76 112H4C2.067 112 0.5 110.433 0.5 108.5V4.5C0.5 2.567 2.067 1 4 1Z" stroke="#E5E7EB"/>
<path d="M1 1.5H40V111.5H1V1.5Z" fill="#EFF6FF"/>
<path d="M33 5.5C34.1046 5.5 35 6.39543 35 7.5C35 8.60457 34.1046 9.5 33 9.5H7C5.89543 9.5 5 8.60457 5 7.5C5 6.39543 5.89543 5.5 7 5.5H33Z" fill="#BFDBFE"/>
<path d="M33 5.5C34.1046 5.5 35 6.39543 35 7.5C35 8.60457 34.1046 9.5 33 9.5H7C5.89543 9.5 5 8.60457 5 7.5C5 6.39543 5.89543 5.5 7 5.5H33Z" stroke="#E5E7EB"/>
<path d="M25.5 13.5C26.6046 13.5 27.5 14.3954 27.5 15.5C27.5 16.6046 26.6046 17.5 25.5 17.5H7C5.89543 17.5 5 16.6046 5 15.5C5 14.3954 5.89543 13.5 7 13.5H25.5Z" fill="#BFDBFE"/>
<path d="M25.5 13.5C26.6046 13.5 27.5 14.3954 27.5 15.5C27.5 16.6046 26.6046 17.5 25.5 17.5H7C5.89543 17.5 5 16.6046 5 15.5C5 14.3954 5.89543 13.5 7 13.5H25.5Z" stroke="#E5E7EB"/>
<path d="M79 111.5H40V1.5H79V111.5Z" fill="#ECFDF5"/>
<path d="M79 111.5H40V1.5H79V111.5Z" stroke="#E5E7EB"/>
<path d="M73 5.5C74.1046 5.5 75 6.39543 75 7.5C75 8.60457 74.1046 9.5 73 9.5H46C44.8954 9.5 44 8.60457 44 7.5C44 6.39543 44.8954 5.5 46 5.5H73Z" fill="#A7F3D0"/>
<path d="M73 5.5C74.1046 5.5 75 6.39543 75 7.5C75 8.60457 74.1046 9.5 73 9.5H46C44.8954 9.5 44 8.60457 44 7.5C44 6.39543 44.8954 5.5 46 5.5H73Z" stroke="#E5E7EB"/>
<path d="M65.25 13.5C66.3546 13.5 67.25 14.3954 67.25 15.5C67.25 16.6046 66.3546 17.5 65.25 17.5H46C44.8954 17.5 44 16.6046 44 15.5C44 14.3954 44.8954 13.5 46 13.5H65.25Z" fill="#A7F3D0"/>
<path d="M65.25 13.5C66.3546 13.5 67.25 14.3954 67.25 15.5C67.25 16.6046 66.3546 17.5 65.25 17.5H46C44.8954 17.5 44 16.6046 44 15.5C44 14.3954 44.8954 13.5 46 13.5H65.25Z" stroke="#E5E7EB"/>
</svg>
