<svg width="80" height="113" viewBox="0 0 80 113" fill="none" xmlns="http://www.w3.org/2000/svg">
<path d="M4 1H76C77.933 1 79.5 2.567 79.5 4.5V108.5C79.5 110.433 77.933 112 76 112H4C2.067 112 0.5 110.433 0.5 108.5V4.5C0.5 2.567 2.067 1 4 1Z" fill="#F9FAFB"/>
<path d="M4 1H76C77.933 1 79.5 2.567 79.5 4.5V108.5C79.5 110.433 77.933 112 76 112H4C2.067 112 0.5 110.433 0.5 108.5V4.5C0.5 2.567 2.067 1 4 1Z" stroke="#E5E7EB"/>
<mask id="path-2-inside-1_55_738" fill="white">
<path d="M5 5.5H75V17.5H5V5.5Z"/>
</mask>
<path d="M75 17.5V16.5H5V17.5V18.5H75V17.5Z" fill="#BFDBFE" mask="url(#path-2-inside-1_55_738)"/>
<path d="M9.2294 9.66406H8.29616C8.27912 9.54332 8.24432 9.43608 8.19176 9.34233C8.1392 9.24716 8.07173 9.16619 7.98935 9.09943C7.90696 9.03267 7.81179 8.98153 7.70384 8.94602C7.5973 8.91051 7.48153 8.89276 7.35653 8.89276C7.13068 8.89276 6.93395 8.94886 6.76634 9.06108C6.59872 9.17187 6.46875 9.33381 6.37642 9.54688C6.28409 9.75852 6.23793 10.0156 6.23793 10.3182C6.23793 10.6293 6.28409 10.8906 6.37642 11.1023C6.47017 11.3139 6.60085 11.4737 6.76847 11.5817C6.93608 11.6896 7.12997 11.7436 7.35014 11.7436C7.47372 11.7436 7.58807 11.7273 7.69318 11.6946C7.79972 11.6619 7.89418 11.6143 7.97656 11.5518C8.05895 11.4879 8.12713 11.4105 8.18111 11.3196C8.23651 11.2287 8.27486 11.125 8.29616 11.0085L9.2294 11.0128C9.20526 11.2131 9.14489 11.4062 9.0483 11.5923C8.95313 11.777 8.82457 11.9425 8.66264 12.0888C8.50213 12.2337 8.31037 12.3487 8.08736 12.4339C7.86577 12.5178 7.61506 12.5597 7.33523 12.5597C6.94602 12.5597 6.59801 12.4716 6.29119 12.2955C5.9858 12.1193 5.74432 11.8643 5.56676 11.5305C5.39062 11.1967 5.30256 10.7926 5.30256 10.3182C5.30256 9.84233 5.39205 9.4375 5.57102 9.10369C5.75 8.76989 5.9929 8.51562 6.29972 8.34091C6.60653 8.16477 6.9517 8.0767 7.33523 8.0767C7.58807 8.0767 7.82244 8.11222 8.03835 8.18324C8.25568 8.25426 8.44815 8.35795 8.61577 8.49432C8.78338 8.62926 8.91974 8.79474 9.02486 8.99077C9.13139 9.18679 9.19957 9.41122 9.2294 9.66406ZM13.9009 10.3182C13.9009 10.794 13.8107 11.1989 13.6303 11.5327C13.4513 11.8665 13.207 12.1214 12.8974 12.2976C12.5891 12.4723 12.2425 12.5597 11.8576 12.5597C11.4698 12.5597 11.1218 12.4716 10.8136 12.2955C10.5053 12.1193 10.2617 11.8643 10.0827 11.5305C9.90376 11.1967 9.81428 10.7926 9.81428 10.3182C9.81428 9.84233 9.90376 9.4375 10.0827 9.10369C10.2617 8.76989 10.5053 8.51562 10.8136 8.34091C11.1218 8.16477 11.4698 8.0767 11.8576 8.0767C12.2425 8.0767 12.5891 8.16477 12.8974 8.34091C13.207 8.51562 13.4513 8.76989 13.6303 9.10369C13.8107 9.4375 13.9009 9.84233 13.9009 10.3182ZM12.9656 10.3182C12.9656 10.0099 12.9194 9.75 12.8271 9.53835C12.7362 9.3267 12.6076 9.16619 12.4414 9.05682C12.2752 8.94744 12.0806 8.89276 11.8576 8.89276C11.6346 8.89276 11.44 8.94744 11.2738 9.05682C11.1076 9.16619 10.9783 9.3267 10.886 9.53835C10.7951 9.75 10.7496 10.0099 10.7496 10.3182C10.7496 10.6264 10.7951 10.8864 10.886 11.098C10.9783 11.3097 11.1076 11.4702 11.2738 11.5795C11.44 11.6889 11.6346 11.7436 11.8576 11.7436C12.0806 11.7436 12.2752 11.6889 12.4414 11.5795C12.6076 11.4702 12.7362 11.3097 12.8271 11.098C12.9194 10.8864 12.9656 10.6264 12.9656 10.3182ZM18.2342 8.13636V12.5H17.4373L15.5389 9.75355H15.5069V12.5H14.5843V8.13636H15.394L17.2775 10.8807H17.3159V8.13636H18.2342ZM22.8466 9.66406H21.9134C21.8963 9.54332 21.8615 9.43608 21.8089 9.34233C21.7564 9.24716 21.6889 9.16619 21.6065 9.09943C21.5241 9.03267 21.429 8.98153 21.321 8.94602C21.2145 8.91051 21.0987 8.89276 20.9737 8.89276C20.7479 8.89276 20.5511 8.94886 20.3835 9.06108C20.2159 9.17187 20.0859 9.33381 19.9936 9.54688C19.9013 9.75852 19.8551 10.0156 19.8551 10.3182C19.8551 10.6293 19.9013 10.8906 19.9936 11.1023C20.0874 11.3139 20.218 11.4737 20.3857 11.5817C20.5533 11.6896 20.7472 11.7436 20.9673 11.7436C21.0909 11.7436 21.2053 11.7273 21.3104 11.6946C21.4169 11.6619 21.5114 11.6143 21.5938 11.5518C21.6761 11.4879 21.7443 11.4105 21.7983 11.3196C21.8537 11.2287 21.892 11.125 21.9134 11.0085L22.8466 11.0128C22.8224 11.2131 22.7621 11.4062 22.6655 11.5923C22.5703 11.777 22.4418 11.9425 22.2798 12.0888C22.1193 12.2337 21.9276 12.3487 21.7045 12.4339C21.483 12.5178 21.2322 12.5597 20.9524 12.5597C20.5632 12.5597 20.2152 12.4716 19.9084 12.2955C19.603 12.1193 19.3615 11.8643 19.1839 11.5305C19.0078 11.1967 18.9197 10.7926 18.9197 10.3182C18.9197 9.84233 19.0092 9.4375 19.1882 9.10369C19.3672 8.76989 19.6101 8.51562 19.9169 8.34091C20.2237 8.16477 20.5689 8.0767 20.9524 8.0767C21.2053 8.0767 21.4396 8.11222 21.6555 8.18324C21.8729 8.25426 22.0653 8.35795 22.233 8.49432C22.4006 8.62926 22.5369 8.79474 22.642 8.99077C22.7486 9.18679 22.8168 9.41122 22.8466 9.66406ZM23.5082 12.5V8.13636H26.4485V8.89702H24.4308V9.93679H26.2972V10.6974H24.4308V11.7393H26.457V12.5H23.5082ZM27.182 12.5V8.13636H28.9036C29.2346 8.13636 29.5165 8.19957 29.7495 8.32599C29.9824 8.45099 30.16 8.625 30.2821 8.84801C30.4057 9.0696 30.4675 9.32528 30.4675 9.61506C30.4675 9.90483 30.405 10.1605 30.28 10.3821C30.155 10.6037 29.9739 10.7763 29.7367 10.8999C29.5009 11.0234 29.2154 11.0852 28.8801 11.0852H27.7828V10.3459H28.731C28.9086 10.3459 29.0549 10.3153 29.1699 10.2543C29.2864 10.1918 29.373 10.1058 29.4299 9.99645C29.4881 9.88565 29.5172 9.75852 29.5172 9.61506C29.5172 9.47017 29.4881 9.34375 29.4299 9.2358C29.373 9.12642 29.2864 9.0419 29.1699 8.98224C29.0534 8.92116 28.9057 8.89062 28.7267 8.89062H28.1046V12.5H27.182ZM30.9006 8.89702V8.13636H34.4844V8.89702H33.1484V12.5H32.2365V8.89702H30.9006Z" fill="#2563EB"/>
<path d="M75 30.5H5V21.5H75V30.5Z" stroke="#E5E7EB"/>
<path d="M6.875 28.5H5.52841V24.1364H6.93466C7.35795 24.1364 7.72017 24.2237 8.02131 24.3984C8.32244 24.5717 8.55327 24.821 8.71378 25.1463C8.87429 25.4702 8.95455 25.858 8.95455 26.3097C8.95455 26.7642 8.87358 27.1555 8.71165 27.4837C8.54972 27.8104 8.31392 28.0618 8.00426 28.2379C7.6946 28.4126 7.31818 28.5 6.875 28.5ZM6.05682 28.0312H6.84091C7.2017 28.0312 7.50071 27.9616 7.73793 27.8224C7.97514 27.6832 8.15199 27.4851 8.26847 27.228C8.38494 26.9709 8.44318 26.6648 8.44318 26.3097C8.44318 25.9574 8.38565 25.6541 8.2706 25.3999C8.15554 25.1442 7.98366 24.9482 7.75497 24.8118C7.52628 24.674 7.24148 24.6051 6.90057 24.6051H6.05682V28.0312ZM11.1449 28.5682C10.8295 28.5682 10.5575 28.4986 10.3288 28.3594C10.1016 28.2188 9.92614 28.0227 9.80256 27.7713C9.6804 27.5185 9.61932 27.2244 9.61932 26.8892C9.61932 26.554 9.6804 26.2585 9.80256 26.0028C9.92614 25.7457 10.098 25.5455 10.3182 25.402C10.5398 25.2571 10.7983 25.1847 11.0938 25.1847C11.2642 25.1847 11.4325 25.2131 11.5987 25.2699C11.7649 25.3267 11.9162 25.419 12.0526 25.5469C12.1889 25.6733 12.2976 25.8409 12.3786 26.0497C12.4595 26.2585 12.5 26.5156 12.5 26.821V27.0341H9.97727V26.5994H11.9886C11.9886 26.4148 11.9517 26.25 11.8778 26.1051C11.8054 25.9602 11.7017 25.8459 11.5668 25.7621C11.4332 25.6783 11.2756 25.6364 11.0938 25.6364C10.8935 25.6364 10.7202 25.6861 10.5739 25.7855C10.429 25.8835 10.3175 26.0114 10.2393 26.169C10.1612 26.3267 10.1222 26.4957 10.1222 26.6761V26.9659C10.1222 27.2131 10.1648 27.4226 10.25 27.5945C10.3366 27.7649 10.4567 27.8949 10.6101 27.9844C10.7635 28.0724 10.9418 28.1165 11.1449 28.1165C11.277 28.1165 11.3963 28.098 11.5028 28.0611C11.6108 28.0227 11.7038 27.9659 11.782 27.8906C11.8601 27.8139 11.9205 27.7187 11.9631 27.6051L12.4489 27.7415C12.3977 27.9062 12.3118 28.0511 12.1911 28.1761C12.0703 28.2997 11.9212 28.3963 11.7436 28.4659C11.5661 28.5341 11.3665 28.5682 11.1449 28.5682ZM14.7223 25.2273V25.6534H12.9581V25.2273H14.7223ZM13.4865 28.5V24.7756C13.4865 24.5881 13.5305 24.4318 13.6186 24.3068C13.7067 24.1818 13.821 24.0881 13.9616 24.0256C14.1023 23.9631 14.2507 23.9318 14.407 23.9318C14.5305 23.9318 14.6314 23.9418 14.7095 23.9616C14.7876 23.9815 14.8459 24 14.8842 24.017L14.7393 24.4517C14.7138 24.4432 14.6783 24.4325 14.6328 24.4197C14.5888 24.407 14.5305 24.4006 14.4581 24.4006C14.2919 24.4006 14.1719 24.4425 14.098 24.5263C14.0256 24.6101 13.9893 24.733 13.9893 24.8949V28.5H13.4865ZM15.427 28.5V25.2273H15.9299V28.5H15.427ZM15.6827 24.6818C15.5847 24.6818 15.5002 24.6484 15.4292 24.5817C15.3596 24.5149 15.3248 24.4347 15.3248 24.3409C15.3248 24.2472 15.3596 24.1669 15.4292 24.1001C15.5002 24.0334 15.5847 24 15.6827 24C15.7807 24 15.8645 24.0334 15.9341 24.1001C16.0051 24.1669 16.0407 24.2472 16.0407 24.3409C16.0407 24.4347 16.0051 24.5149 15.9341 24.5817C15.8645 24.6484 15.7807 24.6818 15.6827 24.6818ZM17.3537 26.5312V28.5H16.8509V25.2273H17.3366V25.7386H17.3793C17.456 25.5724 17.5724 25.4389 17.7287 25.3381C17.8849 25.2358 18.0866 25.1847 18.3338 25.1847C18.5554 25.1847 18.7493 25.2301 18.9155 25.321C19.0817 25.4105 19.2109 25.5469 19.3033 25.7301C19.3956 25.9119 19.4418 26.142 19.4418 26.4205V28.5H18.9389V26.4545C18.9389 26.1974 18.8722 25.9972 18.7386 25.8537C18.6051 25.7088 18.4219 25.6364 18.1889 25.6364C18.0284 25.6364 17.8849 25.6712 17.7585 25.7408C17.6335 25.8104 17.5348 25.9119 17.4624 26.0455C17.3899 26.179 17.3537 26.3409 17.3537 26.5312ZM20.3606 28.5V25.2273H20.8635V28.5H20.3606ZM20.6163 24.6818C20.5183 24.6818 20.4338 24.6484 20.3627 24.5817C20.2931 24.5149 20.2583 24.4347 20.2583 24.3409C20.2583 24.2472 20.2931 24.1669 20.3627 24.1001C20.4338 24.0334 20.5183 24 20.6163 24C20.7143 24 20.7981 24.0334 20.8677 24.1001C20.9387 24.1669 20.9743 24.2472 20.9743 24.3409C20.9743 24.4347 20.9387 24.5149 20.8677 24.5817C20.7981 24.6484 20.7143 24.6818 20.6163 24.6818ZM23.2077 25.2273V25.6534H21.5117V25.2273H23.2077ZM22.006 24.4432H22.5089V27.5625C22.5089 27.7045 22.5295 27.8111 22.5707 27.8821C22.6133 27.9517 22.6673 27.9986 22.7326 28.0227C22.7994 28.0455 22.8697 28.0568 22.9435 28.0568C22.9989 28.0568 23.0444 28.054 23.0799 28.0483C23.1154 28.0412 23.1438 28.0355 23.1651 28.0312L23.2674 28.483C23.2333 28.4957 23.1857 28.5085 23.1246 28.5213C23.0636 28.5355 22.9862 28.5426 22.8924 28.5426C22.7504 28.5426 22.6112 28.5121 22.4748 28.451C22.3398 28.3899 22.2276 28.2969 22.1381 28.1719C22.0501 28.0469 22.006 27.8892 22.006 27.6989V24.4432ZM23.9641 28.5V25.2273H24.467V28.5H23.9641ZM24.2198 24.6818C24.1218 24.6818 24.0373 24.6484 23.9663 24.5817C23.8967 24.5149 23.8619 24.4347 23.8619 24.3409C23.8619 24.2472 23.8967 24.1669 23.9663 24.1001C24.0373 24.0334 24.1218 24 24.2198 24C24.3178 24 24.4016 24.0334 24.4712 24.1001C24.5423 24.1669 24.5778 24.2472 24.5778 24.3409C24.5778 24.4347 24.5423 24.5149 24.4712 24.5817C24.4016 24.6484 24.3178 24.6818 24.2198 24.6818ZM26.7175 28.5682C26.4221 28.5682 26.1628 28.4979 25.9398 28.3572C25.7182 28.2166 25.5449 28.0199 25.4199 27.767C25.2963 27.5142 25.2346 27.2187 25.2346 26.8807C25.2346 26.5398 25.2963 26.2422 25.4199 25.9879C25.5449 25.7337 25.7182 25.5362 25.9398 25.3956C26.1628 25.255 26.4221 25.1847 26.7175 25.1847C27.013 25.1847 27.2715 25.255 27.4931 25.3956C27.7161 25.5362 27.8894 25.7337 28.013 25.9879C28.138 26.2422 28.2005 26.5398 28.2005 26.8807C28.2005 27.2187 28.138 27.5142 28.013 27.767C27.8894 28.0199 27.7161 28.2166 27.4931 28.3572C27.2715 28.4979 27.013 28.5682 26.7175 28.5682ZM26.7175 28.1165C26.9419 28.1165 27.1266 28.0589 27.2715 27.9439C27.4164 27.8288 27.5236 27.6776 27.5932 27.4901C27.6628 27.3026 27.6976 27.0994 27.6976 26.8807C27.6976 26.6619 27.6628 26.4581 27.5932 26.2692C27.5236 26.0803 27.4164 25.9276 27.2715 25.8111C27.1266 25.6946 26.9419 25.6364 26.7175 25.6364C26.4931 25.6364 26.3084 25.6946 26.1635 25.8111C26.0186 25.9276 25.9114 26.0803 25.8418 26.2692C25.7722 26.4581 25.7374 26.6619 25.7374 26.8807C25.7374 27.0994 25.7722 27.3026 25.8418 27.4901C25.9114 27.6776 26.0186 27.8288 26.1635 27.9439C26.3084 28.0589 26.4931 28.1165 26.7175 28.1165ZM29.4709 26.5312V28.5H28.968V25.2273H29.4538V25.7386H29.4964C29.5732 25.5724 29.6896 25.4389 29.8459 25.3381C30.0021 25.2358 30.2038 25.1847 30.451 25.1847C30.6726 25.1847 30.8665 25.2301 31.0327 25.321C31.1989 25.4105 31.3281 25.5469 31.4205 25.7301C31.5128 25.9119 31.5589 26.142 31.5589 26.4205V28.5H31.0561V26.4545C31.0561 26.1974 30.9893 25.9972 30.8558 25.8537C30.7223 25.7088 30.5391 25.6364 30.3061 25.6364C30.1456 25.6364 30.0021 25.6712 29.8757 25.7408C29.7507 25.8104 29.652 25.9119 29.5795 26.0455C29.5071 26.179 29.4709 26.3409 29.4709 26.5312ZM32.8443 28.5341C32.7392 28.5341 32.649 28.4964 32.5737 28.4212C32.4984 28.3459 32.4608 28.2557 32.4608 28.1506C32.4608 28.0455 32.4984 27.9553 32.5737 27.88C32.649 27.8047 32.7392 27.767 32.8443 27.767C32.9494 27.767 33.0396 27.8047 33.1149 27.88C33.1902 27.9553 33.2278 28.0455 33.2278 28.1506C33.2278 28.2202 33.21 28.2841 33.1745 28.3423C33.1404 28.4006 33.0943 28.4474 33.036 28.483C32.9792 28.517 32.9153 28.5341 32.8443 28.5341ZM32.8443 26.1051C32.7392 26.1051 32.649 26.0675 32.5737 25.9922C32.4984 25.9169 32.4608 25.8267 32.4608 25.7216C32.4608 25.6165 32.4984 25.5263 32.5737 25.451C32.649 25.3757 32.7392 25.3381 32.8443 25.3381C32.9494 25.3381 33.0396 25.3757 33.1149 25.451C33.1902 25.5263 33.2278 25.6165 33.2278 25.7216C33.2278 25.7912 33.21 25.8551 33.1745 25.9134C33.1404 25.9716 33.0943 26.0185 33.036 26.054C32.9792 26.0881 32.9153 26.1051 32.8443 26.1051Z" fill="#1F2937"/>
<path d="M73 32.5C74.1046 32.5 75 33.3954 75 34.5C75 35.6046 74.1046 36.5 73 36.5H7C5.89543 36.5 5 35.6046 5 34.5C5 33.3954 5.89543 32.5 7 32.5H73Z" fill="#E5E7EB"/>
<path d="M73 32.5C74.1046 32.5 75 33.3954 75 34.5C75 35.6046 74.1046 36.5 73 36.5H7C5.89543 36.5 5 35.6046 5 34.5C5 33.3954 5.89543 32.5 7 32.5H73Z" stroke="#E5E7EB"/>
<path d="M75 49.5H5V40.5H75V49.5Z" stroke="#E5E7EB"/>
<path d="M9.03977 44.5H8.51136C8.48011 44.348 8.42543 44.2145 8.3473 44.0994C8.2706 43.9844 8.17685 43.8878 8.06605 43.8097C7.95668 43.7301 7.83523 43.6705 7.7017 43.6307C7.56818 43.5909 7.42898 43.571 7.28409 43.571C7.01989 43.571 6.78054 43.6378 6.56605 43.7713C6.35298 43.9048 6.18324 44.1016 6.05682 44.3615C5.93182 44.6214 5.86932 44.9403 5.86932 45.3182C5.86932 45.696 5.93182 46.0149 6.05682 46.2749C6.18324 46.5348 6.35298 46.7315 6.56605 46.8651C6.78054 46.9986 7.01989 47.0653 7.28409 47.0653C7.42898 47.0653 7.56818 47.0455 7.7017 47.0057C7.83523 46.9659 7.95668 46.907 8.06605 46.8288C8.17685 46.7493 8.2706 46.652 8.3473 46.5369C8.42543 46.4205 8.48011 46.2869 8.51136 46.1364H9.03977C9 46.3594 8.92756 46.5589 8.82244 46.7351C8.71733 46.9112 8.58665 47.0611 8.4304 47.1847C8.27415 47.3068 8.09872 47.3999 7.90412 47.4638C7.71094 47.5277 7.50426 47.5597 7.28409 47.5597C6.91193 47.5597 6.58097 47.4688 6.29119 47.2869C6.00142 47.1051 5.77344 46.8466 5.60724 46.5114C5.44105 46.1761 5.35795 45.7784 5.35795 45.3182C5.35795 44.858 5.44105 44.4602 5.60724 44.125C5.77344 43.7898 6.00142 43.5312 6.29119 43.3494C6.58097 43.1676 6.91193 43.0767 7.28409 43.0767C7.50426 43.0767 7.71094 43.1087 7.90412 43.1726C8.09872 43.2365 8.27415 43.3303 8.4304 43.4538C8.58665 43.576 8.71733 43.7251 8.82244 43.9013C8.92756 44.076 9 44.2756 9.03977 44.5ZM10.3283 45.5312V47.5H9.82546V43.1364H10.3283V44.7386H10.3709C10.4476 44.5696 10.5627 44.4354 10.7161 44.3359C10.8709 44.2351 11.0769 44.1847 11.334 44.1847C11.557 44.1847 11.7523 44.2294 11.9199 44.3189C12.0875 44.407 12.2175 44.5426 12.3098 44.7259C12.4036 44.9077 12.4505 45.1392 12.4505 45.4205V47.5H11.9476V45.4545C11.9476 45.1946 11.8801 44.9936 11.7452 44.8516C11.6117 44.7081 11.4263 44.6364 11.1891 44.6364C11.0243 44.6364 10.8766 44.6712 10.7459 44.7408C10.6167 44.8104 10.5144 44.9119 10.4391 45.0455C10.3652 45.179 10.3283 45.3409 10.3283 45.5312ZM14.3335 47.5767C14.1261 47.5767 13.9379 47.5376 13.7688 47.4595C13.5998 47.38 13.4656 47.2656 13.3661 47.1165C13.2667 46.9659 13.217 46.7841 13.217 46.571C13.217 46.3835 13.2539 46.2315 13.3278 46.1151C13.4016 45.9972 13.5004 45.9048 13.6239 45.8381C13.7475 45.7713 13.8839 45.7216 14.033 45.6889C14.1836 45.6548 14.3349 45.6278 14.4869 45.608C14.6857 45.5824 14.8469 45.5632 14.9705 45.5504C15.0955 45.5362 15.1864 45.5128 15.2433 45.4801C15.3015 45.4474 15.3306 45.3906 15.3306 45.3097V45.2926C15.3306 45.0824 15.2731 44.919 15.158 44.8026C15.0444 44.6861 14.8718 44.6278 14.6403 44.6278C14.4002 44.6278 14.212 44.6804 14.0756 44.7855C13.9393 44.8906 13.8434 45.0028 13.788 45.1222L13.3107 44.9517C13.396 44.7528 13.5096 44.598 13.6516 44.4872C13.7951 44.375 13.9513 44.2969 14.1204 44.2528C14.2908 44.2074 14.4585 44.1847 14.6232 44.1847C14.7283 44.1847 14.8491 44.1974 14.9854 44.223C15.1232 44.2472 15.256 44.2976 15.3839 44.3743C15.5131 44.451 15.6204 44.5668 15.7056 44.7216C15.7908 44.8764 15.8335 45.0838 15.8335 45.3438V47.5H15.3306V47.0568H15.305C15.271 47.1278 15.2141 47.2038 15.1346 47.2848C15.055 47.3658 14.9492 47.4347 14.8171 47.4915C14.685 47.5483 14.5238 47.5767 14.3335 47.5767ZM14.4102 47.125C14.609 47.125 14.7766 47.0859 14.913 47.0078C15.0508 46.9297 15.1545 46.8288 15.2241 46.7053C15.2951 46.5817 15.3306 46.4517 15.3306 46.3153V45.8551C15.3093 45.8807 15.2624 45.9041 15.19 45.9254C15.119 45.9453 15.0366 45.9631 14.9428 45.9787C14.8505 45.9929 14.7603 46.0057 14.6722 46.017C14.5856 46.027 14.5153 46.0355 14.4613 46.0426C14.3306 46.0597 14.2085 46.0874 14.0948 46.1257C13.9826 46.1626 13.8917 46.2187 13.8221 46.294C13.7539 46.3679 13.7198 46.4687 13.7198 46.5966C13.7198 46.7713 13.7844 46.9034 13.9137 46.9929C14.0444 47.081 14.2099 47.125 14.4102 47.125ZM16.7512 47.5V44.2273H17.237V44.7216H17.2711C17.3308 44.5597 17.4387 44.4283 17.595 44.3274C17.7512 44.2266 17.9274 44.1761 18.1234 44.1761C18.1603 44.1761 18.2065 44.1768 18.2619 44.1783C18.3173 44.1797 18.3592 44.1818 18.3876 44.1847V44.696C18.3706 44.6918 18.3315 44.6854 18.2704 44.6768C18.2108 44.6669 18.1475 44.6619 18.0808 44.6619C17.9217 44.6619 17.7797 44.6953 17.6547 44.7621C17.5311 44.8274 17.4331 44.9183 17.3606 45.0348C17.2896 45.1499 17.2541 45.2812 17.2541 45.429V47.5H16.7512ZM19.9467 47.5767C19.7393 47.5767 19.5511 47.5376 19.3821 47.4595C19.2131 47.38 19.0788 47.2656 18.9794 47.1165C18.88 46.9659 18.8303 46.7841 18.8303 46.571C18.8303 46.3835 18.8672 46.2315 18.9411 46.1151C19.0149 45.9972 19.1136 45.9048 19.2372 45.8381C19.3608 45.7713 19.4972 45.7216 19.6463 45.6889C19.7969 45.6548 19.9482 45.6278 20.1001 45.608C20.299 45.5824 20.4602 45.5632 20.5838 45.5504C20.7088 45.5362 20.7997 45.5128 20.8565 45.4801C20.9148 45.4474 20.9439 45.3906 20.9439 45.3097V45.2926C20.9439 45.0824 20.8864 44.919 20.7713 44.8026C20.6577 44.6861 20.4851 44.6278 20.2536 44.6278C20.0135 44.6278 19.8253 44.6804 19.6889 44.7855C19.5526 44.8906 19.4567 45.0028 19.4013 45.1222L18.924 44.9517C19.0092 44.7528 19.1229 44.598 19.2649 44.4872C19.4084 44.375 19.5646 44.2969 19.7337 44.2528C19.9041 44.2074 20.0717 44.1847 20.2365 44.1847C20.3416 44.1847 20.4624 44.1974 20.5987 44.223C20.7365 44.2472 20.8693 44.2976 20.9972 44.3743C21.1264 44.451 21.2337 44.5668 21.3189 44.7216C21.4041 44.8764 21.4467 45.0838 21.4467 45.3438V47.5H20.9439V47.0568H20.9183C20.8842 47.1278 20.8274 47.2038 20.7479 47.2848C20.6683 47.3658 20.5625 47.4347 20.4304 47.4915C20.2983 47.5483 20.1371 47.5767 19.9467 47.5767ZM20.0234 47.125C20.2223 47.125 20.3899 47.0859 20.5263 47.0078C20.6641 46.9297 20.7678 46.8288 20.8374 46.7053C20.9084 46.5817 20.9439 46.4517 20.9439 46.3153V45.8551C20.9226 45.8807 20.8757 45.9041 20.8033 45.9254C20.7322 45.9453 20.6499 45.9631 20.5561 45.9787C20.4638 45.9929 20.3736 46.0057 20.2855 46.017C20.1989 46.027 20.1286 46.0355 20.0746 46.0426C19.9439 46.0597 19.8217 46.0874 19.7081 46.1257C19.5959 46.1626 19.505 46.2187 19.4354 46.294C19.3672 46.3679 19.3331 46.4687 19.3331 46.5966C19.3331 46.7713 19.3977 46.9034 19.527 46.9929C19.6577 47.081 19.8232 47.125 20.0234 47.125ZM23.6941 47.5682C23.3873 47.5682 23.123 47.4957 22.9015 47.3509C22.6799 47.206 22.5094 47.0064 22.3901 46.7521C22.2708 46.4979 22.2111 46.2074 22.2111 45.8807C22.2111 45.5483 22.2722 45.255 22.3944 45.0007C22.5179 44.745 22.6898 44.5455 22.91 44.402C23.1316 44.2571 23.3901 44.1847 23.6855 44.1847C23.9157 44.1847 24.123 44.2273 24.3077 44.3125C24.4924 44.3977 24.6436 44.517 24.7615 44.6705C24.8794 44.8239 24.9526 45.0028 24.981 45.2074H24.4782C24.4398 45.0582 24.3546 44.9261 24.2225 44.8111C24.0918 44.6946 23.9157 44.6364 23.6941 44.6364C23.498 44.6364 23.3262 44.6875 23.1784 44.7898C23.0321 44.8906 22.9178 45.0334 22.8354 45.218C22.7544 45.4013 22.714 45.6165 22.714 45.8636C22.714 46.1165 22.7537 46.3366 22.8333 46.5241C22.9142 46.7116 23.0279 46.8572 23.1742 46.9609C23.3219 47.0646 23.4952 47.1165 23.6941 47.1165C23.8248 47.1165 23.9434 47.0938 24.0499 47.0483C24.1564 47.0028 24.2466 46.9375 24.3205 46.8523C24.3944 46.767 24.4469 46.6648 24.4782 46.5455H24.981C24.9526 46.7386 24.8823 46.9126 24.7701 47.0675C24.6593 47.2209 24.5123 47.343 24.329 47.4339C24.1472 47.5234 23.9355 47.5682 23.6941 47.5682ZM27.1394 44.2273V44.6534H25.4434V44.2273H27.1394ZM25.9377 43.4432H26.4405V46.5625C26.4405 46.7045 26.4611 46.8111 26.5023 46.8821C26.5449 46.9517 26.5989 46.9986 26.6642 47.0227C26.731 47.0455 26.8013 47.0568 26.8752 47.0568C26.9306 47.0568 26.976 47.054 27.0115 47.0483C27.0471 47.0412 27.0755 47.0355 27.0968 47.0312L27.199 47.483C27.165 47.4957 27.1174 47.5085 27.0563 47.5213C26.9952 47.5355 26.9178 47.5426 26.824 47.5426C26.682 47.5426 26.5428 47.5121 26.4064 47.451C26.2715 47.3899 26.1593 47.2969 26.0698 47.1719C25.9817 47.0469 25.9377 46.8892 25.9377 46.6989V43.4432ZM29.2328 47.5682C28.9174 47.5682 28.6454 47.4986 28.4167 47.3594C28.1895 47.2188 28.014 47.0227 27.8904 46.7713C27.7683 46.5185 27.7072 46.2244 27.7072 45.8892C27.7072 45.554 27.7683 45.2585 27.8904 45.0028C28.014 44.7457 28.1859 44.5455 28.4061 44.402C28.6277 44.2571 28.8862 44.1847 29.1816 44.1847C29.3521 44.1847 29.5204 44.2131 29.6866 44.2699C29.8528 44.3267 30.0041 44.419 30.1404 44.5469C30.2768 44.6733 30.3855 44.8409 30.4664 45.0497C30.5474 45.2585 30.5879 45.5156 30.5879 45.821V46.0341H28.0652V45.5994H30.0765C30.0765 45.4148 30.0396 45.25 29.9657 45.1051C29.8933 44.9602 29.7896 44.8459 29.6547 44.7621C29.5211 44.6783 29.3635 44.6364 29.1816 44.6364C28.9814 44.6364 28.8081 44.6861 28.6618 44.7855C28.5169 44.8835 28.4054 45.0114 28.3272 45.169C28.2491 45.3267 28.21 45.4957 28.21 45.6761V45.9659C28.21 46.2131 28.2527 46.4226 28.3379 46.5945C28.4245 46.7649 28.5446 46.8949 28.698 46.9844C28.8514 47.0724 29.0297 47.1165 29.2328 47.1165C29.3649 47.1165 29.4842 47.098 29.5907 47.0611C29.6987 47.0227 29.7917 46.9659 29.8699 46.8906C29.948 46.8139 30.0083 46.7187 30.051 46.6051L30.5368 46.7415C30.4856 46.9062 30.3997 47.0511 30.2789 47.1761C30.1582 47.2997 30.0091 47.3963 29.8315 47.4659C29.6539 47.5341 29.4544 47.5682 29.2328 47.5682ZM31.3528 47.5V44.2273H31.8386V44.7216H31.8727C31.9324 44.5597 32.0403 44.4283 32.1966 44.3274C32.3528 44.2266 32.5289 44.1761 32.725 44.1761C32.7619 44.1761 32.8081 44.1768 32.8635 44.1783C32.9189 44.1797 32.9608 44.1818 32.9892 44.1847V44.696C32.9721 44.6918 32.9331 44.6854 32.872 44.6768C32.8123 44.6669 32.7491 44.6619 32.6824 44.6619C32.5233 44.6619 32.3812 44.6953 32.2562 44.7621C32.1326 44.8274 32.0346 44.9183 31.9622 45.0348C31.8912 45.1499 31.8556 45.2812 31.8556 45.429V47.5H31.3528ZM33.5852 47.5V44.2273H34.0881V47.5H33.5852ZM33.8409 43.6818C33.7429 43.6818 33.6584 43.6484 33.5874 43.5817C33.5178 43.5149 33.483 43.4347 33.483 43.3409C33.483 43.2472 33.5178 43.1669 33.5874 43.1001C33.6584 43.0334 33.7429 43 33.8409 43C33.9389 43 34.0227 43.0334 34.0923 43.1001C34.1634 43.1669 34.1989 43.2472 34.1989 43.3409C34.1989 43.4347 34.1634 43.5149 34.0923 43.5817C34.0227 43.6484 33.9389 43.6818 33.8409 43.6818ZM37.3272 44.9602L36.8755 45.0881C36.8471 45.0128 36.8052 44.9396 36.7498 44.8686C36.6958 44.7962 36.622 44.7365 36.5282 44.6896C36.4345 44.6428 36.3145 44.6193 36.1681 44.6193C35.9679 44.6193 35.801 44.6655 35.6674 44.7578C35.5353 44.8487 35.4693 44.9645 35.4693 45.1051C35.4693 45.2301 35.5147 45.3288 35.6056 45.4013C35.6966 45.4737 35.8386 45.5341 36.0318 45.5824L36.5176 45.7017C36.8102 45.7727 37.0282 45.8814 37.1717 46.0277C37.3152 46.1726 37.3869 46.3594 37.3869 46.5881C37.3869 46.7756 37.3329 46.9432 37.225 47.0909C37.1184 47.2386 36.9693 47.3551 36.7775 47.4403C36.5858 47.5256 36.3627 47.5682 36.1085 47.5682C35.7747 47.5682 35.4984 47.4957 35.2797 47.3509C35.0609 47.206 34.9224 46.9943 34.8642 46.7159L35.3414 46.5966C35.3869 46.7727 35.4728 46.9048 35.5993 46.9929C35.7271 47.081 35.894 47.125 36.1 47.125C36.3343 47.125 36.5204 47.0753 36.6582 46.9759C36.7974 46.875 36.867 46.7543 36.867 46.6136C36.867 46.5 36.8272 46.4048 36.7477 46.3281C36.6681 46.25 36.546 46.1918 36.3812 46.1534L35.8358 46.0256C35.536 45.9545 35.3159 45.8445 35.1752 45.6953C35.036 45.5447 34.9664 45.3565 34.9664 45.1307C34.9664 44.946 35.0183 44.7827 35.122 44.6406C35.2271 44.4986 35.3699 44.3871 35.5502 44.3061C35.7321 44.2251 35.938 44.1847 36.1681 44.1847C36.492 44.1847 36.7463 44.2557 36.9309 44.3977C37.117 44.5398 37.2491 44.7273 37.3272 44.9602ZM39.5671 44.2273V44.6534H37.8711V44.2273H39.5671ZM38.3654 43.4432H38.8683V46.5625C38.8683 46.7045 38.8888 46.8111 38.93 46.8821C38.9727 46.9517 39.0266 46.9986 39.092 47.0227C39.1587 47.0455 39.229 47.0568 39.3029 47.0568C39.3583 47.0568 39.4038 47.054 39.4393 47.0483C39.4748 47.0412 39.5032 47.0355 39.5245 47.0312L39.6268 47.483C39.5927 47.4957 39.5451 47.5085 39.484 47.5213C39.4229 47.5355 39.3455 47.5426 39.2518 47.5426C39.1097 47.5426 38.9705 47.5121 38.8342 47.451C38.6992 47.3899 38.587 47.2969 38.4975 47.1719C38.4094 47.0469 38.3654 46.8892 38.3654 46.6989V43.4432ZM40.3235 47.5V44.2273H40.8263V47.5H40.3235ZM40.5792 43.6818C40.4812 43.6818 40.3967 43.6484 40.3256 43.5817C40.256 43.5149 40.2212 43.4347 40.2212 43.3409C40.2212 43.2472 40.256 43.1669 40.3256 43.1001C40.3967 43.0334 40.4812 43 40.5792 43C40.6772 43 40.761 43.0334 40.8306 43.1001C40.9016 43.1669 40.9371 43.2472 40.9371 43.3409C40.9371 43.4347 40.9016 43.5149 40.8306 43.5817C40.761 43.6484 40.6772 43.6818 40.5792 43.6818ZM43.0769 47.5682C42.7701 47.5682 42.5059 47.4957 42.2843 47.3509C42.0627 47.206 41.8922 47.0064 41.7729 46.7521C41.6536 46.4979 41.5939 46.2074 41.5939 45.8807C41.5939 45.5483 41.655 45.255 41.7772 45.0007C41.9007 44.745 42.0726 44.5455 42.2928 44.402C42.5144 44.2571 42.7729 44.1847 43.0684 44.1847C43.2985 44.1847 43.5059 44.2273 43.6905 44.3125C43.8752 44.3977 44.0265 44.517 44.1444 44.6705C44.2623 44.8239 44.3354 45.0028 44.3638 45.2074H43.861C43.8226 45.0582 43.7374 44.9261 43.6053 44.8111C43.4746 44.6946 43.2985 44.6364 43.0769 44.6364C42.8809 44.6364 42.709 44.6875 42.5613 44.7898C42.415 44.8906 42.3006 45.0334 42.2182 45.218C42.1373 45.4013 42.0968 45.6165 42.0968 45.8636C42.0968 46.1165 42.1365 46.3366 42.2161 46.5241C42.2971 46.7116 42.4107 46.8572 42.557 46.9609C42.7047 47.0646 42.878 47.1165 43.0769 47.1165C43.2076 47.1165 43.3262 47.0938 43.4327 47.0483C43.5392 47.0028 43.6294 46.9375 43.7033 46.8523C43.7772 46.767 43.8297 46.6648 43.861 46.5455H44.3638C44.3354 46.7386 44.2651 46.9126 44.1529 47.0675C44.0421 47.2209 43.8951 47.343 43.7118 47.4339C43.53 47.5234 43.3184 47.5682 43.0769 47.5682ZM47.4171 44.9602L46.9654 45.0881C46.937 45.0128 46.8951 44.9396 46.8397 44.8686C46.7857 44.7962 46.7118 44.7365 46.6181 44.6896C46.5243 44.6428 46.4043 44.6193 46.258 44.6193C46.0577 44.6193 45.8908 44.6655 45.7573 44.7578C45.6252 44.8487 45.5591 44.9645 45.5591 45.1051C45.5591 45.2301 45.6046 45.3288 45.6955 45.4013C45.7864 45.4737 45.9284 45.5341 46.1216 45.5824L46.6074 45.7017C46.9 45.7727 47.1181 45.8814 47.2615 46.0277C47.405 46.1726 47.4767 46.3594 47.4767 46.5881C47.4767 46.7756 47.4228 46.9432 47.3148 47.0909C47.2083 47.2386 47.0591 47.3551 46.8674 47.4403C46.6756 47.5256 46.4526 47.5682 46.1983 47.5682C45.8645 47.5682 45.5882 47.4957 45.3695 47.3509C45.1507 47.206 45.0123 46.9943 44.954 46.7159L45.4313 46.5966C45.4767 46.7727 45.5627 46.9048 45.6891 46.9929C45.8169 47.081 45.9838 47.125 46.1898 47.125C46.4242 47.125 46.6103 47.0753 46.748 46.9759C46.8873 46.875 46.9569 46.7543 46.9569 46.6136C46.9569 46.5 46.9171 46.4048 46.8375 46.3281C46.758 46.25 46.6358 46.1918 46.4711 46.1534L45.9256 46.0256C45.6259 45.9545 45.4057 45.8445 45.2651 45.6953C45.1259 45.5447 45.0563 45.3565 45.0563 45.1307C45.0563 44.946 45.1081 44.7827 45.2118 44.6406C45.3169 44.4986 45.4597 44.3871 45.6401 44.3061C45.8219 44.2251 46.0279 44.1847 46.258 44.1847C46.5819 44.1847 46.8361 44.2557 47.0208 44.3977C47.2069 44.5398 47.339 44.7273 47.4171 44.9602ZM48.6001 47.5341C48.495 47.5341 48.4048 47.4964 48.3295 47.4212C48.2543 47.3459 48.2166 47.2557 48.2166 47.1506C48.2166 47.0455 48.2543 46.9553 48.3295 46.88C48.4048 46.8047 48.495 46.767 48.6001 46.767C48.7053 46.767 48.7955 46.8047 48.8707 46.88C48.946 46.9553 48.9837 47.0455 48.9837 47.1506C48.9837 47.2202 48.9659 47.2841 48.9304 47.3423C48.8963 47.4006 48.8501 47.4474 48.7919 47.483C48.7351 47.517 48.6712 47.5341 48.6001 47.5341ZM48.6001 45.1051C48.495 45.1051 48.4048 45.0675 48.3295 44.9922C48.2543 44.9169 48.2166 44.8267 48.2166 44.7216C48.2166 44.6165 48.2543 44.5263 48.3295 44.451C48.4048 44.3757 48.495 44.3381 48.6001 44.3381C48.7053 44.3381 48.7955 44.3757 48.8707 44.451C48.946 44.5263 48.9837 44.6165 48.9837 44.7216C48.9837 44.7912 48.9659 44.8551 48.9304 44.9134C48.8963 44.9716 48.8501 45.0185 48.7919 45.054C48.7351 45.0881 48.6712 45.1051 48.6001 45.1051Z" fill="#1F2937"/>
<path d="M73 51.5C74.1046 51.5 75 52.3954 75 53.5C75 54.6046 74.1046 55.5 73 55.5H7C5.89543 55.5 5 54.6046 5 53.5C5 52.3954 5.89543 51.5 7 51.5H73Z" fill="#E5E7EB"/>
<path d="M73 51.5C74.1046 51.5 75 52.3954 75 53.5C75 54.6046 74.1046 55.5 73 55.5H7C5.89543 55.5 5 54.6046 5 53.5C5 52.3954 5.89543 51.5 7 51.5H73Z" stroke="#E5E7EB"/>
<path d="M75 68.5H5V59.5H75V68.5Z" stroke="#E5E7EB"/>
<path d="M5.52841 66.5V62.1364H8.16193V62.6051H6.05682V64.0795H8.02557V64.5483H6.05682V66.0312H8.19602V66.5H5.52841ZM9.42116 63.2273L10.2053 64.5653L10.9893 63.2273H11.5689L10.5121 64.8636L11.5689 66.5H10.9893L10.2053 65.2301L9.42116 66.5H8.84162L9.88139 64.8636L8.84162 63.2273H9.42116ZM13.2495 66.5767C13.0421 66.5767 12.8539 66.5376 12.6848 66.4595C12.5158 66.38 12.3816 66.2656 12.2821 66.1165C12.1827 65.9659 12.133 65.7841 12.133 65.571C12.133 65.3835 12.1699 65.2315 12.2438 65.1151C12.3176 64.9972 12.4164 64.9048 12.54 64.8381C12.6635 64.7713 12.7999 64.7216 12.949 64.6889C13.0996 64.6548 13.2509 64.6278 13.4029 64.608C13.6017 64.5824 13.763 64.5632 13.8865 64.5504C14.0115 64.5362 14.1025 64.5128 14.1593 64.4801C14.2175 64.4474 14.2466 64.3906 14.2466 64.3097V64.2926C14.2466 64.0824 14.1891 63.919 14.074 63.8026C13.9604 63.6861 13.7878 63.6278 13.5563 63.6278C13.3162 63.6278 13.128 63.6804 12.9917 63.7855C12.8553 63.8906 12.7594 64.0028 12.704 64.1222L12.2267 63.9517C12.312 63.7528 12.4256 63.598 12.5676 63.4872C12.7111 63.375 12.8674 63.2969 13.0364 63.2528C13.2069 63.2074 13.3745 63.1847 13.5392 63.1847C13.6444 63.1847 13.7651 63.1974 13.9015 63.223C14.0392 63.2472 14.1721 63.2976 14.2999 63.3743C14.4292 63.451 14.5364 63.5668 14.6216 63.7216C14.7069 63.8764 14.7495 64.0838 14.7495 64.3438V66.5H14.2466V66.0568H14.2211C14.187 66.1278 14.1301 66.2038 14.0506 66.2848C13.9711 66.3658 13.8652 66.4347 13.7331 66.4915C13.601 66.5483 13.4398 66.5767 13.2495 66.5767ZM13.3262 66.125C13.525 66.125 13.6926 66.0859 13.829 66.0078C13.9668 65.9297 14.0705 65.8288 14.1401 65.7053C14.2111 65.5817 14.2466 65.4517 14.2466 65.3153V64.8551C14.2253 64.8807 14.1784 64.9041 14.106 64.9254C14.035 64.9453 13.9526 64.9631 13.8588 64.9787C13.7665 64.9929 13.6763 65.0057 13.5882 65.017C13.5016 65.027 13.4313 65.0355 13.3773 65.0426C13.2466 65.0597 13.1245 65.0874 13.0108 65.1257C12.8986 65.1626 12.8077 65.2187 12.7381 65.294C12.6699 65.3679 12.6358 65.4687 12.6358 65.5966C12.6358 65.7713 12.7005 65.9034 12.8297 65.9929C12.9604 66.081 13.1259 66.125 13.3262 66.125ZM15.6673 66.5V63.2273H16.1531V63.7386H16.1957C16.2638 63.5639 16.3739 63.4283 16.5259 63.3317C16.6779 63.2337 16.8604 63.1847 17.0735 63.1847C17.2894 63.1847 17.4691 63.2337 17.6126 63.3317C17.7575 63.4283 17.8704 63.5639 17.9513 63.7386H17.9854C18.0692 63.5696 18.195 63.4354 18.3626 63.3359C18.5302 63.2351 18.7312 63.1847 18.9656 63.1847C19.2582 63.1847 19.4975 63.2763 19.6836 63.4595C19.8697 63.6413 19.9627 63.9247 19.9627 64.3097V66.5H19.4599V64.3097C19.4599 64.0682 19.3938 63.8956 19.2617 63.7919C19.1296 63.6882 18.9741 63.6364 18.7951 63.6364C18.565 63.6364 18.3867 63.706 18.2603 63.8452C18.1339 63.983 18.0707 64.1577 18.0707 64.3693V66.5H17.5593V64.2585C17.5593 64.0724 17.4989 63.9226 17.3782 63.8089C17.2575 63.6939 17.1019 63.6364 16.9116 63.6364C16.7809 63.6364 16.6587 63.6712 16.5451 63.7408C16.4329 63.8104 16.342 63.907 16.2724 64.0305C16.2042 64.1527 16.1701 64.294 16.1701 64.4545V66.5H15.6673ZM20.8821 67.7273V63.2273H21.3679V63.7472H21.4276C21.4645 63.6903 21.5156 63.6179 21.581 63.5298C21.6477 63.4403 21.7429 63.3608 21.8665 63.2912C21.9915 63.2202 22.1605 63.1847 22.3736 63.1847C22.6491 63.1847 22.892 63.2536 23.1023 63.3913C23.3125 63.5291 23.4766 63.7244 23.5945 63.9773C23.7124 64.2301 23.7713 64.5284 23.7713 64.8722C23.7713 65.2188 23.7124 65.5192 23.5945 65.7734C23.4766 66.0263 23.3132 66.2223 23.1044 66.3615C22.8956 66.4993 22.6548 66.5682 22.3821 66.5682C22.1719 66.5682 22.0036 66.5334 21.8771 66.4638C21.7507 66.3928 21.6534 66.3125 21.5852 66.223C21.517 66.1321 21.4645 66.0568 21.4276 65.9972H21.3849V67.7273H20.8821ZM21.3764 64.8636C21.3764 65.1108 21.4126 65.3288 21.4851 65.5178C21.5575 65.7053 21.6634 65.8523 21.8026 65.9588C21.9418 66.0639 22.1122 66.1165 22.3139 66.1165C22.5241 66.1165 22.6996 66.0611 22.8402 65.9503C22.9822 65.8381 23.0888 65.6875 23.1598 65.4986C23.2322 65.3082 23.2685 65.0966 23.2685 64.8636C23.2685 64.6335 23.233 64.4261 23.1619 64.2415C23.0923 64.0554 22.9865 63.9084 22.8445 63.8004C22.7038 63.6911 22.527 63.6364 22.3139 63.6364C22.1094 63.6364 21.9375 63.6882 21.7983 63.7919C21.6591 63.8942 21.554 64.0376 21.483 64.2223C21.4119 64.4055 21.3764 64.6193 21.3764 64.8636ZM25.0412 62.1364V66.5H24.5384V62.1364H25.0412ZM27.3343 66.5682C27.019 66.5682 26.747 66.4986 26.5183 66.3594C26.291 66.2188 26.1156 66.0227 25.992 65.7713C25.8699 65.5185 25.8088 65.2244 25.8088 64.8892C25.8088 64.554 25.8699 64.2585 25.992 64.0028C26.1156 63.7457 26.2875 63.5455 26.5076 63.402C26.7292 63.2571 26.9877 63.1847 27.2832 63.1847C27.4537 63.1847 27.622 63.2131 27.7882 63.2699C27.9544 63.3267 28.1056 63.419 28.242 63.5469C28.3784 63.6733 28.487 63.8409 28.568 64.0497C28.649 64.2585 28.6895 64.5156 28.6895 64.821V65.0341H26.1667V64.5994H28.1781C28.1781 64.4148 28.1412 64.25 28.0673 64.1051C27.9949 63.9602 27.8912 63.8459 27.7562 63.7621C27.6227 63.6783 27.465 63.6364 27.2832 63.6364C27.0829 63.6364 26.9096 63.6861 26.7633 63.7855C26.6184 63.8835 26.5069 64.0114 26.4288 64.169C26.3507 64.3267 26.3116 64.4957 26.3116 64.6761V64.9659C26.3116 65.2131 26.3542 65.4226 26.4395 65.5945C26.5261 65.7649 26.6461 65.8949 26.7995 65.9844C26.9529 66.0724 27.1312 66.1165 27.3343 66.1165C27.4664 66.1165 27.5858 66.098 27.6923 66.0611C27.8002 66.0227 27.8933 65.9659 27.9714 65.8906C28.0495 65.8139 28.1099 65.7187 28.1525 65.6051L28.6383 65.7415C28.5872 65.9062 28.5012 66.0511 28.3805 66.1761C28.2598 66.2997 28.1106 66.3963 27.9331 66.4659C27.7555 66.5341 27.5559 66.5682 27.3343 66.5682ZM31.7725 63.9602L31.3208 64.0881C31.2924 64.0128 31.2505 63.9396 31.1951 63.8686C31.1412 63.7962 31.0673 63.7365 30.9735 63.6896C30.8798 63.6428 30.7598 63.6193 30.6135 63.6193C30.4132 63.6193 30.2463 63.6655 30.1127 63.7578C29.9806 63.8487 29.9146 63.9645 29.9146 64.1051C29.9146 64.2301 29.96 64.3288 30.051 64.4013C30.1419 64.4737 30.2839 64.5341 30.4771 64.5824L30.9629 64.7017C31.2555 64.7727 31.4735 64.8814 31.617 65.0277C31.7605 65.1726 31.8322 65.3594 31.8322 65.5881C31.8322 65.7756 31.7782 65.9432 31.6703 66.0909C31.5637 66.2386 31.4146 66.3551 31.2228 66.4403C31.0311 66.5256 30.8081 66.5682 30.5538 66.5682C30.22 66.5682 29.9437 66.4957 29.725 66.3509C29.5062 66.206 29.3677 65.9943 29.3095 65.7159L29.7868 65.5966C29.8322 65.7727 29.9181 65.9048 30.0446 65.9929C30.1724 66.081 30.3393 66.125 30.5453 66.125C30.7797 66.125 30.9657 66.0753 31.1035 65.9759C31.2427 65.875 31.3123 65.7543 31.3123 65.6136C31.3123 65.5 31.2725 65.4048 31.193 65.3281C31.1135 65.25 30.9913 65.1918 30.8265 65.1534L30.2811 65.0256C29.9814 64.9545 29.7612 64.8445 29.6206 64.6953C29.4814 64.5447 29.4118 64.3565 29.4118 64.1307C29.4118 63.946 29.4636 63.7827 29.5673 63.6406C29.6724 63.4986 29.8152 63.3871 29.9956 63.3061C30.1774 63.2251 30.3833 63.1847 30.6135 63.1847C30.9373 63.1847 31.1916 63.2557 31.3762 63.3977C31.5623 63.5398 31.6944 63.7273 31.7725 63.9602ZM32.9556 66.5341C32.8505 66.5341 32.7603 66.4964 32.685 66.4212C32.6097 66.3459 32.5721 66.2557 32.5721 66.1506C32.5721 66.0455 32.6097 65.9553 32.685 65.88C32.7603 65.8047 32.8505 65.767 32.9556 65.767C33.0607 65.767 33.1509 65.8047 33.2262 65.88C33.3015 65.9553 33.3391 66.0455 33.3391 66.1506C33.3391 66.2202 33.3214 66.2841 33.2859 66.3423C33.2518 66.4006 33.2056 66.4474 33.1474 66.483C33.0906 66.517 33.0266 66.5341 32.9556 66.5341ZM32.9556 64.1051C32.8505 64.1051 32.7603 64.0675 32.685 63.9922C32.6097 63.9169 32.5721 63.8267 32.5721 63.7216C32.5721 63.6165 32.6097 63.5263 32.685 63.451C32.7603 63.3757 32.8505 63.3381 32.9556 63.3381C33.0607 63.3381 33.1509 63.3757 33.2262 63.451C33.3015 63.5263 33.3391 63.6165 33.3391 63.7216C33.3391 63.7912 33.3214 63.8551 33.2859 63.9134C33.2518 63.9716 33.2056 64.0185 33.1474 64.054C33.0906 64.0881 33.0266 64.1051 32.9556 64.1051Z" fill="#1F2937"/>
<path d="M73 70.5C74.1046 70.5 75 71.3954 75 72.5C75 73.6046 74.1046 74.5 73 74.5H7C5.89543 74.5 5 73.6046 5 72.5C5 71.3954 5.89543 70.5 7 70.5H73Z" fill="#E5E7EB"/>
<path d="M73 70.5C74.1046 70.5 75 71.3954 75 72.5C75 73.6046 74.1046 74.5 73 74.5H7C5.89543 74.5 5 73.6046 5 72.5C5 71.3954 5.89543 70.5 7 70.5H73Z" stroke="#E5E7EB"/>
</svg>
