<svg width="80" height="113" viewBox="0 0 80 113" fill="none" xmlns="http://www.w3.org/2000/svg">
<path d="M4 1H76C77.933 1 79.5 2.567 79.5 4.5V108.5C79.5 110.433 77.933 112 76 112H4C2.067 112 0.5 110.433 0.5 108.5V4.5C0.5 2.567 2.067 1 4 1Z" fill="#F9FAFB"/>
<path d="M4 1H76C77.933 1 79.5 2.567 79.5 4.5V108.5C79.5 110.433 77.933 112 76 112H4C2.067 112 0.5 110.433 0.5 108.5V4.5C0.5 2.567 2.067 1 4 1Z" stroke="#E5E7EB"/>
<path d="M1 1.5H27V111.5H1V1.5Z" fill="#EFF6FF"/>
<path d="M79 111.5H27V1.5H79V111.5Z" stroke="#E5E7EB"/>
<mask id="path-4-inside-1_55_689" fill="white">
<path d="M27 1.5H79V87.5H27V1.5Z"/>
</mask>
<path d="M79 87.5V86.5H27V87.5V88.5H79V87.5Z" fill="#E5E7EB" mask="url(#path-4-inside-1_55_689)"/>
<path d="M79 111.5H27V87.5H79V111.5Z" fill="#F3F4F6"/>
<path d="M79 111.5H27V87.5H79V111.5Z" stroke="#E5E7EB"/>
</svg>
