<svg width="78" height="111" viewBox="0 0 78 111" fill="none" xmlns="http://www.w3.org/2000/svg">
<path d="M78 110.5H0V0.5H78V110.5Z" stroke="#E5E7EB"/>
<path d="M7.79688 6.34375C8.90144 6.34375 9.79688 7.23918 9.79688 8.34375C9.79688 9.44832 8.90144 10.3438 7.79688 10.3438C6.69231 10.3438 5.79688 9.44832 5.79688 8.34375C5.79688 7.23918 6.69231 6.34375 7.79688 6.34375Z" fill="#D1D5DB"/>
<path d="M7.79688 6.34375C8.90144 6.34375 9.79688 7.23918 9.79688 8.34375C9.79688 9.44832 8.90144 10.3438 7.79688 10.3438C6.69231 10.3438 5.79688 9.44832 5.79688 8.34375C5.79688 7.23918 6.69231 6.34375 7.79688 6.34375Z" stroke="#E5E7EB"/>
<path d="M23.3906 6.34375C24.4952 6.34375 25.3906 7.23918 25.3906 8.34375C25.3906 9.44832 24.4952 10.3438 23.3906 10.3438C22.2861 10.3438 21.3906 9.44832 21.3906 8.34375C21.3906 7.23918 22.2861 6.34375 23.3906 6.34375Z" fill="#D1D5DB"/>
<path d="M23.3906 6.34375C24.4952 6.34375 25.3906 7.23918 25.3906 8.34375C25.3906 9.44832 24.4952 10.3438 23.3906 10.3438C22.2861 10.3438 21.3906 9.44832 21.3906 8.34375C21.3906 7.23918 22.2861 6.34375 23.3906 6.34375Z" stroke="#E5E7EB"/>
<path d="M38.9844 6.34375C40.0889 6.34375 40.9844 7.23918 40.9844 8.34375C40.9844 9.44832 40.0889 10.3438 38.9844 10.3438C37.8798 10.3438 36.9844 9.44832 36.9844 8.34375C36.9844 7.23918 37.8798 6.34375 38.9844 6.34375Z" fill="#D1D5DB"/>
<path d="M38.9844 6.34375C40.0889 6.34375 40.9844 7.23918 40.9844 8.34375C40.9844 9.44832 40.0889 10.3438 38.9844 10.3438C37.8798 10.3438 36.9844 9.44832 36.9844 8.34375C36.9844 7.23918 37.8798 6.34375 38.9844 6.34375Z" stroke="#E5E7EB"/>
<path d="M54.5938 6.34375C55.6983 6.34375 56.5938 7.23918 56.5938 8.34375C56.5938 9.44832 55.6983 10.3438 54.5938 10.3438C53.4892 10.3438 52.5938 9.44832 52.5938 8.34375C52.5938 7.23918 53.4892 6.34375 54.5938 6.34375Z" fill="#D1D5DB"/>
<path d="M54.5938 6.34375C55.6983 6.34375 56.5938 7.23918 56.5938 8.34375C56.5938 9.44832 55.6983 10.3438 54.5938 10.3438C53.4892 10.3438 52.5938 9.44832 52.5938 8.34375C52.5938 7.23918 53.4892 6.34375 54.5938 6.34375Z" stroke="#E5E7EB"/>
<path d="M70.1875 6.34375C71.2921 6.34375 72.1875 7.23918 72.1875 8.34375C72.1875 9.44832 71.2921 10.3438 70.1875 10.3438C69.0829 10.3438 68.1875 9.44832 68.1875 8.34375C68.1875 7.23918 69.0829 6.34375 70.1875 6.34375Z" fill="#D1D5DB"/>
<path d="M70.1875 6.34375C71.2921 6.34375 72.1875 7.23918 72.1875 8.34375C72.1875 9.44832 71.2921 10.3438 70.1875 10.3438C69.0829 10.3438 68.1875 9.44832 68.1875 8.34375C68.1875 7.23918 69.0829 6.34375 70.1875 6.34375Z" stroke="#E5E7EB"/>
</svg>
