<svg width="161" height="208" viewBox="0 0 161 208" fill="none" xmlns="http://www.w3.org/2000/svg">
<path d="M4.5 0.5H156.5C158.433 0.5 160 2.067 160 4V204C160 205.933 158.433 207.5 156.5 207.5H4.5C2.567 207.5 1 205.933 1 204V4C1 2.067 2.567 0.5 4.5 0.5Z" fill="white"/>
<path d="M4.5 0.5H156.5C158.433 0.5 160 2.067 160 4V204C160 205.933 158.433 207.5 156.5 207.5H4.5C2.567 207.5 1 205.933 1 204V4C1 2.067 2.567 0.5 4.5 0.5Z" stroke="#E5E7EB"/>
<path d="M159.5 207H1.5V1H159.5V207Z" stroke="#E5E7EB"/>
<!-- <path d="M33.0938 30.4219H1.5V1H33.0938V30.4219Z" stroke="#E5E7EB"/> -->
<path d="M17.2969 13.7031C18.4014 13.7031 19.2969 14.5986 19.2969 15.7031C19.2969 16.8077 18.4014 17.7031 17.2969 17.7031C16.1923 17.7031 15.2969 16.8077 15.2969 15.7031C15.2969 14.5986 16.1923 13.7031 17.2969 13.7031Z" fill="#D1D5DB"/>
<path d="M17.2969 13.7031C18.4014 13.7031 19.2969 14.5986 19.2969 15.7031C19.2969 16.8077 18.4014 17.7031 17.2969 17.7031C16.1923 17.7031 15.2969 16.8077 15.2969 15.7031C15.2969 14.5986 16.1923 13.7031 17.2969 13.7031Z" stroke="#E5E7EB"/>
<!-- <path d="M64.6875 30.4219H33.0938V1H64.6875V30.4219Z" stroke="#E5E7EB"/> -->
<path d="M48.8906 13.7031C49.9952 13.7031 50.8906 14.5986 50.8906 15.7031C50.8906 16.8077 49.9952 17.7031 48.8906 17.7031C47.7861 17.7031 46.8906 16.8077 46.8906 15.7031C46.8906 14.5986 47.7861 13.7031 48.8906 13.7031Z" fill="#D1D5DB"/>
<path d="M48.8906 13.7031C49.9952 13.7031 50.8906 14.5986 50.8906 15.7031C50.8906 16.8077 49.9952 17.7031 48.8906 17.7031C47.7861 17.7031 46.8906 16.8077 46.8906 15.7031C46.8906 14.5986 47.7861 13.7031 48.8906 13.7031Z" stroke="#E5E7EB"/>
<!-- <path d="M96.2969 30.4219H64.6875V1H96.2969V30.4219Z" stroke="#E5E7EB"/> -->
<path d="M80.4844 13.7031C81.5889 13.7031 82.4844 14.5986 82.4844 15.7031C82.4844 16.8077 81.5889 17.7031 80.4844 17.7031C79.3798 17.7031 78.4844 16.8077 78.4844 15.7031C78.4844 14.5986 79.3798 13.7031 80.4844 13.7031Z" fill="#D1D5DB"/>
<path d="M80.4844 13.7031C81.5889 13.7031 82.4844 14.5986 82.4844 15.7031C82.4844 16.8077 81.5889 17.7031 80.4844 17.7031C79.3798 17.7031 78.4844 16.8077 78.4844 15.7031C78.4844 14.5986 79.3798 13.7031 80.4844 13.7031Z" stroke="#E5E7EB"/>
<!-- <path d="M127.891 30.4219H96.2969V1H127.891V30.4219Z" stroke="#E5E7EB"/> -->
<path d="M112.094 13.7031C113.198 13.7031 114.094 14.5986 114.094 15.7031C114.094 16.8077 113.198 17.7031 112.094 17.7031C110.989 17.7031 110.094 16.8077 110.094 15.7031C110.094 14.5986 110.989 13.7031 112.094 13.7031Z" fill="#D1D5DB"/>
<path d="M112.094 13.7031C113.198 13.7031 114.094 14.5986 114.094 15.7031C114.094 16.8077 113.198 17.7031 112.094 17.7031C110.989 17.7031 110.094 16.8077 110.094 15.7031C110.094 14.5986 110.989 13.7031 112.094 13.7031Z" stroke="#E5E7EB"/>
<!-- <path d="M159.5 30.4219H127.891V1H159.5V30.4219Z" stroke="#E5E7EB"/> -->
<path d="M143.688 13.7031C144.792 13.7031 145.688 14.5986 145.688 15.7031C145.688 16.8077 144.792 17.7031 143.688 17.7031C142.583 17.7031 141.688 16.8077 141.688 15.7031C141.688 14.5986 142.583 13.7031 143.688 13.7031Z" fill="#D1D5DB"/>
<path d="M143.688 13.7031C144.792 13.7031 145.688 14.5986 145.688 15.7031C145.688 16.8077 144.792 17.7031 143.688 17.7031C142.583 17.7031 141.688 16.8077 141.688 15.7031C141.688 14.5986 142.583 13.7031 143.688 13.7031Z" stroke="#E5E7EB"/>
</svg>
