<svg width="80" height="113" viewBox="0 0 80 113" fill="none" xmlns="http://www.w3.org/2000/svg">
<path d="M4 1H76C77.933 1 79.5 2.567 79.5 4.5V108.5C79.5 110.433 77.933 112 76 112H4C2.067 112 0.5 110.433 0.5 108.5V4.5C0.5 2.567 2.067 1 4 1Z" fill="#F9FAFB"/>
<path d="M4 1H76C77.933 1 79.5 2.567 79.5 4.5V108.5C79.5 110.433 77.933 112 76 112H4C2.067 112 0.5 110.433 0.5 108.5V4.5C0.5 2.567 2.067 1 4 1Z" stroke="#E5E7EB"/>
<mask id="path-2-inside-1_55_719" fill="white">
<path d="M1 1.5H79V56.5H1V1.5Z"/>
</mask>
<path d="M1 1.5H79V56.5H1V1.5Z" fill="#EFF6FF"/>
<path d="M79 56.5V55.5H1V56.5V57.5H79V56.5Z" fill="#E5E7EB" mask="url(#path-2-inside-1_55_719)"/>
<path d="M56 22.5C58.2091 22.5 60 24.2909 60 26.5V30.5C60 32.7091 58.2091 34.5 56 34.5H24C21.7909 34.5 20 32.7091 20 30.5V26.5C20 24.2909 21.7909 22.5 24 22.5H56Z" fill="#D1D5DB"/>
<path d="M56 22.5C58.2091 22.5 60 24.2909 60 26.5V30.5C60 32.7091 58.2091 34.5 56 34.5H24C21.7909 34.5 20 32.7091 20 30.5V26.5C20 24.2909 21.7909 22.5 24 22.5H56Z" stroke="#E5E7EB"/>
<path d="M79 111.5H1V56.5H79V111.5Z" stroke="#E5E7EB"/>
<path d="M60 78C62.2091 78 64 79.7909 64 82V86C64 88.2091 62.2091 90 60 90H20C17.7909 90 16 88.2091 16 86V82C16 79.7909 17.7909 78 20 78H60Z" fill="#D1D5DB"/>
<path d="M60 78C62.2091 78 64 79.7909 64 82V86C64 88.2091 62.2091 90 60 90H20C17.7909 90 16 88.2091 16 86V82C16 79.7909 17.7909 78 20 78H60Z" stroke="#E5E7EB"/>
<path d="M67 5.5C71.4183 5.5 75 9.08172 75 13.5C75 17.9183 71.4183 21.5 67 21.5C62.5817 21.5 59 17.9183 59 13.5C59 9.08172 62.5817 5.5 67 5.5Z" fill="#3B82F6"/>
<path d="M67 5.5C71.4183 5.5 75 9.08172 75 13.5C75 17.9183 71.4183 21.5 67 21.5C62.5817 21.5 59 17.9183 59 13.5C59 9.08172 62.5817 5.5 67 5.5Z" stroke="#E5E7EB"/>
<g clip-path="url(#clip0_55_719)">
<path d="M68.9595 10.1969C69.0517 9.98283 68.983 9.73283 68.7939 9.59533C68.6048 9.45783 68.347 9.47033 68.1705 9.62346L64.1705 13.1235C64.0142 13.261 63.958 13.4813 64.0314 13.675C64.1048 13.8688 64.2923 14 64.5002 14H66.2423L65.0408 16.8031C64.9486 17.0172 65.0173 17.2672 65.2064 17.4047C65.3955 17.5422 65.6533 17.5297 65.8298 17.3766L69.8298 13.8766C69.9861 13.7391 70.0423 13.5188 69.9689 13.325C69.8955 13.1313 69.7095 13.0016 69.5002 13.0016H67.758L68.9595 10.1969Z" fill="white"/>
</g>
<defs>
<clipPath id="clip0_55_719">
<path d="M63.5 9.5H70.5V17.5H63.5V9.5Z" fill="white"/>
</clipPath>
</defs>
</svg>
