<svg width="80" height="113" viewBox="0 0 80 113" fill="none" xmlns="http://www.w3.org/2000/svg">
<path d="M4 1H76C77.933 1 79.5 2.567 79.5 4.5V108.5C79.5 110.433 77.933 112 76 112H4C2.067 112 0.5 110.433 0.5 108.5V4.5C0.5 2.567 2.067 1 4 1Z" fill="#F9FAFB"/>
<path d="M4 1H76C77.933 1 79.5 2.567 79.5 4.5V108.5C79.5 110.433 77.933 112 76 112H4C2.067 112 0.5 110.433 0.5 108.5V4.5C0.5 2.567 2.067 1 4 1Z" stroke="#E5E7EB"/>
<mask id="path-2-inside-1_55_714" fill="white">
<path d="M1 1.5H79V56.5H1V1.5Z"/>
</mask>
<path d="M1 1.5H79V56.5H1V1.5Z" fill="#EFF6FF"/>
<path d="M79 56.5V55.5H1V56.5V57.5H79V56.5Z" fill="#E5E7EB" mask="url(#path-2-inside-1_55_714)"/>
<path d="M56 22.5C58.2091 22.5 60 24.2909 60 26.5V30.5C60 32.7091 58.2091 34.5 56 34.5H24C21.7909 34.5 20 32.7091 20 30.5V26.5C20 24.2909 21.7909 22.5 24 22.5H56Z" fill="#D1D5DB"/>
<path d="M56 22.5C58.2091 22.5 60 24.2909 60 26.5V30.5C60 32.7091 58.2091 34.5 56 34.5H24C21.7909 34.5 20 32.7091 20 30.5V26.5C20 24.2909 21.7909 22.5 24 22.5H56Z" stroke="#E5E7EB"/>
<path d="M79 111.5H1V56.5H79V111.5Z" stroke="#E5E7EB"/>
<path d="M60 78C62.2091 78 64 79.7909 64 82V86C64 88.2091 62.2091 90 60 90H20C17.7909 90 16 88.2091 16 86V82C16 79.7909 17.7909 78 20 78H60Z" fill="#D1D5DB"/>
<path d="M60 78C62.2091 78 64 79.7909 64 82V86C64 88.2091 62.2091 90 60 90H20C17.7909 90 16 88.2091 16 86V82C16 79.7909 17.7909 78 20 78H60Z" stroke="#E5E7EB"/>
</svg>
