<svg width="80" height="113" viewBox="0 0 80 113" fill="none" xmlns="http://www.w3.org/2000/svg">
<path d="M4 1H76C77.933 1 79.5 2.567 79.5 4.5V108.5C79.5 110.433 77.933 112 76 112H4C2.067 112 0.5 110.433 0.5 108.5V4.5C0.5 2.567 2.067 1 4 1Z" fill="#F9FAFB"/>
<path d="M4 1H76C77.933 1 79.5 2.567 79.5 4.5V108.5C79.5 110.433 77.933 112 76 112H4C2.067 112 0.5 110.433 0.5 108.5V4.5C0.5 2.567 2.067 1 4 1Z" stroke="#E5E7EB"/>
<path d="M75 14.5H5V5.5H75V14.5Z" stroke="#E5E7EB"/>
<path d="M8.27273 9.54688C8.2429 9.44318 8.20099 9.35156 8.14702 9.27202C8.09304 9.19105 8.02699 9.12287 7.94886 9.06747C7.87216 9.01065 7.78409 8.96733 7.68466 8.9375C7.58665 8.90767 7.47798 8.89276 7.35866 8.89276C7.13565 8.89276 6.93963 8.94815 6.7706 9.05895C6.60298 9.16974 6.4723 9.33097 6.37855 9.54261C6.2848 9.75284 6.23793 10.0099 6.23793 10.3139C6.23793 10.6179 6.28409 10.8764 6.37642 11.0895C6.46875 11.3026 6.59943 11.4652 6.76847 11.5774C6.9375 11.6882 7.13707 11.7436 7.36719 11.7436C7.57599 11.7436 7.75426 11.7067 7.90199 11.6328C8.05114 11.5575 8.16477 11.4517 8.2429 11.3153C8.32244 11.179 8.36222 11.0178 8.36222 10.8317L8.54972 10.8594H7.42472V10.1648H9.25071V10.7145C9.25071 11.098 9.16974 11.4276 9.00781 11.7031C8.84588 11.9773 8.62287 12.1889 8.33878 12.3381C8.05469 12.4858 7.7294 12.5597 7.36293 12.5597C6.95384 12.5597 6.59446 12.4695 6.2848 12.2891C5.97514 12.1072 5.73366 11.8494 5.56037 11.5156C5.38849 11.1804 5.30256 10.7827 5.30256 10.3224C5.30256 9.96875 5.35369 9.65341 5.45597 9.37642C5.55966 9.09801 5.70455 8.86222 5.89062 8.66903C6.0767 8.47585 6.29332 8.32884 6.54048 8.22798C6.78764 8.12713 7.0554 8.0767 7.34375 8.0767C7.59091 8.0767 7.82102 8.11293 8.03409 8.18537C8.24716 8.25639 8.43608 8.35724 8.60085 8.48793C8.76705 8.61861 8.9027 8.77415 9.00781 8.95455C9.11293 9.13352 9.1804 9.33097 9.21023 9.54688H8.27273ZM13.9537 10.3182C13.9537 10.794 13.8635 11.1989 13.6831 11.5327C13.5041 11.8665 13.2598 12.1214 12.9501 12.2976C12.6419 12.4723 12.2953 12.5597 11.9103 12.5597C11.5225 12.5597 11.1745 12.4716 10.8663 12.2955C10.5581 12.1193 10.3145 11.8643 10.1355 11.5305C9.9565 11.1967 9.86701 10.7926 9.86701 10.3182C9.86701 9.84233 9.9565 9.4375 10.1355 9.10369C10.3145 8.76989 10.5581 8.51562 10.8663 8.34091C11.1745 8.16477 11.5225 8.0767 11.9103 8.0767C12.2953 8.0767 12.6419 8.16477 12.9501 8.34091C13.2598 8.51562 13.5041 8.76989 13.6831 9.10369C13.8635 9.4375 13.9537 9.84233 13.9537 10.3182ZM13.0183 10.3182C13.0183 10.0099 12.9721 9.75 12.8798 9.53835C12.7889 9.3267 12.6603 9.16619 12.4941 9.05682C12.3279 8.94744 12.1333 8.89276 11.9103 8.89276C11.6873 8.89276 11.4927 8.94744 11.3265 9.05682C11.1603 9.16619 11.0311 9.3267 10.9387 9.53835C10.8478 9.75 10.8024 10.0099 10.8024 10.3182C10.8024 10.6264 10.8478 10.8864 10.9387 11.098C11.0311 11.3097 11.1603 11.4702 11.3265 11.5795C11.4927 11.6889 11.6873 11.7436 11.9103 11.7436C12.1333 11.7436 12.3279 11.6889 12.4941 11.5795C12.6603 11.4702 12.7889 11.3097 12.8798 11.098C12.9721 10.8864 13.0183 10.6264 13.0183 10.3182ZM15.1431 12.5H14.1545L15.6609 8.13636H16.8498L18.354 12.5H17.3654L16.2724 9.13352H16.2383L15.1431 12.5ZM15.0813 10.7848H17.4165V11.505H15.0813V10.7848ZM18.8793 12.5V8.13636H19.8018V11.7393H21.6726V12.5H18.8793ZM24.6507 9.39134C24.6337 9.21946 24.5605 9.08594 24.4313 8.99077C24.302 8.8956 24.1266 8.84801 23.905 8.84801C23.7544 8.84801 23.6273 8.86932 23.5236 8.91193C23.4199 8.95312 23.3404 9.01065 23.285 9.08452C23.231 9.15838 23.204 9.24219 23.204 9.33594C23.2012 9.41406 23.2175 9.48224 23.253 9.54048C23.29 9.59872 23.3404 9.64915 23.4043 9.69176C23.4682 9.73295 23.5421 9.76918 23.6259 9.80043C23.7097 9.83026 23.7992 9.85582 23.8944 9.87713L24.2864 9.97088C24.4767 10.0135 24.6515 10.0703 24.8105 10.1413C24.9696 10.2124 25.1074 10.2997 25.2239 10.4034C25.3404 10.5071 25.4306 10.6293 25.4945 10.7699C25.5598 10.9105 25.5932 11.0717 25.5946 11.2536C25.5932 11.5206 25.525 11.7521 25.3901 11.9482C25.2566 12.1428 25.0634 12.294 24.8105 12.402C24.5591 12.5085 24.2559 12.5618 23.9007 12.5618C23.5485 12.5618 23.2417 12.5078 22.9803 12.3999C22.7203 12.2919 22.5172 12.1321 22.3709 11.9205C22.226 11.7074 22.15 11.4439 22.1429 11.13H23.0357C23.0456 11.2763 23.0875 11.3984 23.1614 11.4964C23.2367 11.593 23.3368 11.6662 23.4618 11.7159C23.5882 11.7642 23.731 11.7884 23.8901 11.7884C24.0463 11.7884 24.182 11.7656 24.2971 11.7202C24.4135 11.6747 24.5037 11.6115 24.5676 11.5305C24.6316 11.4496 24.6635 11.3565 24.6635 11.2514C24.6635 11.1534 24.6344 11.071 24.5762 11.0043C24.5194 10.9375 24.4355 10.8807 24.3248 10.8338C24.2154 10.7869 24.0811 10.7443 23.9221 10.706L23.4469 10.5866C23.079 10.4972 22.7885 10.3572 22.5755 10.1669C22.3624 9.97656 22.2566 9.72017 22.258 9.39773C22.2566 9.13352 22.3269 8.9027 22.4689 8.70526C22.6124 8.50781 22.8091 8.35369 23.0591 8.2429C23.3091 8.1321 23.5932 8.0767 23.9114 8.0767C24.2353 8.0767 24.5179 8.1321 24.7594 8.2429C25.0023 8.35369 25.1912 8.50781 25.3262 8.70526C25.4611 8.9027 25.5307 9.13139 25.535 9.39134H24.6507Z" fill="#2563EB"/>
<path d="M75 36H5V18.5H75V36Z" stroke="#E5E7EB"/>
<path d="M75 26H5V18.5H75V26Z" stroke="#E5E7EB"/>
<path d="M7.72727 21.0391C7.70241 20.9527 7.6675 20.8763 7.62251 20.81C7.57753 20.7425 7.52249 20.6857 7.45739 20.6396C7.39347 20.5922 7.32008 20.5561 7.23722 20.5312C7.15554 20.5064 7.06499 20.494 6.96555 20.494C6.77971 20.494 6.61636 20.5401 6.4755 20.6325C6.33582 20.7248 6.22692 20.8591 6.14879 21.0355C6.07067 21.2107 6.03161 21.425 6.03161 21.6783C6.03161 21.9316 6.07008 22.147 6.14702 22.3246C6.22396 22.5021 6.33286 22.6377 6.47372 22.7312C6.61458 22.8235 6.78089 22.8697 6.97266 22.8697C7.14666 22.8697 7.29522 22.8389 7.41832 22.7773C7.54261 22.7146 7.63731 22.6264 7.70241 22.5128C7.7687 22.3991 7.80185 22.2648 7.80185 22.1097L7.9581 22.1328H7.0206V21.554H8.54226V22.0121C8.54226 22.3317 8.47479 22.6063 8.33984 22.8359C8.2049 23.0644 8.01906 23.2408 7.78232 23.3651C7.54557 23.4882 7.2745 23.5497 6.96911 23.5497C6.6282 23.5497 6.32872 23.4746 6.07067 23.3242C5.81262 23.1727 5.61139 22.9579 5.46697 22.6797C5.32375 22.4003 5.25213 22.0689 5.25213 21.6854C5.25213 21.3906 5.29474 21.1278 5.37997 20.897C5.46638 20.665 5.58712 20.4685 5.74219 20.3075C5.89725 20.1465 6.07777 20.024 6.28374 19.94C6.4897 19.8559 6.71283 19.8139 6.95312 19.8139C7.15909 19.8139 7.35085 19.8441 7.52841 19.9045C7.70597 19.9637 7.8634 20.0477 8.00071 20.1566C8.1392 20.2655 8.25225 20.3951 8.33984 20.5455C8.42744 20.6946 8.48366 20.8591 8.50852 21.0391H7.72727ZM10.3378 23.5533C10.062 23.5533 9.82348 23.4947 9.62225 23.3775C9.4222 23.2591 9.26773 23.0946 9.15882 22.8839C9.04992 22.672 8.99547 22.4264 8.99547 22.147C8.99547 21.8653 9.04992 21.6191 9.15882 21.4084C9.26773 21.1965 9.4222 21.032 9.62225 20.9148C9.82348 20.7964 10.062 20.7372 10.3378 20.7372C10.6136 20.7372 10.8515 20.7964 11.0516 20.9148C11.2528 21.032 11.4079 21.1965 11.5168 21.4084C11.6257 21.6191 11.6801 21.8653 11.6801 22.147C11.6801 22.4264 11.6257 22.672 11.5168 22.8839C11.4079 23.0946 11.2528 23.2591 11.0516 23.3775C10.8515 23.4947 10.6136 23.5533 10.3378 23.5533ZM10.3414 22.9673C10.4668 22.9673 10.5716 22.9318 10.6556 22.8608C10.7397 22.7886 10.803 22.6903 10.8456 22.5661C10.8894 22.4418 10.9113 22.3003 10.9113 22.1417C10.9113 21.9831 10.8894 21.8416 10.8456 21.7173C10.803 21.593 10.7397 21.4948 10.6556 21.4226C10.5716 21.3504 10.4668 21.3143 10.3414 21.3143C10.2147 21.3143 10.1082 21.3504 10.0218 21.4226C9.93652 21.4948 9.87201 21.593 9.82821 21.7173C9.7856 21.8416 9.76429 21.9831 9.76429 22.1417C9.76429 22.3003 9.7856 22.4418 9.82821 22.5661C9.87201 22.6903 9.93652 22.7886 10.0218 22.8608C10.1082 22.9318 10.2147 22.9673 10.3414 22.9673ZM12.9497 23.5515C12.7757 23.5515 12.6206 23.5213 12.4845 23.4609C12.3483 23.3994 12.2406 23.3088 12.1613 23.1893C12.0832 23.0685 12.0441 22.9182 12.0441 22.7383C12.0441 22.5868 12.0719 22.4595 12.1276 22.3565C12.1832 22.2536 12.259 22.1707 12.3548 22.108C12.4507 22.0452 12.5596 21.9979 12.6816 21.9659C12.8047 21.9339 12.9337 21.9115 13.0686 21.8984C13.2272 21.8819 13.3551 21.8665 13.4521 21.8523C13.5492 21.8369 13.6196 21.8144 13.6634 21.7848C13.7072 21.7552 13.7291 21.7114 13.7291 21.6534V21.6428C13.7291 21.5303 13.6936 21.4433 13.6226 21.3817C13.5528 21.3202 13.4533 21.2894 13.3243 21.2894C13.1882 21.2894 13.0799 21.3196 12.9994 21.38C12.9189 21.4392 12.8656 21.5137 12.8396 21.6037L12.14 21.5469C12.1755 21.3812 12.2454 21.2379 12.3495 21.1172C12.4537 20.9953 12.588 20.9018 12.7526 20.8366C12.9183 20.7704 13.1101 20.7372 13.3279 20.7372C13.4794 20.7372 13.6244 20.755 13.7629 20.7905C13.9026 20.826 14.0262 20.881 14.134 20.9556C14.2429 21.0302 14.3287 21.1261 14.3914 21.2433C14.4542 21.3593 14.4855 21.4983 14.4855 21.6605V23.5H13.7682V23.1218H13.7469C13.7031 23.207 13.6445 23.2822 13.5711 23.3473C13.4977 23.4112 13.4095 23.4615 13.3066 23.4982C13.2036 23.5337 13.0846 23.5515 12.9497 23.5515ZM13.1663 23.0295C13.2776 23.0295 13.3758 23.0076 13.461 22.9638C13.5463 22.9188 13.6131 22.8584 13.6617 22.7827C13.7102 22.7069 13.7345 22.6211 13.7345 22.5252V22.2358C13.7108 22.2512 13.6782 22.2654 13.6368 22.2784C13.5966 22.2902 13.551 22.3015 13.5001 22.3121C13.4492 22.3216 13.3983 22.3305 13.3474 22.3388C13.2965 22.3459 13.2503 22.3524 13.2089 22.3583C13.1201 22.3713 13.0426 22.392 12.9763 22.4205C12.91 22.4489 12.8585 22.4873 12.8218 22.5359C12.7851 22.5832 12.7668 22.6424 12.7668 22.7134C12.7668 22.8164 12.8041 22.8951 12.8786 22.9496C12.9544 23.0028 13.0503 23.0295 13.1663 23.0295ZM15.8287 19.8636V23.5H15.0724V19.8636H15.8287ZM19.1668 19.8636V23.5H18.398V20.5934H18.3767L17.5439 21.1154V20.4336L18.4442 19.8636H19.1668ZM20.4803 23.0774C20.3631 23.0774 20.2625 23.036 20.1784 22.9531C20.0956 22.8703 20.0542 22.7696 20.0542 22.6513C20.0542 22.5353 20.0956 22.4358 20.1784 22.353C20.2625 22.2701 20.3631 22.2287 20.4803 22.2287C20.5939 22.2287 20.6934 22.2701 20.7786 22.353C20.8638 22.4358 20.9064 22.5353 20.9064 22.6513C20.9064 22.7294 20.8863 22.801 20.8461 22.8661C20.807 22.93 20.7555 22.9815 20.6916 23.0206C20.6277 23.0585 20.5572 23.0774 20.4803 23.0774ZM20.4803 21.293C20.3631 21.293 20.2625 21.2515 20.1784 21.1687C20.0956 21.0858 20.0542 20.9852 20.0542 20.8668C20.0542 20.7508 20.0956 20.652 20.1784 20.5703C20.2625 20.4875 20.3631 20.446 20.4803 20.446C20.5939 20.446 20.6934 20.4875 20.7786 20.5703C20.8638 20.652 20.9064 20.7508 20.9064 20.8668C20.9064 20.9461 20.8863 21.0183 20.8461 21.0835C20.807 21.1474 20.7555 21.1983 20.6916 21.2362C20.6277 21.274 20.5572 21.293 20.4803 21.293Z" fill="#1F2937"/>
<path d="M73 26C74.1046 26 75 26.8954 75 28C75 29.1046 74.1046 30 73 30H7C5.89543 30 5 29.1046 5 28C5 26.8954 5.89543 26 7 26H73Z" fill="#DBEAFE"/>
<path d="M73 26C74.1046 26 75 26.8954 75 28C75 29.1046 74.1046 30 73 30H7C5.89543 30 5 29.1046 5 28C5 26.8954 5.89543 26 7 26H73Z" stroke="#E5E7EB"/>
<path d="M75 36H13V32H75V36Z" stroke="#E5E7EB"/>
<path d="M75 36H13V32H75V36Z" stroke="#E5E7EB"/>
<path d="M14.9062 32.5C15.6829 32.5 16.3125 33.1296 16.3125 33.9062V34.0938C16.3125 34.8704 15.6829 35.5 14.9062 35.5C14.1296 35.5 13.5 34.8704 13.5 34.0938V33.9062C13.5 33.1296 14.1296 32.5 14.9062 32.5Z" stroke="#D1D5DB"/>
<path d="M74 33C74.5523 33 75 33.4477 75 34C75 34.5523 74.5523 35 74 35H19.8125C19.2602 35 18.8125 34.5523 18.8125 34C18.8125 33.4477 19.2602 33 19.8125 33H74Z" fill="#E5E7EB"/>
<path d="M74 33C74.5523 33 75 33.4477 75 34C75 34.5523 74.5523 35 74 35H19.8125C19.2602 35 18.8125 34.5523 18.8125 34C18.8125 33.4477 19.2602 33 19.8125 33H74Z" stroke="#E5E7EB"/>
<path d="M75 57.5H5V40H75V57.5Z" stroke="#E5E7EB"/>
<path d="M75 47.5H5V40H75V47.5Z" stroke="#E5E7EB"/>
<path d="M7.72727 42.5391C7.70241 42.4527 7.6675 42.3763 7.62251 42.31C7.57753 42.2425 7.52249 42.1857 7.45739 42.1396C7.39347 42.0922 7.32008 42.0561 7.23722 42.0312C7.15554 42.0064 7.06499 41.994 6.96555 41.994C6.77971 41.994 6.61636 42.0401 6.4755 42.1325C6.33582 42.2248 6.22692 42.3591 6.14879 42.5355C6.07067 42.7107 6.03161 42.925 6.03161 43.1783C6.03161 43.4316 6.07008 43.647 6.14702 43.8246C6.22396 44.0021 6.33286 44.1377 6.47372 44.2312C6.61458 44.3235 6.78089 44.3697 6.97266 44.3697C7.14666 44.3697 7.29522 44.3389 7.41832 44.2773C7.54261 44.2146 7.63731 44.1264 7.70241 44.0128C7.7687 43.8991 7.80185 43.7648 7.80185 43.6097L7.9581 43.6328H7.0206V43.054H8.54226V43.5121C8.54226 43.8317 8.47479 44.1063 8.33984 44.3359C8.2049 44.5644 8.01906 44.7408 7.78232 44.8651C7.54557 44.9882 7.2745 45.0497 6.96911 45.0497C6.6282 45.0497 6.32872 44.9746 6.07067 44.8242C5.81262 44.6727 5.61139 44.4579 5.46697 44.1797C5.32375 43.9003 5.25213 43.5689 5.25213 43.1854C5.25213 42.8906 5.29474 42.6278 5.37997 42.397C5.46638 42.165 5.58712 41.9685 5.74219 41.8075C5.89725 41.6465 6.07777 41.524 6.28374 41.44C6.4897 41.3559 6.71283 41.3139 6.95312 41.3139C7.15909 41.3139 7.35085 41.3441 7.52841 41.4045C7.70597 41.4637 7.8634 41.5477 8.00071 41.6566C8.1392 41.7655 8.25225 41.8951 8.33984 42.0455C8.42744 42.1946 8.48366 42.3591 8.50852 42.5391H7.72727ZM10.3378 45.0533C10.062 45.0533 9.82348 44.9947 9.62225 44.8775C9.4222 44.7591 9.26773 44.5946 9.15882 44.3839C9.04992 44.172 8.99547 43.9264 8.99547 43.647C8.99547 43.3653 9.04992 43.1191 9.15882 42.9084C9.26773 42.6965 9.4222 42.532 9.62225 42.4148C9.82348 42.2964 10.062 42.2372 10.3378 42.2372C10.6136 42.2372 10.8515 42.2964 11.0516 42.4148C11.2528 42.532 11.4079 42.6965 11.5168 42.9084C11.6257 43.1191 11.6801 43.3653 11.6801 43.647C11.6801 43.9264 11.6257 44.172 11.5168 44.3839C11.4079 44.5946 11.2528 44.7591 11.0516 44.8775C10.8515 44.9947 10.6136 45.0533 10.3378 45.0533ZM10.3414 44.4673C10.4668 44.4673 10.5716 44.4318 10.6556 44.3608C10.7397 44.2886 10.803 44.1903 10.8456 44.0661C10.8894 43.9418 10.9113 43.8003 10.9113 43.6417C10.9113 43.4831 10.8894 43.3416 10.8456 43.2173C10.803 43.093 10.7397 42.9948 10.6556 42.9226C10.5716 42.8504 10.4668 42.8143 10.3414 42.8143C10.2147 42.8143 10.1082 42.8504 10.0218 42.9226C9.93652 42.9948 9.87201 43.093 9.82821 43.2173C9.7856 43.3416 9.76429 43.4831 9.76429 43.6417C9.76429 43.8003 9.7856 43.9418 9.82821 44.0661C9.87201 44.1903 9.93652 44.2886 10.0218 44.3608C10.1082 44.4318 10.2147 44.4673 10.3414 44.4673ZM12.9497 45.0515C12.7757 45.0515 12.6206 45.0213 12.4845 44.9609C12.3483 44.8994 12.2406 44.8088 12.1613 44.6893C12.0832 44.5685 12.0441 44.4182 12.0441 44.2383C12.0441 44.0868 12.0719 43.9595 12.1276 43.8565C12.1832 43.7536 12.259 43.6707 12.3548 43.608C12.4507 43.5452 12.5596 43.4979 12.6816 43.4659C12.8047 43.4339 12.9337 43.4115 13.0686 43.3984C13.2272 43.3819 13.3551 43.3665 13.4521 43.3523C13.5492 43.3369 13.6196 43.3144 13.6634 43.2848C13.7072 43.2552 13.7291 43.2114 13.7291 43.1534V43.1428C13.7291 43.0303 13.6936 42.9433 13.6226 42.8817C13.5528 42.8202 13.4533 42.7894 13.3243 42.7894C13.1882 42.7894 13.0799 42.8196 12.9994 42.88C12.9189 42.9392 12.8656 43.0137 12.8396 43.1037L12.14 43.0469C12.1755 42.8812 12.2454 42.7379 12.3495 42.6172C12.4537 42.4953 12.588 42.4018 12.7526 42.3366C12.9183 42.2704 13.1101 42.2372 13.3279 42.2372C13.4794 42.2372 13.6244 42.255 13.7629 42.2905C13.9026 42.326 14.0262 42.381 14.134 42.4556C14.2429 42.5302 14.3287 42.6261 14.3914 42.7433C14.4542 42.8593 14.4855 42.9983 14.4855 43.1605V45H13.7682V44.6218H13.7469C13.7031 44.707 13.6445 44.7822 13.5711 44.8473C13.4977 44.9112 13.4095 44.9615 13.3066 44.9982C13.2036 45.0337 13.0846 45.0515 12.9497 45.0515ZM13.1663 44.5295C13.2776 44.5295 13.3758 44.5076 13.461 44.4638C13.5463 44.4188 13.6131 44.3584 13.6617 44.2827C13.7102 44.2069 13.7345 44.1211 13.7345 44.0252V43.7358C13.7108 43.7512 13.6782 43.7654 13.6368 43.7784C13.5966 43.7902 13.551 43.8015 13.5001 43.8121C13.4492 43.8216 13.3983 43.8305 13.3474 43.8388C13.2965 43.8459 13.2503 43.8524 13.2089 43.8583C13.1201 43.8713 13.0426 43.892 12.9763 43.9205C12.91 43.9489 12.8585 43.9873 12.8218 44.0359C12.7851 44.0832 12.7668 44.1424 12.7668 44.2134C12.7668 44.3164 12.8041 44.3951 12.8786 44.4496C12.9544 44.5028 13.0503 44.5295 13.1663 44.5295ZM15.8287 41.3636V45H15.0724V41.3636H15.8287ZM17.5848 45V44.446L18.8792 43.2475C18.9893 43.141 19.0816 43.0451 19.1562 42.9599C19.2319 42.8746 19.2893 42.7912 19.3284 42.7095C19.3675 42.6267 19.387 42.5373 19.387 42.4414C19.387 42.3349 19.3627 42.2431 19.3142 42.1662C19.2657 42.0881 19.1994 42.0283 19.1153 41.9869C19.0313 41.9442 18.936 41.9229 18.8295 41.9229C18.7182 41.9229 18.6211 41.9454 18.5383 41.9904C18.4554 42.0354 18.3915 42.0999 18.3465 42.1839C18.3015 42.268 18.279 42.368 18.279 42.484H17.5493C17.5493 42.2461 17.6031 42.0395 17.7108 41.8643C17.8186 41.6892 17.9695 41.5536 18.1636 41.4577C18.3577 41.3619 18.5815 41.3139 18.8348 41.3139C19.0952 41.3139 19.3219 41.3601 19.5148 41.4524C19.709 41.5436 19.8599 41.6702 19.9676 41.8324C20.0753 41.9946 20.1292 42.1804 20.1292 42.3899C20.1292 42.5272 20.1019 42.6628 20.0475 42.7965C19.9942 42.9303 19.8989 43.0788 19.7616 43.2422C19.6243 43.4044 19.4308 43.5991 19.181 43.8263L18.6501 44.3466V44.3714H20.1771V45H17.5848ZM21.1834 44.5774C21.0662 44.5774 20.9656 44.536 20.8816 44.4531C20.7987 44.3703 20.7573 44.2696 20.7573 44.1513C20.7573 44.0353 20.7987 43.9358 20.8816 43.853C20.9656 43.7701 21.0662 43.7287 21.1834 43.7287C21.2971 43.7287 21.3965 43.7701 21.4817 43.853C21.5669 43.9358 21.6096 44.0353 21.6096 44.1513C21.6096 44.2294 21.5894 44.301 21.5492 44.3661C21.5101 44.43 21.4586 44.4815 21.3947 44.5206C21.3308 44.5585 21.2604 44.5774 21.1834 44.5774ZM21.1834 42.793C21.0662 42.793 20.9656 42.7515 20.8816 42.6687C20.7987 42.5858 20.7573 42.4852 20.7573 42.3668C20.7573 42.2508 20.7987 42.152 20.8816 42.0703C20.9656 41.9875 21.0662 41.946 21.1834 41.946C21.2971 41.946 21.3965 41.9875 21.4817 42.0703C21.5669 42.152 21.6096 42.2508 21.6096 42.3668C21.6096 42.4461 21.5894 42.5183 21.5492 42.5835C21.5101 42.6474 21.4586 42.6983 21.3947 42.7362C21.3308 42.774 21.2604 42.793 21.1834 42.793Z" fill="#1F2937"/>
<path d="M73 47.5C74.1046 47.5 75 48.3954 75 49.5C75 50.6046 74.1046 51.5 73 51.5H7C5.89543 51.5 5 50.6046 5 49.5C5 48.3954 5.89543 47.5 7 47.5H73Z" fill="#D1FAE5"/>
<path d="M73 47.5C74.1046 47.5 75 48.3954 75 49.5C75 50.6046 74.1046 51.5 73 51.5H7C5.89543 51.5 5 50.6046 5 49.5C5 48.3954 5.89543 47.5 7 47.5H73Z" stroke="#E5E7EB"/>
<path d="M75 57.5H13V53.5H75V57.5Z" stroke="#E5E7EB"/>
<path d="M75 57.5H13V53.5H75V57.5Z" stroke="#E5E7EB"/>
<path d="M14.9062 54C15.6829 54 16.3125 54.6296 16.3125 55.4062V55.5938C16.3125 56.3704 15.6829 57 14.9062 57C14.1296 57 13.5 56.3704 13.5 55.5938V55.4062C13.5 54.6296 14.1296 54 14.9062 54Z" stroke="#D1D5DB"/>
<path d="M74 54.5C74.5523 54.5 75 54.9477 75 55.5C75 56.0523 74.5523 56.5 74 56.5H19.8125C19.2602 56.5 18.8125 56.0523 18.8125 55.5C18.8125 54.9477 19.2602 54.5 19.8125 54.5H74Z" fill="#E5E7EB"/>
<path d="M74 54.5C74.5523 54.5 75 54.9477 75 55.5C75 56.0523 74.5523 56.5 74 56.5H19.8125C19.2602 56.5 18.8125 56.0523 18.8125 55.5C18.8125 54.9477 19.2602 54.5 19.8125 54.5H74Z" stroke="#E5E7EB"/>
</svg>
