<svg width="80" height="113" viewBox="0 0 80 113" fill="none" xmlns="http://www.w3.org/2000/svg">
<path d="M4 1H76C77.933 1 79.5 2.567 79.5 4.5V108.5C79.5 110.433 77.933 112 76 112H4C2.067 112 0.5 110.433 0.5 108.5V4.5C0.5 2.567 2.067 1 4 1Z" fill="#F9FAFB"/>
<path d="M4 1H76C77.933 1 79.5 2.567 79.5 4.5V108.5C79.5 110.433 77.933 112 76 112H4C2.067 112 0.5 110.433 0.5 108.5V4.5C0.5 2.567 2.067 1 4 1Z" stroke="#E5E7EB"/>
<path d="M25.6719 109.5H5V3.5H25.6719V109.5Z" stroke="#E5E7EB"/>
<path d="M21.6719 3.5C23.881 3.5 25.6719 5.29086 25.6719 7.5V11H5V7.5C5 5.29086 6.79086 3.5 9 3.5H21.6719Z" fill="#DBEAFE"/>
<path d="M21.6719 3.5C23.881 3.5 25.6719 5.29086 25.6719 7.5V11H5V7.5C5 5.29086 6.79086 3.5 9 3.5H21.6719Z" stroke="#E5E7EB"/>
<path d="M8.75808 5.25426V4.86364H11.4854V5.25426H10.3419V8.5H9.90154V5.25426H8.75808ZM12.8206 8.55682C12.5744 8.55682 12.3583 8.49822 12.1725 8.38104C11.9878 8.26385 11.8434 8.09991 11.7393 7.8892C11.6363 7.6785 11.5848 7.43229 11.5848 7.15057C11.5848 6.86648 11.6363 6.61849 11.7393 6.40661C11.8434 6.19472 11.9878 6.03018 12.1725 5.913C12.3583 5.79581 12.5744 5.73722 12.8206 5.73722C13.0668 5.73722 13.2822 5.79581 13.4669 5.913C13.6527 6.03018 13.7971 6.19472 13.9001 6.40661C14.0043 6.61849 14.0564 6.86648 14.0564 7.15057C14.0564 7.43229 14.0043 7.6785 13.9001 7.8892C13.7971 8.09991 13.6527 8.26385 13.4669 8.38104C13.2822 8.49822 13.0668 8.55682 12.8206 8.55682ZM12.8206 8.1804C13.0076 8.1804 13.1615 8.13246 13.2822 8.03658C13.403 7.9407 13.4923 7.81463 13.5503 7.65838C13.6083 7.50213 13.6373 7.33286 13.6373 7.15057C13.6373 6.96828 13.6083 6.79841 13.5503 6.64098C13.4923 6.48355 13.403 6.3563 13.2822 6.25923C13.1615 6.16217 13.0076 6.11364 12.8206 6.11364C12.6336 6.11364 12.4797 6.16217 12.3589 6.25923C12.2382 6.3563 12.1488 6.48355 12.0908 6.64098C12.0328 6.79841 12.0038 6.96828 12.0038 7.15057C12.0038 7.33286 12.0328 7.50213 12.0908 7.65838C12.1488 7.81463 12.2382 7.9407 12.3589 8.03658C12.4797 8.13246 12.6336 8.1804 12.8206 8.1804ZM17.2812 8.5H16.1591V4.86364H17.331C17.6837 4.86364 17.9856 4.93643 18.2365 5.08203C18.4875 5.22644 18.6798 5.43419 18.8136 5.70526C18.9473 5.97514 19.0142 6.2983 19.0142 6.67472C19.0142 7.0535 18.9467 7.37962 18.8118 7.65305C18.6768 7.92531 18.4804 8.13482 18.2223 8.28161C17.9643 8.4272 17.6506 8.5 17.2812 8.5ZM16.5994 8.10938H17.2528C17.5535 8.10938 17.8027 8.05137 18.0004 7.93537C18.198 7.81937 18.3454 7.65424 18.4425 7.43999C18.5395 7.22573 18.5881 6.97064 18.5881 6.67472C18.5881 6.38116 18.5401 6.12843 18.4442 5.91655C18.3484 5.70348 18.2051 5.54013 18.0146 5.42649C17.824 5.31167 17.5866 5.25426 17.3026 5.25426H16.5994V8.10938ZM20.804 8.55682C20.5578 8.55682 20.3417 8.49822 20.1559 8.38104C19.9712 8.26385 19.8268 8.09991 19.7227 7.8892C19.6197 7.6785 19.5682 7.43229 19.5682 7.15057C19.5682 6.86648 19.6197 6.61849 19.7227 6.40661C19.8268 6.19472 19.9712 6.03018 20.1559 5.913C20.3417 5.79581 20.5578 5.73722 20.804 5.73722C21.0502 5.73722 21.2656 5.79581 21.4503 5.913C21.6361 6.03018 21.7805 6.19472 21.8835 6.40661C21.9877 6.61849 22.0398 6.86648 22.0398 7.15057C22.0398 7.43229 21.9877 7.6785 21.8835 7.8892C21.7805 8.09991 21.6361 8.26385 21.4503 8.38104C21.2656 8.49822 21.0502 8.55682 20.804 8.55682ZM20.804 8.1804C20.991 8.1804 21.1449 8.13246 21.2656 8.03658C21.3864 7.9407 21.4757 7.81463 21.5337 7.65838C21.5917 7.50213 21.6207 7.33286 21.6207 7.15057C21.6207 6.96828 21.5917 6.79841 21.5337 6.64098C21.4757 6.48355 21.3864 6.3563 21.2656 6.25923C21.1449 6.16217 20.991 6.11364 20.804 6.11364C20.617 6.11364 20.4631 6.16217 20.3423 6.25923C20.2216 6.3563 20.1322 6.48355 20.0742 6.64098C20.0162 6.79841 19.9872 6.96828 19.9872 7.15057C19.9872 7.33286 20.0162 7.50213 20.0742 7.65838C20.1322 7.81463 20.2216 7.9407 20.3423 8.03658C20.4631 8.13246 20.617 8.1804 20.804 8.1804Z" fill="#1F2937"/>
<g filter="url(#filter0_d_55_757)">
<path d="M5 14C5 12.3431 6.34315 11 8 11H22.6719C24.3287 11 25.6719 12.3431 25.6719 14C25.6719 15.6569 24.3287 17 22.6719 17H8C6.34315 17 5 15.6569 5 14Z" fill="white"/>
<path d="M22.6719 13C23.2242 13 23.6719 13.4477 23.6719 14C23.6719 14.5523 23.2242 15 22.6719 15H8C7.44772 15 7 14.5523 7 14C7 13.4477 7.44772 13 8 13H22.6719Z" fill="#E5E7EB"/>
<path d="M22.6719 13C23.2242 13 23.6719 13.4477 23.6719 14C23.6719 14.5523 23.2242 15 22.6719 15H8C7.44772 15 7 14.5523 7 14C7 13.4477 7.44772 13 8 13H22.6719Z" stroke="#E5E7EB"/>
</g>
<g filter="url(#filter1_d_55_757)">
<path d="M5 22C5 20.3431 6.34315 19 8 19H22.6719C24.3287 19 25.6719 20.3431 25.6719 22C25.6719 23.6569 24.3287 25 22.6719 25H8C6.34315 25 5 23.6569 5 22Z" fill="white"/>
<path d="M22.6719 21C23.2242 21 23.6719 21.4477 23.6719 22C23.6719 22.5523 23.2242 23 22.6719 23H8C7.44772 23 7 22.5523 7 22C7 21.4477 7.44772 21 8 21H22.6719Z" fill="#E5E7EB"/>
<path d="M22.6719 21C23.2242 21 23.6719 21.4477 23.6719 22C23.6719 22.5523 23.2242 23 22.6719 23H8C7.44772 23 7 22.5523 7 22C7 21.4477 7.44772 21 8 21H22.6719Z" stroke="#E5E7EB"/>
</g>
<path d="M50.3438 109.5H29.6719V3.5H50.3438V109.5Z" stroke="#E5E7EB"/>
<path d="M46.3438 3.5C48.5529 3.5 50.3438 5.29086 50.3438 7.5V11H29.6719V7.5C29.6719 5.29086 31.4627 3.5 33.6719 3.5H46.3438Z" fill="#FEF3C7"/>
<path d="M46.3438 3.5C48.5529 3.5 50.3438 5.29086 50.3438 7.5V11H29.6719V7.5C29.6719 5.29086 31.4627 3.5 33.6719 3.5H46.3438Z" stroke="#E5E7EB"/>
<path d="M34.6948 8.5H33.5727V4.86364H34.7445C35.0973 4.86364 35.3991 4.93643 35.6501 5.08203C35.901 5.22644 36.0934 5.43419 36.2271 5.70526C36.3609 5.97514 36.4278 6.2983 36.4278 6.67472C36.4278 7.0535 36.3603 7.37962 36.2254 7.65305C36.0904 7.92531 35.8939 8.13482 35.6359 8.28161C35.3778 8.4272 35.0641 8.5 34.6948 8.5ZM34.013 8.10938H34.6664C34.9671 8.10938 35.2162 8.05137 35.4139 7.93537C35.6116 7.81937 35.759 7.65424 35.856 7.43999C35.9531 7.22573 36.0016 6.97064 36.0016 6.67472C36.0016 6.38116 35.9537 6.12843 35.8578 5.91655C35.7619 5.70348 35.6187 5.54013 35.4281 5.42649C35.2376 5.31167 35.0002 5.25426 34.7161 5.25426H34.013V8.10938ZM38.2176 8.55682C37.9713 8.55682 37.7553 8.49822 37.5695 8.38104C37.3848 8.26385 37.2404 8.09991 37.1362 7.8892C37.0332 7.6785 36.9818 7.43229 36.9818 7.15057C36.9818 6.86648 37.0332 6.61849 37.1362 6.40661C37.2404 6.19472 37.3848 6.03018 37.5695 5.913C37.7553 5.79581 37.9713 5.73722 38.2176 5.73722C38.4638 5.73722 38.6792 5.79581 38.8639 5.913C39.0497 6.03018 39.1941 6.19472 39.2971 6.40661C39.4013 6.61849 39.4533 6.86648 39.4533 7.15057C39.4533 7.43229 39.4013 7.6785 39.2971 7.8892C39.1941 8.09991 39.0497 8.26385 38.8639 8.38104C38.6792 8.49822 38.4638 8.55682 38.2176 8.55682ZM38.2176 8.1804C38.4046 8.1804 38.5585 8.13246 38.6792 8.03658C38.7999 7.9407 38.8893 7.81463 38.9473 7.65838C39.0053 7.50213 39.0343 7.33286 39.0343 7.15057C39.0343 6.96828 39.0053 6.79841 38.9473 6.64098C38.8893 6.48355 38.7999 6.3563 38.6792 6.25923C38.5585 6.16217 38.4046 6.11364 38.2176 6.11364C38.0305 6.11364 37.8766 6.16217 37.7559 6.25923C37.6352 6.3563 37.5458 6.48355 37.4878 6.64098C37.4298 6.79841 37.4008 6.96828 37.4008 7.15057C37.4008 7.33286 37.4298 7.50213 37.4878 7.65838C37.5458 7.81463 37.6352 7.9407 37.7559 8.03658C37.8766 8.13246 38.0305 8.1804 38.2176 8.1804ZM40.093 8.5V5.77273H40.512V8.5H40.093ZM40.3061 5.31818C40.2244 5.31818 40.154 5.29036 40.0948 5.23473C40.0368 5.1791 40.0078 5.11222 40.0078 5.03409C40.0078 4.95597 40.0368 4.88909 40.0948 4.83345C40.154 4.77782 40.2244 4.75 40.3061 4.75C40.3877 4.75 40.4576 4.77782 40.5156 4.83345C40.5748 4.88909 40.6044 4.95597 40.6044 5.03409C40.6044 5.11222 40.5748 5.1791 40.5156 5.23473C40.4576 5.29036 40.3877 5.31818 40.3061 5.31818ZM41.6986 6.85938V8.5H41.2795V5.77273H41.6843V6.19886H41.7199C41.7838 6.06037 41.8808 5.9491 42.0111 5.86506C42.1413 5.77983 42.3093 5.73722 42.5153 5.73722C42.7 5.73722 42.8616 5.77509 43 5.85085C43.1385 5.92543 43.2463 6.03906 43.3232 6.19176C43.4001 6.34328 43.4386 6.53504 43.4386 6.76705V8.5H43.0196V6.79545C43.0196 6.5812 42.9639 6.4143 42.8527 6.29474C42.7414 6.17401 42.5887 6.11364 42.3946 6.11364C42.2608 6.11364 42.1413 6.14264 42.0359 6.20064C41.9317 6.25864 41.8495 6.34328 41.7891 6.45455C41.7287 6.56581 41.6986 6.70076 41.6986 6.85938ZM45.3052 9.57955C45.1028 9.57955 44.9288 9.5535 44.7832 9.50142C44.6376 9.45052 44.5162 9.38305 44.4192 9.29901C44.3233 9.21615 44.2469 9.12737 44.1901 9.03267L44.5239 8.7983C44.5618 8.84801 44.6097 8.90483 44.6677 8.96875C44.7257 9.03385 44.8051 9.09008 44.9057 9.13743C45.0075 9.18596 45.1406 9.21023 45.3052 9.21023C45.5253 9.21023 45.707 9.15696 45.8503 9.05043C45.9935 8.94389 46.0651 8.77699 46.0651 8.54972V7.99574H46.0296C45.9988 8.04545 45.955 8.10701 45.8982 8.1804C45.8426 8.2526 45.7621 8.31712 45.6567 8.37393C45.5526 8.42957 45.4117 8.45739 45.2342 8.45739C45.014 8.45739 44.8163 8.4053 44.6411 8.30114C44.4671 8.19697 44.3292 8.04545 44.2274 7.84659C44.1268 7.64773 44.0765 7.40625 44.0765 7.12216C44.0765 6.8428 44.1256 6.59955 44.2239 6.3924C44.3221 6.18407 44.4588 6.02308 44.634 5.90945C44.8092 5.79463 45.0116 5.73722 45.2413 5.73722C45.4188 5.73722 45.5597 5.76681 45.6638 5.82599C45.7692 5.884 45.8497 5.95028 45.9053 6.02486C45.9621 6.09825 46.0059 6.15862 46.0367 6.20597H46.0793V5.77273H46.4842V8.57812C46.4842 8.8125 46.4309 9.00308 46.3244 9.14986C46.219 9.29782 46.077 9.40613 45.8982 9.47479C45.7207 9.54463 45.523 9.57955 45.3052 9.57955ZM45.291 8.08097C45.4591 8.08097 45.6011 8.0425 45.7171 7.96555C45.8331 7.88861 45.9213 7.77794 45.9817 7.63352C46.042 7.48911 46.0722 7.31629 46.0722 7.11506C46.0722 6.91856 46.0426 6.74515 45.9834 6.59482C45.9243 6.44448 45.8367 6.3267 45.7207 6.24148C45.6047 6.15625 45.4614 6.11364 45.291 6.11364C45.1134 6.11364 44.9655 6.15862 44.8471 6.24858C44.7299 6.33854 44.6417 6.45928 44.5825 6.6108C44.5245 6.76231 44.4955 6.9304 44.4955 7.11506C44.4955 7.30445 44.5251 7.47195 44.5843 7.61754C44.6447 7.76196 44.7334 7.87559 44.8506 7.95845C44.969 8.04013 45.1158 8.08097 45.291 8.08097Z" fill="#1F2937"/>
<g filter="url(#filter2_d_55_757)">
<path d="M29.6719 14C29.6719 12.3431 31.015 11 32.6719 11H47.3438C49.0006 11 50.3438 12.3431 50.3438 14C50.3438 15.6569 49.0006 17 47.3438 17H32.6719C31.015 17 29.6719 15.6569 29.6719 14Z" fill="white"/>
<path d="M47.3438 13C47.896 13 48.3438 13.4477 48.3438 14C48.3438 14.5523 47.896 15 47.3438 15H32.6719C32.1196 15 31.6719 14.5523 31.6719 14C31.6719 13.4477 32.1196 13 32.6719 13H47.3438Z" fill="#E5E7EB"/>
<path d="M47.3438 13C47.896 13 48.3438 13.4477 48.3438 14C48.3438 14.5523 47.896 15 47.3438 15H32.6719C32.1196 15 31.6719 14.5523 31.6719 14C31.6719 13.4477 32.1196 13 32.6719 13H47.3438Z" stroke="#E5E7EB"/>
</g>
<path d="M75.0156 109.5H54.3438V3.5H75.0156V109.5Z" stroke="#E5E7EB"/>
<path d="M71.0156 3.5C73.2248 3.5 75.0156 5.29086 75.0156 7.5V11H54.3438V7.5C54.3438 5.29086 56.1346 3.5 58.3438 3.5H71.0156Z" fill="#D1FAE5"/>
<path d="M71.0156 3.5C73.2248 3.5 75.0156 5.29086 75.0156 7.5V11H54.3438V7.5C54.3438 5.29086 56.1346 3.5 58.3438 3.5H71.0156Z" stroke="#E5E7EB"/>
<path d="M60.2471 8.5H59.1249V4.86364H60.2968C60.6495 4.86364 60.9514 4.93643 61.2023 5.08203C61.4533 5.22644 61.6456 5.43419 61.7794 5.70526C61.9131 5.97514 61.98 6.2983 61.98 6.67472C61.98 7.0535 61.9126 7.37962 61.7776 7.65305C61.6427 7.92531 61.4462 8.13482 61.1881 8.28161C60.9301 8.4272 60.6164 8.5 60.2471 8.5ZM59.5653 8.10938H60.2187C60.5193 8.10938 60.7685 8.05137 60.9662 7.93537C61.1639 7.81937 61.3112 7.65424 61.4083 7.43999C61.5054 7.22573 61.5539 6.97064 61.5539 6.67472C61.5539 6.38116 61.5059 6.12843 61.4101 5.91655C61.3142 5.70348 61.171 5.54013 60.9804 5.42649C60.7898 5.31167 60.5525 5.25426 60.2684 5.25426H59.5653V8.10938ZM63.7698 8.55682C63.5236 8.55682 63.3076 8.49822 63.1217 8.38104C62.9371 8.26385 62.7926 8.09991 62.6885 7.8892C62.5855 7.6785 62.534 7.43229 62.534 7.15057C62.534 6.86648 62.5855 6.61849 62.6885 6.40661C62.7926 6.19472 62.9371 6.03018 63.1217 5.913C63.3076 5.79581 63.5236 5.73722 63.7698 5.73722C64.016 5.73722 64.2314 5.79581 64.4161 5.913C64.6019 6.03018 64.7464 6.19472 64.8493 6.40661C64.9535 6.61849 65.0056 6.86648 65.0056 7.15057C65.0056 7.43229 64.9535 7.6785 64.8493 7.8892C64.7464 8.09991 64.6019 8.26385 64.4161 8.38104C64.2314 8.49822 64.016 8.55682 63.7698 8.55682ZM63.7698 8.1804C63.9568 8.1804 64.1107 8.13246 64.2314 8.03658C64.3522 7.9407 64.4416 7.81463 64.4996 7.65838C64.5576 7.50213 64.5866 7.33286 64.5866 7.15057C64.5866 6.96828 64.5576 6.79841 64.4996 6.64098C64.4416 6.48355 64.3522 6.3563 64.2314 6.25923C64.1107 6.16217 63.9568 6.11364 63.7698 6.11364C63.5828 6.11364 63.4289 6.16217 63.3081 6.25923C63.1874 6.3563 63.098 6.48355 63.04 6.64098C62.982 6.79841 62.953 6.96828 62.953 7.15057C62.953 7.33286 62.982 7.50213 63.04 7.65838C63.098 7.81463 63.1874 7.9407 63.3081 8.03658C63.4289 8.13246 63.5828 8.1804 63.7698 8.1804ZM66.0643 6.85938V8.5H65.6452V5.77273H66.0501V6.19886H66.0856C66.1495 6.06037 66.2466 5.9491 66.3768 5.86506C66.507 5.77983 66.6751 5.73722 66.881 5.73722C67.0657 5.73722 67.2273 5.77509 67.3658 5.85085C67.5043 5.92543 67.612 6.03906 67.6889 6.19176C67.7659 6.34328 67.8043 6.53504 67.8043 6.76705V8.5H67.3853V6.79545C67.3853 6.5812 67.3297 6.4143 67.2184 6.29474C67.1071 6.17401 66.9544 6.11364 66.7603 6.11364C66.6265 6.11364 66.507 6.14264 66.4016 6.20064C66.2975 6.25864 66.2152 6.34328 66.1548 6.45455C66.0945 6.56581 66.0643 6.70076 66.0643 6.85938ZM69.7135 8.55682C69.4507 8.55682 69.224 8.49882 69.0335 8.38281C68.8441 8.26562 68.6979 8.10227 68.5949 7.89276C68.4931 7.68205 68.4422 7.43703 68.4422 7.15767C68.4422 6.87831 68.4931 6.6321 68.5949 6.41903C68.6979 6.20478 68.8411 6.03788 69.0246 5.91832C69.2093 5.79759 69.4247 5.73722 69.6709 5.73722C69.8129 5.73722 69.9532 5.76089 70.0917 5.80824C70.2302 5.85559 70.3563 5.93253 70.4699 6.03906C70.5835 6.14441 70.6741 6.28409 70.7416 6.4581C70.809 6.6321 70.8428 6.84635 70.8428 7.10085V7.27841H68.7405V6.91619H70.4166C70.4166 6.76231 70.3859 6.625 70.3243 6.50426C70.2639 6.38352 70.1775 6.28823 70.0651 6.21839C69.9538 6.14856 69.8224 6.11364 69.6709 6.11364C69.504 6.11364 69.3596 6.15507 69.2377 6.23793C69.1169 6.3196 69.024 6.42614 68.9589 6.55753C68.8938 6.68892 68.8612 6.82978 68.8612 6.98011V7.22159C68.8612 7.42756 68.8968 7.60215 68.9678 7.74538C69.04 7.88743 69.14 7.99574 69.2678 8.07031C69.3957 8.1437 69.5442 8.1804 69.7135 8.1804C69.8236 8.1804 69.923 8.16501 70.0118 8.13423C70.1018 8.10227 70.1793 8.05492 70.2444 7.99219C70.3095 7.92827 70.3598 7.84896 70.3953 7.75426L70.8002 7.8679C70.7575 8.00521 70.6859 8.12595 70.5853 8.23011C70.4847 8.3331 70.3604 8.41359 70.2124 8.47159C70.0645 8.52841 69.8982 8.55682 69.7135 8.55682Z" fill="#1F2937"/>
<g filter="url(#filter3_d_55_757)">
<path d="M54.3438 14C54.3438 12.3431 55.6869 11 57.3438 11H72.0156C73.6725 11 75.0156 12.3431 75.0156 14C75.0156 15.6569 73.6725 17 72.0156 17H57.3438C55.6869 17 54.3438 15.6569 54.3438 14Z" fill="white"/>
<path d="M72.0156 13C72.5679 13 73.0156 13.4477 73.0156 14C73.0156 14.5523 72.5679 15 72.0156 15H57.3438C56.7915 15 56.3438 14.5523 56.3438 14C56.3438 13.4477 56.7915 13 57.3438 13H72.0156Z" fill="#E5E7EB"/>
<path d="M72.0156 13C72.5679 13 73.0156 13.4477 73.0156 14C73.0156 14.5523 72.5679 15 72.0156 15H57.3438C56.7915 15 56.3438 14.5523 56.3438 14C56.3438 13.4477 56.7915 13 57.3438 13H72.0156Z" stroke="#E5E7EB"/>
</g>
<defs>
<filter id="filter0_d_55_757" x="3" y="10" width="24.6719" height="10" filterUnits="userSpaceOnUse" color-interpolation-filters="sRGB">
<feFlood flood-opacity="0" result="BackgroundImageFix"/>
<feColorMatrix in="SourceAlpha" type="matrix" values="0 0 0 0 0 0 0 0 0 0 0 0 0 0 0 0 0 0 127 0" result="hardAlpha"/>
<feOffset dy="1"/>
<feGaussianBlur stdDeviation="1"/>
<feColorMatrix type="matrix" values="0 0 0 0 0 0 0 0 0 0 0 0 0 0 0 0 0 0 0.05 0"/>
<feBlend mode="normal" in2="BackgroundImageFix" result="effect1_dropShadow_55_757"/>
<feBlend mode="normal" in="SourceGraphic" in2="effect1_dropShadow_55_757" result="shape"/>
</filter>
<filter id="filter1_d_55_757" x="3" y="18" width="24.6719" height="10" filterUnits="userSpaceOnUse" color-interpolation-filters="sRGB">
<feFlood flood-opacity="0" result="BackgroundImageFix"/>
<feColorMatrix in="SourceAlpha" type="matrix" values="0 0 0 0 0 0 0 0 0 0 0 0 0 0 0 0 0 0 127 0" result="hardAlpha"/>
<feOffset dy="1"/>
<feGaussianBlur stdDeviation="1"/>
<feColorMatrix type="matrix" values="0 0 0 0 0 0 0 0 0 0 0 0 0 0 0 0 0 0 0.05 0"/>
<feBlend mode="normal" in2="BackgroundImageFix" result="effect1_dropShadow_55_757"/>
<feBlend mode="normal" in="SourceGraphic" in2="effect1_dropShadow_55_757" result="shape"/>
</filter>
<filter id="filter2_d_55_757" x="27.6719" y="10" width="24.6719" height="10" filterUnits="userSpaceOnUse" color-interpolation-filters="sRGB">
<feFlood flood-opacity="0" result="BackgroundImageFix"/>
<feColorMatrix in="SourceAlpha" type="matrix" values="0 0 0 0 0 0 0 0 0 0 0 0 0 0 0 0 0 0 127 0" result="hardAlpha"/>
<feOffset dy="1"/>
<feGaussianBlur stdDeviation="1"/>
<feColorMatrix type="matrix" values="0 0 0 0 0 0 0 0 0 0 0 0 0 0 0 0 0 0 0.05 0"/>
<feBlend mode="normal" in2="BackgroundImageFix" result="effect1_dropShadow_55_757"/>
<feBlend mode="normal" in="SourceGraphic" in2="effect1_dropShadow_55_757" result="shape"/>
</filter>
<filter id="filter3_d_55_757" x="52.3438" y="10" width="24.6719" height="10" filterUnits="userSpaceOnUse" color-interpolation-filters="sRGB">
<feFlood flood-opacity="0" result="BackgroundImageFix"/>
<feColorMatrix in="SourceAlpha" type="matrix" values="0 0 0 0 0 0 0 0 0 0 0 0 0 0 0 0 0 0 127 0" result="hardAlpha"/>
<feOffset dy="1"/>
<feGaussianBlur stdDeviation="1"/>
<feColorMatrix type="matrix" values="0 0 0 0 0 0 0 0 0 0 0 0 0 0 0 0 0 0 0.05 0"/>
<feBlend mode="normal" in2="BackgroundImageFix" result="effect1_dropShadow_55_757"/>
<feBlend mode="normal" in="SourceGraphic" in2="effect1_dropShadow_55_757" result="shape"/>
</filter>
</defs>
</svg>
