<svg width="80" height="113" viewBox="0 0 80 113" fill="none" xmlns="http://www.w3.org/2000/svg">
<path d="M4 1H76C77.933 1 79.5 2.567 79.5 4.5V108.5C79.5 110.433 77.933 112 76 112H4C2.067 112 0.5 110.433 0.5 108.5V4.5C0.5 2.567 2.067 1 4 1Z" fill="#F9FAFB"/>
<path d="M4 1H76C77.933 1 79.5 2.567 79.5 4.5V108.5C79.5 110.433 77.933 112 76 112H4C2.067 112 0.5 110.433 0.5 108.5V4.5C0.5 2.567 2.067 1 4 1Z" stroke="#E5E7EB"/>
<mask id="path-2-inside-1_55_743" fill="white">
<path d="M5 5.5H75V17.5H5V5.5Z"/>
</mask>
<path d="M75 17.5V16.5H5V17.5V18.5H75V17.5Z" fill="#E5E7EB" mask="url(#path-2-inside-1_55_743)"/>
<path d="M32.4688 14.5H5V5.5H32.4688V14.5Z" stroke="#E5E7EB"/>
<path d="M5.37926 12.5V8.13636H6.30185V11.7393H8.17259V12.5H5.37926ZM8.78356 12.5V8.13636H11.7239V8.89702H9.70614V9.93679H11.5726V10.6974H9.70614V11.7393H11.7324V12.5H8.78356ZM16.3075 9.66406H15.3743C15.3572 9.54332 15.3224 9.43608 15.2699 9.34233C15.2173 9.24716 15.1499 9.16619 15.0675 9.09943C14.9851 9.03267 14.8899 8.98153 14.782 8.94602C14.6754 8.91051 14.5597 8.89276 14.4347 8.89276C14.2088 8.89276 14.0121 8.94886 13.8445 9.06108C13.6768 9.17187 13.5469 9.33381 13.4545 9.54688C13.3622 9.75852 13.3161 10.0156 13.3161 10.3182C13.3161 10.6293 13.3622 10.8906 13.4545 11.1023C13.5483 11.3139 13.679 11.4737 13.8466 11.5817C14.0142 11.6896 14.2081 11.7436 14.4283 11.7436C14.5518 11.7436 14.6662 11.7273 14.7713 11.6946C14.8778 11.6619 14.9723 11.6143 15.0547 11.5518C15.1371 11.4879 15.2053 11.4105 15.2592 11.3196C15.3146 11.2287 15.353 11.125 15.3743 11.0085L16.3075 11.0128C16.2834 11.2131 16.223 11.4062 16.1264 11.5923C16.0313 11.777 15.9027 11.9425 15.7408 12.0888C15.5803 12.2337 15.3885 12.3487 15.1655 12.4339C14.9439 12.5178 14.6932 12.5597 14.4134 12.5597C14.0241 12.5597 13.6761 12.4716 13.3693 12.2955C13.0639 12.1193 12.8224 11.8643 12.6449 11.5305C12.4688 11.1967 12.3807 10.7926 12.3807 10.3182C12.3807 9.84233 12.4702 9.4375 12.6491 9.10369C12.8281 8.76989 13.071 8.51562 13.3778 8.34091C13.6847 8.16477 14.0298 8.0767 14.4134 8.0767C14.6662 8.0767 14.9006 8.11222 15.1165 8.18324C15.3338 8.25426 15.5263 8.35795 15.6939 8.49432C15.8615 8.62926 15.9979 8.79474 16.103 8.99077C16.2095 9.18679 16.2777 9.41122 16.3075 9.66406ZM16.8029 8.89702V8.13636H20.3867V8.89702H19.0508V12.5H18.1388V8.89702H16.8029ZM23.6722 8.13636H24.5948V10.9702C24.5948 11.2884 24.5188 11.5668 24.3668 11.8054C24.2163 12.044 24.0053 12.2301 23.734 12.3636C23.4627 12.4957 23.1467 12.5618 22.7859 12.5618C22.4237 12.5618 22.1069 12.4957 21.8356 12.3636C21.5643 12.2301 21.3533 12.044 21.2028 11.8054C21.0522 11.5668 20.9769 11.2884 20.9769 10.9702V8.13636H21.8995V10.8913C21.8995 11.0575 21.9357 11.2053 22.0082 11.3345C22.082 11.4638 22.1857 11.5653 22.3192 11.6392C22.4528 11.7131 22.6083 11.75 22.7859 11.75C22.9648 11.75 23.1204 11.7131 23.2525 11.6392C23.386 11.5653 23.489 11.4638 23.5614 11.3345C23.6353 11.2053 23.6722 11.0575 23.6722 10.8913V8.13636ZM25.3539 12.5V8.13636H27.0755C27.405 8.13636 27.6863 8.19531 27.9192 8.31321C28.1536 8.42969 28.3319 8.59517 28.454 8.80966C28.5776 9.02273 28.6394 9.27344 28.6394 9.56179C28.6394 9.85156 28.5769 10.1009 28.4519 10.3097C28.3269 10.517 28.1458 10.6761 27.9086 10.7869C27.6728 10.8977 27.3873 10.9531 27.052 10.9531H25.8993V10.2116H26.9029C27.079 10.2116 27.2253 10.1875 27.3418 10.1392C27.4583 10.0909 27.5449 10.0185 27.6017 9.92188C27.66 9.82528 27.6891 9.70526 27.6891 9.56179C27.6891 9.4169 27.66 9.29474 27.6017 9.19531C27.5449 9.09588 27.4576 9.0206 27.3397 8.96946C27.2232 8.9169 27.0762 8.89062 26.8986 8.89062H26.2765V12.5H25.3539ZM27.7104 10.5142L28.7949 12.5H27.7765L26.7154 10.5142H27.7104ZM29.2914 12.5V8.13636H32.2317V8.89702H30.214V9.93679H32.0804V10.6974H30.214V11.7393H32.2402V12.5H29.2914Z" fill="#1F2937"/>
<path d="M75 14.5H61.75V5.5H75V14.5Z" stroke="#E5E7EB"/>
<path d="M63.625 12.5H62.2784V8.13636H63.6847C64.108 8.13636 64.4702 8.22372 64.7713 8.39844C65.0724 8.57173 65.3033 8.82102 65.4638 9.14631C65.6243 9.47017 65.7045 9.85795 65.7045 10.3097C65.7045 10.7642 65.6236 11.1555 65.4616 11.4837C65.2997 11.8104 65.0639 12.0618 64.7543 12.2379C64.4446 12.4126 64.0682 12.5 63.625 12.5ZM62.8068 12.0312H63.5909C63.9517 12.0312 64.2507 11.9616 64.4879 11.8224C64.7251 11.6832 64.902 11.4851 65.0185 11.228C65.1349 10.9709 65.1932 10.6648 65.1932 10.3097C65.1932 9.95739 65.1357 9.65412 65.0206 9.39986C64.9055 9.14418 64.7337 8.94815 64.505 8.81179C64.2763 8.67401 63.9915 8.60511 63.6506 8.60511H62.8068V12.0312ZM67.4858 12.5767C67.2784 12.5767 67.0902 12.5376 66.9212 12.4595C66.7521 12.38 66.6179 12.2656 66.5185 12.1165C66.419 11.9659 66.3693 11.7841 66.3693 11.571C66.3693 11.3835 66.4063 11.2315 66.4801 11.1151C66.554 10.9972 66.6527 10.9048 66.7763 10.8381C66.8999 10.7713 67.0362 10.7216 67.1854 10.6889C67.3359 10.6548 67.4872 10.6278 67.6392 10.608C67.8381 10.5824 67.9993 10.5632 68.1229 10.5504C68.2479 10.5362 68.3388 10.5128 68.3956 10.4801C68.4538 10.4474 68.483 10.3906 68.483 10.3097V10.2926C68.483 10.0824 68.4254 9.91903 68.3104 9.80256C68.1967 9.68608 68.0241 9.62784 67.7926 9.62784C67.5526 9.62784 67.3643 9.6804 67.228 9.78551C67.0916 9.89062 66.9957 10.0028 66.9403 10.1222L66.4631 9.9517C66.5483 9.75284 66.6619 9.59801 66.804 9.48722C66.9474 9.375 67.1037 9.29687 67.2727 9.25284C67.4432 9.20739 67.6108 9.18466 67.7756 9.18466C67.8807 9.18466 68.0014 9.19744 68.1378 9.22301C68.2756 9.24716 68.4084 9.29759 68.5362 9.37429C68.6655 9.45099 68.7727 9.56676 68.858 9.72159C68.9432 9.87642 68.9858 10.0838 68.9858 10.3438V12.5H68.483V12.0568H68.4574C68.4233 12.1278 68.3665 12.2038 68.2869 12.2848C68.2074 12.3658 68.1016 12.4347 67.9695 12.4915C67.8374 12.5483 67.6761 12.5767 67.4858 12.5767ZM67.5625 12.125C67.7614 12.125 67.929 12.0859 68.0653 12.0078C68.2031 11.9297 68.3068 11.8288 68.3764 11.7053C68.4474 11.5817 68.483 11.4517 68.483 11.3153V10.8551C68.4616 10.8807 68.4148 10.9041 68.3423 10.9254C68.2713 10.9453 68.1889 10.9631 68.0952 10.9787C68.0028 10.9929 67.9126 11.0057 67.8246 11.017C67.7379 11.027 67.6676 11.0355 67.6136 11.0426C67.483 11.0597 67.3608 11.0874 67.2472 11.1257C67.1349 11.1626 67.044 11.2187 66.9744 11.294C66.9063 11.3679 66.8722 11.4687 66.8722 11.5966C66.8722 11.7713 66.9368 11.9034 67.0661 11.9929C67.1967 12.081 67.3622 12.125 67.5625 12.125ZM71.3269 9.22727V9.65341H69.6309V9.22727H71.3269ZM70.1252 8.44318H70.628V11.5625C70.628 11.7045 70.6486 11.8111 70.6898 11.8821C70.7324 11.9517 70.7864 11.9986 70.8517 12.0227C70.9185 12.0455 70.9888 12.0568 71.0627 12.0568C71.1181 12.0568 71.1635 12.054 71.199 12.0483C71.2346 12.0412 71.263 12.0355 71.2843 12.0312L71.3865 12.483C71.3525 12.4957 71.3049 12.5085 71.2438 12.5213C71.1827 12.5355 71.1053 12.5426 71.0115 12.5426C70.8695 12.5426 70.7303 12.5121 70.5939 12.451C70.459 12.3899 70.3468 12.2969 70.2573 12.1719C70.1692 12.0469 70.1252 11.8892 70.1252 11.6989V8.44318ZM73.4203 12.5682C73.1049 12.5682 72.8329 12.4986 72.6042 12.3594C72.377 12.2188 72.2015 12.0227 72.0779 11.7713C71.9558 11.5185 71.8947 11.2244 71.8947 10.8892C71.8947 10.554 71.9558 10.2585 72.0779 10.0028C72.2015 9.74574 72.3734 9.54545 72.5936 9.40199C72.8152 9.2571 73.0737 9.18466 73.3691 9.18466C73.5396 9.18466 73.7079 9.21307 73.8741 9.26989C74.0403 9.3267 74.1916 9.41903 74.3279 9.54688C74.4643 9.6733 74.573 9.84091 74.6539 10.0497C74.7349 10.2585 74.7754 10.5156 74.7754 10.821V11.0341H72.2527V10.5994H74.264C74.264 10.4148 74.2271 10.25 74.1532 10.1051C74.0808 9.96023 73.9771 9.84588 73.8422 9.76207C73.7086 9.67827 73.551 9.63636 73.3691 9.63636C73.1689 9.63636 72.9956 9.68608 72.8493 9.78551C72.7044 9.88352 72.5929 10.0114 72.5147 10.169C72.4366 10.3267 72.3975 10.4957 72.3975 10.6761V10.9659C72.3975 11.2131 72.4402 11.4226 72.5254 11.5945C72.612 11.7649 72.7321 11.8949 72.8855 11.9844C73.0389 12.0724 73.2172 12.1165 73.4203 12.1165C73.5524 12.1165 73.6717 12.098 73.7782 12.0611C73.8862 12.0227 73.9792 11.9659 74.0574 11.8906C74.1355 11.8139 74.1958 11.7187 74.2385 11.6051L74.7243 11.7415C74.6731 11.9062 74.5872 12.0511 74.4664 12.1761C74.3457 12.2997 74.1966 12.3963 74.019 12.4659C73.8414 12.5341 73.6419 12.5682 73.4203 12.5682Z" fill="#1F2937"/>
<path d="M73 25.5C74.1046 25.5 75 26.3954 75 27.5C75 28.6046 74.1046 29.5 73 29.5H7C5.89543 29.5 5 28.6046 5 27.5C5 26.3954 5.89543 25.5 7 25.5H73Z" fill="#E5E7EB"/>
<path d="M73 25.5C74.1046 25.5 75 26.3954 75 27.5C75 28.6046 74.1046 29.5 73 29.5H7C5.89543 29.5 5 28.6046 5 27.5C5 26.3954 5.89543 25.5 7 25.5H73Z" stroke="#E5E7EB"/>
<path d="M59 33.5C60.1046 33.5 61 34.3954 61 35.5C61 36.6046 60.1046 37.5 59 37.5H7C5.89543 37.5 5 36.6046 5 35.5C5 34.3954 5.89543 33.5 7 33.5H59Z" fill="#E5E7EB"/>
<path d="M59 33.5C60.1046 33.5 61 34.3954 61 35.5C61 36.6046 60.1046 37.5 59 37.5H7C5.89543 37.5 5 36.6046 5 35.5C5 34.3954 5.89543 33.5 7 33.5H59Z" stroke="#E5E7EB"/>
<path d="M73 41.5C74.1046 41.5 75 42.3954 75 43.5C75 44.6046 74.1046 45.5 73 45.5H7C5.89543 45.5 5 44.6046 5 43.5C5 42.3954 5.89543 41.5 7 41.5H73Z" fill="#E5E7EB"/>
<path d="M73 41.5C74.1046 41.5 75 42.3954 75 43.5C75 44.6046 74.1046 45.5 73 45.5H7C5.89543 45.5 5 44.6046 5 43.5C5 42.3954 5.89543 41.5 7 41.5H73Z" stroke="#E5E7EB"/>
<path d="M55.5 49.5C56.6046 49.5 57.5 50.3954 57.5 51.5C57.5 52.6046 56.6046 53.5 55.5 53.5H7C5.89543 53.5 5 52.6046 5 51.5C5 50.3954 5.89543 49.5 7 49.5H55.5Z" fill="#E5E7EB"/>
<path d="M55.5 49.5C56.6046 49.5 57.5 50.3954 57.5 51.5C57.5 52.6046 56.6046 53.5 55.5 53.5H7C5.89543 53.5 5 52.6046 5 51.5C5 50.3954 5.89543 49.5 7 49.5H55.5Z" stroke="#E5E7EB"/>
<path d="M73 61.5C74.1046 61.5 75 62.3954 75 63.5C75 64.6046 74.1046 65.5 73 65.5H7C5.89543 65.5 5 64.6046 5 63.5C5 62.3954 5.89543 61.5 7 61.5H73Z" fill="#BFDBFE"/>
<path d="M73 61.5C74.1046 61.5 75 62.3954 75 63.5C75 64.6046 74.1046 65.5 73 65.5H7C5.89543 65.5 5 64.6046 5 63.5C5 62.3954 5.89543 61.5 7 61.5H73Z" stroke="#E5E7EB"/>
<path d="M73 69.5C74.1046 69.5 75 70.3954 75 71.5C75 72.6046 74.1046 73.5 73 73.5H7C5.89543 73.5 5 72.6046 5 71.5C5 70.3954 5.89543 69.5 7 69.5H73Z" fill="#E5E7EB"/>
<path d="M73 69.5C74.1046 69.5 75 70.3954 75 71.5C75 72.6046 74.1046 73.5 73 73.5H7C5.89543 73.5 5 72.6046 5 71.5C5 70.3954 5.89543 69.5 7 69.5H73Z" stroke="#E5E7EB"/>
</svg>
