<svg width="80" height="113" viewBox="0 0 80 113" fill="none" xmlns="http://www.w3.org/2000/svg">
<path d="M4 1H76C77.933 1 79.5 2.567 79.5 4.5V108.5C79.5 110.433 77.933 112 76 112H4C2.067 112 0.5 110.433 0.5 108.5V4.5C0.5 2.567 2.067 1 4 1Z" fill="#FEF3C7"/>
<path d="M4 1H76C77.933 1 79.5 2.567 79.5 4.5V108.5C79.5 110.433 77.933 112 76 112H4C2.067 112 0.5 110.433 0.5 108.5V4.5C0.5 2.567 2.067 1 4 1Z" stroke="#E5E7EB"/>
<path d="M79 5.5H1V1.5H79V5.5Z" fill="#FDE68A"/>
<path d="M79 5.5H1V1.5H79V5.5Z" stroke="#E5E7EB"/>
<path d="M79 20.6406H1V16.6406H79V20.6406Z" fill="#FDE68A"/>
<path d="M79 20.6406H1V16.6406H79V20.6406Z" stroke="#E5E7EB"/>
<path d="M79 35.7812H1V31.7812H79V35.7812Z" fill="#FDE68A"/>
<path d="M79 35.7812H1V31.7812H79V35.7812Z" stroke="#E5E7EB"/>
<path d="M79 50.9219H1V46.9219H79V50.9219Z" fill="#FDE68A"/>
<path d="M79 50.9219H1V46.9219H79V50.9219Z" stroke="#E5E7EB"/>
<path d="M79 66.0625H1V62.0625H79V66.0625Z" fill="#FDE68A"/>
<path d="M79 66.0625H1V62.0625H79V66.0625Z" stroke="#E5E7EB"/>
<path d="M79 81.2031H1V77.2031H79V81.2031Z" fill="#FDE68A"/>
<path d="M79 81.2031H1V77.2031H79V81.2031Z" stroke="#E5E7EB"/>
<path d="M79 96.3438H1V92.3438H79V96.3438Z" fill="#FDE68A"/>
<path d="M79 96.3438H1V92.3438H79V96.3438Z" stroke="#E5E7EB"/>
<path d="M79 111.484H1V107.484H79V111.484Z" fill="#FDE68A"/>
<path d="M79 111.484H1V107.484H79V111.484Z" stroke="#E5E7EB"/>
</svg>
