<svg width="80" height="113" viewBox="0 0 80 113" fill="none" xmlns="http://www.w3.org/2000/svg">
<path d="M4 1H76C77.933 1 79.5 2.567 79.5 4.5V108.5C79.5 110.433 77.933 112 76 112H4C2.067 112 0.5 110.433 0.5 108.5V4.5C0.5 2.567 2.067 1 4 1Z" fill="#F9FAFB"/>
<path d="M4 1H76C77.933 1 79.5 2.567 79.5 4.5V108.5C79.5 110.433 77.933 112 76 112H4C2.067 112 0.5 110.433 0.5 108.5V4.5C0.5 2.567 2.067 1 4 1Z" stroke="#E5E7EB"/>
<path d="M75 14.5H5V5.5H75V14.5Z" stroke="#E5E7EB"/>
<path d="M5.37926 12.5V8.13636H7.10085C7.43182 8.13636 7.71378 8.19957 7.94673 8.32599C8.17969 8.45099 8.35724 8.625 8.4794 8.84801C8.60298 9.0696 8.66477 9.32528 8.66477 9.61506C8.66477 9.90483 8.60227 10.1605 8.47727 10.3821C8.35227 10.6037 8.17116 10.7763 7.93395 10.8999C7.69815 11.0234 7.41264 11.0852 7.07741 11.0852H5.98011V10.3459H6.92827C7.10582 10.3459 7.25213 10.3153 7.36719 10.2543C7.48366 10.1918 7.57031 10.1058 7.62713 9.99645C7.68537 9.88565 7.71449 9.75852 7.71449 9.61506C7.71449 9.47017 7.68537 9.34375 7.62713 9.2358C7.57031 9.12642 7.48366 9.0419 7.36719 8.98224C7.25071 8.92116 7.10298 8.89062 6.92401 8.89062H6.30185V12.5H5.37926ZM9.26403 12.5V8.13636H10.9856C11.3152 8.13636 11.5964 8.19531 11.8294 8.31321C12.0637 8.42969 12.242 8.59517 12.3642 8.80966C12.4877 9.02273 12.5495 9.27344 12.5495 9.56179C12.5495 9.85156 12.487 10.1009 12.362 10.3097C12.237 10.517 12.0559 10.6761 11.8187 10.7869C11.5829 10.8977 11.2974 10.9531 10.9622 10.9531H9.80948V10.2116H10.813C10.9892 10.2116 11.1355 10.1875 11.252 10.1392C11.3684 10.0909 11.4551 10.0185 11.5119 9.92188C11.5701 9.82528 11.5993 9.70526 11.5993 9.56179C11.5993 9.4169 11.5701 9.29474 11.5119 9.19531C11.4551 9.09588 11.3677 9.0206 11.2498 8.96946C11.1333 8.9169 10.9863 8.89062 10.8088 8.89062H10.1866V12.5H9.26403ZM11.6206 10.5142L12.7051 12.5H11.6866L10.6255 10.5142H11.6206ZM17.2115 10.3182C17.2115 10.794 17.1213 11.1989 16.9409 11.5327C16.7619 11.8665 16.5176 12.1214 16.2079 12.2976C15.8997 12.4723 15.5531 12.5597 15.1681 12.5597C14.7804 12.5597 14.4324 12.4716 14.1241 12.2955C13.8159 12.1193 13.5723 11.8643 13.3933 11.5305C13.2143 11.1967 13.1248 10.7926 13.1248 10.3182C13.1248 9.84233 13.2143 9.4375 13.3933 9.10369C13.5723 8.76989 13.8159 8.51562 14.1241 8.34091C14.4324 8.16477 14.7804 8.0767 15.1681 8.0767C15.5531 8.0767 15.8997 8.16477 16.2079 8.34091C16.5176 8.51562 16.7619 8.76989 16.9409 9.10369C17.1213 9.4375 17.2115 9.84233 17.2115 10.3182ZM16.2761 10.3182C16.2761 10.0099 16.2299 9.75 16.1376 9.53835C16.0467 9.3267 15.9181 9.16619 15.752 9.05682C15.5858 8.94744 15.3912 8.89276 15.1681 8.89276C14.9451 8.89276 14.7505 8.94744 14.5843 9.05682C14.4181 9.16619 14.2889 9.3267 14.1966 9.53835C14.1056 9.75 14.0602 10.0099 14.0602 10.3182C14.0602 10.6264 14.1056 10.8864 14.1966 11.098C14.2889 11.3097 14.4181 11.4702 14.5843 11.5795C14.7505 11.6889 14.9451 11.7436 15.1681 11.7436C15.3912 11.7436 15.5858 11.6889 15.752 11.5795C15.9181 11.4702 16.0467 11.3097 16.1376 11.098C16.2299 10.8864 16.2761 10.6264 16.2761 10.3182ZM19.642 8.13636H20.554V11.179C20.554 11.4602 20.4908 11.7045 20.3643 11.9119C20.2393 12.1193 20.0653 12.2791 19.8423 12.3913C19.6193 12.5036 19.3601 12.5597 19.0646 12.5597C18.8018 12.5597 18.5632 12.5135 18.3487 12.4212C18.1357 12.3274 17.9666 12.1854 17.8416 11.995C17.7166 11.8033 17.6548 11.5625 17.6562 11.2727H18.5746C18.5774 11.3878 18.6009 11.4865 18.6449 11.5689C18.6903 11.6499 18.7521 11.7124 18.8303 11.7564C18.9098 11.799 19.0036 11.8203 19.1115 11.8203C19.2251 11.8203 19.321 11.7962 19.3991 11.7479C19.4787 11.6982 19.5391 11.6257 19.5803 11.5305C19.6214 11.4354 19.642 11.3182 19.642 11.179V8.13636ZM21.3168 12.5V8.13636H24.2571V8.89702H22.2393V9.93679H24.1058V10.6974H22.2393V11.7393H24.2656V12.5H21.3168ZM28.8407 9.66406H27.9075C27.8904 9.54332 27.8556 9.43608 27.8031 9.34233C27.7505 9.24716 27.6831 9.16619 27.6007 9.09943C27.5183 9.03267 27.4231 8.98153 27.3152 8.94602C27.2086 8.91051 27.0929 8.89276 26.9679 8.89276C26.742 8.89276 26.5453 8.94886 26.3777 9.06108C26.21 9.17187 26.0801 9.33381 25.9877 9.54688C25.8954 9.75852 25.8493 10.0156 25.8493 10.3182C25.8493 10.6293 25.8954 10.8906 25.9877 11.1023C26.0815 11.3139 26.2122 11.4737 26.3798 11.5817C26.5474 11.6896 26.7413 11.7436 26.9615 11.7436C27.085 11.7436 27.1994 11.7273 27.3045 11.6946C27.411 11.6619 27.5055 11.6143 27.5879 11.5518C27.6703 11.4879 27.7385 11.4105 27.7924 11.3196C27.8478 11.2287 27.8862 11.125 27.9075 11.0085L28.8407 11.0128C28.8166 11.2131 28.7562 11.4062 28.6596 11.5923C28.5645 11.777 28.4359 11.9425 28.274 12.0888C28.1135 12.2337 27.9217 12.3487 27.6987 12.4339C27.4771 12.5178 27.2264 12.5597 26.9466 12.5597C26.5574 12.5597 26.2093 12.4716 25.9025 12.2955C25.5971 12.1193 25.3556 11.8643 25.1781 11.5305C25.002 11.1967 24.9139 10.7926 24.9139 10.3182C24.9139 9.84233 25.0034 9.4375 25.1824 9.10369C25.3613 8.76989 25.6042 8.51562 25.911 8.34091C26.2179 8.16477 26.563 8.0767 26.9466 8.0767C27.1994 8.0767 27.4338 8.11222 27.6497 8.18324C27.867 8.25426 28.0595 8.35795 28.2271 8.49432C28.3947 8.62926 28.5311 8.79474 28.6362 8.99077C28.7427 9.18679 28.8109 9.41122 28.8407 9.66406ZM29.3361 8.89702V8.13636H32.9199V8.89702H31.584V12.5H30.6721V8.89702H29.3361ZM37.266 9.39134C37.2489 9.21946 37.1758 9.08594 37.0465 8.99077C36.9173 8.8956 36.7418 8.84801 36.5202 8.84801C36.3697 8.84801 36.2425 8.86932 36.1388 8.91193C36.0352 8.95312 35.9556 9.01065 35.9002 9.08452C35.8462 9.15838 35.8192 9.24219 35.8192 9.33594C35.8164 9.41406 35.8327 9.48224 35.8683 9.54048C35.9052 9.59872 35.9556 9.64915 36.0195 9.69176C36.0835 9.73295 36.1573 9.76918 36.2411 9.80043C36.3249 9.83026 36.4144 9.85582 36.5096 9.87713L36.9016 9.97088C37.092 10.0135 37.2667 10.0703 37.4258 10.1413C37.5849 10.2124 37.7227 10.2997 37.8391 10.4034C37.9556 10.5071 38.0458 10.6293 38.1097 10.7699C38.1751 10.9105 38.2085 11.0717 38.2099 11.2536C38.2085 11.5206 38.1403 11.7521 38.0053 11.9482C37.8718 12.1428 37.6786 12.294 37.4258 12.402C37.1744 12.5085 36.8711 12.5618 36.516 12.5618C36.1637 12.5618 35.8569 12.5078 35.5955 12.3999C35.3356 12.2919 35.1325 12.1321 34.9862 11.9205C34.8413 11.7074 34.7653 11.4439 34.7582 11.13H35.6509C35.6609 11.2763 35.7028 11.3984 35.7766 11.4964C35.8519 11.593 35.9521 11.6662 36.0771 11.7159C36.2035 11.7642 36.3462 11.7884 36.5053 11.7884C36.6616 11.7884 36.7972 11.7656 36.9123 11.7202C37.0288 11.6747 37.119 11.6115 37.1829 11.5305C37.2468 11.4496 37.2788 11.3565 37.2788 11.2514C37.2788 11.1534 37.2496 11.071 37.1914 11.0043C37.1346 10.9375 37.0508 10.8807 36.94 10.8338C36.8306 10.7869 36.6964 10.7443 36.5373 10.706L36.0621 10.5866C35.6942 10.4972 35.4038 10.3572 35.1907 10.1669C34.9776 9.97656 34.8718 9.72017 34.8732 9.39773C34.8718 9.13352 34.9421 8.9027 35.0842 8.70526C35.2276 8.50781 35.4244 8.35369 35.6744 8.2429C35.9244 8.1321 36.2085 8.0767 36.5266 8.0767C36.8505 8.0767 37.1332 8.1321 37.3746 8.2429C37.6175 8.35369 37.8065 8.50781 37.9414 8.70526C38.0763 8.9027 38.146 9.13139 38.1502 9.39134H37.266ZM38.6642 8.89702V8.13636H42.248V8.89702H40.9121V12.5H40.0002V8.89702H38.6642ZM42.8382 12.5V8.13636H45.7786V8.89702H43.7608V9.93679H45.6273V10.6974H43.7608V11.7393H45.7871V12.5H42.8382ZM46.5121 12.5V8.13636H48.2337C48.5646 8.13636 48.8466 8.19957 49.0795 8.32599C49.3125 8.45099 49.4901 8.625 49.6122 8.84801C49.7358 9.0696 49.7976 9.32528 49.7976 9.61506C49.7976 9.90483 49.7351 10.1605 49.6101 10.3821C49.4851 10.6037 49.304 10.7763 49.0668 10.8999C48.831 11.0234 48.5455 11.0852 48.2102 11.0852H47.1129V10.3459H48.0611C48.2386 10.3459 48.3849 10.3153 48.5 10.2543C48.6165 10.1918 48.7031 10.1058 48.7599 9.99645C48.8182 9.88565 48.8473 9.75852 48.8473 9.61506C48.8473 9.47017 48.8182 9.34375 48.7599 9.2358C48.7031 9.12642 48.6165 9.0419 48.5 8.98224C48.3835 8.92116 48.2358 8.89062 48.0568 8.89062H47.4347V12.5H46.5121ZM52.764 9.39134C52.747 9.21946 52.6738 9.08594 52.5446 8.99077C52.4153 8.8956 52.2399 8.84801 52.0183 8.84801C51.8677 8.84801 51.7406 8.86932 51.6369 8.91193C51.5332 8.95312 51.4537 9.01065 51.3983 9.08452C51.3443 9.15838 51.3173 9.24219 51.3173 9.33594C51.3145 9.41406 51.3308 9.48224 51.3663 9.54048C51.4032 9.59872 51.4537 9.64915 51.5176 9.69176C51.5815 9.73295 51.6554 9.76918 51.7392 9.80043C51.823 9.83026 51.9125 9.85582 52.0076 9.87713L52.3997 9.97088C52.59 10.0135 52.7647 10.0703 52.9238 10.1413C53.0829 10.2124 53.2207 10.2997 53.3372 10.4034C53.4537 10.5071 53.5439 10.6293 53.6078 10.7699C53.6731 10.9105 53.7065 11.0717 53.7079 11.2536C53.7065 11.5206 53.6383 11.7521 53.5034 11.9482C53.3699 12.1428 53.1767 12.294 52.9238 12.402C52.6724 12.5085 52.3691 12.5618 52.014 12.5618C51.6618 12.5618 51.3549 12.5078 51.0936 12.3999C50.8336 12.2919 50.6305 12.1321 50.4842 11.9205C50.3393 11.7074 50.2633 11.4439 50.2562 11.13H51.149C51.1589 11.2763 51.2008 11.3984 51.2747 11.4964C51.35 11.593 51.4501 11.6662 51.5751 11.7159C51.7015 11.7642 51.8443 11.7884 52.0034 11.7884C52.1596 11.7884 52.2953 11.7656 52.4103 11.7202C52.5268 11.6747 52.617 11.6115 52.6809 11.5305C52.7449 11.4496 52.7768 11.3565 52.7768 11.2514C52.7768 11.1534 52.7477 11.071 52.6895 11.0043C52.6326 10.9375 52.5488 10.8807 52.438 10.8338C52.3287 10.7869 52.1944 10.7443 52.0353 10.706L51.5602 10.5866C51.1923 10.4972 50.9018 10.3572 50.6887 10.1669C50.4757 9.97656 50.3699 9.72017 50.3713 9.39773C50.3699 9.13352 50.4402 8.9027 50.5822 8.70526C50.7257 8.50781 50.9224 8.35369 51.1724 8.2429C51.4224 8.1321 51.7065 8.0767 52.0247 8.0767C52.3485 8.0767 52.6312 8.1321 52.8727 8.2429C53.1156 8.35369 53.3045 8.50781 53.4395 8.70526C53.5744 8.9027 53.644 9.13139 53.6483 9.39134H52.764Z" fill="#2563EB"/>
<path d="M75 26.5H5V18.5H75V26.5Z" stroke="#E5E7EB"/>
<path d="M9 18.5C11.2091 18.5 13 20.2909 13 22.5C13 24.7091 11.2091 26.5 9 26.5C6.79086 26.5 5 24.7091 5 22.5C5 20.2909 6.79086 18.5 9 18.5Z" fill="#10B981"/>
<path d="M9 18.5C11.2091 18.5 13 20.2909 13 22.5C13 24.7091 11.2091 26.5 9 26.5C6.79086 26.5 5 24.7091 5 22.5C5 20.2909 6.79086 18.5 9 18.5Z" stroke="#E5E7EB"/>
<path d="M73 20.5C74.1046 20.5 75 21.3954 75 22.5C75 23.6046 74.1046 24.5 73 24.5H19C17.8954 24.5 17 23.6046 17 22.5C17 21.3954 17.8954 20.5 19 20.5H73Z" fill="#E5E7EB"/>
<path d="M73 20.5C74.1046 20.5 75 21.3954 75 22.5C75 23.6046 74.1046 24.5 73 24.5H19C17.8954 24.5 17 23.6046 17 22.5C17 21.3954 17.8954 20.5 19 20.5H73Z" stroke="#E5E7EB"/>
<path d="M75 38.5H5V30.5H75V38.5Z" stroke="#E5E7EB"/>
<path d="M9 30.5C11.2091 30.5 13 32.2909 13 34.5C13 36.7091 11.2091 38.5 9 38.5C6.79086 38.5 5 36.7091 5 34.5C5 32.2909 6.79086 30.5 9 30.5Z" fill="#60A5FA"/>
<path d="M9 30.5C11.2091 30.5 13 32.2909 13 34.5C13 36.7091 11.2091 38.5 9 38.5C6.79086 38.5 5 36.7091 5 34.5C5 32.2909 6.79086 30.5 9 30.5Z" stroke="#E5E7EB"/>
<path d="M73 32.5C74.1046 32.5 75 33.3954 75 34.5C75 35.6046 74.1046 36.5 73 36.5H19C17.8954 36.5 17 35.6046 17 34.5C17 33.3954 17.8954 32.5 19 32.5H73Z" fill="#E5E7EB"/>
<path d="M73 32.5C74.1046 32.5 75 33.3954 75 34.5C75 35.6046 74.1046 36.5 73 36.5H19C17.8954 36.5 17 35.6046 17 34.5C17 33.3954 17.8954 32.5 19 32.5H73Z" stroke="#E5E7EB"/>
<path d="M75 50.5H5V42.5H75V50.5Z" stroke="#E5E7EB"/>
<path d="M9 42.5C11.2091 42.5 13 44.2909 13 46.5C13 48.7091 11.2091 50.5 9 50.5C6.79086 50.5 5 48.7091 5 46.5C5 44.2909 6.79086 42.5 9 42.5Z" fill="#D1D5DB"/>
<path d="M9 42.5C11.2091 42.5 13 44.2909 13 46.5C13 48.7091 11.2091 50.5 9 50.5C6.79086 50.5 5 48.7091 5 46.5C5 44.2909 6.79086 42.5 9 42.5Z" stroke="#E5E7EB"/>
<path d="M73 44.5C74.1046 44.5 75 45.3954 75 46.5C75 47.6046 74.1046 48.5 73 48.5H19C17.8954 48.5 17 47.6046 17 46.5C17 45.3954 17.8954 44.5 19 44.5H73Z" fill="#E5E7EB"/>
<path d="M73 44.5C74.1046 44.5 75 45.3954 75 46.5C75 47.6046 74.1046 48.5 73 48.5H19C17.8954 48.5 17 47.6046 17 46.5C17 45.3954 17.8954 44.5 19 44.5H73Z" stroke="#E5E7EB"/>
<path d="M75 62.5H5V54.5H75V62.5Z" stroke="#E5E7EB"/>
<path d="M9 54.5C11.2091 54.5 13 56.2909 13 58.5C13 60.7091 11.2091 62.5 9 62.5C6.79086 62.5 5 60.7091 5 58.5C5 56.2909 6.79086 54.5 9 54.5Z" fill="#D1D5DB"/>
<path d="M9 54.5C11.2091 54.5 13 56.2909 13 58.5C13 60.7091 11.2091 62.5 9 62.5C6.79086 62.5 5 60.7091 5 58.5C5 56.2909 6.79086 54.5 9 54.5Z" stroke="#E5E7EB"/>
<path d="M73 56.5C74.1046 56.5 75 57.3954 75 58.5C75 59.6046 74.1046 60.5 73 60.5H19C17.8954 60.5 17 59.6046 17 58.5C17 57.3954 17.8954 56.5 19 56.5H73Z" fill="#E5E7EB"/>
<path d="M73 56.5C74.1046 56.5 75 57.3954 75 58.5C75 59.6046 74.1046 60.5 73 60.5H19C17.8954 60.5 17 59.6046 17 58.5C17 57.3954 17.8954 56.5 19 56.5H73Z" stroke="#E5E7EB"/>
</svg>
