<svg width="80" height="113" viewBox="0 0 80 113" fill="none" xmlns="http://www.w3.org/2000/svg">
<path d="M4 1H76C77.933 1 79.5 2.567 79.5 4.5V108.5C79.5 110.433 77.933 112 76 112H4C2.067 112 0.5 110.433 0.5 108.5V4.5C0.5 2.567 2.067 1 4 1Z" fill="#F9FAFB"/>
<path d="M4 1H76C77.933 1 79.5 2.567 79.5 4.5V108.5C79.5 110.433 77.933 112 76 112H4C2.067 112 0.5 110.433 0.5 108.5V4.5C0.5 2.567 2.067 1 4 1Z" stroke="#E5E7EB"/>
<path d="M75 14.5H5V5.5H75V14.5Z" stroke="#E5E7EB"/>
<path d="M7.02628 10.983H7.81037L8.20455 11.4901L8.59233 11.9418L9.32315 12.858H8.46236L7.95952 12.2401L7.7017 11.8736L7.02628 10.983ZM9.3892 10.3182C9.3892 10.794 9.29901 11.1989 9.11861 11.5327C8.93963 11.8665 8.69531 12.1214 8.38565 12.2976C8.07741 12.4723 7.73082 12.5597 7.34588 12.5597C6.9581 12.5597 6.61009 12.4716 6.30185 12.2955C5.99361 12.1193 5.75 11.8643 5.57102 11.5305C5.39205 11.1967 5.30256 10.7926 5.30256 10.3182C5.30256 9.84233 5.39205 9.4375 5.57102 9.10369C5.75 8.76989 5.99361 8.51562 6.30185 8.34091C6.61009 8.16477 6.9581 8.0767 7.34588 8.0767C7.73082 8.0767 8.07741 8.16477 8.38565 8.34091C8.69531 8.51562 8.93963 8.76989 9.11861 9.10369C9.29901 9.4375 9.3892 9.84233 9.3892 10.3182ZM8.45384 10.3182C8.45384 10.0099 8.40767 9.75 8.31534 9.53835C8.22443 9.3267 8.09588 9.16619 7.92969 9.05682C7.76349 8.94744 7.56889 8.89276 7.34588 8.89276C7.12287 8.89276 6.92827 8.94744 6.76207 9.05682C6.59588 9.16619 6.46662 9.3267 6.37429 9.53835C6.28338 9.75 6.23793 10.0099 6.23793 10.3182C6.23793 10.6264 6.28338 10.8864 6.37429 11.098C6.46662 11.3097 6.59588 11.4702 6.76207 11.5795C6.92827 11.6889 7.12287 11.7436 7.34588 11.7436C7.56889 11.7436 7.76349 11.6889 7.92969 11.5795C8.09588 11.4702 8.22443 11.3097 8.31534 11.098C8.40767 10.8864 8.45384 10.6264 8.45384 10.3182ZM10.5861 11.9929C10.4455 11.9929 10.3248 11.9432 10.2239 11.8438C10.1245 11.7443 10.0748 11.6236 10.0748 11.4815C10.0748 11.3423 10.1245 11.223 10.2239 11.1236C10.3248 11.0241 10.4455 10.9744 10.5861 10.9744C10.7225 10.9744 10.8418 11.0241 10.9441 11.1236C11.0463 11.223 11.0975 11.3423 11.0975 11.4815C11.0975 11.5753 11.0733 11.6612 11.025 11.7393C10.9782 11.8161 10.9164 11.8778 10.8397 11.9247C10.763 11.9702 10.6784 11.9929 10.5861 11.9929ZM10.5861 9.85156C10.4455 9.85156 10.3248 9.80185 10.2239 9.70241C10.1245 9.60298 10.0748 9.48224 10.0748 9.3402C10.0748 9.20099 10.1245 9.08239 10.2239 8.98438C10.3248 8.88494 10.4455 8.83523 10.5861 8.83523C10.7225 8.83523 10.8418 8.88494 10.9441 8.98438C11.0463 9.08239 11.0975 9.20099 11.0975 9.3402C11.0975 9.43537 11.0733 9.52202 11.025 9.60014C10.9782 9.67685 10.9164 9.73793 10.8397 9.78338C10.763 9.82884 10.6784 9.85156 10.5861 9.85156Z" fill="#2563EB"/>
<path d="M71 18.5C73.2091 18.5 75 20.2909 75 22.5C75 24.7091 73.2091 26.5 71 26.5H9C6.79086 26.5 5 24.7091 5 22.5C5 20.2909 6.79086 18.5 9 18.5H71Z" fill="#E5E7EB"/>
<path d="M71 18.5C73.2091 18.5 75 20.2909 75 22.5C75 24.7091 73.2091 26.5 71 26.5H9C6.79086 26.5 5 24.7091 5 22.5C5 20.2909 6.79086 18.5 9 18.5H71Z" stroke="#E5E7EB"/>
<path d="M55.5 34.5C56.6046 34.5 57.5 35.3954 57.5 36.5C57.5 37.6046 56.6046 38.5 55.5 38.5H7C5.89543 38.5 5 37.6046 5 36.5C5 35.3954 5.89543 34.5 7 34.5H55.5Z" fill="#E5E7EB"/>
<path d="M55.5 34.5C56.6046 34.5 57.5 35.3954 57.5 36.5C57.5 37.6046 56.6046 38.5 55.5 38.5H7C5.89543 38.5 5 37.6046 5 36.5C5 35.3954 5.89543 34.5 7 34.5H55.5Z" stroke="#E5E7EB"/>
<path d="M75 55.5H5V46.5H75V55.5Z" stroke="#E5E7EB"/>
<path d="M6.13139 53.5H5.14276L6.64915 49.1364H7.83807L9.34233 53.5H8.35369L7.26065 50.1335H7.22656L6.13139 53.5ZM6.0696 51.7848H8.40483V52.505H6.0696V51.7848ZM10.381 52.9929C10.2404 52.9929 10.1197 52.9432 10.0188 52.8438C9.91939 52.7443 9.86967 52.6236 9.86967 52.4815C9.86967 52.3423 9.91939 52.223 10.0188 52.1236C10.1197 52.0241 10.2404 51.9744 10.381 51.9744C10.5174 51.9744 10.6367 52.0241 10.739 52.1236C10.8413 52.223 10.8924 52.3423 10.8924 52.4815C10.8924 52.5753 10.8683 52.6612 10.82 52.7393C10.7731 52.8161 10.7113 52.8778 10.6346 52.9247C10.5579 52.9702 10.4734 52.9929 10.381 52.9929ZM10.381 50.8516C10.2404 50.8516 10.1197 50.8018 10.0188 50.7024C9.91939 50.603 9.86967 50.4822 9.86967 50.3402C9.86967 50.201 9.91939 50.0824 10.0188 49.9844C10.1197 49.8849 10.2404 49.8352 10.381 49.8352C10.5174 49.8352 10.6367 49.8849 10.739 49.9844C10.8413 50.0824 10.8924 50.201 10.8924 50.3402C10.8924 50.4354 10.8683 50.522 10.82 50.6001C10.7731 50.6768 10.7113 50.7379 10.6346 50.7834C10.5579 50.8288 10.4734 50.8516 10.381 50.8516Z" fill="#059669"/>
<path d="M71 59.5C73.2091 59.5 75 61.2909 75 63.5C75 65.7091 73.2091 67.5 71 67.5H9C6.79086 67.5 5 65.7091 5 63.5C5 61.2909 6.79086 59.5 9 59.5H71Z" fill="#E5E7EB"/>
<path d="M71 59.5C73.2091 59.5 75 61.2909 75 63.5C75 65.7091 73.2091 67.5 71 67.5H9C6.79086 67.5 5 65.7091 5 63.5C5 61.2909 6.79086 59.5 9 59.5H71Z" stroke="#E5E7EB"/>
<path d="M59 75.5C60.1046 75.5 61 76.3954 61 77.5C61 78.6046 60.1046 79.5 59 79.5H7C5.89543 79.5 5 78.6046 5 77.5C5 76.3954 5.89543 75.5 7 75.5H59Z" fill="#E5E7EB"/>
<path d="M59 75.5C60.1046 75.5 61 76.3954 61 77.5C61 78.6046 60.1046 79.5 59 79.5H7C5.89543 79.5 5 78.6046 5 77.5C5 76.3954 5.89543 75.5 7 75.5H59Z" stroke="#E5E7EB"/>
<path d="M45 87.5C46.1046 87.5 47 88.3954 47 89.5C47 90.6046 46.1046 91.5 45 91.5H7C5.89543 91.5 5 90.6046 5 89.5C5 88.3954 5.89543 87.5 7 87.5H45Z" fill="#E5E7EB"/>
<path d="M45 87.5C46.1046 87.5 47 88.3954 47 89.5C47 90.6046 46.1046 91.5 45 91.5H7C5.89543 91.5 5 90.6046 5 89.5C5 88.3954 5.89543 87.5 7 87.5H45Z" stroke="#E5E7EB"/>
</svg>
