<svg width="78" height="111" viewBox="0 0 78 111" fill="none" xmlns="http://www.w3.org/2000/svg">
<path d="M78 110.5H0V0.5H78V110.5Z" stroke="#E5E7EB"/>
<mask id="path-2-inside-1_55_849" fill="white">
<path d="M0 0.5H15.5938V16.2031H0V0.5Z"/>
</mask>
<path d="M15.5938 16.2031V17.2031H16.5938V16.2031H15.5938ZM15.5938 0.5H14.5938V16.2031H15.5938H16.5938V0.5H15.5938ZM15.5938 16.2031V15.2031H0V16.2031V17.2031H15.5938V16.2031Z" fill="#E5E7EB" mask="url(#path-2-inside-1_55_849)"/>
<mask id="path-4-inside-2_55_849" fill="white">
<path d="M15.5938 0.5H31.1875V16.2031H15.5938V0.5Z"/>
</mask>
<path d="M31.1875 16.2031V17.2031H32.1875V16.2031H31.1875ZM31.1875 0.5H30.1875V16.2031H31.1875H32.1875V0.5H31.1875ZM31.1875 16.2031V15.2031H15.5938V16.2031V17.2031H31.1875V16.2031Z" fill="#E5E7EB" mask="url(#path-4-inside-2_55_849)"/>
<mask id="path-6-inside-3_55_849" fill="white">
<path d="M31.1875 0.5H46.7969V16.2031H31.1875V0.5Z"/>
</mask>
<path d="M46.7969 16.2031V17.2031H47.7969V16.2031H46.7969ZM46.7969 0.5H45.7969V16.2031H46.7969H47.7969V0.5H46.7969ZM46.7969 16.2031V15.2031H31.1875V16.2031V17.2031H46.7969V16.2031Z" fill="#E5E7EB" mask="url(#path-6-inside-3_55_849)"/>
<mask id="path-8-inside-4_55_849" fill="white">
<path d="M46.7969 0.5H62.3906V16.2031H46.7969V0.5Z"/>
</mask>
<path d="M62.3906 16.2031V17.2031H63.3906V16.2031H62.3906ZM62.3906 0.5H61.3906V16.2031H62.3906H63.3906V0.5H62.3906ZM62.3906 16.2031V15.2031H46.7969V16.2031V17.2031H62.3906V16.2031Z" fill="#E5E7EB" mask="url(#path-8-inside-4_55_849)"/>
<mask id="path-10-inside-5_55_849" fill="white">
<path d="M62.3906 0.5H78V16.2031H62.3906V0.5Z"/>
</mask>
<path d="M78 16.2031V15.2031H62.3906V16.2031V17.2031H78V16.2031Z" fill="#E5E7EB" mask="url(#path-10-inside-5_55_849)"/>
</svg>
