<svg width="80" height="113" viewBox="0 0 80 113" fill="none" xmlns="http://www.w3.org/2000/svg">
<path d="M4 1H76C77.933 1 79.5 2.567 79.5 4.5V108.5C79.5 110.433 77.933 112 76 112H4C2.067 112 0.5 110.433 0.5 108.5V4.5C0.5 2.567 2.067 1 4 1Z" fill="#F9FAFB"/>
<path d="M4 1H76C77.933 1 79.5 2.567 79.5 4.5V108.5C79.5 110.433 77.933 112 76 112H4C2.067 112 0.5 110.433 0.5 108.5V4.5C0.5 2.567 2.067 1 4 1Z" stroke="#E5E7EB"/>
<path d="M75 57.5H5V55.5H75V57.5Z" fill="#60A5FA"/>
<path d="M75 57.5H5V55.5H75V57.5Z" stroke="#E5E7EB"/>
<path d="M9 51.5C11.2091 51.5 13 53.2909 13 55.5C13 57.7091 11.2091 59.5 9 59.5C6.79086 59.5 5 57.7091 5 55.5C5 53.2909 6.79086 51.5 9 51.5Z" fill="#60A5FA"/>
<path d="M9 51.5C11.2091 51.5 13 53.2909 13 55.5C13 57.7091 11.2091 59.5 9 59.5C6.79086 59.5 5 57.7091 5 55.5C5 53.2909 6.79086 51.5 9 51.5Z" stroke="#E5E7EB"/>
<path d="M32.3281 51.5C34.5373 51.5 36.3281 53.2909 36.3281 55.5C36.3281 57.7091 34.5373 59.5 32.3281 59.5C30.119 59.5 28.3281 57.7091 28.3281 55.5C28.3281 53.2909 30.119 51.5 32.3281 51.5Z" fill="#60A5FA"/>
<path d="M32.3281 51.5C34.5373 51.5 36.3281 53.2909 36.3281 55.5C36.3281 57.7091 34.5373 59.5 32.3281 59.5C30.119 59.5 28.3281 57.7091 28.3281 55.5C28.3281 53.2909 30.119 51.5 32.3281 51.5Z" stroke="#E5E7EB"/>
<path d="M55.6562 51.5C57.8654 51.5 59.6562 53.2909 59.6562 55.5C59.6562 57.7091 57.8654 59.5 55.6562 59.5C53.4471 59.5 51.6562 57.7091 51.6562 55.5C51.6562 53.2909 53.4471 51.5 55.6562 51.5Z" fill="#60A5FA"/>
<path d="M55.6562 51.5C57.8654 51.5 59.6562 53.2909 59.6562 55.5C59.6562 57.7091 57.8654 59.5 55.6562 59.5C53.4471 59.5 51.6562 57.7091 51.6562 55.5C51.6562 53.2909 53.4471 51.5 55.6562 51.5Z" stroke="#E5E7EB"/>
<path d="M71 51.5C73.2091 51.5 75 53.2909 75 55.5C75 57.7091 73.2091 59.5 71 59.5C68.7909 59.5 67 57.7091 67 55.5C67 53.2909 68.7909 51.5 71 51.5Z" fill="#60A5FA"/>
<path d="M71 51.5C73.2091 51.5 75 53.2909 75 55.5C75 57.7091 73.2091 59.5 71 59.5C68.7909 59.5 67 57.7091 67 55.5C67 53.2909 68.7909 51.5 71 51.5Z" stroke="#E5E7EB"/>
</svg>
