<svg width="18" height="20" viewBox="0 0 18 20" fill="none" xmlns="http://www.w3.org/2000/svg">
<g clip-path="url(#clip0_431_6401)">
<g clip-path="url(#clip1_431_6401)">
<path d="M8.875 2.75C9.35898 2.75 9.75 3.14102 9.75 3.625V5.375H13.0312C14.1195 5.375 15 6.25547 15 7.34375V14.7812C15 15.8695 14.1195 16.75 13.0312 16.75H4.71875C3.63047 16.75 2.75 15.8695 2.75 14.7812V7.34375C2.75 6.25547 3.63047 5.375 4.71875 5.375H8V3.625C8 3.14102 8.39102 2.75 8.875 2.75ZM5.8125 13.25C5.57188 13.25 5.375 13.4469 5.375 13.6875C5.375 13.9281 5.57188 14.125 5.8125 14.125H6.6875C6.92812 14.125 7.125 13.9281 7.125 13.6875C7.125 13.4469 6.92812 13.25 6.6875 13.25H5.8125ZM8.4375 13.25C8.19687 13.25 8 13.4469 8 13.6875C8 13.9281 8.19687 14.125 8.4375 14.125H9.3125C9.55313 14.125 9.75 13.9281 9.75 13.6875C9.75 13.4469 9.55313 13.25 9.3125 13.25H8.4375ZM11.0625 13.25C10.8219 13.25 10.625 13.4469 10.625 13.6875C10.625 13.9281 10.8219 14.125 11.0625 14.125H11.9375C12.1781 14.125 12.375 13.9281 12.375 13.6875C12.375 13.4469 12.1781 13.25 11.9375 13.25H11.0625ZM7.34375 9.75C7.34375 9.45992 7.22852 9.18172 7.0234 8.9766C6.81828 8.77148 6.54008 8.65625 6.25 8.65625C5.95992 8.65625 5.68172 8.77148 5.4766 8.9766C5.27148 9.18172 5.15625 9.45992 5.15625 9.75C5.15625 10.0401 5.27148 10.3183 5.4766 10.5234C5.68172 10.7285 5.95992 10.8438 6.25 10.8438C6.54008 10.8438 6.81828 10.7285 7.0234 10.5234C7.22852 10.3183 7.34375 10.0401 7.34375 9.75ZM11.5 10.8438C11.7901 10.8438 12.0683 10.7285 12.2734 10.5234C12.4785 10.3183 12.5938 10.0401 12.5938 9.75C12.5938 9.45992 12.4785 9.18172 12.2734 8.9766C12.0683 8.77148 11.7901 8.65625 11.5 8.65625C11.2099 8.65625 10.9317 8.77148 10.7266 8.9766C10.5215 9.18172 10.4062 9.45992 10.4062 9.75C10.4062 10.0401 10.5215 10.3183 10.7266 10.5234C10.9317 10.7285 11.2099 10.8438 11.5 10.8438ZM1.4375 8.875H1.875V14.125H1.4375C0.712891 14.125 0.125 13.5371 0.125 12.8125V10.1875C0.125 9.46289 0.712891 8.875 1.4375 8.875ZM16.3125 8.875C17.0371 8.875 17.625 9.46289 17.625 10.1875V12.8125C17.625 13.5371 17.0371 14.125 16.3125 14.125H15.875V8.875H16.3125Z" fill="#0284C7"/>
</g>
</g>
<defs>
<clipPath id="clip0_431_6401">
<rect width="17.5" height="14" fill="white" transform="translate(0.125 2.75)"/>
</clipPath>
<clipPath id="clip1_431_6401">
<path d="M0.125 2.75H17.625V16.75H0.125V2.75Z" fill="white"/>
</clipPath>
</defs>
</svg>
