<svg width="36" height="24" viewBox="0 0 36 24" fill="none" xmlns="http://www.w3.org/2000/svg">
<g clip-path="url(#clip0_411_1582)">
<path d="M7.33437 5.33438L6.15625 5.775C6.0625 5.80937 6 5.9 6 6C6 6.1 6.0625 6.19062 6.15625 6.225L7.33437 6.66563L7.775 7.84375C7.80938 7.9375 7.9 8 8 8C8.1 8 8.19063 7.9375 8.225 7.84375L8.66562 6.66563L9.84375 6.225C9.9375 6.19062 10 6.1 10 6C10 5.9 9.9375 5.80937 9.84375 5.775L8.66562 5.33438L8.225 4.15625C8.19063 4.0625 8.1 4 8 4C7.9 4 7.80938 4.0625 7.775 4.15625L7.33437 5.33438ZM1.44062 16.3562C0.85625 16.9406 0.85625 17.8906 1.44062 18.4781L2.52187 19.5594C3.10625 20.1437 4.05625 20.1437 4.64375 19.5594L16.5594 7.64062C17.1438 7.05625 17.1438 6.10625 16.5594 5.51875L15.4781 4.44063C14.8937 3.85625 13.9437 3.85625 13.3562 4.44063L1.44062 16.3562ZM15.1438 6.58125L11.8625 9.8625L11.1344 9.13438L14.4156 5.85312L15.1438 6.58125ZM0.234375 7.6625C0.09375 7.71562 0 7.85 0 8C0 8.15 0.09375 8.28438 0.234375 8.3375L2 9L2.6625 10.7656C2.71562 10.9062 2.85 11 3 11C3.15 11 3.28438 10.9062 3.3375 10.7656L4 9L5.76562 8.3375C5.90625 8.28438 6 8.15 6 8C6 7.85 5.90625 7.71562 5.76562 7.6625L4 7L3.3375 5.23438C3.28438 5.09375 3.15 5 3 5C2.85 5 2.71562 5.09375 2.6625 5.23438L2 7L0.234375 7.6625ZM11.2344 15.6625C11.0938 15.7156 11 15.85 11 16C11 16.15 11.0938 16.2844 11.2344 16.3375L13 17L13.6625 18.7656C13.7156 18.9062 13.85 19 14 19C14.15 19 14.2844 18.9062 14.3375 18.7656L15 17L16.7656 16.3375C16.9062 16.2844 17 16.15 17 16C17 15.85 16.9062 15.7156 16.7656 15.6625L15 15L14.3375 13.2344C14.2844 13.0938 14.15 13 14 13C13.85 13 13.7156 13.0938 13.6625 13.2344L13 15L11.2344 15.6625Z" fill="#4B5563"/>
</g>
<path d="M24.0676 15.8008H22.7749L26.5136 5.61896H27.7863L31.5249 15.8008H30.2323L27.1897 7.22976H27.1102L24.0676 15.8008ZM24.5448 11.8235H29.7551V12.9173H24.5448V11.8235ZM34.3438 5.61896V15.8008H33.1109V5.61896H34.3438Z" fill="#4B5563"/>
<defs>
<clipPath id="clip0_411_1582">
<rect width="18" height="16" fill="white" transform="translate(0 4)"/>
</clipPath>
</defs>
</svg>
