<svg width="13" height="13" viewBox="0 0 13 13" fill="none" xmlns="http://www.w3.org/2000/svg">
<path d="M6.28125 12.5C7.87255 12.5 9.39867 11.8679 10.5239 10.7426C11.6491 9.61742 12.2812 8.0913 12.2812 6.5C12.2812 4.9087 11.6491 3.38258 10.5239 2.25736C9.39867 1.13214 7.87255 0.5 6.28125 0.5C4.68995 0.5 3.16383 1.13214 2.03861 2.25736C0.913391 3.38258 0.28125 4.9087 0.28125 6.5C0.28125 8.0913 0.913391 9.61742 2.03861 10.7426C3.16383 11.8679 4.68995 12.5 6.28125 12.5ZM5.34375 8.375H5.90625V6.875H5.34375C5.03203 6.875 4.78125 6.62422 4.78125 6.3125C4.78125 6.00078 5.03203 5.75 5.34375 5.75H6.46875C6.78047 5.75 7.03125 6.00078 7.03125 6.3125V8.375H7.21875C7.53047 8.375 7.78125 8.62578 7.78125 8.9375C7.78125 9.24922 7.53047 9.5 7.21875 9.5H5.34375C5.03203 9.5 4.78125 9.24922 4.78125 8.9375C4.78125 8.62578 5.03203 8.375 5.34375 8.375ZM6.28125 3.5C6.48016 3.5 6.67093 3.57902 6.81158 3.71967C6.95223 3.86032 7.03125 4.05109 7.03125 4.25C7.03125 4.44891 6.95223 4.63968 6.81158 4.78033C6.67093 4.92098 6.48016 5 6.28125 5C6.08234 5 5.89157 4.92098 5.75092 4.78033C5.61027 4.63968 5.53125 4.44891 5.53125 4.25C5.53125 4.05109 5.61027 3.86032 5.75092 3.71967C5.89157 3.57902 6.08234 3.5 6.28125 3.5Z" fill="#3B82F6"/>
</svg>
