<svg width="10" height="15" viewBox="0 0 10 15" fill="none" xmlns="http://www.w3.org/2000/svg">
<g clip-path="url(#clip0_2_196)">
<path d="M4.30396 1.88203C4.64576 1.54024 5.20084 1.54024 5.54263 1.88203L9.04263 5.38203C9.2942 5.6336 9.36803 6.00821 9.23131 6.33633C9.09459 6.66446 8.7774 6.87774 8.42193 6.87774H1.42193C1.0692 6.87774 0.749276 6.66446 0.612557 6.33633C0.475839 6.00821 0.552401 5.6336 0.801229 5.38203L4.30123 1.88203H4.30396ZM4.30396 13.6207L0.803964 10.1207C0.552401 9.86914 0.478573 9.49453 0.615292 9.16641C0.75201 8.83828 1.0692 8.625 1.42467 8.625H8.42193C8.77467 8.625 9.09459 8.83828 9.23131 9.16641C9.36803 9.49453 9.29146 9.86914 9.04263 10.1207L5.54263 13.6207C5.20084 13.9625 4.64576 13.9625 4.30396 13.6207Z" fill="#4B5563"/>
</g>
<defs>
<clipPath id="clip0_2_196">
<path d="M0.546875 0.75H9.29688V14.75H0.546875V0.75Z" fill="white"/>
</clipPath>
</defs>
</svg>
