<svg width="10" height="12" viewBox="0 0 10 12" fill="none" xmlns="http://www.w3.org/2000/svg">
<g clip-path="url(#clip0_60_6412)">
<g clip-path="url(#clip1_60_6412)">
<path d="M5.62349 0.970337C5.33052 0.677368 4.85474 0.677368 4.56177 0.970337L0.811768 4.72034C0.518799 5.01331 0.518799 5.48909 0.811768 5.78206C1.10474 6.07502 1.58052 6.07502 1.87349 5.78206L4.3438 3.3094V10.5C4.3438 10.9149 4.67896 11.25 5.0938 11.25C5.50864 11.25 5.8438 10.9149 5.8438 10.5V3.3094L8.31411 5.77971C8.60708 6.07268 9.08286 6.07268 9.37583 5.77971C9.6688 5.48674 9.6688 5.01096 9.37583 4.71799L5.62583 0.967993L5.62349 0.970337Z" fill="#059669"/>
</g>
</g>
<defs>
<clipPath id="clip0_60_6412">
<rect width="9" height="12" fill="white" transform="translate(0.59375)"/>
</clipPath>
<clipPath id="clip1_60_6412">
<path d="M0.59375 0H9.59375V12H0.59375V0Z" fill="white"/>
</clipPath>
</defs>
</svg>
