<svg width="12" height="16" viewBox="0 0 12 16" fill="none" xmlns="http://www.w3.org/2000/svg">
<g clip-path="url(#clip0_57_1606)">
<path d="M0 2C0 1.44687 0.446875 1 1 1H2.5H3H7C9.20937 1 11 2.79063 11 5C11 5.97812 10.6469 6.87813 10.0625 7.57188C11.2219 8.27188 12 9.54375 12 11C12 13.2094 10.2094 15 8 15H3H2.5H1C0.446875 15 0 14.5531 0 14C0 13.4469 0.446875 13 1 13H1.5V8V3H1C0.446875 3 0 2.55313 0 2ZM7 7C8.10312 7 9 6.10312 9 5C9 3.89688 8.10312 3 7 3H3.5V7H7ZM3.5 9V13H8C9.10312 13 10 12.1031 10 11C10 9.89688 9.10312 9 8 9H7H3.5Z" fill="#4B5563"/>
</g>
<defs>
<clipPath id="clip0_57_1606">
<rect width="12" height="16" fill="white"/>
</clipPath>
</defs>
</svg>
