<svg width="27" height="22" viewBox="0 0 27 22" fill="none" xmlns="http://www.w3.org/2000/svg">
<path d="M11.7 21.1016C12.2063 21.2797 12.75 20.9094 12.75 20.375V2.68437C12.75 2.4875 12.675 2.29062 12.5156 2.16875C11.5969 1.4375 9.4875 0.5 6.75 0.5C4.38281 0.5 2.17031 1.12344 0.848438 1.62969C0.31875 1.83594 0 2.36094 0 2.92813V20.2859C0 20.8438 0.6 21.2328 1.12969 21.0594C2.60625 20.5672 4.94531 20 6.75 20C8.33906 20 10.4531 20.6562 11.7 21.1016ZM15.3 21.1016C16.5469 20.6562 18.6609 20 20.25 20C22.0547 20 24.3938 20.5672 25.8703 21.0594C26.4 21.2375 27 20.8438 27 20.2859V2.92813C27 2.36094 26.6813 1.83594 26.1516 1.63438C24.8297 1.12344 22.6172 0.5 20.25 0.5C17.5125 0.5 15.4031 1.4375 14.4844 2.16875C14.3297 2.29062 14.25 2.4875 14.25 2.68437V20.375C14.25 20.9094 14.7984 21.2797 15.3 21.1016Z" fill="#D4AF37"/>
</svg>
