<svg width="15" height="15" viewBox="0 0 15 15" fill="none" xmlns="http://www.w3.org/2000/svg">
<g clip-path="url(#clip0_431_6078)">
<path d="M7.90625 0.75C9.35547 0.75 10.5312 1.92578 10.5312 3.375V3.47344C10.5312 3.90273 10.184 4.25 9.75469 4.25H6.05781C5.62852 4.25 5.28125 3.90273 5.28125 3.47344V3.375C5.28125 1.92578 6.45703 0.75 7.90625 0.75ZM2.03828 3.63203C2.38008 3.29023 2.93516 3.29023 3.27695 3.63203L5.02695 5.38203C5.04609 5.40117 5.0625 5.42031 5.07891 5.43945C5.46719 5.23984 5.91016 5.12773 6.37773 5.12773H9.4375C9.90508 5.12773 10.3453 5.23984 10.7363 5.43945C10.7527 5.42031 10.7691 5.40117 10.7883 5.38203L12.5383 3.63203C12.8801 3.29023 13.4352 3.29023 13.777 3.63203C14.1188 3.97383 14.1188 4.52891 13.777 4.8707L12.027 6.6207C12.0078 6.63984 11.9887 6.65625 11.9695 6.67266C12.1391 7.00078 12.2457 7.36445 12.273 7.75273H14.0312C14.5152 7.75273 14.9062 8.14375 14.9062 8.62773C14.9062 9.11172 14.5152 9.50273 14.0312 9.50273H12.2812C12.2812 10.1754 12.1309 10.8098 11.8602 11.3785C11.9203 11.4141 11.975 11.4578 12.0242 11.5098L13.7742 13.2598C14.116 13.6016 14.116 14.1566 13.7742 14.4984C13.4324 14.8402 12.8773 14.8402 12.5355 14.4984L10.8102 12.773C10.1402 13.3691 9.28438 13.7629 8.34102 13.8559V7.3125C8.34102 7.07188 8.14414 6.875 7.90352 6.875C7.66289 6.875 7.46602 7.07188 7.46602 7.3125V13.8531C6.52266 13.7602 5.6668 13.3664 4.99688 12.7703L3.27422 14.493C2.93242 14.8348 2.37734 14.8348 2.03555 14.493C1.69375 14.1512 1.69375 13.5961 2.03555 13.2543L3.78555 11.5043C3.8375 11.4523 3.89219 11.4113 3.94961 11.373C3.68164 10.807 3.53125 10.1727 3.53125 9.5H1.78125C1.29727 9.5 0.90625 9.10898 0.90625 8.625C0.90625 8.14102 1.29727 7.75 1.78125 7.75H3.53945C3.56953 7.36445 3.67617 6.99805 3.84297 6.66992C3.82383 6.65352 3.80469 6.63711 3.78555 6.61797L2.03555 4.86797C1.69375 4.52617 1.69375 3.97109 2.03555 3.6293L2.03828 3.63203Z" fill="#4B5563"/>
</g>
<defs>
<clipPath id="clip0_431_6078">
<path d="M0.90625 0.75H14.9062V14.75H0.90625V0.75Z" fill="white"/>
</clipPath>
</defs>
</svg>
