<svg width="24" height="31" viewBox="0 0 24 31" fill="none" xmlns="http://www.w3.org/2000/svg">
<g clip-path="url(#clip0_339_1138)">
<g clip-path="url(#clip1_339_1138)">
<path d="M16.6719 23.25C17.2344 21.3809 18.4004 19.7871 19.5547 18.1992C19.8594 17.7832 20.1641 17.3672 20.457 16.9453C21.6172 15.2754 22.2969 13.2539 22.2969 11.0684C22.2969 5.36719 17.6797 0.75 11.9844 0.75C6.28906 0.75 1.67188 5.36719 1.67188 11.0625C1.67188 13.248 2.35156 15.2754 3.51172 16.9395C3.80469 17.3613 4.10938 17.7773 4.41406 18.1934C5.57422 19.7812 6.74023 21.3809 7.29688 23.2441H16.6719V23.25ZM11.9844 30.75C14.5742 30.75 16.6719 28.6523 16.6719 26.0625V25.125H7.29688V26.0625C7.29688 28.6523 9.39453 30.75 11.9844 30.75ZM7.29688 11.0625C7.29688 11.5781 6.875 12 6.35938 12C5.84375 12 5.42188 11.5781 5.42188 11.0625C5.42188 7.43555 8.35742 4.5 11.9844 4.5C12.5 4.5 12.9219 4.92188 12.9219 5.4375C12.9219 5.95312 12.5 6.375 11.9844 6.375C9.39453 6.375 7.29688 8.47266 7.29688 11.0625Z" fill="#3B82F6"/>
</g>
</g>
<defs>
<clipPath id="clip0_339_1138">
<rect width="22.5" height="30" fill="white" transform="translate(0.734375 0.75)"/>
</clipPath>
<clipPath id="clip1_339_1138">
<path d="M0.734375 0.75H23.2344V30.75H0.734375V0.75Z" fill="white"/>
</clipPath>
</defs>
</svg>
