<svg width="10" height="12" viewBox="0 0 10 12" fill="none" xmlns="http://www.w3.org/2000/svg">
<g clip-path="url(#clip0_2_647)">
<path d="M2 0C1.17266 0 0.5 0.672656 0.5 1.5V10.5C0.5 11.3273 1.17266 12 2 12H8C8.82734 12 9.5 11.3273 9.5 10.5V1.5C9.5 0.672656 8.82734 0 8 0H2ZM2.75 1.5H7.25C7.66484 1.5 8 1.83516 8 2.25V3C8 3.41484 7.66484 3.75 7.25 3.75H2.75C2.33516 3.75 2 3.41484 2 3V2.25C2 1.83516 2.33516 1.5 2.75 1.5ZM3.5 5.25C3.5 5.44891 3.42098 5.63968 3.28033 5.78033C3.13968 5.92098 2.94891 6 2.75 6C2.55109 6 2.36032 5.92098 2.21967 5.78033C2.07902 5.63968 2 5.44891 2 5.25C2 5.05109 2.07902 4.86032 2.21967 4.71967C2.36032 4.57902 2.55109 4.5 2.75 4.5C2.94891 4.5 3.13968 4.57902 3.28033 4.71967C3.42098 4.86032 3.5 5.05109 3.5 5.25ZM2.75 8.25C2.55109 8.25 2.36032 8.17098 2.21967 8.03033C2.07902 7.88968 2 7.69891 2 7.5C2 7.30109 2.07902 7.11032 2.21967 6.96967C2.36032 6.82902 2.55109 6.75 2.75 6.75C2.94891 6.75 3.13968 6.82902 3.28033 6.96967C3.42098 7.11032 3.5 7.30109 3.5 7.5C3.5 7.69891 3.42098 7.88968 3.28033 8.03033C3.13968 8.17098 2.94891 8.25 2.75 8.25ZM2 9.75C2 9.33516 2.33516 9 2.75 9H5C5.41484 9 5.75 9.33516 5.75 9.75C5.75 10.1648 5.41484 10.5 5 10.5H2.75C2.33516 10.5 2 10.1648 2 9.75ZM5 6C4.80109 6 4.61032 5.92098 4.46967 5.78033C4.32902 5.63968 4.25 5.44891 4.25 5.25C4.25 5.05109 4.32902 4.86032 4.46967 4.71967C4.61032 4.57902 4.80109 4.5 5 4.5C5.19891 4.5 5.38968 4.57902 5.53033 4.71967C5.67098 4.86032 5.75 5.05109 5.75 5.25C5.75 5.44891 5.67098 5.63968 5.53033 5.78033C5.38968 5.92098 5.19891 6 5 6ZM5.75 7.5C5.75 7.69891 5.67098 7.88968 5.53033 8.03033C5.38968 8.17098 5.19891 8.25 5 8.25C4.80109 8.25 4.61032 8.17098 4.46967 8.03033C4.32902 7.88968 4.25 7.69891 4.25 7.5C4.25 7.30109 4.32902 7.11032 4.46967 6.96967C4.61032 6.82902 4.80109 6.75 5 6.75C5.19891 6.75 5.38968 6.82902 5.53033 6.96967C5.67098 7.11032 5.75 7.30109 5.75 7.5ZM7.25 6C7.05109 6 6.86032 5.92098 6.71967 5.78033C6.57902 5.63968 6.5 5.44891 6.5 5.25C6.5 5.05109 6.57902 4.86032 6.71967 4.71967C6.86032 4.57902 7.05109 4.5 7.25 4.5C7.44891 4.5 7.63968 4.57902 7.78033 4.71967C7.92098 4.86032 8 5.05109 8 5.25C8 5.44891 7.92098 5.63968 7.78033 5.78033C7.63968 5.92098 7.44891 6 7.25 6ZM8 7.5C8 7.69891 7.92098 7.88968 7.78033 8.03033C7.63968 8.17098 7.44891 8.25 7.25 8.25C7.05109 8.25 6.86032 8.17098 6.71967 8.03033C6.57902 7.88968 6.5 7.69891 6.5 7.5C6.5 7.30109 6.57902 7.11032 6.71967 6.96967C6.86032 6.82902 7.05109 6.75 7.25 6.75C7.44891 6.75 7.63968 6.82902 7.78033 6.96967C7.92098 7.11032 8 7.30109 8 7.5ZM7.25 10.5C7.05109 10.5 6.86032 10.421 6.71967 10.2803C6.57902 10.1397 6.5 9.94891 6.5 9.75C6.5 9.55109 6.57902 9.36032 6.71967 9.21967C6.86032 9.07902 7.05109 9 7.25 9C7.44891 9 7.63968 9.07902 7.78033 9.21967C7.92098 9.36032 8 9.55109 8 9.75C8 9.94891 7.92098 10.1397 7.78033 10.2803C7.63968 10.421 7.44891 10.5 7.25 10.5Z" fill="#4338CA"/>
</g>
<defs>
<clipPath id="clip0_2_647">
<path d="M0.5 0H9.5V12H0.5V0Z" fill="white"/>
</clipPath>
</defs>
</svg>
