<svg width="14" height="16" viewBox="0 0 14 16" fill="none" xmlns="http://www.w3.org/2000/svg">
<g clip-path="url(#clip0_297_1081)">
<path d="M3.03879 1.14182V2.07074H1.6454C0.876136 2.07074 0.252014 2.69486 0.252014 3.46413V4.85752H13.257V3.46413C13.257 2.69486 12.6329 2.07074 11.8636 2.07074H10.4702V1.14182C10.4702 0.628004 10.0551 0.212891 9.54127 0.212891C9.02746 0.212891 8.61235 0.628004 8.61235 1.14182V2.07074H4.89664V1.14182C4.89664 0.628004 4.48153 0.212891 3.96772 0.212891C3.45391 0.212891 3.03879 0.628004 3.03879 1.14182ZM13.257 5.78645H0.252014V13.6823C0.252014 14.4516 0.876136 15.0757 1.6454 15.0757H11.8636C12.6329 15.0757 13.257 14.4516 13.257 13.6823V5.78645Z" fill="#22C55E"/>
</g>
<defs>
<clipPath id="clip0_297_1081">
<path d="M0.252014 0.212891H13.257V15.0757H0.252014V0.212891Z" fill="white"/>
</clipPath>
</defs>
</svg>
