<svg width="54" height="72" viewBox="0 0 54 72" fill="none" xmlns="http://www.w3.org/2000/svg">
<g clip-path="url(#clip0_327_561)">
<path d="M15.75 5.5C17.3086 5.5 18.5625 6.75391 18.5625 8.3125V13H35.4375V8.3125C35.4375 6.75391 36.6914 5.5 38.25 5.5C39.8086 5.5 41.0625 6.75391 41.0625 8.3125V13H45.75C49.8867 13 53.25 16.3633 53.25 20.5V22.375V28V58C53.25 62.1367 49.8867 65.5 45.75 65.5H8.25C4.11328 65.5 0.75 62.1367 0.75 58V28V22.375V20.5C0.75 16.3633 4.11328 13 8.25 13H12.9375V8.3125C12.9375 6.75391 14.1914 5.5 15.75 5.5ZM47.625 28H6.375V58C6.375 59.0312 7.21875 59.875 8.25 59.875H45.75C46.7812 59.875 47.625 59.0312 47.625 58V28ZM39.3047 40.3047L26.1797 53.4297C25.0781 54.5312 23.2969 54.5312 22.207 53.4297L14.707 45.9297C13.6055 44.8281 13.6055 43.0469 14.707 41.957C15.8086 40.8672 17.5898 40.8555 18.6797 41.957L24.1875 47.4648L35.3203 36.332C36.4219 35.2305 38.2031 35.2305 39.293 36.332C40.3828 37.4336 40.3945 39.2148 39.293 40.3047H39.3047Z" fill="#4A3B32" fill-opacity="0.3"/>
</g>
<defs>
<clipPath id="clip0_327_561">
<path d="M0.75 5.5H53.25V65.5H0.75V5.5Z" fill="white"/>
</clipPath>
</defs>
</svg>
