<svg width="13" height="14" viewBox="0 0 13 14" fill="none" xmlns="http://www.w3.org/2000/svg">
<g clip-path="url(#clip0_2_494)">
<g clip-path="url(#clip1_2_494)">
<path d="M4.15625 0.65625C4.15625 0.292578 3.86367 0 3.5 0C3.13633 0 2.84375 0.292578 2.84375 0.65625V1.75H1.75C0.784766 1.75 0 2.53477 0 3.5V3.9375V5.25V12.25C0 13.2152 0.784766 14 1.75 14H10.5C11.4652 14 12.25 13.2152 12.25 12.25V5.25V3.9375V3.5C12.25 2.53477 11.4652 1.75 10.5 1.75H9.40625V0.65625C9.40625 0.292578 9.11367 0 8.75 0C8.38633 0 8.09375 0.292578 8.09375 0.65625V1.75H4.15625V0.65625ZM1.3125 5.25H3.5V6.78125H1.3125V5.25ZM1.3125 8.09375H3.5V9.84375H1.3125V8.09375ZM4.8125 8.09375H7.4375V9.84375H4.8125V8.09375ZM8.75 8.09375H10.9375V9.84375H8.75V8.09375ZM10.9375 6.78125H8.75V5.25H10.9375V6.78125ZM10.9375 11.1562V12.25C10.9375 12.4906 10.7406 12.6875 10.5 12.6875H8.75V11.1562H10.9375ZM7.4375 11.1562V12.6875H4.8125V11.1562H7.4375ZM3.5 11.1562V12.6875H1.75C1.50937 12.6875 1.3125 12.4906 1.3125 12.25V11.1562H3.5ZM7.4375 6.78125H4.8125V5.25H7.4375V6.78125Z" fill="#2563EB"/>
</g>
</g>
<defs>
<clipPath id="clip0_2_494">
<rect width="12.25" height="14" fill="white"/>
</clipPath>
<clipPath id="clip1_2_494">
<path d="M0 0H12.25V14H0V0Z" fill="white"/>
</clipPath>
</defs>
</svg>
