<svg width="17" height="16" viewBox="0 0 17 16" fill="none" xmlns="http://www.w3.org/2000/svg">
<g clip-path="url(#clip0_2_1353)">
<path d="M5.34688 2.025L5.02187 3H2.6875C1.58438 3 0.6875 3.89687 0.6875 5V13C0.6875 14.1031 1.58438 15 2.6875 15H14.6875C15.7906 15 16.6875 14.1031 16.6875 13V5C16.6875 3.89687 15.7906 3 14.6875 3H12.3531L12.0281 2.025C11.825 1.4125 11.2531 1 10.6062 1H6.76875C6.12188 1 5.55 1.4125 5.34688 2.025ZM8.6875 6C9.48315 6 10.2462 6.31607 10.8088 6.87868C11.3714 7.44129 11.6875 8.20435 11.6875 9C11.6875 9.79565 11.3714 10.5587 10.8088 11.1213C10.2462 11.6839 9.48315 12 8.6875 12C7.89185 12 7.12879 11.6839 6.56618 11.1213C6.00357 10.5587 5.6875 9.79565 5.6875 9C5.6875 8.20435 6.00357 7.44129 6.56618 6.87868C7.12879 6.31607 7.89185 6 8.6875 6Z" fill="#374151"/>
</g>
<defs>
<clipPath id="clip0_2_1353">
<path d="M0.6875 0H16.6875V16H0.6875V0Z" fill="white"/>
</clipPath>
</defs>
</svg>
