<svg width="13" height="14" viewBox="0 0 13 14" fill="none" xmlns="http://www.w3.org/2000/svg">
<g clip-path="url(#clip0_60_5566)">
<g clip-path="url(#clip1_60_5566)">
<path d="M1.07812 0.875C0.594141 0.875 0.203125 1.26602 0.203125 1.75V4.375C0.203125 4.85898 0.594141 5.25 1.07812 5.25C1.56211 5.25 1.95312 4.85898 1.95312 4.375V2.625H3.70312C4.18711 2.625 4.57812 2.23398 4.57812 1.75C4.57812 1.26602 4.18711 0.875 3.70312 0.875H1.07812ZM1.95312 9.625C1.95312 9.14102 1.56211 8.75 1.07812 8.75C0.594141 8.75 0.203125 9.14102 0.203125 9.625V12.25C0.203125 12.734 0.594141 13.125 1.07812 13.125H3.70312C4.18711 13.125 4.57812 12.734 4.57812 12.25C4.57812 11.766 4.18711 11.375 3.70312 11.375H1.95312V9.625ZM8.95312 0.875C8.46914 0.875 8.07812 1.26602 8.07812 1.75C8.07812 2.23398 8.46914 2.625 8.95312 2.625H10.7031V4.375C10.7031 4.85898 11.0941 5.25 11.5781 5.25C12.0621 5.25 12.4531 4.85898 12.4531 4.375V1.75C12.4531 1.26602 12.0621 0.875 11.5781 0.875H8.95312ZM12.4531 9.625C12.4531 9.14102 12.0621 8.75 11.5781 8.75C11.0941 8.75 10.7031 9.14102 10.7031 9.625V11.375H8.95312C8.46914 11.375 8.07812 11.766 8.07812 12.25C8.07812 12.734 8.46914 13.125 8.95312 13.125H11.5781C12.0621 13.125 12.4531 12.734 12.4531 12.25V9.625Z" fill="#2563EB"/>
</g>
</g>
<defs>
<clipPath id="clip0_60_5566">
<rect width="12.25" height="14" fill="white" transform="translate(0.203125)"/>
</clipPath>
<clipPath id="clip1_60_5566">
<path d="M0.203125 0H12.4531V14H0.203125V0Z" fill="white"/>
</clipPath>
</defs>
</svg>
