<svg width="22" height="18" viewBox="0 0 22 18" fill="none" xmlns="http://www.w3.org/2000/svg">
<g clip-path="url(#clip0_57_1628)">
<path d="M3.125 1.125C1.88398 1.125 0.875 2.13398 0.875 3.375V4.5H21.125V3.375C21.125 2.13398 20.116 1.125 18.875 1.125H3.125ZM21.125 7.875H0.875V14.625C0.875 15.866 1.88398 16.875 3.125 16.875H18.875C20.116 16.875 21.125 15.866 21.125 14.625V7.875ZM4.8125 12.375H7.0625C7.37187 12.375 7.625 12.6281 7.625 12.9375C7.625 13.2469 7.37187 13.5 7.0625 13.5H4.8125C4.50312 13.5 4.25 13.2469 4.25 12.9375C4.25 12.6281 4.50312 12.375 4.8125 12.375ZM8.75 12.9375C8.75 12.6281 9.00313 12.375 9.3125 12.375H13.8125C14.1219 12.375 14.375 12.6281 14.375 12.9375C14.375 13.2469 14.1219 13.5 13.8125 13.5H9.3125C9.00313 13.5 8.75 13.2469 8.75 12.9375Z" fill="#059669"/>
</g>
<defs>
<clipPath id="clip0_57_1628">
<path d="M0.875 0H21.125V18H0.875V0Z" fill="white"/>
</clipPath>
</defs>
</svg>
