<svg width="12" height="12" viewBox="0 0 12 12" fill="none" xmlns="http://www.w3.org/2000/svg">
<g clip-path="url(#clip0_2_674)">
<path d="M4.5 1.875C4.5 1.25391 5.00391 0.75 5.625 0.75H6.375C6.99609 0.75 7.5 1.25391 7.5 1.875V10.125C7.5 10.7461 6.99609 11.25 6.375 11.25H5.625C5.00391 11.25 4.5 10.7461 4.5 10.125V1.875ZM0.75 6.375C0.75 5.75391 1.25391 5.25 1.875 5.25H2.625C3.24609 5.25 3.75 5.75391 3.75 6.375V10.125C3.75 10.7461 3.24609 11.25 2.625 11.25H1.875C1.25391 11.25 0.75 10.7461 0.75 10.125V6.375ZM9.375 2.25H10.125C10.7461 2.25 11.25 2.75391 11.25 3.375V10.125C11.25 10.7461 10.7461 11.25 10.125 11.25H9.375C8.75391 11.25 8.25 10.7461 8.25 10.125V3.375C8.25 2.75391 8.75391 2.25 9.375 2.25Z" fill="#B91C1C"/>
</g>
<defs>
<clipPath id="clip0_2_674">
<path d="M0.75 0H11.25V12H0.75V0Z" fill="white"/>
</clipPath>
</defs>
</svg>
