<svg width="17" height="16" viewBox="0 0 17 16" fill="none" xmlns="http://www.w3.org/2000/svg">
<g clip-path="url(#clip0_447_17298)">
<g clip-path="url(#clip1_447_17298)">
<path d="M2.65625 2C2.65625 1.44687 2.20938 1 1.65625 1C1.10312 1 0.65625 1.44687 0.65625 2V12.5C0.65625 13.8813 1.775 15 3.15625 15H15.6562C16.2094 15 16.6562 14.5531 16.6562 14C16.6562 13.4469 16.2094 13 15.6562 13H3.15625C2.88125 13 2.65625 12.775 2.65625 12.5V2ZM15.3625 4.70625C15.7531 4.31563 15.7531 3.68125 15.3625 3.29063C14.9719 2.9 14.3375 2.9 13.9469 3.29063L10.6562 6.58437L8.8625 4.79063C8.47188 4.4 7.8375 4.4 7.44688 4.79063L3.94688 8.29062C3.55625 8.68125 3.55625 9.31563 3.94688 9.70625C4.3375 10.0969 4.97188 10.0969 5.3625 9.70625L8.15625 6.91563L9.95 8.70938C10.3406 9.1 10.975 9.1 11.3656 8.70938L15.3656 4.70937L15.3625 4.70625Z" fill="#BDC3C7"/>
</g>
</g>
<defs>
<clipPath id="clip0_447_17298">
<rect width="16" height="16" fill="white" transform="translate(0.65625)"/>
</clipPath>
<clipPath id="clip1_447_17298">
<path d="M0.65625 0H16.6562V16H0.65625V0Z" fill="white"/>
</clipPath>
</defs>
</svg>
