<svg width="17" height="14" viewBox="0 0 17 14" fill="none" xmlns="http://www.w3.org/2000/svg">
<path d="M1.39062 0C1.94375 0 2.39062 0.446875 2.39062 1V11.5C2.39062 11.775 2.61562 12 2.89062 12H15.3906C15.9438 12 16.3906 12.4469 16.3906 13C16.3906 13.5531 15.9438 14 15.3906 14H2.89062C1.50937 14 0.390625 12.8813 0.390625 11.5V1C0.390625 0.446875 0.8375 0 1.39062 0ZM4.39062 3C4.39062 2.44688 4.8375 2 5.39062 2H11.3906C11.9438 2 12.3906 2.44688 12.3906 3C12.3906 3.55312 11.9438 4 11.3906 4H5.39062C4.8375 4 4.39062 3.55312 4.39062 3ZM5.39062 5H9.39062C9.94375 5 10.3906 5.44688 10.3906 6C10.3906 6.55312 9.94375 7 9.39062 7H5.39062C4.8375 7 4.39062 6.55312 4.39062 6C4.39062 5.44688 4.8375 5 5.39062 5ZM5.39062 8H13.3906C13.9438 8 14.3906 8.44687 14.3906 9C14.3906 9.55313 13.9438 10 13.3906 10H5.39062C4.8375 10 4.39062 9.55313 4.39062 9C4.39062 8.44687 4.8375 8 5.39062 8Z" fill="#1F2937"/>
</svg>
