<svg width="16" height="16" viewBox="0 0 16 16" fill="none" xmlns="http://www.w3.org/2000/svg">
<path d="M0 8C0 3.58172 3.58172 0 8 0C12.4183 0 16 3.58172 16 8C16 12.4183 12.4183 16 8 16C3.58172 16 0 12.4183 0 8Z" fill="#F0F4E8"/>
<path d="M8 0.5C12.1421 0.5 15.5 3.85786 15.5 8C15.5 12.1421 12.1421 15.5 8 15.5C3.85786 15.5 0.5 12.1421 0.5 8C0.5 3.85786 3.85786 0.5 8 0.5Z" stroke="#355E3B" stroke-opacity="0.3"/>
<path d="M11.5 14H4.5V2H11.5V14Z" stroke="#E5E7EB"/>
<g clip-path="url(#clip0_475_624)">
<path d="M11.3533 4.64648C11.5486 4.8418 11.5486 5.15898 11.3533 5.3543L7.35332 9.3543C7.15801 9.54961 6.84082 9.54961 6.64551 9.3543L4.64551 7.3543C4.4502 7.15898 4.4502 6.8418 4.64551 6.64648C4.84082 6.45117 5.15801 6.45117 5.35332 6.64648L7.0002 8.2918L10.6471 4.64648C10.8424 4.45117 11.1596 4.45117 11.3549 4.64648H11.3533Z" fill="#355E3B"/>
</g>
<defs>
<clipPath id="clip0_475_624">
<path d="M4.5 3H11.5V11H4.5V3Z" fill="white"/>
</clipPath>
</defs>
</svg>
