<svg width="21" height="16" viewBox="0 0 21 16" fill="none" xmlns="http://www.w3.org/2000/svg">
<g clip-path="url(#clip0_60_2990)">
<path d="M12.3375 0.0374825C11.8062 -0.115643 11.2531 0.193733 11.1 0.724983L7.09995 14.725C6.94683 15.2562 7.2562 15.8094 7.78745 15.9625C8.3187 16.1156 8.87183 15.8062 9.02495 15.275L13.025 1.27498C13.1781 0.743732 12.8687 0.190607 12.3375 0.0374825ZM14.8562 3.79061C14.4656 4.18123 14.4656 4.81561 14.8562 5.20623L17.6468 7.99998L14.8531 10.7937C14.4625 11.1844 14.4625 11.8187 14.8531 12.2094C15.2437 12.6 15.8781 12.6 16.2687 12.2094L19.7687 8.70936C20.1593 8.31873 20.1593 7.68436 19.7687 7.29373L16.2687 3.79373C15.8781 3.40311 15.2437 3.40311 14.8531 3.79373L14.8562 3.79061ZM5.27183 3.79061C4.8812 3.39998 4.24683 3.39998 3.8562 3.79061L0.356201 7.29061C-0.0344238 7.68123 -0.0344238 8.31561 0.356201 8.70623L3.8562 12.2062C4.24683 12.5969 4.8812 12.5969 5.27183 12.2062C5.66245 11.8156 5.66245 11.1812 5.27183 10.7906L2.47808 7.99998L5.27183 5.20623C5.66245 4.81561 5.66245 4.18123 5.27183 3.79061Z" fill="#4B5563"/>
</g>
<defs>
<clipPath id="clip0_60_2990">
<path d="M0.0625 0H20.0625V16H0.0625V0Z" fill="white"/>
</clipPath>
</defs>
</svg>
