<svg width="32" height="32" viewBox="0 0 32 32" fill="none" xmlns="http://www.w3.org/2000/svg">
<path d="M26 0C29.3137 0 32 2.68629 32 6V26C32 29.3137 29.3137 32 26 32H6C2.68629 32 0 29.3137 0 26V6C0 2.68629 2.68629 0 6 0H26Z" fill="#0284C7"/>
<path d="M26 0C29.3137 0 32 2.68629 32 6V26C32 29.3137 29.3137 32 26 32H6C2.68629 32 0 29.3137 0 26V6C0 2.68629 2.68629 0 6 0H26Z" stroke="#E5E7EB"/>
<g clip-path="url(#clip0_438_9921)">
<path d="M18 8H14H13C12.4469 8 12 8.44687 12 9C12 9.55313 12.4469 10 13 10V14.15C13 14.5188 12.8969 14.8844 12.7031 15.1969L9.32188 20.6938C9.1125 21.0375 9 21.4281 9 21.8313C9 23.0281 9.97188 24 11.1688 24H20.8313C22.0281 24 23 23.0281 23 21.8313C23 21.4313 22.8875 21.0375 22.6781 20.6938L19.2969 15.2C19.1031 14.8844 19 14.5219 19 14.1531V10C19.5531 10 20 9.55313 20 9C20 8.44687 19.5531 8 19 8H18ZM15 14.15V10H17V14.15C17 14.8906 17.2063 15.6156 17.5938 16.2469L18.6719 18H13.3281L14.4062 16.2469C14.7937 15.6156 15 14.8906 15 14.15Z" fill="white"/>
</g>
<defs>
<clipPath id="clip0_438_9921">
<path d="M9 8H23V24H9V8Z" fill="white"/>
</clipPath>
</defs>
</svg>
