<svg width="15" height="13" viewBox="0 0 15 13" fill="none" xmlns="http://www.w3.org/2000/svg">
<g clip-path="url(#clip0_475_736)">
<path d="M6.9375 3.6875V2.5625H8.0625V3.6875H6.9375ZM6.75 1.25C6.12891 1.25 5.625 1.75391 5.625 2.375V2.46875H2.85C2.60625 1.96953 2.09297 1.625 1.5 1.625C0.672656 1.625 0 2.29766 0 3.125C0 3.95234 0.672656 4.625 1.5 4.625C2.09297 4.625 2.60625 4.28047 2.85 3.78125H4.41797C3.0375 4.70937 2.1 6.24219 1.98047 8H1.875C1.25391 8 0.75 8.50391 0.75 9.125V10.625C0.75 11.2461 1.25391 11.75 1.875 11.75H3.375C3.99609 11.75 4.5 11.2461 4.5 10.625V9.125C4.5 8.50391 3.99609 8 3.375 8H3.29766C3.43594 6.42969 4.43437 5.10781 5.81719 4.50547C6.01875 4.80312 6.36094 5 6.75 5H8.25C8.63906 5 8.97891 4.80312 9.18281 4.50547C10.5656 5.10781 11.5641 6.42969 11.7023 8H11.625C11.0039 8 10.5 8.50391 10.5 9.125V10.625C10.5 11.2461 11.0039 11.75 11.625 11.75H13.125C13.7461 11.75 14.25 11.2461 14.25 10.625V9.125C14.25 8.50391 13.7461 8 13.125 8H13.0195C12.9023 6.24219 11.9625 4.70937 10.582 3.78125H12.15C12.3938 4.28047 12.907 4.625 13.5 4.625C14.3273 4.625 15 3.95234 15 3.125C15 2.29766 14.3273 1.625 13.5 1.625C12.907 1.625 12.3938 1.96953 12.15 2.46875H9.375V2.375C9.375 1.75391 8.87109 1.25 8.25 1.25H6.75ZM2.0625 9.3125H3.1875V10.4375H2.0625V9.3125ZM11.8125 10.4375V9.3125H12.9375V10.4375H11.8125Z" fill="#355E3B"/>
</g>
<defs>
<clipPath id="clip0_475_736">
<rect width="15" height="12" fill="white" transform="translate(0 0.5)"/>
</clipPath>
</defs>
</svg>
