<svg width="12" height="15" viewBox="0 0 12 15" fill="none" xmlns="http://www.w3.org/2000/svg">
<g clip-path="url(#clip0_394_292)">
<path d="M5.76562 0.75C4.62266 0.75 3.64922 1.48008 3.29102 2.5H2.26562C1.30039 2.5 0.515625 3.28477 0.515625 4.25V13C0.515625 13.9652 1.30039 14.75 2.26562 14.75H9.26562C10.2309 14.75 11.0156 13.9652 11.0156 13V4.25C11.0156 3.28477 10.2309 2.5 9.26562 2.5H8.24023C7.88203 1.48008 6.90859 0.75 5.76562 0.75ZM5.76562 2.5C5.99769 2.5 6.22025 2.59219 6.38434 2.75628C6.54844 2.92038 6.64062 3.14294 6.64062 3.375C6.64062 3.60706 6.54844 3.82962 6.38434 3.99372C6.22025 4.15781 5.99769 4.25 5.76562 4.25C5.53356 4.25 5.311 4.15781 5.14691 3.99372C4.98281 3.82962 4.89062 3.60706 4.89062 3.375C4.89062 3.14294 4.98281 2.92038 5.14691 2.75628C5.311 2.59219 5.53356 2.5 5.76562 2.5ZM3.57812 6H7.95312C8.19375 6 8.39062 6.19688 8.39062 6.4375C8.39062 6.67812 8.19375 6.875 7.95312 6.875H3.57812C3.3375 6.875 3.14062 6.67812 3.14062 6.4375C3.14062 6.19688 3.3375 6 3.57812 6Z" fill="#374151"/>
</g>
<defs>
<clipPath id="clip0_394_292">
<path d="M0.515625 0.75H11.0156V14.75H0.515625V0.75Z" fill="white"/>
</clipPath>
</defs>
</svg>
