<svg width="37" height="36" viewBox="0 0 37 36" fill="none" xmlns="http://www.w3.org/2000/svg">
<g clip-path="url(#clip0_54_404)">
<path d="M36.6406 18C36.6406 18.0633 36.6406 18.1266 36.6406 18.1898C36.6125 20.7563 34.2781 22.5 31.7117 22.5H24.8281C22.9648 22.5 21.4531 24.0117 21.4531 25.875C21.4531 26.1141 21.4813 26.3461 21.5234 26.5711C21.6711 27.2883 21.9805 27.9773 22.2828 28.6734C22.7117 29.6437 23.1336 30.607 23.1336 31.6266C23.1336 33.8625 21.6148 35.8945 19.3789 35.9859C19.1328 35.993 18.8867 36 18.6336 36C8.69844 36 0.640625 27.9422 0.640625 18C0.640625 8.05781 8.69844 0 18.6406 0C28.5828 0 36.6406 8.05781 36.6406 18ZM9.64062 20.25C9.64062 19.6533 9.40357 19.081 8.98162 18.659C8.55966 18.2371 7.98736 18 7.39062 18C6.79389 18 6.22159 18.2371 5.79963 18.659C5.37768 19.081 5.14062 19.6533 5.14062 20.25C5.14062 20.8467 5.37768 21.419 5.79963 21.841C6.22159 22.2629 6.79389 22.5 7.39062 22.5C7.98736 22.5 8.55966 22.2629 8.98162 21.841C9.40357 21.419 9.64062 20.8467 9.64062 20.25ZM9.64062 13.5C10.2374 13.5 10.8097 13.2629 11.2316 12.841C11.6536 12.419 11.8906 11.8467 11.8906 11.25C11.8906 10.6533 11.6536 10.081 11.2316 9.65901C10.8097 9.23705 10.2374 9 9.64062 9C9.04389 9 8.47159 9.23705 8.04963 9.65901C7.62768 10.081 7.39062 10.6533 7.39062 11.25C7.39062 11.8467 7.62768 12.419 8.04963 12.841C8.47159 13.2629 9.04389 13.5 9.64062 13.5ZM20.8906 6.75C20.8906 6.15326 20.6536 5.58097 20.2316 5.15901C19.8097 4.73705 19.2374 4.5 18.6406 4.5C18.0439 4.5 17.4716 4.73705 17.0496 5.15901C16.6277 5.58097 16.3906 6.15326 16.3906 6.75C16.3906 7.34674 16.6277 7.91903 17.0496 8.34099C17.4716 8.76295 18.0439 9 18.6406 9C19.2374 9 19.8097 8.76295 20.2316 8.34099C20.6536 7.91903 20.8906 7.34674 20.8906 6.75ZM27.6406 13.5C28.2374 13.5 28.8097 13.2629 29.2316 12.841C29.6536 12.419 29.8906 11.8467 29.8906 11.25C29.8906 10.6533 29.6536 10.081 29.2316 9.65901C28.8097 9.23705 28.2374 9 27.6406 9C27.0439 9 26.4716 9.23705 26.0496 9.65901C25.6277 10.081 25.3906 10.6533 25.3906 11.25C25.3906 11.8467 25.6277 12.419 26.0496 12.841C26.4716 13.2629 27.0439 13.5 27.6406 13.5Z" fill="#60A5FA"/>
</g>
<defs>
<clipPath id="clip0_54_404">
<path d="M0.640625 0H36.6406V36H0.640625V0Z" fill="white"/>
</clipPath>
</defs>
</svg>
