<svg width="21" height="21" viewBox="0 0 21 21" fill="none" xmlns="http://www.w3.org/2000/svg">
<g clip-path="url(#clip0_368_366)">
<path d="M19.0781 1.34863C18.2227 0.493164 16.8398 0.493164 15.9844 1.34863L14.8086 2.52051L18.6328 6.34473L19.8086 5.16895C20.6641 4.31348 20.6641 2.93066 19.8086 2.0752L19.0781 1.34863ZM7.39063 9.94238C7.15234 10.1807 6.96875 10.4736 6.86328 10.7979L5.70703 14.2666C5.59375 14.6025 5.68359 14.9736 5.93359 15.2275C6.18359 15.4814 6.55469 15.5674 6.89453 15.4541L10.3633 14.2979C10.6836 14.1924 10.9766 14.0088 11.2188 13.7705L17.7539 7.23145L13.9258 3.40332L7.39063 9.94238ZM4.40625 3.00098C2.33594 3.00098 0.65625 4.68066 0.65625 6.75098V16.751C0.65625 18.8213 2.33594 20.501 4.40625 20.501H14.4063C16.4766 20.501 18.1563 18.8213 18.1563 16.751V13.001C18.1563 12.3096 17.5977 11.751 16.9063 11.751C16.2148 11.751 15.6563 12.3096 15.6563 13.001V16.751C15.6563 17.4424 15.0977 18.001 14.4063 18.001H4.40625C3.71484 18.001 3.15625 17.4424 3.15625 16.751V6.75098C3.15625 6.05957 3.71484 5.50098 4.40625 5.50098H8.15625C8.84766 5.50098 9.40625 4.94238 9.40625 4.25098C9.40625 3.55957 8.84766 3.00098 8.15625 3.00098H4.40625Z" fill="white"/>
</g>
<defs>
<clipPath id="clip0_368_366">
<path d="M0.65625 0.5H20.6562V20.5H0.65625V0.5Z" fill="white"/>
</clipPath>
</defs>
</svg>
