<svg width="17" height="14" viewBox="0 0 17 14" fill="none" xmlns="http://www.w3.org/2000/svg">
<path d="M8.277 1.56952L1.89771 7.94882C1.21411 8.63241 1.21411 9.73983 1.89771 10.4234L4.0852 12.6109C4.41333 12.9391 4.85903 13.1223 5.32388 13.1223H8.20317H8.46021H14.3282C14.8122 13.1223 15.2032 12.7312 15.2032 12.2473C15.2032 11.7633 14.8122 11.3723 14.3282 11.3723H10.9348L14.5086 7.80116C15.1922 7.11757 15.1922 6.01014 14.5086 5.32655L10.7543 1.56952C10.0708 0.885925 8.96333 0.885925 8.27974 1.56952H8.277ZM8.46021 11.375H8.20317H5.32114L3.13364 9.18749L6.54341 5.77772L10.3004 9.53475L8.46021 11.375Z" fill="#374151"/>
</svg>
