<svg width="19" height="16" viewBox="0 0 19 16" fill="none" xmlns="http://www.w3.org/2000/svg">
<g clip-path="url(#clip0_431_5899)">
<path d="M0.453125 2C0.453125 0.896875 1.35 0 2.45312 0H7.45312V4C7.45312 4.55312 7.9 5 8.45312 5H12.4531V9H7.20312C6.7875 9 6.45312 9.33438 6.45312 9.75C6.45312 10.1656 6.7875 10.5 7.20312 10.5H12.4531V14C12.4531 15.1031 11.5562 16 10.4531 16H2.45312C1.35 16 0.453125 15.1031 0.453125 14V2ZM12.4531 10.5V9H15.8938L14.675 7.78125C14.3813 7.4875 14.3813 7.0125 14.675 6.72188C14.9688 6.43125 15.4438 6.42813 15.7344 6.72188L18.2344 9.22188C18.5281 9.51562 18.5281 9.99063 18.2344 10.2812L15.7344 12.7812C15.4406 13.075 14.9656 13.075 14.675 12.7812C14.3844 12.4875 14.3813 12.0125 14.675 11.7219L15.8938 10.5031H12.4531V10.5ZM12.4531 4H8.45312V0L12.4531 4Z" fill="#374151"/>
</g>
<defs>
<clipPath id="clip0_431_5899">
<path d="M0.453125 0H18.4531V16H0.453125V0Z" fill="white"/>
</clipPath>
</defs>
</svg>
