<svg width="17" height="15" viewBox="0 0 17 15" fill="none" xmlns="http://www.w3.org/2000/svg">
<g clip-path="url(#clip0_431_6378)">
<path d="M8.84307 1.625C6.63369 1.625 4.86455 2.63125 3.57666 3.82891C2.29697 5.01562 1.44111 6.4375 1.03643 7.41367C0.946191 7.62969 0.946191 7.87031 1.03643 8.08633C1.44111 9.0625 2.29697 10.4844 3.57666 11.6711C4.86455 12.8687 6.63369 13.875 8.84307 13.875C11.0524 13.875 12.8216 12.8687 14.1095 11.6711C15.3892 10.4816 16.245 9.0625 16.6524 8.08633C16.7427 7.87031 16.7427 7.62969 16.6524 7.41367C16.245 6.4375 15.3892 5.01562 14.1095 3.82891C12.8216 2.63125 11.0524 1.625 8.84307 1.625ZM4.90557 7.75C4.90557 6.70571 5.32041 5.70419 6.05883 4.96577C6.79726 4.22734 7.79878 3.8125 8.84307 3.8125C9.88736 3.8125 10.8889 4.22734 11.6273 4.96577C12.3657 5.70419 12.7806 6.70571 12.7806 7.75C12.7806 8.79429 12.3657 9.79581 11.6273 10.5342C10.8889 11.2727 9.88736 11.6875 8.84307 11.6875C7.79878 11.6875 6.79726 11.2727 6.05883 10.5342C5.32041 9.79581 4.90557 8.79429 4.90557 7.75ZM8.84307 6C8.84307 6.96523 8.0583 7.75 7.09307 7.75C6.89893 7.75 6.71299 7.71719 6.53799 7.65977C6.3876 7.61055 6.2126 7.70352 6.21807 7.86211C6.22627 8.05078 6.25361 8.23945 6.30557 8.42812C6.68018 9.82812 8.12119 10.6594 9.52119 10.2848C10.9212 9.91016 11.7524 8.46914 11.3778 7.06914C11.0743 5.93438 10.0708 5.17148 8.95518 5.125C8.79658 5.11953 8.70361 5.2918 8.75283 5.44492C8.81025 5.61992 8.84307 5.80586 8.84307 6Z" fill="black"/>
</g>
<defs>
<clipPath id="clip0_431_6378">
<path d="M0.96875 0.75H16.7188V14.75H0.96875V0.75Z" fill="white"/>
</clipPath>
</defs>
</svg>
