<svg width="17" height="15" viewBox="0 0 17 15" fill="none" xmlns="http://www.w3.org/2000/svg">
<g clip-path="url(#clip0_438_9976)">
<path d="M8.48467 2.9375C6.70186 2.9375 5.23623 3.74688 4.1124 4.78867C3.05967 5.76758 2.33232 6.92969 1.96045 7.75C2.33232 8.57031 3.05967 9.73242 4.10967 10.7113C5.23623 11.7531 6.70186 12.5625 8.48467 12.5625C10.2675 12.5625 11.7331 11.7531 12.8569 10.7113C13.9097 9.73242 14.637 8.57031 15.0089 7.75C14.637 6.92969 13.9097 5.76758 12.8597 4.78867C11.7331 3.74688 10.2675 2.9375 8.48467 2.9375ZM3.21826 3.82891C4.50615 2.63125 6.27529 1.625 8.48467 1.625C10.694 1.625 12.4632 2.63125 13.7511 3.82891C15.0308 5.01836 15.8866 6.4375 16.294 7.41367C16.3843 7.62969 16.3843 7.87031 16.294 8.08633C15.8866 9.0625 15.0308 10.4844 13.7511 11.6711C12.4632 12.8687 10.694 13.875 8.48467 13.875C6.27529 13.875 4.50615 12.8687 3.21826 11.6711C1.93857 10.4844 1.08271 9.0625 0.678027 8.08633C0.587793 7.87031 0.587793 7.62969 0.678027 7.41367C1.08271 6.4375 1.93857 5.01562 3.21826 3.82891ZM8.48467 9.9375C9.69326 9.9375 10.6722 8.95859 10.6722 7.75C10.6722 6.54141 9.69326 5.5625 8.48467 5.5625C8.46553 5.5625 8.44912 5.5625 8.42998 5.5625C8.46553 5.70195 8.48467 5.84961 8.48467 6C8.48467 6.96523 7.6999 7.75 6.73467 7.75C6.58428 7.75 6.43662 7.73086 6.29717 7.69531C6.29717 7.71445 6.29717 7.73086 6.29717 7.75C6.29717 8.95859 7.27607 9.9375 8.48467 9.9375ZM8.48467 4.25C9.41293 4.25 10.3032 4.61875 10.9595 5.27513C11.6159 5.9315 11.9847 6.82174 11.9847 7.75C11.9847 8.67826 11.6159 9.5685 10.9595 10.2249C10.3032 10.8813 9.41293 11.25 8.48467 11.25C7.55641 11.25 6.66617 10.8813 6.00979 10.2249C5.35342 9.5685 4.98467 8.67826 4.98467 7.75C4.98467 6.82174 5.35342 5.9315 6.00979 5.27513C6.66617 4.61875 7.55641 4.25 8.48467 4.25Z" fill="#374151"/>
</g>
<defs>
<clipPath id="clip0_438_9976">
<path d="M0.609375 0.75H16.3594V14.75H0.609375V0.75Z" fill="white"/>
</clipPath>
</defs>
</svg>
