<svg width="16" height="16" viewBox="0 0 16 16" fill="none" xmlns="http://www.w3.org/2000/svg">
<g clip-path="url(#clip0_366_255)">
<path d="M8.70322 6.7375L0.718848 14.7188C0.425098 15.0125 0.425098 15.4875 0.718848 15.7781C1.0126 16.0688 1.4876 16.0719 1.77822 15.7781L3.55947 13.9969H5.68447C7.2376 13.9969 8.74385 13.5469 10.0282 12.7156C10.3751 12.4906 10.2001 11.9969 9.78447 11.9969C9.6251 11.9969 9.49697 11.8688 9.49697 11.7094C9.49697 11.5813 9.58135 11.4719 9.7001 11.4344L12.2313 10.675C12.3095 10.65 12.3813 10.6094 12.4407 10.55L13.1407 9.85C13.4563 9.53438 13.2313 8.99687 12.7876 8.99687H11.7813C11.622 8.99687 11.4938 8.86875 11.4938 8.70938C11.4938 8.58125 11.5782 8.47188 11.697 8.43437L15.197 7.38438C15.322 7.34688 15.4282 7.2625 15.4876 7.14375C15.8251 6.4875 16.0001 5.75313 16.0001 5C16.0001 3.71875 15.4907 2.49062 14.5845 1.58438L14.4126 1.4125C13.5095 0.509375 12.2813 0 11.0001 0C9.71885 0 8.49072 0.509375 7.58447 1.41562L4.34385 4.65625C2.84385 6.15625 2.0001 8.19063 2.0001 10.3125V12.0406L7.9251 6.11875C8.11885 5.925 8.4376 5.925 8.63135 6.11875C8.8001 6.2875 8.82197 6.54375 8.7001 6.7375H8.70322Z" fill="#C19B47"/>
</g>
<defs>
<clipPath id="clip0_366_255">
<path d="M0 0H16V16H0V0Z" fill="white"/>
</clipPath>
</defs>
</svg>
