<svg width="11" height="15" viewBox="0 0 11 15" fill="none" xmlns="http://www.w3.org/2000/svg">
<g clip-path="url(#clip0_475_602)">
<path d="M1.75 13.4375C1.50937 13.4375 1.3125 13.2406 1.3125 13V2.5C1.3125 2.25937 1.50937 2.0625 1.75 2.0625H6.125V4.25C6.125 4.73398 6.51602 5.125 7 5.125H9.1875V13C9.1875 13.2406 8.99063 13.4375 8.75 13.4375H1.75ZM1.75 0.75C0.784766 0.75 0 1.53477 0 2.5V13C0 13.9652 0.784766 14.75 1.75 14.75H8.75C9.71523 14.75 10.5 13.9652 10.5 13V4.97461C10.5 4.50977 10.3168 4.06406 9.98867 3.73594L7.51133 1.26133C7.1832 0.933203 6.74023 0.75 6.27539 0.75H1.75ZM3.28125 7.75C2.91758 7.75 2.625 8.04258 2.625 8.40625C2.625 8.76992 2.91758 9.0625 3.28125 9.0625H7.21875C7.58242 9.0625 7.875 8.76992 7.875 8.40625C7.875 8.04258 7.58242 7.75 7.21875 7.75H3.28125ZM3.28125 10.375C2.91758 10.375 2.625 10.6676 2.625 11.0312C2.625 11.3949 2.91758 11.6875 3.28125 11.6875H7.21875C7.58242 11.6875 7.875 11.3949 7.875 11.0312C7.875 10.6676 7.58242 10.375 7.21875 10.375H3.28125Z" fill="#9CAF88"/>
</g>
<defs>
<clipPath id="clip0_475_602">
<path d="M0 0.75H10.5V14.75H0V0.75Z" fill="white"/>
</clipPath>
</defs>
</svg>
