<svg width="15" height="15" viewBox="0 0 15 15" fill="none" xmlns="http://www.w3.org/2000/svg">
<g clip-path="url(#clip0_2_199)">
<path d="M0.325492 2.25117C0.505961 1.86836 0.888773 1.625 1.3126 1.625H13.1251C13.5489 1.625 13.9317 1.86836 14.1122 2.25117C14.2927 2.63398 14.238 3.08516 13.97 3.41328L8.96885 9.52461V13C8.96885 13.3309 8.78291 13.6344 8.48487 13.782C8.18682 13.9297 7.83409 13.8996 7.56885 13.7L5.81885 12.3875C5.59737 12.2234 5.46885 11.9637 5.46885 11.6875V9.52461L0.464945 3.41055C0.199711 3.08516 0.142289 2.63125 0.325492 2.25117Z" fill="#4B5563"/>
</g>
<defs>
<clipPath id="clip0_2_199">
<path d="M0.21875 0.75H14.2188V14.75H0.21875V0.75Z" fill="white"/>
</clipPath>
</defs>
</svg>
