<svg width="18" height="16" viewBox="0 0 18 16" fill="none" xmlns="http://www.w3.org/2000/svg">
<path d="M8.26562 0.162497C8.73125 -0.053128 9.26875 -0.053128 9.73438 0.162497L16.5656 3.31875C16.8312 3.44062 17 3.70625 17 4C17 4.29375 16.8312 4.55937 16.5656 4.68125L9.73438 7.8375C9.26875 8.05312 8.73125 8.05312 8.26562 7.8375L1.43438 4.68125C1.16875 4.55625 1 4.29062 1 4C1 3.70937 1.16875 3.44062 1.43438 3.31875L8.26562 0.162497ZM14.9031 6.55L16.5656 7.31875C16.8312 7.44062 17 7.70625 17 8C17 8.29375 16.8312 8.55937 16.5656 8.68125L9.73438 11.8375C9.26875 12.0531 8.73125 12.0531 8.26562 11.8375L1.43438 8.68125C1.16875 8.55625 1 8.29062 1 8C1 7.70937 1.16875 7.44062 1.43438 7.31875L3.09687 6.55L7.84688 8.74375C8.57812 9.08125 9.42188 9.08125 10.1531 8.74375L14.9031 6.55ZM10.1531 12.7437L14.9031 10.55L16.5656 11.3187C16.8312 11.4406 17 11.7062 17 12C17 12.2937 16.8312 12.5594 16.5656 12.6812L9.73438 15.8375C9.26875 16.0531 8.73125 16.0531 8.26562 15.8375L1.43438 12.6812C1.16875 12.5562 1 12.2906 1 12C1 11.7094 1.16875 11.4406 1.43438 11.3187L3.09687 10.55L7.84688 12.7437C8.57812 13.0812 9.42188 13.0812 10.1531 12.7437Z" fill="#374151"/>
</svg>
