<svg width="14" height="16" viewBox="0 0 14 16" fill="none" xmlns="http://www.w3.org/2000/svg">
<g clip-path="url(#clip0_55_943)">
<path d="M10.9186 1.39379C11.103 0.965664 10.9655 0.465664 10.5873 0.190664C10.2092 -0.0843364 9.69358 -0.0593364 9.34046 0.246914L1.34046 7.24691C1.02796 7.52191 0.915456 7.96254 1.06233 8.35004C1.20921 8.73754 1.58421 9.00004 1.99983 9.00004H5.48421L3.08108 14.6063C2.89671 15.0344 3.03421 15.5344 3.41233 15.8094C3.79046 16.0844 4.30608 16.0594 4.65921 15.7532L12.6592 8.75316C12.9717 8.47816 13.0842 8.03754 12.9373 7.65004C12.7905 7.26254 12.4186 7.00316 11.9998 7.00316H8.51546L10.9186 1.39379Z" fill="#8B5CF6"/>
</g>
<defs>
<clipPath id="clip0_55_943">
<path d="M0 0H14V16H0V0Z" fill="white"/>
</clipPath>
</defs>
</svg>
