<svg width="12" height="12" viewBox="0 0 12 12" fill="none" xmlns="http://www.w3.org/2000/svg">
<g clip-path="url(#clip0_60_4707)">
<path d="M6.75 10.5H1.5V5.25H3V3.75H1.5C0.672656 3.75 0 4.42266 0 5.25V10.5C0 11.3273 0.672656 12 1.5 12H6.75C7.57734 12 8.25 11.3273 8.25 10.5V9H6.75V10.5ZM5.25 8.25H10.5C11.3273 8.25 12 7.57734 12 6.75V1.5C12 0.672656 11.3273 0 10.5 0H5.25C4.42266 0 3.75 0.672656 3.75 1.5V6.75C3.75 7.57734 4.42266 8.25 5.25 8.25Z" fill="#6B7280"/>
</g>
<defs>
<clipPath id="clip0_60_4707">
<path d="M0 0H12V12H0V0Z" fill="white"/>
</clipPath>
</defs>
</svg>
