<svg width="19" height="16" viewBox="0 0 19 16" fill="none" xmlns="http://www.w3.org/2000/svg">
<g clip-path="url(#clip0_298_1637)">
<path d="M3.75625 6.99375L0.984375 11.7437V3C0.984375 1.89688 1.88125 1 2.98438 1H6.65625C7.1875 1 7.69688 1.20938 8.07188 1.58438L8.9 2.4125C9.275 2.7875 9.78438 2.99688 10.3156 2.99688H13.9844C15.0875 2.99688 15.9844 3.89375 15.9844 4.99687V5.99687H5.48438C4.77187 5.99687 4.11562 6.375 3.75625 6.99062V6.99375ZM4.61875 7.49687C4.8 7.1875 5.12813 7 5.48438 7H17.9844C18.3438 7 18.6719 7.19063 18.85 7.50313C19.0281 7.81563 19.0281 8.19688 18.8469 8.50625L15.3469 14.5063C15.1687 14.8125 14.8406 15 14.4844 15H1.98438C1.625 15 1.29688 14.8094 1.11875 14.4969C0.940625 14.1844 0.940625 13.8031 1.12188 13.4937L4.62188 7.49375L4.61875 7.49687Z" fill="#0D8D7A"/>
</g>
<defs>
<clipPath id="clip0_298_1637">
<path d="M0.984375 0H18.9844V16H0.984375V0Z" fill="white"/>
</clipPath>
</defs>
</svg>
