<svg width="15" height="15" viewBox="0 0 15 15" fill="none" xmlns="http://www.w3.org/2000/svg">
<g clip-path="url(#clip0_438_9898)">
<path d="M2.46875 7.75V5.125H6.84375V7.75H2.46875ZM2.46875 9.5H6.84375V12.125H2.46875V9.5ZM8.59375 12.125V9.5H12.9688V12.125H8.59375ZM12.9688 7.75H8.59375V5.125H12.9688V7.75ZM2.46875 1.625C1.50352 1.625 0.71875 2.40977 0.71875 3.375V12.125C0.71875 13.0902 1.50352 13.875 2.46875 13.875H12.9688C13.934 13.875 14.7188 13.0902 14.7188 12.125V3.375C14.7188 2.40977 13.934 1.625 12.9688 1.625H2.46875Z" fill="#6B7280"/>
</g>
<defs>
<clipPath id="clip0_438_9898">
<path d="M0.71875 0.75H14.7188V14.75H0.71875V0.75Z" fill="white"/>
</clipPath>
</defs>
</svg>
