<svg width="15" height="10" viewBox="0 0 15 10" fill="none" xmlns="http://www.w3.org/2000/svg">
<path d="M4.46875 1.25C4.46875 0.559375 3.90937 0 3.21875 0H1.71875C1.02812 0 0.46875 0.559375 0.46875 1.25V2.75C0.46875 3.44062 1.02812 4 1.71875 4H3.21875C3.90937 4 4.46875 3.44062 4.46875 2.75V1.25ZM4.46875 7.25C4.46875 6.55937 3.90937 6 3.21875 6H1.71875C1.02812 6 0.46875 6.55937 0.46875 7.25V8.75C0.46875 9.44063 1.02812 10 1.71875 10H3.21875C3.90937 10 4.46875 9.44063 4.46875 8.75V7.25ZM5.46875 1.25V2.75C5.46875 3.44062 6.02812 4 6.71875 4H8.21875C8.90938 4 9.46875 3.44062 9.46875 2.75V1.25C9.46875 0.559375 8.90938 0 8.21875 0H6.71875C6.02812 0 5.46875 0.559375 5.46875 1.25ZM9.46875 7.25C9.46875 6.55937 8.90938 6 8.21875 6H6.71875C6.02812 6 5.46875 6.55937 5.46875 7.25V8.75C5.46875 9.44063 6.02812 10 6.71875 10H8.21875C8.90938 10 9.46875 9.44063 9.46875 8.75V7.25ZM10.4688 1.25V2.75C10.4688 3.44062 11.0281 4 11.7188 4H13.2188C13.9094 4 14.4688 3.44062 14.4688 2.75V1.25C14.4688 0.559375 13.9094 0 13.2188 0H11.7188C11.0281 0 10.4688 0.559375 10.4688 1.25ZM14.4688 7.25C14.4688 6.55937 13.9094 6 13.2188 6H11.7188C11.0281 6 10.4688 6.55937 10.4688 7.25V8.75C10.4688 9.44063 11.0281 10 11.7188 10H13.2188C13.9094 10 14.4688 9.44063 14.4688 8.75V7.25Z" fill="#F5F5DC" fill-opacity="0.7"/>
</svg>
