<svg width="15" height="15" viewBox="0 0 15 15" fill="none" xmlns="http://www.w3.org/2000/svg">
<g clip-path="url(#clip0_60_7466)">
<path d="M7.84375 2.0625C4.70195 2.0625 2.15625 4.6082 2.15625 7.75V8.84375C2.15625 9.20742 1.86367 9.5 1.5 9.5C1.13633 9.5 0.84375 9.20742 0.84375 8.84375V7.75C0.84375 3.88359 3.97734 0.75 7.84375 0.75C11.7102 0.75 14.8438 3.88359 14.8438 7.75V11.6902C14.8438 13.0191 13.7664 14.0965 12.4348 14.0965L9.41875 14.0938C9.1918 14.4848 8.76797 14.75 8.28125 14.75H7.40625C6.68164 14.75 6.09375 14.1621 6.09375 13.4375C6.09375 12.7129 6.68164 12.125 7.40625 12.125H8.28125C8.76797 12.125 9.1918 12.3902 9.41875 12.7812L12.4375 12.784C13.0418 12.784 13.5312 12.2945 13.5312 11.6902V7.75C13.5312 4.6082 10.9855 2.0625 7.84375 2.0625ZM4.78125 6.4375H5.21875C5.70273 6.4375 6.09375 6.82852 6.09375 7.3125V10.375C6.09375 10.859 5.70273 11.25 5.21875 11.25H4.78125C3.81602 11.25 3.03125 10.4652 3.03125 9.5V8.1875C3.03125 7.22227 3.81602 6.4375 4.78125 6.4375ZM10.9062 6.4375C11.8715 6.4375 12.6562 7.22227 12.6562 8.1875V9.5C12.6562 10.4652 11.8715 11.25 10.9062 11.25H10.4688C9.98477 11.25 9.59375 10.859 9.59375 10.375V7.3125C9.59375 6.82852 9.98477 6.4375 10.4688 6.4375H10.9062Z" fill="#00555A"/>
</g>
<defs>
<clipPath id="clip0_60_7466">
<path d="M0.84375 0.75H14.8438V14.75H0.84375V0.75Z" fill="white"/>
</clipPath>
</defs>
</svg>
