<svg width="18" height="16" viewBox="0 0 18 16" fill="none" xmlns="http://www.w3.org/2000/svg">
<g clip-path="url(#clip0_2_125)">
<path d="M17.9937 7.98438C17.9937 8.54688 17.525 8.9875 16.9937 8.9875H15.9937L16.0156 13.9937C16.0219 15.1031 15.125 16.0031 14.0156 16.0031H4.00313C2.9 16.0031 2.00312 15.1062 2.00312 14.0031V8.9875H1C0.4375 8.9875 0 8.55 0 7.98438C0 7.70312 0.09375 7.45312 0.3125 7.23438L8.325 0.25C8.54375 0.03125 8.79375 0 9.0125 0C9.23125 0 9.48125 0.0625 9.66875 0.21875L17.65 7.23438C17.9 7.45312 18.025 7.70312 17.9937 7.98438ZM11 7C11 6.46957 10.7893 5.96086 10.4142 5.58579C10.0391 5.21071 9.53043 5 9 5C8.46957 5 7.96086 5.21071 7.58579 5.58579C7.21071 5.96086 7 6.46957 7 7C7 7.53043 7.21071 8.03914 7.58579 8.41421C7.96086 8.78929 8.46957 9 9 9C9.53043 9 10.0391 8.78929 10.4142 8.41421C10.7893 8.03914 11 7.53043 11 7ZM8 10C6.61875 10 5.5 11.1187 5.5 12.5C5.5 12.775 5.725 13 6 13H12C12.275 13 12.5 12.775 12.5 12.5C12.5 11.1187 11.3813 10 10 10H8Z" fill="#2563EB"/>
</g>
<defs>
<clipPath id="clip0_2_125">
<path d="M0 0H18V16H0V0Z" fill="white"/>
</clipPath>
</defs>
</svg>
