<svg width="16" height="12" viewBox="0 0 16 12" fill="none" xmlns="http://www.w3.org/2000/svg">
<g clip-path="url(#clip0_2_684)">
<path d="M14.0893 6.27419C15.4135 4.94998 15.4135 2.80544 14.0893 1.48122C12.9174 0.30935 11.0705 0.157006 9.72285 1.12029L9.68535 1.14607C9.34785 1.38747 9.27051 1.85622 9.51191 2.19138C9.75332 2.52654 10.2221 2.60623 10.5572 2.36482L10.5947 2.33904C11.3471 1.80232 12.376 1.88669 13.0275 2.5406C13.7658 3.27888 13.7658 4.47419 13.0275 5.21248L10.3979 7.84685C9.65957 8.58513 8.46426 8.58513 7.72598 7.84685C7.07207 7.19294 6.9877 6.16404 7.52441 5.41404L7.55019 5.37654C7.7916 5.03904 7.71191 4.57029 7.37676 4.33123C7.0416 4.09216 6.57051 4.16951 6.33145 4.50466L6.30566 4.54216C5.34004 5.88748 5.49238 7.73435 6.66426 8.90623C7.98848 10.2304 10.133 10.2304 11.4572 8.90623L14.0893 6.27419ZM1.91113 5.72576C0.586914 7.04998 0.586914 9.19451 1.91113 10.5187C3.08301 11.6906 4.92988 11.8429 6.27754 10.8797L6.31504 10.8539C6.65254 10.6125 6.72988 10.1437 6.48848 9.80857C6.24707 9.47341 5.77832 9.39373 5.44316 9.63513L5.40566 9.66091C4.65332 10.1976 3.62441 10.1133 2.97285 9.45935C2.23457 8.71873 2.23457 7.52341 2.97285 6.78513L5.60254 4.1531C6.34082 3.41482 7.53613 3.41482 8.27441 4.1531C8.92832 4.80701 9.01269 5.83591 8.47598 6.58826L8.4502 6.62576C8.20879 6.96326 8.28848 7.43201 8.62363 7.67107C8.95879 7.91013 9.42988 7.83279 9.66895 7.49763L9.69473 7.46013C10.6604 6.11247 10.508 4.2656 9.33613 3.09372C8.01191 1.76951 5.86738 1.76951 4.54316 3.09372L1.91113 5.72576Z" fill="#1D4ED8"/>
</g>
<defs>
<clipPath id="clip0_2_684">
<path d="M0.5 0H15.5V12H0.5V0Z" fill="white"/>
</clipPath>
</defs>
</svg>
