<svg width="21" height="21" viewBox="0 0 21 21" fill="none" xmlns="http://www.w3.org/2000/svg">
<g clip-path="url(#clip0_441_13971)">
<g clip-path="url(#clip1_441_13971)">
<path d="M10.1284 0.664062C10.5112 0.445312 10.9838 0.445312 11.3705 0.664062L18.0815 4.49609L18.2495 4.5625V4.59766L20.1205 5.66797C20.6127 5.94922 20.8549 6.52734 20.7104 7.07422C20.5659 7.62109 20.0698 8.00391 19.5034 8.00391H1.99945C1.43305 8.00391 0.936955 7.62109 0.792424 7.07422C0.647892 6.52734 0.89008 5.94922 1.38227 5.66797L3.24945 4.59766V4.5625L3.42133 4.5L10.1284 0.664062ZM3.24945 9.25H5.74945V16.75H7.31196V9.25H9.81196V16.75H11.687V9.25H14.187V16.75H15.7495V9.25H18.2495V16.918C18.2729 16.9297 18.2963 16.9453 18.3198 16.9609L20.1948 18.2109C20.6518 18.5156 20.8588 19.0859 20.6987 19.6133C20.5385 20.1406 20.0502 20.5 19.4995 20.5H1.99945C1.44867 20.5 0.964299 20.1406 0.804142 19.6133C0.643986 19.0859 0.847111 18.5156 1.30805 18.2109L3.18305 16.9609C3.20649 16.9453 3.22992 16.9336 3.25336 16.918V9.25H3.24945Z" fill="#374151"/>
</g>
</g>
<defs>
<clipPath id="clip0_441_13971">
<rect width="20" height="20" fill="white" transform="translate(0.75 0.5)"/>
</clipPath>
<clipPath id="clip1_441_13971">
<path d="M0.75 0.5H20.75V20.5H0.75V0.5Z" fill="white"/>
</clipPath>
</defs>
</svg>
