<svg width="17" height="16" viewBox="0 0 17 16" fill="none" xmlns="http://www.w3.org/2000/svg">
<g clip-path="url(#clip0_431_5906)">
<g clip-path="url(#clip1_431_5906)">
<path d="M8.98438 16C11.1061 16 13.1409 15.1571 14.6412 13.6569C16.1415 12.1566 16.9844 10.1217 16.9844 8C16.9844 5.87827 16.1415 3.84344 14.6412 2.34315C13.1409 0.842855 11.1061 0 8.98438 0C6.86264 0 4.82781 0.842855 3.32752 2.34315C1.82723 3.84344 0.984375 5.87827 0.984375 8C0.984375 10.1217 1.82723 12.1566 3.32752 13.6569C4.82781 15.1571 6.86264 16 8.98438 16ZM7.73438 10.5H8.48438V8.5H7.73438C7.31875 8.5 6.98438 8.16562 6.98438 7.75C6.98438 7.33437 7.31875 7 7.73438 7H9.23438C9.65 7 9.98438 7.33437 9.98438 7.75V10.5H10.2344C10.65 10.5 10.9844 10.8344 10.9844 11.25C10.9844 11.6656 10.65 12 10.2344 12H7.73438C7.31875 12 6.98438 11.6656 6.98438 11.25C6.98438 10.8344 7.31875 10.5 7.73438 10.5ZM8.98438 4C9.24959 4 9.50395 4.10536 9.69148 4.29289C9.87902 4.48043 9.98438 4.73478 9.98438 5C9.98438 5.26522 9.87902 5.51957 9.69148 5.70711C9.50395 5.89464 9.24959 6 8.98438 6C8.71916 6 8.4648 5.89464 8.27727 5.70711C8.08973 5.51957 7.98438 5.26522 7.98438 5C7.98438 4.73478 8.08973 4.48043 8.27727 4.29289C8.4648 4.10536 8.71916 4 8.98438 4Z" fill="#374151"/>
</g>
</g>
<defs>
<clipPath id="clip0_431_5906">
<rect width="16" height="16" fill="white" transform="translate(0.984375)"/>
</clipPath>
<clipPath id="clip1_431_5906">
<path d="M0.984375 0H16.9844V16H0.984375V0Z" fill="white"/>
</clipPath>
</defs>
</svg>
