<svg width="17" height="16" viewBox="0 0 17 16" fill="none" xmlns="http://www.w3.org/2000/svg">
<g clip-path="url(#clip0_298_1641)">
<g clip-path="url(#clip1_298_1641)">
<path d="M4.29688 2C4.29688 0.896875 5.19375 0 6.29688 0H11.2969V4C11.2969 4.55312 11.7437 5 12.2969 5H16.2969V14C16.2969 15.1031 15.4 16 14.2969 16H6.29688C5.19375 16 4.29688 15.1031 4.29688 14V10.5H9.7375L8.51875 11.7188C8.225 12.0125 8.225 12.4875 8.51875 12.7781C8.8125 13.0687 9.2875 13.0719 9.57812 12.7781L12.0781 10.2781C12.3719 9.98438 12.3719 9.50937 12.0781 9.21875L9.57812 6.71875C9.28438 6.425 8.80937 6.425 8.51875 6.71875C8.22813 7.0125 8.225 7.4875 8.51875 7.77812L9.7375 8.99687H4.29688V2ZM4.29688 9V10.5H1.04688C0.63125 10.5 0.296875 10.1656 0.296875 9.75C0.296875 9.33438 0.63125 9 1.04688 9H4.29688ZM16.2969 4H12.2969V0L16.2969 4Z" fill="#0D8D7A"/>
</g>
</g>
<defs>
<clipPath id="clip0_298_1641">
<rect width="16" height="16" fill="white" transform="translate(0.296875)"/>
</clipPath>
<clipPath id="clip1_298_1641">
<path d="M0.296875 0H16.2969V16H0.296875V0Z" fill="white"/>
</clipPath>
</defs>
</svg>
