<svg width="12" height="16" viewBox="0 0 12 16" fill="none" xmlns="http://www.w3.org/2000/svg">
<g clip-path="url(#clip0_57_1676)">
<path d="M4 2C4 1.44687 4.44688 1 5 1H11C11.5531 1 12 1.44687 12 2C12 2.55313 11.5531 3 11 3H9.16562L5 13H7C7.55312 13 8 13.4469 8 14C8 14.5531 7.55312 15 7 15H1C0.446875 15 0 14.5531 0 14C0 13.4469 0.446875 13 1 13H2.83437L7 3H5C4.44688 3 4 2.55313 4 2Z" fill="#4B5563"/>
</g>
<defs>
<clipPath id="clip0_57_1676">
<rect width="12" height="16" fill="white"/>
</clipPath>
</defs>
</svg>
