<svg width="17" height="15" viewBox="0 0 17 15" fill="none" xmlns="http://www.w3.org/2000/svg">
<g clip-path="url(#clip0_431_6087)">
<g clip-path="url(#clip1_431_6087)">
<path d="M2.10938 2.5C1.14414 2.5 0.359375 3.28477 0.359375 4.25V11.25C0.359375 12.2152 1.14414 13 2.10938 13H14.3594C15.3246 13 16.1094 12.2152 16.1094 11.25V4.25C16.1094 3.28477 15.3246 2.5 14.3594 2.5H2.10938ZM2.54688 4.25H3.42188C3.6625 4.25 3.85938 4.44687 3.85938 4.6875V5.5625C3.85938 5.80312 3.6625 6 3.42188 6H2.54688C2.30625 6 2.10938 5.80312 2.10938 5.5625V4.6875C2.10938 4.44687 2.30625 4.25 2.54688 4.25ZM2.10938 7.3125C2.10938 7.07188 2.30625 6.875 2.54688 6.875H3.42188C3.6625 6.875 3.85938 7.07188 3.85938 7.3125V8.1875C3.85938 8.42812 3.6625 8.625 3.42188 8.625H2.54688C2.30625 8.625 2.10938 8.42812 2.10938 8.1875V7.3125ZM2.54688 9.5H3.42188C3.6625 9.5 3.85938 9.69688 3.85938 9.9375V10.8125C3.85938 11.0531 3.6625 11.25 3.42188 11.25H2.54688C2.30625 11.25 2.10938 11.0531 2.10938 10.8125V9.9375C2.10938 9.69688 2.30625 9.5 2.54688 9.5ZM4.73438 4.6875C4.73438 4.44687 4.93125 4.25 5.17188 4.25H6.04688C6.2875 4.25 6.48438 4.44687 6.48438 4.6875V5.5625C6.48438 5.80312 6.2875 6 6.04688 6H5.17188C4.93125 6 4.73438 5.80312 4.73438 5.5625V4.6875ZM5.17188 6.875H6.04688C6.2875 6.875 6.48438 7.07188 6.48438 7.3125V8.1875C6.48438 8.42812 6.2875 8.625 6.04688 8.625H5.17188C4.93125 8.625 4.73438 8.42812 4.73438 8.1875V7.3125C4.73438 7.07188 4.93125 6.875 5.17188 6.875ZM4.73438 9.9375C4.73438 9.69688 4.93125 9.5 5.17188 9.5H11.2969C11.5375 9.5 11.7344 9.69688 11.7344 9.9375V10.8125C11.7344 11.0531 11.5375 11.25 11.2969 11.25H5.17188C4.93125 11.25 4.73438 11.0531 4.73438 10.8125V9.9375ZM7.79688 4.25H8.67188C8.9125 4.25 9.10938 4.44687 9.10938 4.6875V5.5625C9.10938 5.80312 8.9125 6 8.67188 6H7.79688C7.55625 6 7.35938 5.80312 7.35938 5.5625V4.6875C7.35938 4.44687 7.55625 4.25 7.79688 4.25ZM7.35938 7.3125C7.35938 7.07188 7.55625 6.875 7.79688 6.875H8.67188C8.9125 6.875 9.10938 7.07188 9.10938 7.3125V8.1875C9.10938 8.42812 8.9125 8.625 8.67188 8.625H7.79688C7.55625 8.625 7.35938 8.42812 7.35938 8.1875V7.3125ZM10.4219 4.25H11.2969C11.5375 4.25 11.7344 4.44687 11.7344 4.6875V5.5625C11.7344 5.80312 11.5375 6 11.2969 6H10.4219C10.1812 6 9.98438 5.80312 9.98438 5.5625V4.6875C9.98438 4.44687 10.1812 4.25 10.4219 4.25ZM9.98438 7.3125C9.98438 7.07188 10.1812 6.875 10.4219 6.875H11.2969C11.5375 6.875 11.7344 7.07188 11.7344 7.3125V8.1875C11.7344 8.42812 11.5375 8.625 11.2969 8.625H10.4219C10.1812 8.625 9.98438 8.42812 9.98438 8.1875V7.3125ZM13.0469 4.25H13.9219C14.1625 4.25 14.3594 4.44687 14.3594 4.6875V5.5625C14.3594 5.80312 14.1625 6 13.9219 6H13.0469C12.8062 6 12.6094 5.80312 12.6094 5.5625V4.6875C12.6094 4.44687 12.8062 4.25 13.0469 4.25ZM12.6094 7.3125C12.6094 7.07188 12.8062 6.875 13.0469 6.875H13.9219C14.1625 6.875 14.3594 7.07188 14.3594 7.3125V8.1875C14.3594 8.42812 14.1625 8.625 13.9219 8.625H13.0469C12.8062 8.625 12.6094 8.42812 12.6094 8.1875V7.3125ZM13.0469 9.5H13.9219C14.1625 9.5 14.3594 9.69688 14.3594 9.9375V10.8125C14.3594 11.0531 14.1625 11.25 13.9219 11.25H13.0469C12.8062 11.25 12.6094 11.0531 12.6094 10.8125V9.9375C12.6094 9.69688 12.8062 9.5 13.0469 9.5Z" fill="#4B5563"/>
</g>
</g>
<defs>
<clipPath id="clip0_431_6087">
<rect width="15.75" height="14" fill="white" transform="translate(0.359375 0.75)"/>
</clipPath>
<clipPath id="clip1_431_6087">
<path d="M0.359375 0.75H16.1094V14.75H0.359375V0.75Z" fill="white"/>
</clipPath>
</defs>
</svg>
