<svg width="13" height="11" viewBox="0 0 13 11" fill="none" xmlns="http://www.w3.org/2000/svg">
<path d="M6.82812 1.74981C4.98594 1.74981 3.42734 2.95684 2.89766 4.6209C3.68516 4.22247 4.57344 3.99981 5.51562 3.99981H7.57812C7.78438 3.99981 7.95312 4.16856 7.95312 4.37481C7.95312 4.58106 7.78438 4.74981 7.57812 4.74981H7.20312H5.51562C5.12656 4.74981 4.74922 4.79434 4.38594 4.87637C3.77891 5.01465 3.21406 5.26075 2.7125 5.5959C1.35078 6.50294 0.453125 8.05216 0.453125 9.81231V10.1873C0.453125 10.499 0.703906 10.7498 1.01562 10.7498C1.32734 10.7498 1.57812 10.499 1.57812 10.1873V9.81231C1.57812 8.67091 2.06328 7.64434 2.83906 6.92481C3.30313 8.69434 4.91328 9.99981 6.82812 9.99981H6.85156C9.94766 9.98341 12.4531 6.93184 12.4531 3.17012C12.4531 2.17169 12.2773 1.22247 11.9586 0.366999C11.8977 0.20528 11.6609 0.212311 11.5789 0.364655C11.1383 1.18966 10.2664 1.74981 9.26562 1.74981H6.82812Z" fill="#9CAF88"/>
</svg>
