<svg width="16" height="24" viewBox="0 0 16 24" fill="none" xmlns="http://www.w3.org/2000/svg">
<g clip-path="url(#clip0_413_38)">
<g clip-path="url(#clip1_413_38)">
<path d="M8.70322 10.7384L0.718848 18.7197C0.425098 19.0134 0.425098 19.4884 0.718848 19.7791C1.0126 20.0697 1.4876 20.0728 1.77822 19.7791L4.11572 17.4416C4.34697 17.5853 4.59385 17.6978 4.85947 17.7697C6.25947 18.1509 8.4376 18.2041 10.5626 16.7947C10.9438 16.5416 10.7438 16.0009 10.2876 16.0009H9.78447C9.6251 16.0009 9.49697 15.8728 9.49697 15.7134C9.49697 15.5853 9.58135 15.4759 9.7001 15.4384L12.7532 14.5228C12.8595 14.4916 12.9532 14.4259 13.0157 14.3322C13.1532 14.1322 13.2845 13.9291 13.4095 13.7197C13.6032 13.3978 13.3626 13.0009 12.9876 13.0009H11.7813C11.622 13.0009 11.4938 12.8728 11.4938 12.7134C11.4938 12.5853 11.5782 12.4759 11.697 12.4384L14.2251 11.6791C14.3688 11.6353 14.4876 11.5291 14.5438 11.3884C15.4532 9.0947 15.8688 6.69157 15.997 5.15095C16.022 4.84157 15.9032 4.53845 15.6845 4.3197C15.4657 4.10095 15.1626 3.9822 14.8532 4.0072C12.2345 4.2197 7.14072 5.26657 4.29385 8.11345C1.79072 10.6166 1.77197 13.4478 2.22822 15.1384C2.29385 15.3853 2.60322 15.4384 2.78447 15.2572L7.9251 10.1197C8.11885 9.92595 8.4376 9.92595 8.63135 10.1197C8.8001 10.2884 8.82197 10.5447 8.7001 10.7384H8.70322Z" fill="#D4AF37"/>
</g>
</g>
<defs>
<clipPath id="clip0_413_38">
<rect width="16" height="16" fill="white" transform="translate(0 4)"/>
</clipPath>
<clipPath id="clip1_413_38">
<path d="M0 4H16V20H0V4Z" fill="white"/>
</clipPath>
</defs>
</svg>
