<svg width="49" height="48" viewBox="0 0 49 48" fill="none" xmlns="http://www.w3.org/2000/svg">
<path d="M24.3281 1C37.0307 1 47.3281 11.2975 47.3281 24C47.3281 36.7025 37.0307 47 24.3281 47C11.6256 47 1.32812 36.7025 1.32812 24C1.32812 11.2975 11.6256 1 24.3281 1Z" fill="#DBEAFE"/>
<path d="M24.3281 1C37.0307 1 47.3281 11.2975 47.3281 24C47.3281 36.7025 37.0307 47 24.3281 47C11.6256 47 1.32812 36.7025 1.32812 24C1.32812 11.2975 11.6256 1 24.3281 1Z" stroke="#BFDBFE" stroke-width="2"/>
<path d="M34.3281 34H14.3281V14H34.3281V34Z" stroke="#E5E7EB"/>
<g clip-path="url(#clip0_48_100)">
<path d="M21.5156 14C22.7227 14 23.7031 14.9805 23.7031 16.1875V31.8125C23.7031 33.0195 22.7227 34 21.5156 34C20.3867 34 19.457 33.1445 19.3398 32.043C19.1367 32.0977 18.9219 32.125 18.7031 32.125C17.3242 32.125 16.2031 31.0039 16.2031 29.625C16.2031 29.3359 16.2539 29.0547 16.3438 28.7969C15.1641 28.3516 14.3281 27.2109 14.3281 25.875C14.3281 24.6289 15.0586 23.5508 16.1172 23.0508C15.7773 22.625 15.5781 22.0859 15.5781 21.5C15.5781 20.3008 16.4219 19.3008 17.5469 19.0547C17.4844 18.8398 17.4531 18.6094 17.4531 18.375C17.4531 17.207 18.2578 16.2227 19.3398 15.9492C19.457 14.8555 20.3867 14 21.5156 14ZM27.1406 14C28.2695 14 29.1953 14.8555 29.3164 15.9492C30.4023 16.2227 31.2031 17.2031 31.2031 18.375C31.2031 18.6094 31.1719 18.8398 31.1094 19.0547C32.2344 19.2969 33.0781 20.3008 33.0781 21.5C33.0781 22.0859 32.8789 22.625 32.5391 23.0508C33.5977 23.5508 34.3281 24.6289 34.3281 25.875C34.3281 27.2109 33.4922 28.3516 32.3125 28.7969C32.4023 29.0547 32.4531 29.3359 32.4531 29.625C32.4531 31.0039 31.332 32.125 29.9531 32.125C29.7344 32.125 29.5195 32.0977 29.3164 32.043C29.1992 33.1445 28.2695 34 27.1406 34C25.9336 34 24.9531 33.0195 24.9531 31.8125V16.1875C24.9531 14.9805 25.9336 14 27.1406 14Z" fill="#60A5FA"/>
</g>
<defs>
<clipPath id="clip0_48_100">
<path d="M14.3281 14H34.3281V34H14.3281V14Z" fill="white"/>
</clipPath>
</defs>
</svg>
