<svg width="93" height="85" viewBox="0 0 93 85" fill="none" xmlns="http://www.w3.org/2000/svg">
<path fill-rule="evenodd" clip-rule="evenodd" d="M17.6118 0.163986C8.45172 0.895387 1.73039 6.83571 0.859853 14.9691C0.686115 16.5917 0.687961 68.043 0.861698 69.5415C1.70917 76.8492 7.37547 82.6331 15.0132 83.9869C17.2508 84.3837 18.9547 84.4032 47.7613 84.365L76.1088 84.3276L77.5765 84.0783C85.8027 82.6823 91.3448 76.9903 92.1452 69.116C92.3866 66.7395 92.2421 14.7992 91.9909 13.7498C90.1834 6.19602 85.0497 1.6081 76.9495 0.307449C75.6537 0.0992991 20.1026 -0.0349635 17.6118 0.163986ZM29.9764 15.7074C30.8611 15.9564 31.4263 16.3939 32.2937 17.5023C32.7332 18.0635 34.2888 20.0389 35.7506 21.8918C37.2128 23.745 40.0781 27.3836 42.1181 29.9777C44.158 32.5721 47.1949 36.4085 48.8664 38.5036C50.5377 40.5983 51.8919 42.3247 51.8753 42.34C51.7828 42.4248 43.0731 47.1044 43.008 47.1044C42.9646 47.1044 42.6589 46.7631 42.3281 46.3463C41.9972 45.9294 40.6482 44.2237 39.3299 42.5559C38.012 40.8884 35.7534 38.0329 34.3112 36.2107C32.8691 34.3886 30.9592 31.9629 30.0665 30.8201C29.1741 29.6773 28.3728 28.6696 28.2861 28.5808C28.116 28.4071 28.0302 61.1836 28.1978 62.1645C28.4014 63.3545 29.4109 64.1169 31.0087 64.2874C32.8377 64.4823 33.2295 64.9294 33.2224 66.8137C33.2172 68.2184 33.0917 68.5729 32.4586 68.9714L32.0502 69.2284L24.5309 69.2278C15.341 69.2275 15.8846 69.369 15.7724 66.9488C15.6835 65.0292 16.0021 64.6017 17.7149 64.3426C19.2293 64.1135 19.9525 63.6426 20.3317 62.64C20.6127 61.8971 20.5694 22.02 20.2874 21.5376C19.967 20.9905 19.4079 20.7375 18.1183 20.5564C16.0839 20.2706 15.7499 19.8957 15.7499 17.8984C15.7499 16.5581 15.9049 16.0308 16.3929 15.7111C16.7619 15.4696 29.1185 15.4662 29.9764 15.7074ZM73.0356 15.7103C73.599 15.9825 73.7666 16.4842 73.7666 17.8996C73.7666 19.7151 73.4431 20.1809 72.0849 20.3203C70.7398 20.4586 69.9905 20.8899 69.5498 21.7797C69.3438 22.1957 69.3272 22.6048 69.3247 27.3494C69.3223 32.0851 69.3063 32.4824 69.1119 32.6383C68.9265 32.7869 61.6378 36.7676 61.3682 36.8677C61.3073 36.8904 61.2775 33.8783 61.2981 29.7926L61.3343 22.6781L60.974 22.0042C60.4678 21.0575 59.9494 20.7461 58.5527 20.55C56.4758 20.2582 56.2295 19.9929 56.2295 18.0473C56.2295 16.4925 56.3793 15.9983 56.9359 15.7154C57.4113 15.4739 72.5369 15.4691 73.0356 15.7103ZM77.059 31.6148C77.3892 31.9816 77.4646 32.5109 77.253 32.9767C77.1884 33.1187 76.8594 33.9421 76.5221 34.8069C76.1844 35.6717 75.7281 36.834 75.5079 37.3901C75.2875 37.9458 74.9089 38.9061 74.6663 39.5236C74.4237 40.1414 73.8016 41.708 73.2841 43.0052C72.7663 44.3024 71.8226 46.6775 71.1866 48.2834C68.7688 54.3899 66.5566 59.9689 64.7993 64.3906C63.7212 67.1035 63.592 67.3082 62.9527 67.3157C62.2415 67.324 62.0465 66.9537 61.0342 63.6693C60.8245 62.9899 60.5259 62.055 60.3703 61.5915C60.2147 61.1284 60.0367 60.5723 59.9746 60.3561C59.9125 60.1399 59.5911 59.1294 59.2606 58.1102C58.93 57.091 58.4847 55.7012 58.2713 55.0219C57.6597 53.0755 58.1631 53.3426 53.4067 52.4398C43.8191 50.6202 43.8573 50.6315 43.8573 49.6272C43.8573 49.0456 43.9901 48.9594 50.0432 45.6103C53.2145 43.8557 57.7009 41.359 60.013 40.0621C76.7349 30.6833 76.3794 30.8595 77.059 31.6148ZM68.8964 67.9861C68.842 68.3426 68.7067 68.591 68.4225 68.8567L68.0249 69.2284H66.3915C65.493 69.2284 64.7577 69.193 64.7577 69.1499C64.7577 69.1068 65.0803 68.3107 65.4745 67.3812C65.8687 66.4514 66.7088 64.4524 67.3414 62.9393C67.9736 61.4259 68.5836 59.9743 68.6965 59.7136C68.913 59.2139 69.0935 66.6944 68.8964 67.9861Z" fill="#00555A"/>
</svg>
