<svg width="64" height="64" viewBox="0 0 64 64" fill="none" xmlns="http://www.w3.org/2000/svg">
<path d="M32 0C49.6731 0 64 14.3269 64 32C64 49.6731 49.6731 64 32 64C14.3269 64 0 49.6731 0 32C0 14.3269 14.3269 0 32 0Z" fill="url(#paint0_linear_2_309)"/>
<g clip-path="url(#clip0_2_309)">
<g clip-path="url(#clip1_2_309)">
<path d="M27.7812 17C29.5918 17 31.0625 18.4707 31.0625 20.2812V43.7188C31.0625 45.5293 29.5918 47 27.7812 47C26.0879 47 24.6934 45.7168 24.5176 44.0645C24.2129 44.1465 23.8906 44.1875 23.5625 44.1875C21.4941 44.1875 19.8125 42.5059 19.8125 40.4375C19.8125 40.0039 19.8887 39.582 20.0234 39.1953C18.2539 38.5273 17 36.8164 17 34.8125C17 32.9434 18.0957 31.3262 19.6836 30.5762C19.1738 29.9375 18.875 29.1289 18.875 28.25C18.875 26.4512 20.1406 24.9512 21.8281 24.582C21.7344 24.2598 21.6875 23.9141 21.6875 23.5625C21.6875 21.8105 22.8945 20.334 24.5176 19.9238C24.6934 18.2832 26.0879 17 27.7812 17ZM36.2188 17C37.9121 17 39.3008 18.2832 39.4824 19.9238C41.1113 20.334 42.3125 21.8047 42.3125 23.5625C42.3125 23.9141 42.2656 24.2598 42.1719 24.582C43.8594 24.9453 45.125 26.4512 45.125 28.25C45.125 29.1289 44.8262 29.9375 44.3164 30.5762C45.9043 31.3262 47 32.9434 47 34.8125C47 36.8164 45.7461 38.5273 43.9766 39.1953C44.1113 39.582 44.1875 40.0039 44.1875 40.4375C44.1875 42.5059 42.5059 44.1875 40.4375 44.1875C40.1094 44.1875 39.7871 44.1465 39.4824 44.0645C39.3066 45.7168 37.9121 47 36.2188 47C34.4082 47 32.9375 45.5293 32.9375 43.7188V20.2812C32.9375 18.4707 34.4082 17 36.2188 17Z" fill="white"/>
</g>
</g>
<defs>
<linearGradient id="paint0_linear_2_309" x1="0" y1="32" x2="64" y2="32" gradientUnits="userSpaceOnUse">
<stop stop-color="#14B8A6"/>
<stop offset="1" stop-color="#2563EB"/>
</linearGradient>
<clipPath id="clip0_2_309">
<rect width="30" height="30" fill="white" transform="translate(17 17)"/>
</clipPath>
<clipPath id="clip1_2_309">
<path d="M17 17H47V47H17V17Z" fill="white"/>
</clipPath>
</defs>
</svg>
