<svg width="20" height="18" viewBox="0 0 20 18" fill="none" xmlns="http://www.w3.org/2000/svg">
<path d="M5.94141 0.99155C6.32813 1.33921 6.35938 1.92905 6.01172 2.31577L3.19922 5.44077C3.02734 5.63218 2.78516 5.74546 2.52734 5.74936C2.26953 5.75327 2.02344 5.65561 1.83984 5.47593L0.273438 3.91343C-0.0898438 3.54624 -0.0898438 2.95249 0.273438 2.5853C0.636719 2.21811 1.23438 2.21811 1.59766 2.5853L2.46094 3.44858L4.61328 1.05796C4.96094 0.671238 5.55078 0.639988 5.9375 0.987644L5.94141 0.99155ZM5.94141 7.24155C6.32813 7.58921 6.35938 8.17905 6.01172 8.56577L3.19922 11.6908C3.02734 11.8822 2.78516 11.9955 2.52734 11.9994C2.26953 12.0033 2.02344 11.9056 1.83984 11.7259L0.273438 10.1634C-0.09375 9.79624 -0.09375 9.20249 0.273438 8.83921C0.640625 8.47592 1.23438 8.47202 1.59766 8.83921L2.46094 9.70249L4.61328 7.31186C4.96094 6.92514 5.55078 6.89389 5.9375 7.24155H5.94141ZM8.75 3.24936C8.75 2.55796 9.30859 1.99936 10 1.99936H18.75C19.4414 1.99936 20 2.55796 20 3.24936C20 3.94077 19.4414 4.49936 18.75 4.49936H10C9.30859 4.49936 8.75 3.94077 8.75 3.24936ZM8.75 9.49936C8.75 8.80796 9.30859 8.24936 10 8.24936H18.75C19.4414 8.24936 20 8.80796 20 9.49936C20 10.1908 19.4414 10.7494 18.75 10.7494H10C9.30859 10.7494 8.75 10.1908 8.75 9.49936ZM6.25 15.7494C6.25 15.058 6.80859 14.4994 7.5 14.4994H18.75C19.4414 14.4994 20 15.058 20 15.7494C20 16.4408 19.4414 16.9994 18.75 16.9994H7.5C6.80859 16.9994 6.25 16.4408 6.25 15.7494ZM1.875 13.8744C2.37228 13.8744 2.84919 14.0719 3.20083 14.4235C3.55246 14.7752 3.75 15.2521 3.75 15.7494C3.75 16.2466 3.55246 16.7236 3.20083 17.0752C2.84919 17.4268 2.37228 17.6244 1.875 17.6244C1.37772 17.6244 0.900805 17.4268 0.549175 17.0752C0.197544 16.7236 -1.11759e-08 16.2466 -1.11759e-08 15.7494C-1.11759e-08 15.2521 0.197544 14.7752 0.549175 14.4235C0.900805 14.0719 1.37772 13.8744 1.875 13.8744Z" fill="#9CAF88"/>
</svg>
