<svg width="17" height="16" viewBox="0 0 17 16" fill="none" xmlns="http://www.w3.org/2000/svg">
<g clip-path="url(#clip0_60_2979)">
<path d="M1.28122 1.75C1.28122 1.33437 1.6156 1 2.03122 1H3.03122C3.44685 1 3.78122 1.33437 3.78122 1.75V5.5H4.28122C4.69685 5.5 5.03122 5.83437 5.03122 6.25C5.03122 6.66563 4.69685 7 4.28122 7H1.78122C1.3656 7 1.03122 6.66563 1.03122 6.25C1.03122 5.83437 1.3656 5.5 1.78122 5.5H2.28122V2.5H2.03122C1.6156 2.5 1.28122 2.16562 1.28122 1.75ZM3.2406 10.6625C3.03747 10.4313 2.66872 10.4469 2.4906 10.7L2.1406 11.1844C1.89997 11.5219 1.43122 11.6 1.09372 11.3594C0.756224 11.1187 0.678099 10.65 0.918724 10.3125L1.2656 9.825C2.00622 8.7875 3.52497 8.7125 4.3656 9.67188C5.03122 10.4344 5.0156 11.575 4.33122 12.3188L3.24372 13.5H4.28122C4.69685 13.5 5.03122 13.8344 5.03122 14.25C5.03122 14.6656 4.69685 15 4.28122 15H1.53122C1.23435 15 0.962474 14.825 0.843724 14.55C0.724974 14.275 0.778099 13.9594 0.978099 13.7406L3.2281 11.3031C3.39372 11.1219 3.39685 10.8469 3.23747 10.6625H3.2406ZM7.53122 2H15.5312C16.0843 2 16.5312 2.44687 16.5312 3C16.5312 3.55312 16.0843 4 15.5312 4H7.53122C6.9781 4 6.53122 3.55312 6.53122 3C6.53122 2.44687 6.9781 2 7.53122 2ZM7.53122 7H15.5312C16.0843 7 16.5312 7.44688 16.5312 8C16.5312 8.55312 16.0843 9 15.5312 9H7.53122C6.9781 9 6.53122 8.55312 6.53122 8C6.53122 7.44688 6.9781 7 7.53122 7ZM7.53122 12H15.5312C16.0843 12 16.5312 12.4469 16.5312 13C16.5312 13.5531 16.0843 14 15.5312 14H7.53122C6.9781 14 6.53122 13.5531 6.53122 13C6.53122 12.4469 6.9781 12 7.53122 12Z" fill="#4B5563"/>
</g>
<defs>
<clipPath id="clip0_60_2979">
<path d="M0.53125 0H16.5312V16H0.53125V0Z" fill="white"/>
</clipPath>
</defs>
</svg>
