<svg width="17" height="16" viewBox="0 0 17 16" fill="none" xmlns="http://www.w3.org/2000/svg">
<g clip-path="url(#clip0_2_534)">
<path d="M1.32812 1.5C0.9125 1.5 0.578125 1.83437 0.578125 2.25V3.75C0.578125 4.16563 0.9125 4.5 1.32812 4.5H2.82812C3.24375 4.5 3.57812 4.16563 3.57812 3.75V2.25C3.57812 1.83437 3.24375 1.5 2.82812 1.5H1.32812ZM6.07812 2C5.525 2 5.07812 2.44687 5.07812 3C5.07812 3.55312 5.525 4 6.07812 4H15.0781C15.6313 4 16.0781 3.55312 16.0781 3C16.0781 2.44687 15.6313 2 15.0781 2H6.07812ZM6.07812 7C5.525 7 5.07812 7.44688 5.07812 8C5.07812 8.55312 5.525 9 6.07812 9H15.0781C15.6313 9 16.0781 8.55312 16.0781 8C16.0781 7.44688 15.6313 7 15.0781 7H6.07812ZM6.07812 12C5.525 12 5.07812 12.4469 5.07812 13C5.07812 13.5531 5.525 14 6.07812 14H15.0781C15.6313 14 16.0781 13.5531 16.0781 13C16.0781 12.4469 15.6313 12 15.0781 12H6.07812ZM0.578125 7.25V8.75C0.578125 9.16563 0.9125 9.5 1.32812 9.5H2.82812C3.24375 9.5 3.57812 9.16563 3.57812 8.75V7.25C3.57812 6.83437 3.24375 6.5 2.82812 6.5H1.32812C0.9125 6.5 0.578125 6.83437 0.578125 7.25ZM1.32812 11.5C0.9125 11.5 0.578125 11.8344 0.578125 12.25V13.75C0.578125 14.1656 0.9125 14.5 1.32812 14.5H2.82812C3.24375 14.5 3.57812 14.1656 3.57812 13.75V12.25C3.57812 11.8344 3.24375 11.5 2.82812 11.5H1.32812Z" fill="#4B5563"/>
</g>
<defs>
<clipPath id="clip0_2_534">
<path d="M0.078125 0H16.0781V16H0.078125V0Z" fill="white"/>
</clipPath>
</defs>
</svg>
