<svg width="34" height="30" viewBox="0 0 34 30" fill="none" xmlns="http://www.w3.org/2000/svg">
<g clip-path="url(#clip0_399_1013)">
<path d="M3.875 4.6875C3.35938 4.6875 2.9375 5.10938 2.9375 5.625V24.375C2.9375 24.8906 3.35938 25.3125 3.875 25.3125H30.125C30.6406 25.3125 31.0625 24.8906 31.0625 24.375V5.625C31.0625 5.10938 30.6406 4.6875 30.125 4.6875H3.875ZM0.125 5.625C0.125 3.55664 1.80664 1.875 3.875 1.875H30.125C32.1934 1.875 33.875 3.55664 33.875 5.625V24.375C33.875 26.4434 32.1934 28.125 30.125 28.125H3.875C1.80664 28.125 0.125 26.4434 0.125 24.375V5.625ZM5.75 9.375C5.75 8.87772 5.94754 8.40081 6.29917 8.04918C6.65081 7.69754 7.12772 7.5 7.625 7.5C8.12228 7.5 8.59919 7.69754 8.95082 8.04918C9.30246 8.40081 9.5 8.87772 9.5 9.375C9.5 9.87228 9.30246 10.3492 8.95082 10.7008C8.59919 11.0525 8.12228 11.25 7.625 11.25C7.12772 11.25 6.65081 11.0525 6.29917 10.7008C5.94754 10.3492 5.75 9.87228 5.75 9.375ZM11.8438 9.375C11.8438 8.5957 12.4707 7.96875 13.25 7.96875H26.375C27.1543 7.96875 27.7812 8.5957 27.7812 9.375C27.7812 10.1543 27.1543 10.7812 26.375 10.7812H13.25C12.4707 10.7812 11.8438 10.1543 11.8438 9.375ZM11.8438 15C11.8438 14.2207 12.4707 13.5938 13.25 13.5938H26.375C27.1543 13.5938 27.7812 14.2207 27.7812 15C27.7812 15.7793 27.1543 16.4062 26.375 16.4062H13.25C12.4707 16.4062 11.8438 15.7793 11.8438 15ZM11.8438 20.625C11.8438 19.8457 12.4707 19.2188 13.25 19.2188H26.375C27.1543 19.2188 27.7812 19.8457 27.7812 20.625C27.7812 21.4043 27.1543 22.0312 26.375 22.0312H13.25C12.4707 22.0312 11.8438 21.4043 11.8438 20.625ZM7.625 16.875C7.12772 16.875 6.65081 16.6775 6.29917 16.3258C5.94754 15.9742 5.75 15.4973 5.75 15C5.75 14.5027 5.94754 14.0258 6.29917 13.6742C6.65081 13.3225 7.12772 13.125 7.625 13.125C8.12228 13.125 8.59919 13.3225 8.95082 13.6742C9.30246 14.0258 9.5 14.5027 9.5 15C9.5 15.4973 9.30246 15.9742 8.95082 16.3258C8.59919 16.6775 8.12228 16.875 7.625 16.875ZM5.75 20.625C5.75 20.1277 5.94754 19.6508 6.29917 19.2992C6.65081 18.9475 7.12772 18.75 7.625 18.75C8.12228 18.75 8.59919 18.9475 8.95082 19.2992C9.30246 19.6508 9.5 20.1277 9.5 20.625C9.5 21.1223 9.30246 21.5992 8.95082 21.9508C8.59919 22.3025 8.12228 22.5 7.625 22.5C7.12772 22.5 6.65081 22.3025 6.29917 21.9508C5.94754 21.5992 5.75 21.1223 5.75 20.625Z" fill="#8A8A8A"/>
</g>
<defs>
<clipPath id="clip0_399_1013">
<path d="M0.125 0H33.875V30H0.125V0Z" fill="white"/>
</clipPath>
</defs>
</svg>
