<svg width="14" height="16" viewBox="0 0 14 16" fill="none" xmlns="http://www.w3.org/2000/svg">
<path d="M11.5562 1.16968C12.0156 1.47593 12.1406 2.09781 11.8344 2.55718L10.5344 4.50093H12.5C13.0531 4.50093 13.5 4.94781 13.5 5.50093C13.5 6.05406 13.0531 6.50093 12.5 6.50093H9.20312L7.20312 9.50093H12.5C13.0531 9.50093 13.5 9.94781 13.5 10.5009C13.5 11.0541 13.0531 11.5009 12.5 11.5009H5.86875L3.83125 14.5541C3.525 15.0134 2.90312 15.1384 2.44375 14.8322C1.98437 14.5259 1.85938 13.9041 2.16563 13.4447L3.46563 11.5009H1.5C0.946875 11.5009 0.5 11.0541 0.5 10.5009C0.5 9.94781 0.946875 9.50093 1.5 9.50093H4.79688L6.79688 6.50093H1.5C0.946875 6.50093 0.5 6.05406 0.5 5.50093C0.5 4.94781 0.946875 4.50093 1.5 4.50093H8.13125L10.1687 1.44781C10.475 0.988434 11.0969 0.863434 11.5562 1.16968Z" fill="#DC2626"/>
</svg>
