<svg width="27" height="24" viewBox="0 0 27 24" fill="none" xmlns="http://www.w3.org/2000/svg">
<g clip-path="url(#clip0_322_64)">
<path d="M3 1.5C3 0.670312 2.32969 0 1.5 0C0.670312 0 0 0.670312 0 1.5V6V18C0 19.6547 1.34531 21 3 21H12V18H3V7.5H12V4.5H3V1.5ZM13.5 9C13.5 9.82969 14.1703 10.5 15 10.5H25.5C26.3297 10.5 27 9.82969 27 9V3C27 2.17031 26.3297 1.5 25.5 1.5H20.8734C20.475 1.5 20.0953 1.34063 19.8141 1.05938L19.1906 0.440625C18.9094 0.159375 18.5297 0 18.1312 0H15C14.1703 0 13.5 0.670312 13.5 1.5V9ZM13.5 22.5C13.5 23.3297 14.1703 24 15 24H25.5C26.3297 24 27 23.3297 27 22.5V16.5C27 15.6703 26.3297 15 25.5 15H20.8734C20.475 15 20.0953 14.8406 19.8141 14.5594L19.1906 13.9359C18.9094 13.6547 18.5297 13.4953 18.1312 13.4953H15C14.1703 13.4953 13.5 14.1656 13.5 14.9953V22.5Z" fill="#D4AF37"/>
</g>
<defs>
<clipPath id="clip0_322_64">
<path d="M0 0H27V24H0V0Z" fill="white"/>
</clipPath>
</defs>
</svg>
