<svg width="18" height="16" viewBox="0 0 18 16" fill="none" xmlns="http://www.w3.org/2000/svg">
<g clip-path="url(#clip0_2_233)">
<path d="M9.84375 9.84375L14.7937 3.125L13.8781 2.20625L7.15625 7.15625L9.84375 9.84375ZM4 10V7.75938C4 7.28125 4.225 6.83437 4.60938 6.55312L13.1438 0.2625C13.375 0.090625 13.6562 0 13.9438 0C14.3 0 14.6438 0.140625 14.8969 0.39375L16.6094 2.10625C16.8625 2.35938 17.0031 2.7 17.0031 3.05938C17.0031 3.34687 16.9125 3.62812 16.7406 3.85938L10.45 12.3906C10.1687 12.775 9.71875 13 9.24375 13H7L6.20625 13.7937C5.81563 14.1844 5.18125 14.1844 4.79063 13.7937L3.20625 12.2094C2.81562 11.8188 2.81562 11.1844 3.20625 10.7937L4 10ZM0.21875 14.5719L2.1875 12.6031L4.39375 14.8094L3.425 15.7781C3.28437 15.9187 3.09375 15.9969 2.89375 15.9969H0.75C0.334375 15.9969 0 15.6625 0 15.2469V15.1C0 14.9 0.078125 14.7094 0.21875 14.5688V14.5719Z" fill="#8B5CF6"/>
</g>
<defs>
<clipPath id="clip0_2_233">
<path d="M0 0H18V16H0V0Z" fill="white"/>
</clipPath>
</defs>
</svg>
