<svg width="49" height="49" viewBox="0 0 49 49" fill="none" xmlns="http://www.w3.org/2000/svg">
<g clip-path="url(#clip0_327_629)">
<path d="M35.9998 3.04062C37.4061 1.42812 39.4404 0.5 41.5779 0.5C45.6654 0.5 48.9842 3.81875 48.9842 7.90625C48.9842 10.0437 48.056 12.0875 46.4436 13.4937L27.0186 30.4062L26.0529 29.4406L20.0529 23.4406L19.0779 22.4656L35.9998 3.04062ZM16.9498 24.5844L17.9248 25.5594L23.9248 31.5594L24.8998 32.5344L23.0998 40.3531C22.7342 41.9562 21.5154 43.2312 19.9311 43.6719L3.27168 48.3406L12.2154 39.3969C12.4592 39.4625 12.7217 39.5 12.9936 39.5C14.6529 39.5 15.9936 38.1594 15.9936 36.5C15.9936 34.8406 14.6529 33.5 12.9936 33.5C11.3342 33.5 9.99355 34.8406 9.99355 36.5C9.99355 36.7719 10.0311 37.025 10.0967 37.2781L1.14355 46.2125L5.8123 29.5625C6.25293 27.9781 7.52793 26.7594 9.13105 26.3937L16.9498 24.5937V24.5844Z" fill="#4A3B32"/>
</g>
<defs>
<clipPath id="clip0_327_629">
<path d="M0.984375 0.5H48.9844V48.5H0.984375V0.5Z" fill="white"/>
</clipPath>
</defs>
</svg>
