<svg width="17" height="16" viewBox="0 0 17 16" fill="none" xmlns="http://www.w3.org/2000/svg">
<g clip-path="url(#clip0_438_10233)">
<path d="M13.806 7.21836L14.1591 6.86523L13.0997 5.80586L11.1591 3.86523L10.0997 2.80586L9.7466 3.15898L9.04035 3.86523L2.81535 10.0902C2.49035 10.4152 2.25285 10.8184 2.1216 11.259L1.01535 15.0215C0.937224 15.284 1.0091 15.5684 1.20597 15.7621C1.40285 15.9559 1.6841 16.0277 1.9466 15.9527L5.70597 14.8465C6.1466 14.7152 6.54972 14.4777 6.87472 14.1527L13.0997 7.92773L13.806 7.21836ZM5.9841 12.4809L5.69972 13.1902C5.57472 13.2871 5.4341 13.359 5.2841 13.4059L2.84035 14.1246L3.5591 11.684C3.60285 11.5309 3.67785 11.3902 3.77472 11.2684L4.4841 10.984V11.984C4.4841 12.259 4.7091 12.484 4.9841 12.484H5.9841V12.4809ZM12.3185 0.583984L11.8685 1.03711L11.1622 1.74336L10.806 2.09648L11.8653 3.15586L13.806 5.09648L14.8653 6.15586L15.2185 5.80273L15.9247 5.09648L16.3778 4.64336C17.1591 3.86211 17.1591 2.59648 16.3778 1.81523L15.1497 0.583984C14.3685 -0.197266 13.1028 -0.197266 12.3216 0.583984H12.3185ZM10.8372 5.83398L6.33722 10.334C6.14347 10.5277 5.82472 10.5277 5.63097 10.334C5.43722 10.1402 5.43722 9.82148 5.63097 9.62773L10.131 5.12773C10.3247 4.93398 10.6435 4.93398 10.8372 5.12773C11.031 5.32148 11.031 5.64023 10.8372 5.83398Z" fill="#9CA3AF"/>
</g>
<defs>
<clipPath id="clip0_438_10233">
<path d="M0.984375 0H16.9844V16H0.984375V0Z" fill="white"/>
</clipPath>
</defs>
</svg>
