<svg width="13" height="12" viewBox="0 0 13 12" fill="none" xmlns="http://www.w3.org/2000/svg">
<g clip-path="url(#clip0_60_3117)">
<g clip-path="url(#clip1_60_3117)">
<path d="M9.00074 0.452393L7.86637 1.58677L10.9132 4.63364L12.0476 3.49927C12.6336 2.91333 12.6336 1.96411 12.0476 1.37817L11.1242 0.452393C10.5382 -0.133545 9.58902 -0.133545 9.00308 0.452393H9.00074ZM7.33668 2.11646L1.8734 7.58208C1.62965 7.82583 1.45152 8.12817 1.35308 8.45864L0.523397 11.2782C0.464803 11.4774 0.51871 11.6907 0.664022 11.836C0.809335 11.9813 1.02262 12.0352 1.21949 11.979L4.03902 11.1493C4.36949 11.0508 4.67183 10.8727 4.91558 10.629L10.3836 5.16333L7.33668 2.11646Z" fill="#9CA3AF"/>
</g>
</g>
<defs>
<clipPath id="clip0_60_3117">
<rect width="12" height="12" fill="white" transform="translate(0.5)"/>
</clipPath>
<clipPath id="clip1_60_3117">
<path d="M0.5 0H12.5V12H0.5V0Z" fill="white"/>
</clipPath>
</defs>
</svg>
