<svg width="26" height="21" viewBox="0 0 26 21" fill="none" xmlns="http://www.w3.org/2000/svg">
<g clip-path="url(#clip0_441_13951)">
<g clip-path="url(#clip1_441_13951)">
<path d="M6.375 0.5C7.2038 0.5 7.99866 0.82924 8.58471 1.41529C9.17076 2.00134 9.5 2.7962 9.5 3.625C9.5 4.4538 9.17076 5.24866 8.58471 5.83471C7.99866 6.42076 7.2038 6.75 6.375 6.75C5.5462 6.75 4.75134 6.42076 4.16529 5.83471C3.57924 5.24866 3.25 4.4538 3.25 3.625C3.25 2.7962 3.57924 2.00134 4.16529 1.41529C4.75134 0.82924 5.5462 0.5 6.375 0.5ZM20.75 0.5C21.5788 0.5 22.3737 0.82924 22.9597 1.41529C23.5458 2.00134 23.875 2.7962 23.875 3.625C23.875 4.4538 23.5458 5.24866 22.9597 5.83471C22.3737 6.42076 21.5788 6.75 20.75 6.75C19.9212 6.75 19.1263 6.42076 18.5403 5.83471C17.9542 5.24866 17.625 4.4538 17.625 3.625C17.625 2.7962 17.9542 2.00134 18.5403 1.41529C19.1263 0.82924 19.9212 0.5 20.75 0.5ZM0.75 12.168C0.75 9.86719 2.61719 8 4.91797 8H6.58594C7.20703 8 7.79688 8.13672 8.32812 8.37891C8.27734 8.66016 8.25391 8.95312 8.25391 9.25C8.25391 10.7422 8.91016 12.082 9.94531 13C9.9375 13 9.92969 13 9.91797 13H1.58203C1.125 13 0.75 12.625 0.75 12.168ZM16.582 13C16.5742 13 16.5664 13 16.5547 13C17.5938 12.082 18.2461 10.7422 18.2461 9.25C18.2461 8.95312 18.2188 8.66406 18.1719 8.37891C18.7031 8.13281 19.293 8 19.9141 8H21.582C23.8828 8 25.75 9.86719 25.75 12.168C25.75 12.6289 25.375 13 24.918 13H16.582ZM9.5 9.25C9.5 8.25544 9.89509 7.30161 10.5983 6.59835C11.3016 5.89509 12.2554 5.5 13.25 5.5C14.2446 5.5 15.1984 5.89509 15.9017 6.59835C16.6049 7.30161 17 8.25544 17 9.25C17 10.2446 16.6049 11.1984 15.9017 11.9017C15.1984 12.6049 14.2446 13 13.25 13C12.2554 13 11.3016 12.6049 10.5983 11.9017C9.89509 11.1984 9.5 10.2446 9.5 9.25ZM5.75 19.457C5.75 16.582 8.08203 14.25 10.957 14.25H15.543C18.418 14.25 20.75 16.582 20.75 19.457C20.75 20.0312 20.2852 20.5 19.707 20.5H6.79297C6.21875 20.5 5.75 20.0352 5.75 19.457Z" fill="#374151"/>
</g>
</g>
<defs>
<clipPath id="clip0_441_13951">
<rect width="25" height="20" fill="white" transform="translate(0.75 0.5)"/>
</clipPath>
<clipPath id="clip1_441_13951">
<path d="M0.75 0.5H25.75V20.5H0.75V0.5Z" fill="white"/>
</clipPath>
</defs>
</svg>
