<svg width="25" height="21" viewBox="0 0 25 21" fill="none" xmlns="http://www.w3.org/2000/svg">
<g clip-path="url(#clip0_368_385)">
<path d="M6.25 3C6.25 1.62109 7.37109 0.5 8.75 0.5H22.5C23.8789 0.5 25 1.62109 25 3V14.25C25 15.6289 23.8789 16.75 22.5 16.75H13.1562C12.6953 15.7539 11.9883 14.8945 11.1094 14.25H15V13C15 12.3086 15.5586 11.75 16.25 11.75H18.75C19.4414 11.75 20 12.3086 20 13V14.25H22.5V3H8.75V4.91797C8.01562 4.49219 7.16016 4.25 6.25 4.25V3ZM6.25 5.5C6.74246 5.5 7.23009 5.597 7.68506 5.78545C8.14003 5.97391 8.55343 6.25013 8.90165 6.59835C9.24987 6.94657 9.52609 7.35997 9.71455 7.81494C9.903 8.26991 10 8.75754 10 9.25C10 9.74246 9.903 10.2301 9.71455 10.6851C9.52609 11.14 9.24987 11.5534 8.90165 11.9017C8.55343 12.2499 8.14003 12.5261 7.68506 12.7145C7.23009 12.903 6.74246 13 6.25 13C5.75754 13 5.26991 12.903 4.81494 12.7145C4.35997 12.5261 3.94657 12.2499 3.59835 11.9017C3.25013 11.5534 2.97391 11.14 2.78545 10.6851C2.597 10.2301 2.5 9.74246 2.5 9.25C2.5 8.75754 2.597 8.26991 2.78545 7.81494C2.97391 7.35997 3.25013 6.94657 3.59835 6.59835C3.94657 6.25013 4.35997 5.97391 4.81494 5.78545C5.26991 5.597 5.75754 5.5 6.25 5.5ZM5.20703 14.25H7.28906C10.168 14.25 12.5 16.582 12.5 19.457C12.5 20.0312 12.0352 20.5 11.457 20.5H1.04297C0.464844 20.5 0 20.0352 0 19.457C0 16.582 2.33203 14.25 5.20703 14.25Z" fill="#8B7355"/>
</g>
<defs>
<clipPath id="clip0_368_385">
<path d="M0 0.5H25V20.5H0V0.5Z" fill="white"/>
</clipPath>
</defs>
</svg>
