<svg width="19" height="14" viewBox="0 0 19 14" fill="none" xmlns="http://www.w3.org/2000/svg">
<g clip-path="url(#clip0_60_5747)">
<path d="M3.35938 3.5C3.35938 2.57174 3.72812 1.6815 4.3845 1.02513C5.04088 0.368749 5.93112 0 6.85938 0C7.78763 0 8.67787 0.368749 9.33425 1.02513C9.99063 1.6815 10.3594 2.57174 10.3594 3.5C10.3594 4.42826 9.99063 5.3185 9.33425 5.97487C8.67787 6.63125 7.78763 7 6.85938 7C5.93112 7 5.04088 6.63125 4.3845 5.97487C3.72812 5.3185 3.35938 4.42826 3.35938 3.5ZM0.734375 13.1879C0.734375 10.4945 2.91641 8.3125 5.60977 8.3125H8.10898C10.8023 8.3125 12.9844 10.4945 12.9844 13.1879C12.9844 13.6363 12.6207 14 12.1723 14H1.54648C1.09805 14 0.734375 13.6363 0.734375 13.1879ZM14.5156 8.53125V6.78125H12.7656C12.402 6.78125 12.1094 6.48867 12.1094 6.125C12.1094 5.76133 12.402 5.46875 12.7656 5.46875H14.5156V3.71875C14.5156 3.35508 14.8082 3.0625 15.1719 3.0625C15.5355 3.0625 15.8281 3.35508 15.8281 3.71875V5.46875H17.5781C17.9418 5.46875 18.2344 5.76133 18.2344 6.125C18.2344 6.48867 17.9418 6.78125 17.5781 6.78125H15.8281V8.53125C15.8281 8.89492 15.5355 9.1875 15.1719 9.1875C14.8082 9.1875 14.5156 8.89492 14.5156 8.53125Z" fill="#1D4ED8"/>
</g>
<defs>
<clipPath id="clip0_60_5747">
<path d="M0.734375 0H18.2344V14H0.734375V0Z" fill="white"/>
</clipPath>
</defs>
</svg>
