<svg width="17" height="16" viewBox="0 0 17 16" fill="none" xmlns="http://www.w3.org/2000/svg">
<g clip-path="url(#clip0_2_589)">
<path d="M4.96875 13.9906L4.575 14.9125C3.99062 14.6156 3.45312 14.25 2.96563 13.8219L3.675 13.1125C4.06562 13.4531 4.5 13.75 4.96875 13.9906ZM1.34687 8.5H0.34375C0.3875 9.1625 0.5125 9.80313 0.709375 10.4094L1.64062 10.0375C1.4875 9.54688 1.38437 9.03125 1.34687 8.5ZM1.34687 7.5C1.39062 6.9125 1.50937 6.34375 1.69375 5.80937L0.771875 5.41563C0.5375 6.07188 0.390625 6.77187 0.34375 7.5H1.34687ZM2.0875 4.89062C2.33125 4.425 2.625 3.99062 2.96563 3.59375L2.25625 2.88438C1.82812 3.37188 1.45937 3.90938 1.16562 4.49375L2.0875 4.89062ZM12.4844 13.1125C12.05 13.4875 11.5656 13.8094 11.0437 14.0625L11.4156 14.9937C12.0625 14.6844 12.6594 14.2875 13.1938 13.8188L12.4844 13.1125ZM3.67188 2.8875C4.10625 2.5125 4.59063 2.19062 5.1125 1.9375L4.74062 1.00625C4.09375 1.31562 3.49688 1.7125 2.96563 2.18125L3.67188 2.8875ZM14.0688 11.1094C13.825 11.575 13.5312 12.0094 13.1906 12.4062L13.9 13.1156C14.3281 12.6281 14.6969 12.0875 14.9906 11.5063L14.0688 11.1094ZM14.8094 8.5C14.7656 9.0875 14.6469 9.65625 14.4625 10.1906L15.3844 10.5844C15.6187 9.925 15.7656 9.225 15.8094 8.49687H14.8094V8.5ZM10.1156 14.4375C9.625 14.5938 9.10938 14.6937 8.57812 14.7312V15.7344C9.24063 15.6906 9.88125 15.5656 10.4875 15.3687L10.1156 14.4375ZM7.57812 14.7312C6.99062 14.6875 6.42188 14.5687 5.8875 14.3844L5.49375 15.3062C6.15313 15.5406 6.85313 15.6875 7.58125 15.7312V14.7312H7.57812ZM14.5156 5.9625C14.6719 6.45312 14.7719 6.96875 14.8094 7.5H15.8125C15.7688 6.8375 15.6437 6.19687 15.4469 5.59062L14.5156 5.9625ZM2.96563 12.4062C2.59063 11.9719 2.26875 11.4875 2.01562 10.9656L1.08438 11.3375C1.39375 11.9844 1.79063 12.5813 2.25938 13.1156L2.96563 12.4062ZM8.57812 1.26875C9.16562 1.3125 9.73125 1.43125 10.2688 1.61563L10.6625 0.69375C10.0063 0.459375 9.30625 0.3125 8.57812 0.265625V1.26875ZM6.04063 1.5625C6.53125 1.40625 7.04688 1.30625 7.57812 1.26875V0.265625C6.91563 0.309375 6.275 0.434375 5.66875 0.63125L6.04063 1.5625ZM13.9 2.88438L13.1906 3.59375C13.5656 4.02813 13.8875 4.5125 14.1438 5.03438L15.075 4.6625C14.7656 4.01562 14.3687 3.41875 13.9 2.88438ZM12.4844 2.8875L13.1938 2.17812C12.7063 1.75 12.1688 1.38125 11.5844 1.0875L11.1906 2.00938C11.6531 2.25313 12.0906 2.54688 12.4844 2.8875Z" fill="#2563EB"/>
<path d="M8.07812 12.25C8.56137 12.25 8.95312 11.8582 8.95312 11.375C8.95312 10.8918 8.56137 10.5 8.07812 10.5C7.59488 10.5 7.20312 10.8918 7.20312 11.375C7.20312 11.8582 7.59488 12.25 8.07812 12.25Z" fill="#2563EB"/>
<path d="M8.31882 9.75H7.81882C7.61257 9.75 7.44382 9.58125 7.44382 9.375C7.44382 7.15625 9.86257 7.37812 9.86257 6.00625C9.86257 5.38125 9.30632 4.75 8.06882 4.75C7.15944 4.75 6.68444 5.05 6.21882 5.64687C6.09694 5.80312 5.87194 5.83438 5.71257 5.72188L5.30319 5.43437C5.12819 5.3125 5.08757 5.06562 5.22194 4.89687C5.88444 4.04687 6.67194 3.5 8.07194 3.5C9.70632 3.5 11.1157 4.43125 11.1157 6.00625C11.1157 8.11875 8.69694 7.99062 8.69694 9.375C8.69382 9.58125 8.52507 9.75 8.31882 9.75Z" fill="#2563EB"/>
</g>
<defs>
<clipPath id="clip0_2_589">
<path d="M0.078125 0H16.0781V16H0.078125V0Z" fill="white"/>
</clipPath>
</defs>
</svg>
