<svg width="14" height="15" viewBox="0 0 14 15" fill="none" xmlns="http://www.w3.org/2000/svg">
<g clip-path="url(#clip0_425_4839)">
<g clip-path="url(#clip1_425_4839)">
<path d="M2.05078 2.80078L1.12109 1.87109C0.708203 1.4582 0 1.75078 0 2.3332V5.34375C0 5.70742 0.292578 6 0.65625 6H3.6668C4.25195 6 4.54453 5.2918 4.13164 4.87891L3.28945 4.03672C4.23828 3.08789 5.55078 2.5 7 2.5C9.89844 2.5 12.25 4.85156 12.25 7.75C12.25 10.6484 9.89844 13 7 13C5.88438 13 4.85078 12.6527 4.00039 12.0594C3.60391 11.7832 3.05977 11.8789 2.78086 12.2754C2.50195 12.6719 2.60039 13.216 2.99688 13.4949C4.13438 14.2852 5.51523 14.75 7 14.75C10.8664 14.75 14 11.6164 14 7.75C14 3.88359 10.8664 0.75 7 0.75C5.0668 0.75 3.3168 1.53477 2.05078 2.80078ZM7 4.25C6.63633 4.25 6.34375 4.54258 6.34375 4.90625V7.75C6.34375 7.925 6.41211 8.0918 6.53516 8.21484L8.50391 10.1836C8.76094 10.4406 9.17656 10.4406 9.43086 10.1836C9.68516 9.92656 9.68789 9.51094 9.43086 9.25664L7.65352 7.4793V4.90625C7.65352 4.54258 7.36094 4.25 6.99727 4.25H7Z" fill="#4B5563"/>
</g>
</g>
<defs>
<clipPath id="clip0_425_4839">
<rect width="14" height="14" fill="white" transform="translate(0 0.75)"/>
</clipPath>
<clipPath id="clip1_425_4839">
<path d="M0 0.75H14V14.75H0V0.75Z" fill="white"/>
</clipPath>
</defs>
</svg>
