<svg width="15" height="14" viewBox="0 0 15 14" fill="none" xmlns="http://www.w3.org/2000/svg">
<g clip-path="url(#clip0_60_5676)">
<g clip-path="url(#clip1_60_5676)">
<path d="M3.76523 4.37501H5.14062C5.62461 4.37501 6.01562 4.76603 6.01562 5.25001C6.01562 5.734 5.62461 6.12501 5.14062 6.12501H1.64062C1.15664 6.12501 0.765625 5.734 0.765625 5.25001V1.75001C0.765625 1.26603 1.15664 0.875012 1.64062 0.875012C2.12461 0.875012 2.51562 1.26603 2.51562 1.75001V3.15001L2.99688 2.66876C5.38945 0.276184 9.2668 0.276184 11.6594 2.66876C14.052 5.06134 14.052 8.93868 11.6594 11.3313C9.2668 13.7238 5.38945 13.7238 2.99688 11.3313C2.65508 10.9895 2.65508 10.4344 2.99688 10.0926C3.33867 9.75079 3.89375 9.75079 4.23555 10.0926C5.94453 11.8016 8.71445 11.8016 10.4234 10.0926C12.1324 8.38361 12.1324 5.61368 10.4234 3.9047C8.71445 2.19572 5.94453 2.19572 4.23555 3.9047L3.76523 4.37501Z" fill="#00555A"/>
</g>
</g>
<defs>
<clipPath id="clip0_60_5676">
<rect width="14" height="14" fill="white" transform="translate(0.328125)"/>
</clipPath>
<clipPath id="clip1_60_5676">
<path d="M0.328125 0H14.3281V14H0.328125V0Z" fill="white"/>
</clipPath>
</defs>
</svg>
