<svg width="15" height="15" viewBox="0 0 15 15" fill="none" xmlns="http://www.w3.org/2000/svg">
<g clip-path="url(#clip0_60_3075)">
<g clip-path="url(#clip1_60_3075)">
<path d="M4.09492 4.65737C5.7957 2.95659 8.54375 2.94839 10.2555 4.63003L9.12891 5.75386C8.94023 5.94253 8.88555 6.22417 8.98672 6.47026C9.08789 6.71636 9.32852 6.87495 9.59375 6.87495H12.8613H13.0938C13.4574 6.87495 13.75 6.58237 13.75 6.2187V2.7187C13.75 2.45347 13.5914 2.21284 13.3453 2.11167C13.0992 2.0105 12.8176 2.06519 12.6289 2.25386L11.4914 3.39136C9.09609 1.02612 5.23789 1.03433 2.85625 3.4187C2.18906 4.08589 1.70781 4.87065 1.4125 5.71011C1.25117 6.16675 1.4918 6.6644 1.9457 6.82573C2.39961 6.98706 2.9 6.74644 3.06133 6.29253C3.27187 5.69644 3.61367 5.13589 4.09492 4.65737ZM0.625 9.2812V9.48901V9.50815V12.7812C0.625 13.0464 0.783594 13.2871 1.02969 13.3882C1.27578 13.4894 1.55742 13.4347 1.74609 13.246L2.88359 12.1085C5.27891 14.4738 9.13711 14.4656 11.5188 12.0812C12.1859 11.414 12.6699 10.6292 12.9652 9.79253C13.1266 9.33589 12.8859 8.83823 12.432 8.6769C11.9781 8.51558 11.4777 8.7562 11.3164 9.21011C11.1059 9.8062 10.7641 10.3667 10.2828 10.8453C8.58203 12.546 5.83398 12.5542 4.12227 10.8726L5.24609 9.74605C5.43477 9.55737 5.48945 9.27573 5.38828 9.02964C5.28711 8.78355 5.04648 8.62495 4.78125 8.62495H1.51094H1.4918H1.28125C0.917578 8.62495 0.625 8.91753 0.625 9.2812Z" fill="#60A5FA"/>
</g>
</g>
<defs>
<clipPath id="clip0_60_3075">
<rect width="14" height="14" fill="white" transform="translate(0.1875 0.75)"/>
</clipPath>
<clipPath id="clip1_60_3075">
<path d="M0.1875 0.75H14.1875V14.75H0.1875V0.75Z" fill="white"/>
</clipPath>
</defs>
</svg>
