<svg width="16" height="13" viewBox="0 0 16 13" fill="none" xmlns="http://www.w3.org/2000/svg">
<path d="M7.76562 0.5C8.18047 0.5 8.51562 0.835156 8.51562 1.25V2.75H11.3281C12.2609 2.75 13.0156 3.50469 13.0156 4.4375V10.8125C13.0156 11.7453 12.2609 12.5 11.3281 12.5H4.20312C3.27031 12.5 2.51562 11.7453 2.51562 10.8125V4.4375C2.51562 3.50469 3.27031 2.75 4.20312 2.75H7.01562V1.25C7.01562 0.835156 7.35078 0.5 7.76562 0.5ZM5.14062 9.5C4.93437 9.5 4.76562 9.66875 4.76562 9.875C4.76562 10.0813 4.93437 10.25 5.14062 10.25H5.89062C6.09688 10.25 6.26562 10.0813 6.26562 9.875C6.26562 9.66875 6.09688 9.5 5.89062 9.5H5.14062ZM7.39062 9.5C7.18437 9.5 7.01562 9.66875 7.01562 9.875C7.01562 10.0813 7.18437 10.25 7.39062 10.25H8.14062C8.34688 10.25 8.51562 10.0813 8.51562 9.875C8.51562 9.66875 8.34688 9.5 8.14062 9.5H7.39062ZM9.64062 9.5C9.43437 9.5 9.26562 9.66875 9.26562 9.875C9.26562 10.0813 9.43437 10.25 9.64062 10.25H10.3906C10.5969 10.25 10.7656 10.0813 10.7656 9.875C10.7656 9.66875 10.5969 9.5 10.3906 9.5H9.64062ZM6.45312 6.5C6.45312 6.25136 6.35435 6.0129 6.17854 5.83709C6.00272 5.66127 5.76427 5.5625 5.51562 5.5625C5.26698 5.5625 5.02853 5.66127 4.85271 5.83709C4.6769 6.0129 4.57812 6.25136 4.57812 6.5C4.57812 6.74864 4.6769 6.9871 4.85271 7.16291C5.02853 7.33873 5.26698 7.4375 5.51562 7.4375C5.76427 7.4375 6.00272 7.33873 6.17854 7.16291C6.35435 6.9871 6.45312 6.74864 6.45312 6.5ZM10.0156 7.4375C10.2643 7.4375 10.5027 7.33873 10.6785 7.16291C10.8544 6.9871 10.9531 6.74864 10.9531 6.5C10.9531 6.25136 10.8544 6.0129 10.6785 5.83709C10.5027 5.66127 10.2643 5.5625 10.0156 5.5625C9.76698 5.5625 9.52853 5.66127 9.35271 5.83709C9.1769 6.0129 9.07812 6.25136 9.07812 6.5C9.07812 6.74864 9.1769 6.9871 9.35271 7.16291C9.52853 7.33873 9.76698 7.4375 10.0156 7.4375ZM1.39062 5.75H1.76562V10.25H1.39062C0.769531 10.25 0.265625 9.74609 0.265625 9.125V6.875C0.265625 6.25391 0.769531 5.75 1.39062 5.75ZM14.1406 5.75C14.7617 5.75 15.2656 6.25391 15.2656 6.875V9.125C15.2656 9.74609 14.7617 10.25 14.1406 10.25H13.7656V5.75H14.1406Z" fill="#9CAF88"/>
</svg>
