<svg width="13" height="14" viewBox="0 0 13 14" fill="none" xmlns="http://www.w3.org/2000/svg">
<g clip-path="url(#clip0_57_1711)">
<g clip-path="url(#clip1_57_1711)">
<path d="M1.1875 0.875C0.703516 0.875 0.3125 1.26602 0.3125 1.75V4.375C0.3125 4.85898 0.703516 5.25 1.1875 5.25C1.67148 5.25 2.0625 4.85898 2.0625 4.375V2.625H3.8125C4.29648 2.625 4.6875 2.23398 4.6875 1.75C4.6875 1.26602 4.29648 0.875 3.8125 0.875H1.1875ZM2.0625 9.625C2.0625 9.14102 1.67148 8.75 1.1875 8.75C0.703516 8.75 0.3125 9.14102 0.3125 9.625V12.25C0.3125 12.734 0.703516 13.125 1.1875 13.125H3.8125C4.29648 13.125 4.6875 12.734 4.6875 12.25C4.6875 11.766 4.29648 11.375 3.8125 11.375H2.0625V9.625ZM9.0625 0.875C8.57852 0.875 8.1875 1.26602 8.1875 1.75C8.1875 2.23398 8.57852 2.625 9.0625 2.625H10.8125V4.375C10.8125 4.85898 11.2035 5.25 11.6875 5.25C12.1715 5.25 12.5625 4.85898 12.5625 4.375V1.75C12.5625 1.26602 12.1715 0.875 11.6875 0.875H9.0625ZM12.5625 9.625C12.5625 9.14102 12.1715 8.75 11.6875 8.75C11.2035 8.75 10.8125 9.14102 10.8125 9.625V11.375H9.0625C8.57852 11.375 8.1875 11.766 8.1875 12.25C8.1875 12.734 8.57852 13.125 9.0625 13.125H11.6875C12.1715 13.125 12.5625 12.734 12.5625 12.25V9.625Z" fill="#3B82F6"/>
</g>
</g>
<defs>
<clipPath id="clip0_57_1711">
<rect width="12.25" height="14" fill="white" transform="translate(0.3125)"/>
</clipPath>
<clipPath id="clip1_57_1711">
<path d="M0.3125 0H12.5625V14H0.3125V0Z" fill="white"/>
</clipPath>
</defs>
</svg>
