<svg width="18" height="16" viewBox="0 0 18 16" fill="none" xmlns="http://www.w3.org/2000/svg">
<g clip-path="url(#clip0_366_219)">
<path d="M0 2.5V4C0 4.55313 0.446875 5 1 5H1.5H3V2.5C3 1.67188 2.32812 1 1.5 1C0.671875 1 0 1.67188 0 2.5ZM3.5 1C3.8125 1.41875 4 1.9375 4 2.5V12C4 13.1031 4.89688 14 6 14C7.10312 14 8 13.1031 8 12V11.8344C8 10.8219 8.82188 10 9.83438 10H15V4C15 2.34375 13.6562 1 12 1H3.5ZM14.5 15C16.4344 15 18 13.4344 18 11.5C18 11.225 17.775 11 17.5 11H9.83438C9.375 11 9 11.3719 9 11.8344V12C9 13.6562 7.65625 15 6 15H11.5H14.5Z" fill="#8B7355"/>
</g>
<defs>
<clipPath id="clip0_366_219">
<rect width="18" height="16" fill="white"/>
</clipPath>
</defs>
</svg>
