<svg width="15" height="17" viewBox="0 0 15 17" fill="none" xmlns="http://www.w3.org/2000/svg">
<g clip-path="url(#clip0_474_256)">
<g clip-path="url(#clip1_474_256)">
<path d="M1.98438 3.5V13.5C1.98438 13.775 2.20938 14 2.48438 14H12.4844C12.7594 14 12.9844 13.775 12.9844 13.5V5.82812C12.9844 5.69688 12.9312 5.56875 12.8375 5.475L13.8969 4.41563C14.2719 4.79063 14.4812 5.3 14.4812 5.83125V13.5C14.4812 14.6031 13.5844 15.5 12.4812 15.5H2.48438C1.38125 15.5 0.484375 14.6031 0.484375 13.5V3.5C0.484375 2.39688 1.38125 1.5 2.48438 1.5H10.1562C10.6875 1.5 11.1969 1.70938 11.5719 2.08438L13.9 4.4125L12.8406 5.47188L10.5094 3.14687C10.5 3.1375 10.4937 3.13125 10.4844 3.12188V6.25C10.4844 6.66563 10.15 7 9.73438 7H3.73438C3.31875 7 2.98438 6.66563 2.98438 6.25V3H2.48438C2.20938 3 1.98438 3.225 1.98438 3.5ZM4.48438 3V5.5H8.98438V3H4.48438ZM5.48438 10.5C5.48438 9.96957 5.69509 9.46086 6.07016 9.08579C6.44523 8.71071 6.95394 8.5 7.48438 8.5C8.01481 8.5 8.52352 8.71071 8.89859 9.08579C9.27366 9.46086 9.48438 9.96957 9.48438 10.5C9.48438 11.0304 9.27366 11.5391 8.89859 11.9142C8.52352 12.2893 8.01481 12.5 7.48438 12.5C6.95394 12.5 6.44523 12.2893 6.07016 11.9142C5.69509 11.5391 5.48438 11.0304 5.48438 10.5Z" fill="#7F8C8D"/>
</g>
</g>
<defs>
<clipPath id="clip0_474_256">
<rect width="14" height="16" fill="white" transform="translate(0.484375 0.5)"/>
</clipPath>
<clipPath id="clip1_474_256">
<path d="M0.484375 0.5H14.4844V16.5H0.484375V0.5Z" fill="white"/>
</clipPath>
</defs>
</svg>
