<svg width="15" height="16" viewBox="0 0 15 16" fill="none" xmlns="http://www.w3.org/2000/svg">
<g clip-path="url(#clip0_60_3046)">
<path d="M2.85938 1C1.75625 1 0.859375 1.89688 0.859375 3V13C0.859375 14.1031 1.75625 15 2.85938 15H12.8594C13.9625 15 14.8594 14.1031 14.8594 13V5.41563C14.8594 4.88438 14.65 4.375 14.275 4L11.8594 1.58438C11.4844 1.20938 10.975 1 10.4438 1H2.85938ZM2.85938 4C2.85938 3.44688 3.30625 3 3.85938 3H9.85938C10.4125 3 10.8594 3.44688 10.8594 4V6C10.8594 6.55312 10.4125 7 9.85938 7H3.85938C3.30625 7 2.85938 6.55312 2.85938 6V4ZM7.85938 9C8.38981 9 8.89852 9.21071 9.27359 9.58579C9.64866 9.96086 9.85938 10.4696 9.85938 11C9.85938 11.5304 9.64866 12.0391 9.27359 12.4142C8.89852 12.7893 8.38981 13 7.85938 13C7.32894 13 6.82023 12.7893 6.44516 12.4142C6.07009 12.0391 5.85938 11.5304 5.85938 11C5.85938 10.4696 6.07009 9.96086 6.44516 9.58579C6.82023 9.21071 7.32894 9 7.85938 9Z" fill="white"/>
</g>
<defs>
<clipPath id="clip0_60_3046">
<path d="M0.859375 0H14.8594V16H0.859375V0Z" fill="white"/>
</clipPath>
</defs>
</svg>
