<svg width="21" height="21" viewBox="0 0 21 21" fill="none" xmlns="http://www.w3.org/2000/svg">
<g clip-path="url(#clip0_441_13945)">
<path d="M17 8.625C17 10.418 16.418 12.0742 15.4375 13.418L20.3828 18.3672C20.8711 18.8555 20.8711 19.6484 20.3828 20.1367C19.8945 20.625 19.1016 20.625 18.6133 20.1367L13.668 15.1875C12.3242 16.1719 10.668 16.75 8.875 16.75C4.38672 16.75 0.75 13.1133 0.75 8.625C0.75 4.13672 4.38672 0.5 8.875 0.5C13.3633 0.5 17 4.13672 17 8.625ZM8.875 14.25C9.61369 14.25 10.3451 14.1045 11.0276 13.8218C11.7101 13.5391 12.3301 13.1248 12.8525 12.6025C13.3748 12.0801 13.7891 11.4601 14.0718 10.7776C14.3545 10.0951 14.5 9.36369 14.5 8.625C14.5 7.88631 14.3545 7.15486 14.0718 6.47241C13.7891 5.78995 13.3748 5.16985 12.8525 4.64752C12.3301 4.12519 11.7101 3.71086 11.0276 3.42818C10.3451 3.14549 9.61369 3 8.875 3C8.13631 3 7.40486 3.14549 6.72241 3.42818C6.03995 3.71086 5.41985 4.12519 4.89752 4.64752C4.37519 5.16985 3.96086 5.78995 3.67818 6.47241C3.39549 7.15486 3.25 7.88631 3.25 8.625C3.25 9.36369 3.39549 10.0951 3.67818 10.7776C3.96086 11.4601 4.37519 12.0801 4.89752 12.6025C5.41985 13.1248 6.03995 13.5391 6.72241 13.8218C7.40486 14.1045 8.13631 14.25 8.875 14.25Z" fill="#374151"/>
</g>
<defs>
<clipPath id="clip0_441_13945">
<path d="M0.75 0.5H20.75V20.5H0.75V0.5Z" fill="white"/>
</clipPath>
</defs>
</svg>
