<svg width="15" height="14" viewBox="0 0 15 14" fill="none" xmlns="http://www.w3.org/2000/svg">
<g clip-path="url(#clip0_60_5672)">
<path d="M7.32814 0C7.45392 0 7.5797 0.0273438 7.69454 0.0792969L12.8434 2.26406C13.4449 2.51836 13.8934 3.11172 13.8906 3.82812C13.877 6.54063 12.7613 11.5035 8.05001 13.7594C7.59337 13.9781 7.0629 13.9781 6.60626 13.7594C1.89493 11.5035 0.779309 6.54063 0.765637 3.82812C0.762903 3.11172 1.21134 2.51836 1.8129 2.26406L6.96447 0.0792969C7.07657 0.0273438 7.20236 0 7.32814 0ZM7.32814 1.82656V12.1625C11.1016 10.3359 12.116 6.2918 12.1406 3.86641L7.32814 1.82656Z" fill="#00555A"/>
</g>
<defs>
<clipPath id="clip0_60_5672">
<path d="M0.328125 0H14.3281V14H0.328125V0Z" fill="white"/>
</clipPath>
</defs>
</svg>
