<svg width="23" height="20" viewBox="0 0 23 20" fill="none" xmlns="http://www.w3.org/2000/svg">
<g clip-path="url(#clip0_60_4262)">
<path d="M0.46875 0.9375C0.46875 0.417969 0.886719 0 1.40625 0H3.18359C4.04297 0 4.80469 0.5 5.16016 1.25H21.2148C22.2422 1.25 22.9922 2.22656 22.7227 3.21875L21.1211 9.16797C20.7891 10.3945 19.6758 11.25 18.4062 11.25H7.13672L7.34766 12.3633C7.43359 12.8047 7.82031 13.125 8.26953 13.125H19.5312C20.0508 13.125 20.4688 13.543 20.4688 14.0625C20.4688 14.582 20.0508 15 19.5312 15H8.26953C6.91797 15 5.75781 14.0391 5.50781 12.7148L3.49219 2.12891C3.46484 1.98047 3.33594 1.875 3.18359 1.875H1.40625C0.886719 1.875 0.46875 1.45703 0.46875 0.9375ZM5.46875 18.125C5.46875 17.8788 5.51725 17.635 5.61148 17.4075C5.7057 17.18 5.84381 16.9733 6.01792 16.7992C6.19203 16.6251 6.39873 16.487 6.62622 16.3927C6.8537 16.2985 7.09752 16.25 7.34375 16.25C7.58998 16.25 7.8338 16.2985 8.06128 16.3927C8.28877 16.487 8.49547 16.6251 8.66958 16.7992C8.84369 16.9733 8.9818 17.18 9.07602 17.4075C9.17025 17.635 9.21875 17.8788 9.21875 18.125C9.21875 18.3712 9.17025 18.615 9.07602 18.8425C8.9818 19.07 8.84369 19.2767 8.66958 19.4508C8.49547 19.6249 8.28877 19.763 8.06128 19.8573C7.8338 19.9515 7.58998 20 7.34375 20C7.09752 20 6.8537 19.9515 6.62622 19.8573C6.39873 19.763 6.19203 19.6249 6.01792 19.4508C5.84381 19.2767 5.7057 19.07 5.61148 18.8425C5.51725 18.615 5.46875 18.3712 5.46875 18.125ZM18.5938 16.25C19.091 16.25 19.5679 16.4475 19.9196 16.7992C20.2712 17.1508 20.4688 17.6277 20.4688 18.125C20.4688 18.6223 20.2712 19.0992 19.9196 19.4508C19.5679 19.8025 19.091 20 18.5938 20C18.0965 20 17.6196 19.8025 17.2679 19.4508C16.9163 19.0992 16.7188 18.6223 16.7188 18.125C16.7188 17.6277 16.9163 17.1508 17.2679 16.7992C17.6196 16.4475 18.0965 16.25 18.5938 16.25Z" fill="#6B7280"/>
</g>
<defs>
<clipPath id="clip0_60_4262">
<path d="M0.46875 0H22.9688V20H0.46875V0Z" fill="white"/>
</clipPath>
</defs>
</svg>
