<svg width="19" height="20" viewBox="0 0 19 20" fill="none" xmlns="http://www.w3.org/2000/svg">
<g clip-path="url(#clip0_60_4251)">
<path d="M6.875 4.375C6.875 2.99609 7.99609 1.875 9.375 1.875C10.7539 1.875 11.875 2.99609 11.875 4.375V6.25H6.875V4.375ZM5 6.25H2.5C1.46484 6.25 0.625 7.08984 0.625 8.125V16.25C0.625 18.3203 2.30469 20 4.375 20H14.375C16.4453 20 18.125 18.3203 18.125 16.25V8.125C18.125 7.08984 17.2852 6.25 16.25 6.25H13.75V4.375C13.75 1.95703 11.793 0 9.375 0C6.95703 0 5 1.95703 5 4.375V6.25ZM5.9375 8.125C6.18614 8.125 6.4246 8.22377 6.60041 8.39959C6.77623 8.5754 6.875 8.81386 6.875 9.0625C6.875 9.31114 6.77623 9.5496 6.60041 9.72541C6.4246 9.90123 6.18614 10 5.9375 10C5.68886 10 5.4504 9.90123 5.27459 9.72541C5.09877 9.5496 5 9.31114 5 9.0625C5 8.81386 5.09877 8.5754 5.27459 8.39959C5.4504 8.22377 5.68886 8.125 5.9375 8.125ZM11.875 9.0625C11.875 8.81386 11.9738 8.5754 12.1496 8.39959C12.3254 8.22377 12.5639 8.125 12.8125 8.125C13.0611 8.125 13.2996 8.22377 13.4754 8.39959C13.6512 8.5754 13.75 8.81386 13.75 9.0625C13.75 9.31114 13.6512 9.5496 13.4754 9.72541C13.2996 9.90123 13.0611 10 12.8125 10C12.5639 10 12.3254 9.90123 12.1496 9.72541C11.9738 9.5496 11.875 9.31114 11.875 9.0625Z" fill="#6B7280"/>
</g>
<defs>
<clipPath id="clip0_60_4251">
<path d="M0.625 0H18.125V20H0.625V0Z" fill="white"/>
</clipPath>
</defs>
</svg>
