<svg width="19" height="16" viewBox="0 0 19 16" fill="none" xmlns="http://www.w3.org/2000/svg">
<g clip-path="url(#clip0_60_6082)">
<path d="M0.90625 0.75C0.90625 0.334375 1.24062 0 1.65625 0H3.07812C3.76562 0 4.375 0.4 4.65937 1H17.5031C18.325 1 18.925 1.78125 18.7094 2.575L17.4281 7.33437C17.1625 8.31563 16.2719 9 15.2563 9H6.24062L6.40938 9.89062C6.47813 10.2437 6.7875 10.5 7.14687 10.5H16.1562C16.5719 10.5 16.9062 10.8344 16.9062 11.25C16.9062 11.6656 16.5719 12 16.1562 12H7.14687C6.06563 12 5.1375 11.2312 4.9375 10.1719L3.325 1.70312C3.30313 1.58438 3.2 1.5 3.07812 1.5H1.65625C1.24062 1.5 0.90625 1.16562 0.90625 0.75ZM4.90625 14.5C4.90625 14.303 4.94505 14.108 5.02043 13.926C5.09581 13.744 5.2063 13.5786 5.34559 13.4393C5.48488 13.3001 5.65024 13.1896 5.83222 13.1142C6.01421 13.0388 6.20927 13 6.40625 13C6.60323 13 6.79829 13.0388 6.98028 13.1142C7.16226 13.1896 7.32762 13.3001 7.46691 13.4393C7.6062 13.5786 7.71669 13.744 7.79207 13.926C7.86745 14.108 7.90625 14.303 7.90625 14.5C7.90625 14.697 7.86745 14.892 7.79207 15.074C7.71669 15.256 7.6062 15.4214 7.46691 15.5607C7.32762 15.6999 7.16226 15.8104 6.98028 15.8858C6.79829 15.9612 6.60323 16 6.40625 16C6.20927 16 6.01421 15.9612 5.83222 15.8858C5.65024 15.8104 5.48488 15.6999 5.34559 15.5607C5.2063 15.4214 5.09581 15.256 5.02043 15.074C4.94505 14.892 4.90625 14.697 4.90625 14.5ZM15.4062 13C15.8041 13 16.1856 13.158 16.4669 13.4393C16.7482 13.7206 16.9062 14.1022 16.9062 14.5C16.9062 14.8978 16.7482 15.2794 16.4669 15.5607C16.1856 15.842 15.8041 16 15.4062 16C15.0084 16 14.6269 15.842 14.3456 15.5607C14.0643 15.2794 13.9062 14.8978 13.9062 14.5C13.9062 14.1022 14.0643 13.7206 14.3456 13.4393C14.6269 13.158 15.0084 13 15.4062 13ZM8.78125 5C8.78125 5.34375 9.0625 5.625 9.40625 5.625H10.7812V7C10.7812 7.34375 11.0625 7.625 11.4062 7.625C11.75 7.625 12.0312 7.34375 12.0312 7V5.625H13.4062C13.75 5.625 14.0312 5.34375 14.0312 5C14.0312 4.65625 13.75 4.375 13.4062 4.375H12.0312V3C12.0312 2.65625 11.75 2.375 11.4062 2.375C11.0625 2.375 10.7812 2.65625 10.7812 3V4.375H9.40625C9.0625 4.375 8.78125 4.65625 8.78125 5Z" fill="#00555A"/>
</g>
<defs>
<clipPath id="clip0_60_6082">
<path d="M0.90625 0H18.9062V16H0.90625V0Z" fill="white"/>
</clipPath>
</defs>
</svg>
