<svg width="17" height="16" viewBox="0 0 17 16" fill="none" xmlns="http://www.w3.org/2000/svg">
<g clip-path="url(#clip0_60_3478)">
<path d="M13.4 1.07497C13.775 0.91872 14.2031 1.00622 14.4906 1.29059L16.4906 3.29059C16.6781 3.47809 16.7844 3.73122 16.7844 3.99684C16.7844 4.26247 16.6781 4.51559 16.4906 4.70309L14.4906 6.70309C14.2031 6.99059 13.775 7.07497 13.4 6.91872C13.025 6.76247 12.7812 6.39997 12.7812 5.99372V4.99997H11.7812C11.4656 4.99997 11.1687 5.14684 10.9812 5.39997L9.65625 7.16559L8.40625 5.49997L9.38125 4.19997C9.94688 3.44372 10.8375 2.99997 11.7812 2.99997H12.7812V1.99997C12.7812 1.59684 13.025 1.23122 13.4 1.07497ZM5.90625 8.83434L7.15625 10.5L6.18125 11.8C5.61562 12.5562 4.725 13 3.78125 13H1.78125C1.22812 13 0.78125 12.5531 0.78125 12C0.78125 11.4468 1.22812 11 1.78125 11H3.78125C4.09687 11 4.39375 10.8531 4.58125 10.6L5.90625 8.83434ZM14.4875 14.7093C14.2 14.9968 13.7719 15.0812 13.3969 14.925C13.0219 14.7687 12.7781 14.4062 12.7781 14V13H11.7812C10.8375 13 9.94688 12.5562 9.38125 11.8L4.58125 5.39997C4.39375 5.14684 4.09687 4.99997 3.78125 4.99997H1.78125C1.22812 4.99997 0.78125 4.55309 0.78125 3.99997C0.78125 3.44684 1.22812 2.99997 1.78125 2.99997H3.78125C4.725 2.99997 5.61562 3.44372 6.18125 4.19997L10.9812 10.6C11.1687 10.8531 11.4656 11 11.7812 11H12.7812V9.99997C12.7812 9.59684 13.025 9.23122 13.4 9.07497C13.775 8.91872 14.2031 9.00622 14.4906 9.29059L16.4906 11.2906C16.6781 11.4781 16.7844 11.7312 16.7844 11.9968C16.7844 12.2625 16.6781 12.5156 16.4906 12.7031L14.4906 14.7031L14.4875 14.7093Z" fill="#4B5563"/>
</g>
<defs>
<clipPath id="clip0_60_3478">
<path d="M0.78125 0H16.7812V16H0.78125V0Z" fill="white"/>
</clipPath>
</defs>
</svg>
