<svg width="17" height="16" viewBox="0 0 17 16" fill="none" xmlns="http://www.w3.org/2000/svg">
<g clip-path="url(#clip0_60_3585)">
<path d="M2.15625 13.7687C1.85938 14.0156 1.44375 14.0719 1.09062 13.9062C0.7375 13.7406 0.515625 13.3875 0.515625 13V3C0.515625 2.6125 0.740625 2.25937 1.09062 2.09375C1.44062 1.92812 1.85625 1.98125 2.15625 2.23125L7.51562 6.69687V8V9.30312L2.15625 13.7687ZM8.51562 11V8V4V3C8.51562 2.6125 8.74062 2.25937 9.09062 2.09375C9.44063 1.92812 9.85625 1.98125 10.1562 2.23125L16.1562 7.23125C16.3844 7.42187 16.5156 7.70312 16.5156 8C16.5156 8.29687 16.3844 8.57812 16.1562 8.76875L10.1562 13.7687C9.85938 14.0156 9.44375 14.0719 9.09062 13.9062C8.7375 13.7406 8.51562 13.3875 8.51562 13V11Z" fill="#4B5563"/>
</g>
<defs>
<clipPath id="clip0_60_3585">
<path d="M0.515625 0H16.5156V16H0.515625V0Z" fill="white"/>
</clipPath>
</defs>
</svg>
