<svg width="35" height="31" viewBox="0 0 35 31" fill="none" xmlns="http://www.w3.org/2000/svg">
<g clip-path="url(#clip0_361_315)">
<path d="M16.2793 1.05518C17.1523 0.650879 18.1602 0.650879 19.0332 1.05518L31.8418 6.97314C32.3398 7.20166 32.6562 7.69971 32.6562 8.25049C32.6562 8.80127 32.3398 9.29932 31.8418 9.52783L19.0332 15.4458C18.1602 15.8501 17.1523 15.8501 16.2793 15.4458L3.4707 9.52783C2.97266 9.29346 2.65625 8.79541 2.65625 8.25049C2.65625 7.70557 2.97266 7.20166 3.4707 6.97314L16.2793 1.05518ZM28.7246 13.0317L31.8418 14.4731C32.3398 14.7017 32.6562 15.1997 32.6562 15.7505C32.6562 16.3013 32.3398 16.7993 31.8418 17.0278L19.0332 22.9458C18.1602 23.3501 17.1523 23.3501 16.2793 22.9458L3.4707 17.0278C2.97266 16.7935 2.65625 16.2954 2.65625 15.7505C2.65625 15.2056 2.97266 14.7017 3.4707 14.4731L6.58789 13.0317L15.4941 17.145C16.8652 17.7778 18.4473 17.7778 19.8184 17.145L28.7246 13.0317ZM19.8184 24.645L28.7246 20.5317L31.8418 21.9731C32.3398 22.2017 32.6562 22.6997 32.6562 23.2505C32.6562 23.8013 32.3398 24.2993 31.8418 24.5278L19.0332 30.4458C18.1602 30.8501 17.1523 30.8501 16.2793 30.4458L3.4707 24.5278C2.97266 24.2935 2.65625 23.7954 2.65625 23.2505C2.65625 22.7056 2.97266 22.2017 3.4707 21.9731L6.58789 20.5317L15.4941 24.645C16.8652 25.2778 18.4473 25.2778 19.8184 24.645Z" fill="#4A7C59"/>
</g>
<defs>
<clipPath id="clip0_361_315">
<path d="M0.78125 0.75H34.5312V30.75H0.78125V0.75Z" fill="white"/>
</clipPath>
</defs>
</svg>
