<svg width="21" height="16" viewBox="0 0 21 16" fill="none" xmlns="http://www.w3.org/2000/svg">
<g clip-path="url(#clip0_60_6079)">
<g clip-path="url(#clip1_60_6079)">
<path d="M10.9217 11.7625L10.9248 11.7594L11.7498 12.2L14.4123 13.6219L13.8967 10.5719L13.7467 9.675L14.3936 9.03438L16.5842 6.86875L13.5811 6.425L12.6654 6.29063L12.2623 5.45937L10.9248 2.71563L10.9217 2.725V11.7625ZM16.3936 14.8344C16.4561 15.2094 16.2998 15.5906 15.9904 15.8125C15.6811 16.0344 15.2717 16.0625 14.9342 15.8844L10.9248 13.7437L6.91543 15.8844C6.57793 16.0625 6.16856 16.0344 5.85918 15.8125C5.54981 15.5906 5.39356 15.2094 5.45606 14.8344L6.22793 10.2812L2.97168 7.05937C2.70293 6.79375 2.60606 6.39687 2.72481 6.0375C2.84356 5.67812 3.15293 5.41563 3.52793 5.35938L8.01543 4.69688L10.0279 0.5625C10.1967 0.21875 10.5436 0 10.9279 0C11.3123 0 11.6592 0.21875 11.8279 0.5625L13.8373 4.69688L18.3248 5.35938C18.6998 5.41563 19.0123 5.67812 19.1279 6.0375C19.2436 6.39687 19.1498 6.79375 18.8811 7.05937L15.6248 10.2812L16.3936 14.8344Z" fill="#FBBF24"/>
</g>
</g>
<defs>
<clipPath id="clip0_60_6079">
<rect width="20" height="16" fill="white" transform="translate(0.921875)"/>
</clipPath>
<clipPath id="clip1_60_6079">
<path d="M0.921875 0H20.9219V16H0.921875V0Z" fill="white"/>
</clipPath>
</defs>
</svg>
