<svg width="23" height="20" viewBox="0 0 23 20" fill="none" xmlns="http://www.w3.org/2000/svg">
<g clip-path="url(#clip0_60_4245)">
<g clip-path="url(#clip1_60_4245)">
<path d="M21.5002 4.05469L19.2619 0.511719C19.0627 0.195312 18.7072 0 18.3283 0H4.39078C4.01188 0 3.65641 0.195312 3.45719 0.511719L1.215 4.05469C0.0587515 5.88281 1.08219 8.42578 3.24235 8.71875C3.3986 8.73828 3.55875 8.75 3.715 8.75C4.73453 8.75 5.64078 8.30469 6.26188 7.61719C6.88297 8.30469 7.78922 8.75 8.80875 8.75C9.82828 8.75 10.7345 8.30469 11.3556 7.61719C11.9767 8.30469 12.883 8.75 13.9025 8.75C14.9259 8.75 15.8283 8.30469 16.4494 7.61719C17.0744 8.30469 17.9767 8.75 18.9963 8.75C19.1564 8.75 19.3127 8.73828 19.4689 8.71875C21.6369 8.42969 22.6642 5.88672 21.5041 4.05469H21.5002ZM19.6291 9.95703H19.6252C19.4181 9.98438 19.2072 10 18.9923 10C18.508 10 18.0431 9.92578 17.6095 9.79297V15H5.10953V9.78906C4.67203 9.92578 4.20328 10 3.71891 10C3.50406 10 3.28922 9.98438 3.08219 9.95703H3.07828C2.91813 9.93359 2.76188 9.90625 2.60953 9.86719V15V17.5C2.60953 18.8789 3.73063 20 5.10953 20H17.6095C18.9884 20 20.1095 18.8789 20.1095 17.5V15V9.86719C19.9533 9.90625 19.797 9.9375 19.6291 9.95703Z" fill="#2563EB"/>
</g>
</g>
<defs>
<clipPath id="clip0_60_4245">
<rect width="22.5" height="20" fill="white" transform="translate(0.109375)"/>
</clipPath>
<clipPath id="clip1_60_4245">
<path d="M0.109375 0H22.6094V20H0.109375V0Z" fill="white"/>
</clipPath>
</defs>
</svg>
