<svg width="19" height="17" viewBox="0 0 19 17" fill="none" xmlns="http://www.w3.org/2000/svg">
<path d="M17.3654 7.73132V14.6491C17.3654 15.1277 17.1937 15.5373 16.8502 15.8782C16.5068 16.219 16.0939 16.3894 15.6116 16.3894H3.33475C2.85245 16.3894 2.43957 16.219 2.09611 15.8782C1.75265 15.5373 1.58092 15.1277 1.58092 14.6491V7.73132C1.24477 7.42677 0.985347 7.0352 0.802656 6.55661C0.619965 6.07802 0.616311 5.55593 0.791695 4.99033L1.71246 2.0318C1.82938 1.65473 2.03765 1.34292 2.33726 1.09638C2.63687 0.849835 2.98399 0.726562 3.3786 0.726562H15.5677C15.9624 0.726562 16.3058 0.846209 16.5981 1.0855C16.8904 1.32479 17.1024 1.64023 17.2339 2.0318L18.1547 4.99033C18.33 5.55593 18.3264 6.07077 18.1437 6.53486C17.961 6.99894 17.7016 7.39776 17.3654 7.73132ZM11.4024 6.81766C11.797 6.81766 12.0966 6.68351 12.3012 6.41521C12.5058 6.14691 12.5862 5.84598 12.5424 5.51242L12.0601 2.46688H10.3501V5.68645C10.3501 5.99101 10.4524 6.25568 10.657 6.48047C10.8616 6.70526 11.1101 6.81766 11.4024 6.81766ZM7.45627 6.81766C7.79242 6.81766 8.06645 6.70526 8.27838 6.48047C8.4903 6.25568 8.59626 5.99101 8.59626 5.68645V2.46688H6.88627L6.40396 5.51242C6.3455 5.86049 6.42223 6.16504 6.63416 6.42609C6.84608 6.68713 7.12011 6.81766 7.45627 6.81766ZM3.55398 6.81766C3.81706 6.81766 4.04725 6.72339 4.24456 6.53486C4.44186 6.34632 4.56244 6.10703 4.60628 5.81698L5.08859 2.46688H3.3786L2.50168 5.3819C2.41399 5.67195 2.46149 5.98376 2.64418 6.31732C2.82687 6.65088 3.13014 6.81766 3.55398 6.81766ZM15.3924 6.81766C15.8162 6.81766 16.1231 6.65088 16.3131 6.31732C16.5031 5.98376 16.547 5.67195 16.4447 5.3819L15.5239 2.46688H13.8578L14.3401 5.81698C14.3839 6.10703 14.5045 6.34632 14.7018 6.53486C14.8991 6.72339 15.1293 6.81766 15.3924 6.81766Z" fill="#374151"/>
</svg>
