<svg width="26" height="20" viewBox="0 0 26 20" fill="none" xmlns="http://www.w3.org/2000/svg">
<g clip-path="url(#clip0_60_4256)">
<path d="M1.70312 7.5H23.8281C24.6211 7.5 25.2656 6.85547 25.2656 6.0625C25.2656 5.77734 25.1797 5.5 25.0234 5.26562L22.0703 0.835938C21.7227 0.3125 21.1406 0 20.5117 0H5.01953C4.39453 0 3.80859 0.3125 3.46094 0.835938L0.507812 5.26172C0.351562 5.5 0.265625 5.77734 0.265625 6.05859C0.265625 6.85547 0.910156 7.5 1.70312 7.5ZM2.76562 8.75V15V18.125C2.76562 19.1602 3.60547 20 4.64062 20H13.3906C14.4258 20 15.2656 19.1602 15.2656 18.125V15V8.75H12.7656V15H5.26562V8.75H2.76562ZM20.2656 8.75V18.75C20.2656 19.4414 20.8242 20 21.5156 20C22.207 20 22.7656 19.4414 22.7656 18.75V8.75H20.2656Z" fill="#6B7280"/>
</g>
<defs>
<clipPath id="clip0_60_4256">
<path d="M0.265625 0H25.2656V20H0.265625V0Z" fill="white"/>
</clipPath>
</defs>
</svg>
