<svg width="14" height="14" viewBox="0 0 14 14" fill="none" xmlns="http://www.w3.org/2000/svg">
<path d="M0 1.50079V6.17267C0 6.70392 0.209375 7.21329 0.584375 7.58829L6.08437 13.0883C6.86562 13.8695 8.13125 13.8695 8.9125 13.0883L13.0844 8.91642C13.8656 8.13517 13.8656 6.86954 13.0844 6.08829L7.58437 0.588292C7.20937 0.213292 6.7 0.00391711 6.16875 0.00391711H1.5C0.671875 0.000792107 0 0.672667 0 1.50079ZM3.5 2.50079C3.76522 2.50079 4.01957 2.60615 4.20711 2.79369C4.39464 2.98122 4.5 3.23558 4.5 3.50079C4.5 3.76601 4.39464 4.02036 4.20711 4.2079C4.01957 4.39543 3.76522 4.50079 3.5 4.50079C3.23478 4.50079 2.98043 4.39543 2.79289 4.2079C2.60536 4.02036 2.5 3.76601 2.5 3.50079C2.5 3.23558 2.60536 2.98122 2.79289 2.79369C2.98043 2.60615 3.23478 2.50079 3.5 2.50079Z" fill="#EF4444"/>
</svg>
