<svg width="13" height="15" viewBox="0 0 13 15" fill="none" xmlns="http://www.w3.org/2000/svg">
<g clip-path="url(#clip0_298_1357)">
<path d="M3.69687 1.23398C3.84453 0.935938 4.14805 0.75 4.47891 0.75H7.77109C8.10195 0.75 8.40547 0.935938 8.55312 1.23398L8.75 1.625H11.375C11.859 1.625 12.25 2.01602 12.25 2.5C12.25 2.98398 11.859 3.375 11.375 3.375H0.875C0.391016 3.375 0 2.98398 0 2.5C0 2.01602 0.391016 1.625 0.875 1.625H3.5L3.69687 1.23398ZM0.875 4.25H11.375V13C11.375 13.9652 10.5902 14.75 9.625 14.75H2.625C1.65977 14.75 0.875 13.9652 0.875 13V4.25ZM3.5 6C3.25938 6 3.0625 6.19688 3.0625 6.4375V12.5625C3.0625 12.8031 3.25938 13 3.5 13C3.74062 13 3.9375 12.8031 3.9375 12.5625V6.4375C3.9375 6.19688 3.74062 6 3.5 6ZM6.125 6C5.88438 6 5.6875 6.19688 5.6875 6.4375V12.5625C5.6875 12.8031 5.88438 13 6.125 13C6.36562 13 6.5625 12.8031 6.5625 12.5625V6.4375C6.5625 6.19688 6.36562 6 6.125 6ZM8.75 6C8.50937 6 8.3125 6.19688 8.3125 6.4375V12.5625C8.3125 12.8031 8.50937 13 8.75 13C8.99063 13 9.1875 12.8031 9.1875 12.5625V6.4375C9.1875 6.19688 8.99063 6 8.75 6Z" fill="#006D5B"/>
</g>
<defs>
<clipPath id="clip0_298_1357">
<path d="M0 0.75H12.25V14.75H0V0.75Z" fill="white"/>
</clipPath>
</defs>
</svg>
