<svg width="11" height="12" viewBox="0 0 11 12" fill="none" xmlns="http://www.w3.org/2000/svg">
<g clip-path="url(#clip0_60_3118)">
<g clip-path="url(#clip1_60_3118)">
<path d="M3.66875 0.414844L3.5 0.75H1.25C0.835156 0.75 0.5 1.08516 0.5 1.5C0.5 1.91484 0.835156 2.25 1.25 2.25H10.25C10.6648 2.25 11 1.91484 11 1.5C11 1.08516 10.6648 0.75 10.25 0.75H8L7.83125 0.414844C7.70469 0.159375 7.44453 0 7.16094 0H4.33906C4.05547 0 3.79531 0.159375 3.66875 0.414844ZM10.25 3H1.25L1.74688 10.9453C1.78438 11.5383 2.27656 12 2.86953 12H8.63047C9.22344 12 9.71562 11.5383 9.75312 10.9453L10.25 3Z" fill="#9CA3AF"/>
</g>
</g>
<defs>
<clipPath id="clip0_60_3118">
<rect width="10.5" height="12" fill="white" transform="translate(0.5)"/>
</clipPath>
<clipPath id="clip1_60_3118">
<path d="M0.5 0H11V12H0.5V0Z" fill="white"/>
</clipPath>
</defs>
</svg>
