<svg width="14" height="16" viewBox="0 0 14 16" fill="none" xmlns="http://www.w3.org/2000/svg">
<g clip-path="url(#clip0_361_374)">
<path d="M6.58125 0.184375L1.9375 5.29375C1.81562 5.425 1.75 5.6 1.75 5.77812C1.75 6.17812 2.07187 6.5 2.47187 6.5H3.25L0.95625 8.79375C0.825 8.925 0.75 9.10625 0.75 9.29375C0.75 9.68437 1.06562 10 1.45625 10H2.5L0.16875 12.7969C0.059375 12.9281 0 13.0938 0 13.2656C0 13.6719 0.328125 14 0.734375 14H6V15C6 15.5531 6.44687 16 7 16C7.55313 16 8 15.5531 8 15V14H13.2656C13.6719 14 14 13.6719 14 13.2656C14 13.0938 13.9406 12.9281 13.8313 12.7969L11.5 10H12.5437C12.9344 10 13.25 9.68437 13.25 9.29375C13.25 9.10625 13.175 8.925 13.0437 8.79375L10.75 6.5H11.5281C11.925 6.5 12.25 6.17812 12.25 5.77812C12.25 5.6 12.1844 5.425 12.0625 5.29375L7.41875 0.184375C7.3125 0.065625 7.15937 0 7 0C6.84063 0 6.6875 0.065625 6.58125 0.184375Z" fill="#4A7C59"/>
</g>
<defs>
<clipPath id="clip0_361_374">
<path d="M0 0H14V16H0V0Z" fill="white"/>
</clipPath>
</defs>
</svg>
