<svg width="14" height="16" viewBox="0 0 14 16" fill="none" xmlns="http://www.w3.org/2000/svg">
<g clip-path="url(#clip0_57_1608)">
<path d="M0.5 2C0.5 1.44687 0.946875 1 1.5 1H4.5C5.05312 1 5.5 1.44687 5.5 2C5.5 2.55313 5.05312 3 4.5 3H4V7C4 8.65625 5.34375 10 7 10C8.65625 10 10 8.65625 10 7V3H9.5C8.94687 3 8.5 2.55313 8.5 2C8.5 1.44687 8.94687 1 9.5 1H12.5C13.0531 1 13.5 1.44687 13.5 2C13.5 2.55313 13.0531 3 12.5 3H12V7C12 9.7625 9.7625 12 7 12C4.2375 12 2 9.7625 2 7V3H1.5C0.946875 3 0.5 2.55313 0.5 2ZM0 14C0 13.4469 0.446875 13 1 13H13C13.5531 13 14 13.4469 14 14C14 14.5531 13.5531 15 13 15H1C0.446875 15 0 14.5531 0 14Z" fill="#4B5563"/>
</g>
<defs>
<clipPath id="clip0_57_1608">
<rect width="14" height="16" fill="white"/>
</clipPath>
</defs>
</svg>
