<svg width="15" height="14" viewBox="0 0 15 14" fill="none" xmlns="http://www.w3.org/2000/svg">
<g clip-path="url(#clip0_60_5915)">
<g clip-path="url(#clip1_60_5915)">
<path d="M8.51562 0.875C8.51562 0.391016 8.12461 0 7.64062 0C7.15664 0 6.76562 0.391016 6.76562 0.875V7.51133L4.75859 5.5043C4.4168 5.1625 3.86172 5.1625 3.51992 5.5043C3.17813 5.84609 3.17813 6.40117 3.51992 6.74297L7.01992 10.243C7.36172 10.5848 7.9168 10.5848 8.25859 10.243L11.7586 6.74297C12.1004 6.40117 12.1004 5.84609 11.7586 5.5043C11.4168 5.1625 10.8617 5.1625 10.5199 5.5043L8.51562 7.51133V0.875ZM2.39062 9.625C1.42539 9.625 0.640625 10.4098 0.640625 11.375V12.25C0.640625 13.2152 1.42539 14 2.39062 14H12.8906C13.8559 14 14.6406 13.2152 14.6406 12.25V11.375C14.6406 10.4098 13.8559 9.625 12.8906 9.625H10.1152L8.87656 10.8637C8.19297 11.5473 7.08555 11.5473 6.40195 10.8637L5.16602 9.625H2.39062ZM12.4531 11.1562C12.6272 11.1562 12.7941 11.2254 12.9172 11.3485C13.0402 11.4715 13.1094 11.6385 13.1094 11.8125C13.1094 11.9865 13.0402 12.1535 12.9172 12.2765C12.7941 12.3996 12.6272 12.4688 12.4531 12.4688C12.2791 12.4688 12.1122 12.3996 11.9891 12.2765C11.866 12.1535 11.7969 11.9865 11.7969 11.8125C11.7969 11.6385 11.866 11.4715 11.9891 11.3485C12.1122 11.2254 12.2791 11.1562 12.4531 11.1562Z" fill="#6B7280"/>
</g>
</g>
<defs>
<clipPath id="clip0_60_5915">
<rect width="14" height="14" fill="white" transform="translate(0.640625)"/>
</clipPath>
<clipPath id="clip1_60_5915">
<path d="M0.640625 0H14.6406V14H0.640625V0Z" fill="white"/>
</clipPath>
</defs>
</svg>
