<svg width="726" height="80" viewBox="0 0 726 80" fill="none" xmlns="http://www.w3.org/2000/svg">
<path d="M40 1C61.5391 1 79 18.4609 79 40C79 61.5391 61.5391 79 40 79C18.4609 79 1 61.5391 1 40C1 18.4609 18.4609 1 40 1Z" fill="#DBEAFE"/>
<path d="M40 1C61.5391 1 79 18.4609 79 40C79 61.5391 61.5391 79 40 79C18.4609 79 1 61.5391 1 40C1 18.4609 18.4609 1 40 1Z" stroke="#BFDBFE" stroke-width="2"/>
<path d="M55 55H25V25H55V55Z" stroke="#E5E7EB"/>
<g clip-path="url(#clip0_48_89)">
<path d="M35.7812 25C37.5918 25 39.0625 26.4707 39.0625 28.2812V51.7188C39.0625 53.5293 37.5918 55 35.7812 55C34.0879 55 32.6934 53.7168 32.5176 52.0645C32.2129 52.1465 31.8906 52.1875 31.5625 52.1875C29.4941 52.1875 27.8125 50.5059 27.8125 48.4375C27.8125 48.0039 27.8887 47.582 28.0234 47.1953C26.2539 46.5273 25 44.8164 25 42.8125C25 40.9434 26.0957 39.3262 27.6836 38.5762C27.1738 37.9375 26.875 37.1289 26.875 36.25C26.875 34.4512 28.1406 32.9512 29.8281 32.582C29.7344 32.2598 29.6875 31.9141 29.6875 31.5625C29.6875 29.8105 30.8945 28.334 32.5176 27.9238C32.6934 26.2832 34.0879 25 35.7812 25ZM44.2188 25C45.9121 25 47.3008 26.2832 47.4824 27.9238C49.1113 28.334 50.3125 29.8047 50.3125 31.5625C50.3125 31.9141 50.2656 32.2598 50.1719 32.582C51.8594 32.9453 53.125 34.4512 53.125 36.25C53.125 37.1289 52.8262 37.9375 52.3164 38.5762C53.9043 39.3262 55 40.9434 55 42.8125C55 44.8164 53.7461 46.5273 51.9766 47.1953C52.1113 47.582 52.1875 48.0039 52.1875 48.4375C52.1875 50.5059 50.5059 52.1875 48.4375 52.1875C48.1094 52.1875 47.7871 52.1465 47.4824 52.0645C47.3066 53.7168 45.9121 55 44.2188 55C42.4082 55 40.9375 53.5293 40.9375 51.7188V28.2812C40.9375 26.4707 42.4082 25 44.2188 25Z" fill="#60A5FA"/>
</g>
<path d="M265.234 71H100V9H265.234V71Z" stroke="#E5E7EB"/>
<path d="M108 9.5H257.234C261.377 9.5 264.734 12.8579 264.734 17V43C264.734 47.1421 261.377 50.5 257.234 50.5H108C103.858 50.5 100.5 47.1421 100.5 43V17C100.5 12.8579 103.858 9.5 108 9.5Z" fill="white"/>
<path d="M108 9.5H257.234C261.377 9.5 264.734 12.8579 264.734 17V43C264.734 47.1421 261.377 50.5 257.234 50.5H108C103.858 50.5 100.5 47.1421 100.5 43V17C100.5 12.8579 103.858 9.5 108 9.5Z" stroke="#D1D5DB"/>
<path d="M150.335 23.3636H151.744V31.0682C151.744 31.8636 151.556 32.5739 151.181 33.1989C150.81 33.8201 150.285 34.3106 149.607 34.6705C148.929 35.0265 148.134 35.2045 147.221 35.2045C146.308 35.2045 145.513 35.0265 144.835 34.6705C144.156 34.3106 143.63 33.8201 143.255 33.1989C142.884 32.5739 142.698 31.8636 142.698 31.0682V23.3636H144.107V30.9545C144.107 31.5227 144.232 32.0284 144.482 32.4716C144.732 32.911 145.088 33.2576 145.55 33.5114C146.016 33.7614 146.573 33.8864 147.221 33.8864C147.869 33.8864 148.425 33.7614 148.891 33.5114C149.357 33.2576 149.713 32.911 149.96 32.4716C150.21 32.0284 150.335 31.5227 150.335 30.9545V23.3636ZM154.376 38.2727V26.2727H155.671V27.6591H155.83C155.929 27.5076 156.065 27.3144 156.239 27.0795C156.417 26.8409 156.671 26.6288 157.001 26.4432C157.334 26.2538 157.785 26.1591 158.353 26.1591C159.088 26.1591 159.736 26.3428 160.296 26.7102C160.857 27.0777 161.294 27.5985 161.609 28.2727C161.923 28.947 162.08 29.7424 162.08 30.6591C162.08 31.5833 161.923 32.3845 161.609 33.0625C161.294 33.7367 160.859 34.2595 160.302 34.6307C159.745 34.9981 159.103 35.1818 158.376 35.1818C157.815 35.1818 157.366 35.089 157.029 34.9034C156.692 34.714 156.433 34.5 156.251 34.2614C156.069 34.0189 155.929 33.8182 155.83 33.6591H155.717V38.2727H154.376ZM155.694 30.6364C155.694 31.2955 155.79 31.8769 155.984 32.3807C156.177 32.8807 156.459 33.2727 156.83 33.5568C157.201 33.8371 157.656 33.9773 158.194 33.9773C158.754 33.9773 159.222 33.8295 159.597 33.5341C159.976 33.2348 160.26 32.8333 160.45 32.3295C160.643 31.822 160.739 31.2576 160.739 30.6364C160.739 30.0227 160.645 29.4697 160.455 28.9773C160.27 28.4811 159.987 28.089 159.609 27.8011C159.234 27.5095 158.762 27.3636 158.194 27.3636C157.648 27.3636 157.19 27.5019 156.819 27.7784C156.448 28.0511 156.167 28.4337 155.978 28.9261C155.789 29.4148 155.694 29.9848 155.694 30.6364ZM165.467 23.3636V35H164.126V23.3636H165.467ZM171.468 35.1818C170.68 35.1818 169.989 34.9943 169.394 34.6193C168.803 34.2443 168.341 33.7197 168.008 33.0455C167.678 32.3712 167.513 31.5833 167.513 30.6818C167.513 29.7727 167.678 28.9792 168.008 28.3011C168.341 27.6231 168.803 27.0966 169.394 26.7216C169.989 26.3466 170.68 26.1591 171.468 26.1591C172.256 26.1591 172.945 26.3466 173.536 26.7216C174.131 27.0966 174.593 27.6231 174.923 28.3011C175.256 28.9792 175.423 29.7727 175.423 30.6818C175.423 31.5833 175.256 32.3712 174.923 33.0455C174.593 33.7197 174.131 34.2443 173.536 34.6193C172.945 34.9943 172.256 35.1818 171.468 35.1818ZM171.468 33.9773C172.067 33.9773 172.559 33.8239 172.945 33.517C173.332 33.2102 173.618 32.8068 173.803 32.3068C173.989 31.8068 174.082 31.2652 174.082 30.6818C174.082 30.0985 173.989 29.5549 173.803 29.0511C173.618 28.5473 173.332 28.1402 172.945 27.8295C172.559 27.5189 172.067 27.3636 171.468 27.3636C170.87 27.3636 170.377 27.5189 169.991 27.8295C169.604 28.1402 169.318 28.5473 169.133 29.0511C168.947 29.5549 168.854 30.0985 168.854 30.6818C168.854 31.2652 168.947 31.8068 169.133 32.3068C169.318 32.8068 169.604 33.2102 169.991 33.517C170.377 33.8239 170.87 33.9773 171.468 33.9773ZM180.038 35.2045C179.485 35.2045 178.983 35.1004 178.532 34.892C178.081 34.6799 177.723 34.375 177.458 33.9773C177.193 33.5758 177.06 33.0909 177.06 32.5227C177.06 32.0227 177.159 31.6174 177.356 31.3068C177.553 30.9924 177.816 30.7462 178.146 30.5682C178.475 30.3902 178.839 30.2576 179.237 30.1705C179.638 30.0795 180.041 30.0076 180.447 29.9545C180.977 29.8864 181.407 29.8352 181.737 29.8011C182.07 29.7633 182.312 29.7008 182.464 29.6136C182.619 29.5265 182.697 29.375 182.697 29.1591V29.1136C182.697 28.553 182.543 28.1174 182.237 27.8068C181.933 27.4962 181.473 27.3409 180.856 27.3409C180.216 27.3409 179.714 27.4811 179.35 27.7614C178.987 28.0417 178.731 28.3409 178.583 28.6591L177.31 28.2045C177.538 27.6742 177.841 27.2614 178.219 26.9659C178.602 26.6667 179.019 26.4583 179.469 26.3409C179.924 26.2197 180.371 26.1591 180.81 26.1591C181.091 26.1591 181.413 26.1932 181.776 26.2614C182.144 26.3258 182.498 26.4602 182.839 26.6648C183.183 26.8693 183.469 27.178 183.697 27.5909C183.924 28.0038 184.038 28.5568 184.038 29.25V35H182.697V33.8182H182.629C182.538 34.0076 182.386 34.2102 182.174 34.4261C181.962 34.642 181.68 34.8258 181.327 34.9773C180.975 35.1288 180.545 35.2045 180.038 35.2045ZM180.242 34C180.772 34 181.219 33.8958 181.583 33.6875C181.951 33.4792 182.227 33.2102 182.413 32.8807C182.602 32.5511 182.697 32.2045 182.697 31.8409V30.6136C182.64 30.6818 182.515 30.7443 182.322 30.8011C182.132 30.8542 181.913 30.9015 181.663 30.9432C181.416 30.9811 181.176 31.0152 180.941 31.0455C180.71 31.072 180.522 31.0947 180.379 31.1136C180.03 31.1591 179.704 31.233 179.401 31.3352C179.102 31.4337 178.86 31.5833 178.674 31.7841C178.492 31.9811 178.401 32.25 178.401 32.5909C178.401 33.0568 178.574 33.4091 178.918 33.6477C179.267 33.8826 179.708 34 180.242 34ZM189.781 35.1818C189.053 35.1818 188.411 34.9981 187.854 34.6307C187.298 34.2595 186.862 33.7367 186.548 33.0625C186.233 32.3845 186.076 31.5833 186.076 30.6591C186.076 29.7424 186.233 28.947 186.548 28.2727C186.862 27.5985 187.299 27.0777 187.86 26.7102C188.421 26.3428 189.068 26.1591 189.803 26.1591C190.371 26.1591 190.82 26.2538 191.15 26.4432C191.483 26.6288 191.737 26.8409 191.911 27.0795C192.089 27.3144 192.228 27.5076 192.326 27.6591H192.44V23.3636H193.781V35H192.485V33.6591H192.326C192.228 33.8182 192.087 34.0189 191.906 34.2614C191.724 34.5 191.464 34.714 191.127 34.9034C190.79 35.089 190.341 35.1818 189.781 35.1818ZM189.962 33.9773C190.5 33.9773 190.955 33.8371 191.326 33.5568C191.697 33.2727 191.979 32.8807 192.173 32.3807C192.366 31.8769 192.462 31.2955 192.462 30.6364C192.462 29.9848 192.368 29.4148 192.178 28.9261C191.989 28.4337 191.709 28.0511 191.337 27.7784C190.966 27.5019 190.508 27.3636 189.962 27.3636C189.394 27.3636 188.921 27.5095 188.542 27.8011C188.167 28.089 187.885 28.4811 187.695 28.9773C187.51 29.4697 187.417 30.0227 187.417 30.6364C187.417 31.2576 187.512 31.822 187.701 32.3295C187.894 32.8333 188.178 33.2348 188.553 33.5341C188.932 33.8295 189.402 33.9773 189.962 33.9773ZM200.923 38.2727V26.2727H202.218V27.6591H202.377C202.476 27.5076 202.612 27.3144 202.786 27.0795C202.964 26.8409 203.218 26.6288 203.548 26.4432C203.881 26.2538 204.332 26.1591 204.9 26.1591C205.635 26.1591 206.282 26.3428 206.843 26.7102C207.404 27.0777 207.841 27.5985 208.156 28.2727C208.47 28.947 208.627 29.7424 208.627 30.6591C208.627 31.5833 208.47 32.3845 208.156 33.0625C207.841 33.7367 207.406 34.2595 206.849 34.6307C206.292 34.9981 205.65 35.1818 204.923 35.1818C204.362 35.1818 203.913 35.089 203.576 34.9034C203.239 34.714 202.979 34.5 202.798 34.2614C202.616 34.0189 202.476 33.8182 202.377 33.6591H202.263V38.2727H200.923ZM202.241 30.6364C202.241 31.2955 202.337 31.8769 202.531 32.3807C202.724 32.8807 203.006 33.2727 203.377 33.5568C203.748 33.8371 204.203 33.9773 204.741 33.9773C205.301 33.9773 205.769 33.8295 206.144 33.5341C206.523 33.2348 206.807 32.8333 206.996 32.3295C207.19 31.822 207.286 31.2576 207.286 30.6364C207.286 30.0227 207.192 29.4697 207.002 28.9773C206.817 28.4811 206.534 28.089 206.156 27.8011C205.781 27.5095 205.309 27.3636 204.741 27.3636C204.195 27.3636 203.737 27.5019 203.366 27.7784C202.995 28.0511 202.714 28.4337 202.525 28.9261C202.335 29.4148 202.241 29.9848 202.241 30.6364ZM212.013 29.75V35H210.673V23.3636H212.013V27.6364H212.127C212.332 27.1856 212.638 26.8277 213.048 26.5625C213.46 26.2936 214.01 26.1591 214.695 26.1591C215.29 26.1591 215.811 26.2784 216.258 26.517C216.705 26.7519 217.051 27.1136 217.298 27.6023C217.548 28.0871 217.673 28.7045 217.673 29.4545V35H216.332V29.5455C216.332 28.8523 216.152 28.3163 215.792 27.9375C215.436 27.5549 214.942 27.3636 214.309 27.3636C213.87 27.3636 213.476 27.4564 213.127 27.642C212.782 27.8277 212.51 28.0985 212.309 28.4545C212.112 28.8106 212.013 29.2424 212.013 29.75ZM223.671 35.1818C222.883 35.1818 222.192 34.9943 221.597 34.6193C221.006 34.2443 220.544 33.7197 220.211 33.0455C219.881 32.3712 219.717 31.5833 219.717 30.6818C219.717 29.7727 219.881 28.9792 220.211 28.3011C220.544 27.6231 221.006 27.0966 221.597 26.7216C222.192 26.3466 222.883 26.1591 223.671 26.1591C224.459 26.1591 225.148 26.3466 225.739 26.7216C226.334 27.0966 226.796 27.6231 227.126 28.3011C227.459 28.9792 227.626 29.7727 227.626 30.6818C227.626 31.5833 227.459 32.3712 227.126 33.0455C226.796 33.7197 226.334 34.2443 225.739 34.6193C225.148 34.9943 224.459 35.1818 223.671 35.1818ZM223.671 33.9773C224.27 33.9773 224.762 33.8239 225.148 33.517C225.535 33.2102 225.821 32.8068 226.006 32.3068C226.192 31.8068 226.285 31.2652 226.285 30.6818C226.285 30.0985 226.192 29.5549 226.006 29.0511C225.821 28.5473 225.535 28.1402 225.148 27.8295C224.762 27.5189 224.27 27.3636 223.671 27.3636C223.073 27.3636 222.58 27.5189 222.194 27.8295C221.808 28.1402 221.522 28.5473 221.336 29.0511C221.15 29.5549 221.058 30.0985 221.058 30.6818C221.058 31.2652 221.15 31.8068 221.336 32.3068C221.522 32.8068 221.808 33.2102 222.194 33.517C222.58 33.8239 223.073 33.9773 223.671 33.9773ZM233.468 26.2727V27.4091H228.945V26.2727H233.468ZM230.263 24.1818H231.604V32.5C231.604 32.8788 231.659 33.1629 231.769 33.3523C231.883 33.5379 232.027 33.6629 232.201 33.7273C232.379 33.7879 232.567 33.8182 232.763 33.8182C232.911 33.8182 233.032 33.8106 233.127 33.7955C233.222 33.7765 233.298 33.7614 233.354 33.75L233.627 34.9545C233.536 34.9886 233.409 35.0227 233.246 35.0568C233.084 35.0947 232.877 35.1136 232.627 35.1136C232.248 35.1136 231.877 35.0322 231.513 34.8693C231.154 34.7064 230.854 34.4583 230.616 34.125C230.381 33.7917 230.263 33.3712 230.263 32.8636V24.1818ZM238.937 35.1818C238.149 35.1818 237.458 34.9943 236.863 34.6193C236.272 34.2443 235.81 33.7197 235.477 33.0455C235.147 32.3712 234.982 31.5833 234.982 30.6818C234.982 29.7727 235.147 28.9792 235.477 28.3011C235.81 27.6231 236.272 27.0966 236.863 26.7216C237.458 26.3466 238.149 26.1591 238.937 26.1591C239.725 26.1591 240.414 26.3466 241.005 26.7216C241.6 27.0966 242.062 27.6231 242.391 28.3011C242.725 28.9792 242.891 29.7727 242.891 30.6818C242.891 31.5833 242.725 32.3712 242.391 33.0455C242.062 33.7197 241.6 34.2443 241.005 34.6193C240.414 34.9943 239.725 35.1818 238.937 35.1818ZM238.937 33.9773C239.535 33.9773 240.028 33.8239 240.414 33.517C240.8 33.2102 241.086 32.8068 241.272 32.3068C241.458 31.8068 241.55 31.2652 241.55 30.6818C241.55 30.0985 241.458 29.5549 241.272 29.0511C241.086 28.5473 240.8 28.1402 240.414 27.8295C240.028 27.5189 239.535 27.3636 238.937 27.3636C238.338 27.3636 237.846 27.5189 237.46 27.8295C237.073 28.1402 236.787 28.5473 236.602 29.0511C236.416 29.5549 236.323 30.0985 236.323 30.6818C236.323 31.2652 236.416 31.8068 236.602 32.3068C236.787 32.8068 237.073 33.2102 237.46 33.517C237.846 33.8239 238.338 33.9773 238.937 33.9773Z" fill="#374151"/>
<path d="M133 40H117V20H133V40Z" stroke="#E5E7EB"/>
<g clip-path="url(#clip1_48_89)">
<path d="M126 25.4156V33C126 33.5531 125.553 34 125 34C124.447 34 124 33.5531 124 33V25.4156L121.706 27.7093C121.316 28.1 120.681 28.1 120.291 27.7093C119.9 27.3187 119.9 26.6843 120.291 26.2937L124.291 22.2937C124.681 21.9031 125.316 21.9031 125.706 22.2937L129.706 26.2937C130.097 26.6843 130.097 27.3187 129.706 27.7093C129.316 28.1 128.681 28.1 128.291 27.7093L126 25.4156ZM119 33H123C123 34.1031 123.897 35 125 35C126.103 35 127 34.1031 127 33H131C132.103 33 133 33.8968 133 35V36C133 37.1031 132.103 38 131 38H119C117.897 38 117 37.1031 117 36V35C117 33.8968 117.897 33 119 33ZM130.5 36.25C130.699 36.25 130.89 36.1709 131.03 36.0303C131.171 35.8896 131.25 35.6989 131.25 35.5C131.25 35.301 131.171 35.1103 131.03 34.9696C130.89 34.829 130.699 34.75 130.5 34.75C130.301 34.75 130.11 34.829 129.97 34.9696C129.829 35.1103 129.75 35.301 129.75 35.5C129.75 35.6989 129.829 35.8896 129.97 36.0303C130.11 36.1709 130.301 36.25 130.5 36.25Z" fill="#374151"/>
</g>
<path d="M101.057 65V56.2727H104.006C104.69 56.2727 105.25 56.3963 105.685 56.6435C106.122 56.8878 106.446 57.2188 106.656 57.6364C106.866 58.054 106.972 58.5199 106.972 59.0341C106.972 59.5483 106.866 60.0156 106.656 60.4361C106.449 60.8565 106.128 61.1918 105.693 61.4418C105.259 61.6889 104.702 61.8125 104.023 61.8125H101.909V60.875H103.989C104.457 60.875 104.834 60.794 105.118 60.6321C105.402 60.4702 105.608 60.2514 105.736 59.9759C105.866 59.6974 105.932 59.3835 105.932 59.0341C105.932 58.6847 105.866 58.3722 105.736 58.0966C105.608 57.821 105.401 57.6051 105.114 57.4489C104.827 57.2898 104.446 57.2102 103.972 57.2102H102.114V65H101.057ZM115.594 56.2727V65H114.572L109.816 58.1477H109.731V65H108.674V56.2727H109.697L114.469 63.142H114.555V56.2727H115.594ZM123.675 59C123.581 58.7131 123.458 58.456 123.304 58.2287C123.154 57.9986 122.973 57.8026 122.763 57.6406C122.556 57.4787 122.32 57.3551 122.056 57.2699C121.792 57.1847 121.502 57.142 121.186 57.142C120.669 57.142 120.199 57.2756 119.776 57.5426C119.353 57.8097 119.016 58.2031 118.766 58.723C118.516 59.2429 118.391 59.8807 118.391 60.6364C118.391 61.392 118.517 62.0298 118.77 62.5497C119.023 63.0696 119.365 63.4631 119.797 63.7301C120.229 63.9972 120.715 64.1307 121.255 64.1307C121.755 64.1307 122.195 64.0241 122.576 63.8111C122.959 63.5952 123.257 63.2912 123.471 62.8991C123.686 62.5043 123.794 62.0398 123.794 61.5057L124.118 61.5739H121.493V60.6364H124.817V61.5739C124.817 62.2926 124.664 62.9176 124.357 63.4489C124.053 63.9801 123.632 64.392 123.096 64.6847C122.561 64.9744 121.948 65.1193 121.255 65.1193C120.482 65.1193 119.803 64.9375 119.218 64.5739C118.635 64.2102 118.181 63.6932 117.854 63.0227C117.53 62.3523 117.368 61.5568 117.368 60.6364C117.368 59.946 117.461 59.3253 117.645 58.7741C117.833 58.2202 118.097 57.7486 118.438 57.3594C118.779 56.9702 119.182 56.6719 119.648 56.4645C120.114 56.2571 120.627 56.1534 121.186 56.1534C121.647 56.1534 122.076 56.223 122.473 56.3622C122.874 56.4986 123.23 56.6932 123.543 56.946C123.858 57.196 124.121 57.4957 124.331 57.8452C124.542 58.1918 124.686 58.5767 124.766 59H123.675ZM127.991 63.8068L127.923 64.267C127.874 64.5909 127.8 64.9375 127.701 65.3068C127.604 65.6761 127.504 66.0241 127.398 66.3509C127.293 66.6776 127.207 66.9375 127.138 67.1307H126.371C126.408 66.9489 126.457 66.7088 126.516 66.4105C126.576 66.1122 126.636 65.7784 126.695 65.4091C126.758 65.0426 126.809 64.6676 126.849 64.2841L126.9 63.8068H127.991ZM136.706 56.2727H137.763V62.5114C137.763 63.0682 137.661 63.5412 137.456 63.9304C137.252 64.3196 136.963 64.6151 136.591 64.8168C136.219 65.0185 135.78 65.1193 135.275 65.1193C134.797 65.1193 134.373 65.0327 134 64.8594C133.628 64.6832 133.336 64.4332 133.123 64.1094C132.909 63.7855 132.803 63.4006 132.803 62.9545H133.843C133.843 63.2017 133.904 63.4176 134.026 63.6023C134.151 63.7841 134.321 63.9261 134.537 64.0284C134.753 64.1307 134.999 64.1818 135.275 64.1818C135.578 64.1818 135.837 64.1179 136.05 63.9901C136.263 63.8622 136.425 63.6747 136.536 63.4276C136.65 63.1776 136.706 62.8722 136.706 62.5114V56.2727ZM139.881 65V56.2727H142.83C143.515 56.2727 144.074 56.3963 144.509 56.6435C144.946 56.8878 145.27 57.2188 145.48 57.6364C145.691 58.054 145.796 58.5199 145.796 59.0341C145.796 59.5483 145.691 60.0156 145.48 60.4361C145.273 60.8565 144.952 61.1918 144.517 61.4418C144.083 61.6889 143.526 61.8125 142.847 61.8125H140.733V60.875H142.813C143.282 60.875 143.658 60.794 143.942 60.6321C144.226 60.4702 144.432 60.2514 144.56 59.9759C144.691 59.6974 144.756 59.3835 144.756 59.0341C144.756 58.6847 144.691 58.3722 144.56 58.0966C144.432 57.821 144.225 57.6051 143.938 57.4489C143.651 57.2898 143.27 57.2102 142.796 57.2102H140.938V65H139.881ZM153.464 59C153.37 58.7131 153.247 58.456 153.093 58.2287C152.943 57.9986 152.762 57.8026 152.552 57.6406C152.345 57.4787 152.109 57.3551 151.845 57.2699C151.581 57.1847 151.291 57.142 150.975 57.142C150.458 57.142 149.988 57.2756 149.565 57.5426C149.142 57.8097 148.805 58.2031 148.555 58.723C148.305 59.2429 148.18 59.8807 148.18 60.6364C148.18 61.392 148.306 62.0298 148.559 62.5497C148.812 63.0696 149.154 63.4631 149.586 63.7301C150.018 63.9972 150.504 64.1307 151.044 64.1307C151.544 64.1307 151.984 64.0241 152.365 63.8111C152.748 63.5952 153.047 63.2912 153.26 62.8991C153.475 62.5043 153.583 62.0398 153.583 61.5057L153.907 61.5739H151.282V60.6364H154.606V61.5739C154.606 62.2926 154.453 62.9176 154.146 63.4489C153.842 63.9801 153.422 64.392 152.885 64.6847C152.35 64.9744 151.737 65.1193 151.044 65.1193C150.271 65.1193 149.592 64.9375 149.007 64.5739C148.424 64.2102 147.97 63.6932 147.643 63.0227C147.319 62.3523 147.157 61.5568 147.157 60.6364C147.157 59.946 147.25 59.3253 147.434 58.7741C147.622 58.2202 147.886 57.7486 148.227 57.3594C148.568 56.9702 148.971 56.6719 149.437 56.4645C149.903 56.2571 150.416 56.1534 150.975 56.1534C151.436 56.1534 151.865 56.223 152.262 56.3622C152.663 56.4986 153.02 56.6932 153.332 56.946C153.647 57.196 153.91 57.4957 154.12 57.8452C154.331 58.1918 154.475 58.5767 154.555 59H153.464ZM162.314 65.1364C161.723 65.1364 161.205 64.9957 160.759 64.7145C160.315 64.4332 159.969 64.0398 159.719 63.5341C159.472 63.0284 159.348 62.4375 159.348 61.7614C159.348 61.0795 159.472 60.4844 159.719 59.9759C159.969 59.4673 160.315 59.0724 160.759 58.7912C161.205 58.5099 161.723 58.3693 162.314 58.3693C162.905 58.3693 163.422 58.5099 163.865 58.7912C164.311 59.0724 164.658 59.4673 164.905 59.9759C165.155 60.4844 165.28 61.0795 165.28 61.7614C165.28 62.4375 165.155 63.0284 164.905 63.5341C164.658 64.0398 164.311 64.4332 163.865 64.7145C163.422 64.9957 162.905 65.1364 162.314 65.1364ZM162.314 64.233C162.763 64.233 163.132 64.1179 163.422 63.8878C163.712 63.6577 163.926 63.3551 164.065 62.9801C164.205 62.6051 164.274 62.1989 164.274 61.7614C164.274 61.3239 164.205 60.9162 164.065 60.5384C163.926 60.1605 163.712 59.8551 163.422 59.6222C163.132 59.3892 162.763 59.2727 162.314 59.2727C161.865 59.2727 161.496 59.3892 161.206 59.6222C160.916 59.8551 160.702 60.1605 160.562 60.5384C160.423 60.9162 160.354 61.3239 160.354 61.7614C160.354 62.1989 160.423 62.6051 160.562 62.9801C160.702 63.3551 160.916 63.6577 161.206 63.8878C161.496 64.1179 161.865 64.233 162.314 64.233ZM166.815 65V58.4545H167.787V59.4432H167.855C167.974 59.1193 168.19 58.8565 168.502 58.6548C168.815 58.4531 169.167 58.3523 169.559 58.3523C169.633 58.3523 169.725 58.3537 169.836 58.3565C169.947 58.3594 170.031 58.3636 170.088 58.3693V59.392C170.054 59.3835 169.975 59.3707 169.853 59.3537C169.734 59.3338 169.608 59.3239 169.474 59.3239C169.156 59.3239 168.872 59.3906 168.622 59.5241C168.375 59.6548 168.179 59.8366 168.034 60.0696C167.892 60.2997 167.821 60.5625 167.821 60.858V65H166.815ZM180.757 59C180.663 58.7131 180.54 58.456 180.386 58.2287C180.236 57.9986 180.055 57.8026 179.845 57.6406C179.638 57.4787 179.402 57.3551 179.138 57.2699C178.874 57.1847 178.584 57.142 178.268 57.142C177.751 57.142 177.281 57.2756 176.858 57.5426C176.435 57.8097 176.098 58.2031 175.848 58.723C175.598 59.2429 175.473 59.8807 175.473 60.6364C175.473 61.392 175.599 62.0298 175.852 62.5497C176.105 63.0696 176.447 63.4631 176.879 63.7301C177.311 63.9972 177.797 64.1307 178.337 64.1307C178.837 64.1307 179.277 64.0241 179.658 63.8111C180.041 63.5952 180.339 63.2912 180.553 62.8991C180.768 62.5043 180.876 62.0398 180.876 61.5057L181.2 61.5739H178.575V60.6364H181.899V61.5739C181.899 62.2926 181.746 62.9176 181.439 63.4489C181.135 63.9801 180.714 64.392 180.178 64.6847C179.643 64.9744 179.03 65.1193 178.337 65.1193C177.564 65.1193 176.885 64.9375 176.3 64.5739C175.717 64.2102 175.263 63.6932 174.936 63.0227C174.612 62.3523 174.45 61.5568 174.45 60.6364C174.45 59.946 174.543 59.3253 174.727 58.7741C174.915 58.2202 175.179 57.7486 175.52 57.3594C175.861 56.9702 176.264 56.6719 176.73 56.4645C177.196 56.2571 177.709 56.1534 178.268 56.1534C178.729 56.1534 179.158 56.223 179.555 56.3622C179.956 56.4986 180.312 56.6932 180.625 56.946C180.94 57.196 181.203 57.4957 181.413 57.8452C181.624 58.1918 181.768 58.5767 181.848 59H180.757ZM184.766 56.2727V65H183.709V56.2727H184.766ZM186.885 65V56.2727H192.118V57.2102H187.942V60.1591H191.726V61.0966H187.942V65H186.885ZM194.811 63.8068L194.743 64.267C194.695 64.5909 194.621 64.9375 194.521 65.3068C194.425 65.6761 194.324 66.0241 194.219 66.3509C194.114 66.6776 194.027 66.9375 193.959 67.1307H193.192C193.229 66.9489 193.277 66.7088 193.337 66.4105C193.396 66.1122 193.456 65.7784 193.516 65.4091C193.578 65.0426 193.629 64.6676 193.669 64.2841L193.72 63.8068H194.811ZM200.049 65V58.4545H201.021V59.4773H201.106C201.243 59.1278 201.463 58.8565 201.767 58.6634C202.071 58.4673 202.436 58.3693 202.862 58.3693C203.294 58.3693 203.653 58.4673 203.94 58.6634C204.23 58.8565 204.456 59.1278 204.618 59.4773H204.686C204.853 59.1392 205.105 58.8707 205.44 58.6719C205.775 58.4702 206.177 58.3693 206.646 58.3693C207.231 58.3693 207.71 58.5526 208.082 58.919C208.454 59.2827 208.64 59.8494 208.64 60.6193V65H207.635V60.6193C207.635 60.1364 207.502 59.7912 207.238 59.5838C206.974 59.3764 206.663 59.2727 206.305 59.2727C205.845 59.2727 205.488 59.4119 205.235 59.6903C204.983 59.9659 204.856 60.3153 204.856 60.7386V65H203.833V60.517C203.833 60.1449 203.713 59.8452 203.471 59.6179C203.23 59.3878 202.919 59.2727 202.538 59.2727C202.277 59.2727 202.032 59.3423 201.805 59.4815C201.581 59.6207 201.399 59.8139 201.26 60.0611C201.123 60.3054 201.055 60.5881 201.055 60.9091V65H200.049ZM212.405 65.1534C211.99 65.1534 211.614 65.0753 211.276 64.919C210.938 64.7599 210.669 64.5312 210.471 64.233C210.272 63.9318 210.172 63.5682 210.172 63.142C210.172 62.767 210.246 62.4631 210.394 62.2301C210.542 61.9943 210.739 61.8097 210.986 61.6761C211.233 61.5426 211.506 61.4432 211.804 61.3778C212.105 61.3097 212.408 61.2557 212.712 61.2159C213.11 61.1648 213.432 61.1264 213.679 61.1009C213.929 61.0724 214.111 61.0256 214.225 60.9602C214.341 60.8949 214.4 60.7812 214.4 60.6193V60.5852C214.4 60.1648 214.284 59.8381 214.054 59.6051C213.827 59.3722 213.482 59.2557 213.019 59.2557C212.539 59.2557 212.162 59.3608 211.89 59.571C211.617 59.7812 211.425 60.0057 211.314 60.2443L210.36 59.9034C210.53 59.5057 210.757 59.196 211.042 58.9744C211.328 58.75 211.641 58.5937 211.979 58.5057C212.32 58.4148 212.655 58.3693 212.985 58.3693C213.195 58.3693 213.436 58.3949 213.709 58.446C213.985 58.4943 214.25 58.5952 214.506 58.7486C214.765 58.902 214.979 59.1335 215.15 59.4432C215.32 59.7528 215.405 60.1676 215.405 60.6875V65H214.4V64.1136H214.348C214.28 64.2557 214.167 64.4077 214.007 64.5696C213.848 64.7315 213.637 64.8693 213.373 64.983C213.108 65.0966 212.786 65.1534 212.405 65.1534ZM212.559 64.25C212.956 64.25 213.292 64.1719 213.564 64.0156C213.84 63.8594 214.047 63.6577 214.186 63.4105C214.328 63.1634 214.4 62.9034 214.4 62.6307V61.7102C214.357 61.7614 214.263 61.8082 214.118 61.8509C213.976 61.8906 213.811 61.9261 213.624 61.9574C213.439 61.9858 213.259 62.0114 213.083 62.0341C212.909 62.054 212.769 62.071 212.661 62.0852C212.4 62.1193 212.155 62.1747 211.928 62.2514C211.703 62.3253 211.522 62.4375 211.382 62.5881C211.246 62.7358 211.178 62.9375 211.178 63.1932C211.178 63.5426 211.307 63.8068 211.566 63.9858C211.827 64.1619 212.158 64.25 212.559 64.25ZM217.991 58.4545L219.559 61.1307L221.127 58.4545H222.286L220.173 61.7273L222.286 65H221.127L219.559 62.4602L217.991 65H216.832L218.911 61.7273L216.832 58.4545H217.991ZM229.806 65.1193C229.306 65.1193 228.856 65.0199 228.456 64.821C228.055 64.6222 227.734 64.3494 227.493 64.0028C227.251 63.6562 227.119 63.2614 227.096 62.8182H228.119C228.159 63.2131 228.338 63.5398 228.656 63.7983C228.977 64.054 229.36 64.1818 229.806 64.1818C230.164 64.1818 230.483 64.098 230.761 63.9304C231.042 63.7628 231.262 63.5327 231.422 63.2401C231.583 62.9446 231.664 62.6108 231.664 62.2386C231.664 61.858 231.581 61.5185 231.413 61.2202C231.248 60.919 231.021 60.6818 230.731 60.5085C230.441 60.3352 230.11 60.2472 229.738 60.2443C229.471 60.2415 229.197 60.2827 228.916 60.3679C228.635 60.4503 228.403 60.5568 228.221 60.6875L227.233 60.5682L227.761 56.2727H232.295V57.2102H228.647L228.341 59.7841H228.392C228.571 59.642 228.795 59.5241 229.065 59.4304C229.335 59.3366 229.616 59.2898 229.909 59.2898C230.443 59.2898 230.919 59.4176 231.336 59.6733C231.757 59.9261 232.086 60.2727 232.325 60.7131C232.566 61.1534 232.687 61.6562 232.687 62.2216C232.687 62.7784 232.562 63.2756 232.312 63.7131C232.065 64.1477 231.724 64.4915 231.289 64.7443C230.855 64.9943 230.36 65.1193 229.806 65.1193ZM234.533 56.2727H235.795L238.761 63.517H238.863L241.829 56.2727H243.09V65H242.102V58.3693H242.016L239.289 65H238.335L235.607 58.3693H235.522V65H234.533V56.2727ZM245.209 65V56.2727H248.26C248.868 56.2727 249.37 56.3778 249.765 56.5881C250.159 56.7955 250.453 57.0753 250.647 57.4276C250.84 57.777 250.936 58.1648 250.936 58.5909C250.936 58.9659 250.87 59.2756 250.736 59.5199C250.605 59.7642 250.432 59.9574 250.216 60.0994C250.003 60.2415 249.772 60.3466 249.522 60.4148V60.5C249.789 60.517 250.057 60.6108 250.327 60.7812C250.597 60.9517 250.823 61.196 251.005 61.5142C251.186 61.8324 251.277 62.2216 251.277 62.6818C251.277 63.1193 251.178 63.5128 250.979 63.8622C250.78 64.2116 250.466 64.4886 250.037 64.6932C249.608 64.8977 249.05 65 248.363 65H245.209ZM246.266 64.0625H248.363C249.053 64.0625 249.543 63.929 249.833 63.6619C250.125 63.392 250.272 63.0653 250.272 62.6818C250.272 62.3864 250.196 62.1136 250.046 61.8636C249.895 61.6108 249.681 61.4091 249.402 61.2585C249.124 61.1051 248.794 61.0284 248.414 61.0284H246.266V64.0625ZM246.266 60.108H248.226C248.544 60.108 248.831 60.0455 249.087 59.9205C249.346 59.7955 249.55 59.6193 249.701 59.392C249.854 59.1648 249.931 58.8977 249.931 58.5909C249.931 58.2074 249.797 57.8821 249.53 57.6151C249.263 57.3452 248.84 57.2102 248.26 57.2102H246.266V60.108Z" fill="#6B7280"/>
<defs>
<clipPath id="clip0_48_89">
<path d="M25 25H55V55H25V25Z" fill="white"/>
</clipPath>
<clipPath id="clip1_48_89">
<path d="M117 22H133V38H117V22Z" fill="white"/>
</clipPath>
</defs>
</svg>
