<svg width="16" height="21" viewBox="0 0 16 21" fill="none" xmlns="http://www.w3.org/2000/svg">
<g clip-path="url(#clip0_368_364)">
<path d="M3 0.5C1.62109 0.5 0.5 1.62109 0.5 3V18C0.5 19.3789 1.62109 20.5 3 20.5H13C14.3789 20.5 15.5 19.3789 15.5 18V6.75H10.5C9.80859 6.75 9.25 6.19141 9.25 5.5V0.5H3ZM10.5 0.5V5.5H15.5L10.5 0.5ZM8.9375 16.4375C8.9375 16.957 8.51953 17.375 8 17.375C7.48047 17.375 7.0625 16.957 7.0625 16.4375V12.4492L5.85156 13.6602C5.48438 14.0273 4.89062 14.0273 4.52734 13.6602C4.16406 13.293 4.16016 12.6992 4.52734 12.3359L7.33984 9.52344C7.70703 9.15625 8.30078 9.15625 8.66406 9.52344L11.4766 12.3359C11.8438 12.7031 11.8438 13.2969 11.4766 13.6602C11.1094 14.0234 10.5156 14.0273 10.1523 13.6602L8.94141 12.4492V16.4375H8.9375Z" fill="white"/>
</g>
<defs>
<clipPath id="clip0_368_364">
<path d="M0.5 0.5H15.5V20.5H0.5V0.5Z" fill="white"/>
</clipPath>
</defs>
</svg>
