<svg width="37" height="49" viewBox="0 0 37 49" fill="none" xmlns="http://www.w3.org/2000/svg">
<g clip-path="url(#clip0_327_622)">
<path d="M6.65625 0.5C3.34688 0.5 0.65625 3.19063 0.65625 6.5V42.5C0.65625 45.8094 3.34688 48.5 6.65625 48.5H30.6562C33.9656 48.5 36.6562 45.8094 36.6562 42.5V15.5H24.6562C22.9969 15.5 21.6562 14.1594 21.6562 12.5V0.5H6.65625ZM24.6562 0.5V12.5H36.6562L24.6562 0.5ZM20.9062 38.75C20.9062 39.9969 19.9031 41 18.6562 41C17.4094 41 16.4062 39.9969 16.4062 38.75V29.1781L13.5 32.0844C12.6187 32.9656 11.1937 32.9656 10.3219 32.0844C9.45 31.2031 9.44063 29.7781 10.3219 28.9062L17.0719 22.1562C17.9531 21.275 19.3781 21.275 20.25 22.1562L27 28.9062C27.8813 29.7875 27.8813 31.2125 27 32.0844C26.1187 32.9562 24.6938 32.9656 23.8219 32.0844L20.9156 29.1781V38.75H20.9062Z" fill="#4A3B32"/>
</g>
<defs>
<clipPath id="clip0_327_622">
<path d="M0.65625 0.5H36.6562V48.5H0.65625V0.5Z" fill="white"/>
</clipPath>
</defs>
</svg>
