<svg width="30" height="24" viewBox="0 0 30 24" fill="none" xmlns="http://www.w3.org/2000/svg">
<path d="M27.1785 12.5484C29.827 9.90001 29.827 5.61095 27.1785 2.96251C24.8348 0.618761 21.141 0.314073 18.4457 2.24064L18.3707 2.2922C17.6957 2.77501 17.541 3.71251 18.0238 4.38282C18.5066 5.05314 19.4441 5.21251 20.1145 4.7297L20.1895 4.67814C21.6941 3.6047 23.752 3.77345 25.0551 5.08126C26.5316 6.55782 26.5316 8.94845 25.0551 10.425L19.7957 15.6938C18.3191 17.1703 15.9285 17.1703 14.452 15.6938C13.1441 14.3859 12.9754 12.3281 14.0488 10.8281L14.1004 10.7531C14.5832 10.0781 14.4238 9.14064 13.7535 8.66251C13.0832 8.18439 12.141 8.33907 11.6629 9.00939L11.6113 9.08439C9.68008 11.775 9.98477 15.4688 12.3285 17.8125C14.977 20.461 19.266 20.461 21.9145 17.8125L27.1785 12.5484ZM2.82227 11.4516C0.173828 14.1 0.173828 18.3891 2.82227 21.0375C5.16602 23.3813 8.85977 23.686 11.5551 21.7594L11.6301 21.7078C12.3051 21.225 12.4598 20.2875 11.977 19.6172C11.4941 18.9469 10.5566 18.7875 9.88633 19.2703L9.81133 19.3219C8.30664 20.3953 6.24883 20.2266 4.9457 18.9188C3.46914 17.4375 3.46914 15.0469 4.9457 13.5703L10.2051 8.30626C11.6816 6.8297 14.0723 6.8297 15.5488 8.30626C16.8566 9.61407 17.0254 11.6719 15.952 13.1766L15.9004 13.2516C15.4176 13.9266 15.577 14.8641 16.2473 15.3422C16.9176 15.8203 17.8598 15.6656 18.3379 14.9953L18.3895 14.9203C20.3207 12.225 20.016 8.53126 17.6723 6.18751C15.0238 3.53907 10.7348 3.53907 8.08633 6.18751L2.82227 11.4516Z" fill="#6B7280"/>
</svg>
