<svg width="14" height="12" viewBox="0 0 14 12" fill="none" xmlns="http://www.w3.org/2000/svg">
<g clip-path="url(#clip0_2_663)">
<path d="M0.25 3C0.25 2.17266 0.922656 1.5 1.75 1.5H7.75C8.57734 1.5 9.25 2.17266 9.25 3V9C9.25 9.82734 8.57734 10.5 7.75 10.5H1.75C0.922656 10.5 0.25 9.82734 0.25 9V3ZM13.3539 2.33906C13.5977 2.47031 13.75 2.72344 13.75 3V9C13.75 9.27656 13.5977 9.52969 13.3539 9.66094C13.1102 9.79219 12.8148 9.77812 12.5828 9.62344L10.3328 8.12344L10 7.90078V7.5V4.5V4.09922L10.3328 3.87656L12.5828 2.37656C12.8125 2.22422 13.1078 2.20781 13.3539 2.33906Z" fill="#6D28D9"/>
</g>
<defs>
<clipPath id="clip0_2_663">
<path d="M0.25 0H13.75V12H0.25V0Z" fill="white"/>
</clipPath>
</defs>
</svg>
