<svg width="9" height="13" viewBox="0 0 9 13" fill="none" xmlns="http://www.w3.org/2000/svg">
<g clip-path="url(#clip0_475_717)">
<path d="M4.5 12.5C2.01562 12.5 0 10.4844 0 8C0 5.8625 3.05156 1.85234 3.90469 0.774219C4.04531 0.598437 4.25391 0.5 4.47891 0.5H4.52109C4.74609 0.5 4.95469 0.598437 5.09531 0.774219C5.94844 1.85234 9 5.8625 9 8C9 10.4844 6.98438 12.5 4.5 12.5ZM2.25 8.375C2.25 8.16875 2.08125 8 1.875 8C1.66875 8 1.5 8.16875 1.5 8.375C1.5 9.82578 2.67422 11 4.125 11C4.33125 11 4.5 10.8313 4.5 10.625C4.5 10.4187 4.33125 10.25 4.125 10.25C3.08906 10.25 2.25 9.41094 2.25 8.375Z" fill="#355E3B"/>
</g>
<defs>
<clipPath id="clip0_475_717">
<path d="M0 0.5H9V12.5H0V0.5Z" fill="white"/>
</clipPath>
</defs>
</svg>
