<svg width="16" height="15" viewBox="0 0 16 15" fill="none" xmlns="http://www.w3.org/2000/svg">
<g clip-path="url(#clip0_410_902)">
<g clip-path="url(#clip1_410_902)">
<path d="M15.0295 4.14289C14.8578 3.49621 14.3517 2.98691 13.7092 2.81407C12.5447 2.5 7.87488 2.5 7.87488 2.5C7.87488 2.5 3.20511 2.5 2.04052 2.81407C1.39802 2.98694 0.891996 3.49621 0.72025 4.14289C0.408203 5.31504 0.408203 7.76061 0.408203 7.76061C0.408203 7.76061 0.408203 10.2062 0.72025 11.3783C0.891996 12.025 1.39802 12.5131 2.04052 12.6859C3.20511 13 7.87488 13 7.87488 13C7.87488 13 12.5446 13 13.7092 12.6859C14.3517 12.5131 14.8578 12.025 15.0295 11.3783C15.3416 10.2062 15.3416 7.76061 15.3416 7.76061C15.3416 7.76061 15.3416 5.31504 15.0295 4.14289ZM6.34759 9.981V5.54021L10.2506 7.76066L6.34759 9.981Z" fill="#EF4444"/>
</g>
</g>
<defs>
<clipPath id="clip0_410_902">
<rect width="15.75" height="14" fill="white" transform="translate(0 0.75)"/>
</clipPath>
<clipPath id="clip1_410_902">
<path d="M0 0.75H15.75V14.75H0V0.75Z" fill="white"/>
</clipPath>
</defs>
</svg>
